<svg width="232" height="206" viewBox="0 0 232 206" fill="none" xmlns="http://www.w3.org/2000/svg">
<path d="M117.031 0L28.0625 51.898L115.442 102.737L203.351 51.898L117.031 0Z" fill="#E84461"/>
<path d="M115.438 103.796C115.438 103.796 114.909 103.796 115.438 103.796L27.5294 52.9571C26.9999 52.9571 27 52.4275 27 52.4275C27 51.8979 26.9999 51.898 27.5294 51.898L116.498 0C117.027 0 117.027 0 117.557 0L203.877 51.898C204.406 51.898 204.406 52.4275 204.406 52.4275C204.406 52.9571 204.406 52.9571 203.877 52.9571L115.438 103.796C115.438 103.796 115.968 103.796 115.438 103.796ZM29.6479 51.898L115.438 101.678L201.759 51.898L117.027 1.05913L29.6479 51.898Z" fill="#C3002F"/>
<path d="M28.0625 154.104V51.8965L115.441 102.735L115.971 204.942L28.0625 154.104Z" fill="#671524"/>
<path d="M115.968 205.999C115.968 205.999 115.438 205.999 115.968 205.999L27.5294 155.161C26.9999 155.161 27 154.631 27 154.631V51.8948C27 51.3652 26.9999 51.3652 27.5294 51.3652C28.059 51.3652 28.0591 51.3652 28.5886 51.3652L115.968 102.204C116.497 102.204 116.497 102.733 116.497 102.733L117.027 204.94C117.027 205.47 116.497 205.47 115.968 205.999C115.968 205.999 116.497 205.999 115.968 205.999ZM29.1182 153.572L115.438 203.351L114.908 103.263L29.1182 53.4835V153.572Z" fill="#C3002F"/>
<path d="M203.339 51.8965V154.633L115.959 204.942L115.43 102.735L203.339 51.8965Z" fill="#BC0949"/>
<path d="M115.987 205.999C115.987 205.999 115.458 205.999 115.987 205.999C115.458 205.47 114.928 205.47 114.928 204.94L114.398 102.733C114.398 102.204 114.398 102.204 114.928 102.204L202.836 51.3652C203.366 51.3652 203.366 51.3652 203.896 51.3652C204.425 51.3652 204.425 51.8948 204.425 51.8948V154.631C204.425 155.161 204.425 155.161 203.896 155.161L115.987 205.999C115.987 205.999 116.517 205.999 115.987 205.999ZM116.517 103.263L117.046 203.351L202.836 154.102V53.4835L116.517 103.263Z" fill="#C3002F"/>
</svg>
