<?xml version="1.0" encoding="utf-8"?>
<!-- Generator: Adobe Illustrator 25.0.1, SVG Export Plug-In . SVG Version: 6.00 Build 0)  -->
<svg version="1.1" id="Layer_1" xmlns="http://www.w3.org/2000/svg" xmlns:xlink="http://www.w3.org/1999/xlink" x="0px" y="0px"
	 viewBox="0 0 24 24" style="enable-background:new 0 0 24 24;" xml:space="preserve">
<style type="text/css">
	.st0{fill:#9B9BF9;}
</style>
<g id="f3d24642-6f0b-4373-916b-7d2e4927a0d5">
	<path class="st0" d="M23.6,0.7v0.2l0.2,0.2v0.7L24,2v16.7c0.1,1-0.7,1.9-1.7,2s-1.9-0.7-2-1.7v-0.1V6.3L3.1,23.5
		c-0.8,0.7-1.9,0.6-2.6-0.1c-0.6-0.6-0.6-1.6-0.2-2.3v-0.2L17.9,3.7H5.5C4.5,3.7,3.7,3,3.7,2V1.9c0-1,0.7-1.8,1.7-1.9h17.4l0.4,0.2
		L23.6,0.7L23.6,0.7z"/>
</g>
</svg>
