<svg width="129" height="24" viewBox="0 0 129 24" fill="none" xmlns="http://www.w3.org/2000/svg">
<rect x="89.75" y="2.75" width="38.5" height="18.5" rx="4.25" stroke="#444444" stroke-width="1.5"/>
<path fill-rule="evenodd" clip-rule="evenodd" d="M16.334 2H7.665C4.26742 2 2 4.4326 2 7.916V16.084C2 19.5707 4.26137 22 7.665 22H16.333C19.7376 22 22 19.5707 22 16.084V7.916C22 4.42951 19.7378 2 16.334 2ZM7.665 3.5H16.334C18.8845 3.5 20.5 5.23497 20.5 7.916V16.084C20.5 18.7651 18.8844 20.5 16.333 20.5H7.665C5.11476 20.5 3.5 18.7653 3.5 16.084V7.916C3.5 5.23838 5.12034 3.5 7.665 3.5Z" fill="#8094FF"/>
<path d="M9.84659 7.80078L11.956 14.4315H12.0369L14.1506 7.80078H16.196L13.1875 16.5281H10.8097L7.79688 7.80078H9.84659Z" fill="#8094FF"/>
<path fill-rule="evenodd" clip-rule="evenodd" d="M45.334 2H36.665C33.2674 2 31 4.4326 31 7.916V16.084C31 19.5707 33.2614 22 36.665 22H45.333C48.7376 22 51 19.5707 51 16.084V7.916C51 4.42951 48.7378 2 45.334 2ZM36.665 3.5H45.334C47.8845 3.5 49.5 5.23497 49.5 7.916V16.084C49.5 18.7651 47.8844 20.5 45.333 20.5H36.665C34.1148 20.5 32.5 18.7653 32.5 16.084V7.916C32.5 5.23838 34.1203 3.5 36.665 3.5Z" fill="#F5A938"/>
<path d="M36.2969 7.80078H38.5724L40.9759 13.6644H41.0781L43.4815 7.80078H45.7571V16.5281H43.9673V10.8477H43.8949L41.6364 16.4854H40.4176L38.1591 10.8263H38.0866V16.5281H36.2969V7.80078Z" fill="#F5A938"/>
<path fill-rule="evenodd" clip-rule="evenodd" d="M74.334 2H65.665C62.2674 2 60 4.4326 60 7.916V16.084C60 19.5707 62.2614 22 65.665 22H74.333C77.7376 22 80 19.5707 80 16.084V7.916C80 4.42951 77.7378 2 74.334 2ZM65.665 3.5H74.334C76.8845 3.5 78.5 5.23497 78.5 7.916V16.084C78.5 18.7651 76.8844 20.5 74.333 20.5H65.665C63.1148 20.5 61.5 18.7653 61.5 16.084V7.916C61.5 5.23838 63.1203 3.5 65.665 3.5Z" fill="#33B57B"/>
<path d="M71.8906 8H73.7358V13.6676C73.7358 14.304 73.5838 14.8608 73.2798 15.3381C72.9787 15.8153 72.5568 16.1875 72.0142 16.4545C71.4716 16.7188 70.8395 16.8509 70.1179 16.8509C69.3935 16.8509 68.7599 16.7188 68.2173 16.4545C67.6747 16.1875 67.2528 15.8153 66.9517 15.3381C66.6506 14.8608 66.5 14.304 66.5 13.6676V8H68.3452V13.5099C68.3452 13.8423 68.4176 14.1378 68.5625 14.3963C68.7102 14.6548 68.9176 14.858 69.1847 15.0057C69.4517 15.1534 69.7628 15.2273 70.1179 15.2273C70.4759 15.2273 70.7869 15.1534 71.0511 15.0057C71.3182 14.858 71.5241 14.6548 71.669 14.3963C71.8168 14.1378 71.8906 13.8423 71.8906 13.5099V8Z" fill="#33B57B"/>
<path d="M96.6602 16.4999V7.77264H102.745V9.48571H98.7695V11.2755H102.434V12.9928H98.7695V14.7868H102.745V16.4999H96.6602Z" fill="#444444"/>
<path d="M112.468 10.9346H110.338C110.309 10.7158 110.251 10.5184 110.163 10.3422C110.075 10.1661 109.958 10.0155 109.813 9.89054C109.669 9.76554 109.497 9.67037 109.298 9.60503C109.102 9.53684 108.884 9.50275 108.646 9.50275C108.223 9.50275 107.857 9.60645 107.551 9.81383C107.247 10.0212 107.012 10.3209 106.848 10.713C106.686 11.105 106.605 11.5795 106.605 12.1363C106.605 12.7158 106.687 13.2016 106.852 13.5937C107.019 13.9829 107.254 14.2769 107.555 14.4758C107.859 14.6718 108.218 14.7698 108.633 14.7698C108.866 14.7698 109.078 14.74 109.268 14.6803C109.461 14.6207 109.63 14.534 109.775 14.4204C109.923 14.3039 110.044 14.1633 110.137 13.9985C110.234 13.8309 110.301 13.642 110.338 13.4317L112.468 13.4445C112.431 13.8309 112.319 14.2116 112.132 14.5866C111.947 14.9616 111.693 15.3039 111.369 15.6135C111.045 15.9204 110.65 16.1647 110.184 16.3465C109.721 16.5283 109.19 16.6192 108.59 16.6192C107.801 16.6192 107.093 16.4459 106.468 16.0993C105.846 15.7499 105.355 15.2414 104.994 14.5738C104.633 13.9062 104.453 13.0937 104.453 12.1363C104.453 11.176 104.636 10.3621 105.002 9.69451C105.369 9.0269 105.865 8.5198 106.49 8.17321C107.115 7.82662 107.815 7.65332 108.59 7.65332C109.119 7.65332 109.607 7.72718 110.056 7.87491C110.505 8.0198 110.9 8.23287 111.241 8.51412C111.582 8.79253 111.859 9.13485 112.072 9.5411C112.285 9.94735 112.417 10.4118 112.468 10.9346Z" fill="#444444"/>
<path d="M122.077 10.9346H119.947C119.918 10.7158 119.86 10.5184 119.772 10.3422C119.684 10.1661 119.567 10.0155 119.422 9.89054C119.277 9.76554 119.106 9.67037 118.907 9.60503C118.711 9.53684 118.493 9.50275 118.255 9.50275C117.831 9.50275 117.466 9.60645 117.16 9.81383C116.856 10.0212 116.621 10.3209 116.456 10.713C116.295 11.105 116.214 11.5795 116.214 12.1363C116.214 12.7158 116.296 13.2016 116.461 13.5937C116.628 13.9829 116.863 14.2769 117.164 14.4758C117.468 14.6718 117.827 14.7698 118.242 14.7698C118.475 14.7698 118.687 14.74 118.877 14.6803C119.07 14.6207 119.239 14.534 119.384 14.4204C119.532 14.3039 119.652 14.1633 119.746 13.9985C119.843 13.8309 119.91 13.642 119.947 13.4317L122.077 13.4445C122.04 13.8309 121.928 14.2116 121.741 14.5866C121.556 14.9616 121.302 15.3039 120.978 15.6135C120.654 15.9204 120.259 16.1647 119.793 16.3465C119.33 16.5283 118.799 16.6192 118.199 16.6192C117.41 16.6192 116.702 16.4459 116.077 16.0993C115.455 15.7499 114.964 15.2414 114.603 14.5738C114.242 13.9062 114.062 13.0937 114.062 12.1363C114.062 11.176 114.245 10.3621 114.611 9.69451C114.978 9.0269 115.473 8.5198 116.098 8.17321C116.723 7.82662 117.424 7.65332 118.199 7.65332C118.728 7.65332 119.216 7.72718 119.665 7.87491C120.114 8.0198 120.509 8.23287 120.85 8.51412C121.191 8.79253 121.468 9.13485 121.681 9.5411C121.894 9.94735 122.026 10.4118 122.077 10.9346Z" fill="#444444"/>
</svg>
