<svg width="24" height="24" viewBox="0 0 24 24" fill="none" xmlns="http://www.w3.org/2000/svg">
<path d="M22.0596 5.48295C21.7599 5.02296 21.107 4.96196 20.7188 5.35016C20.4316 5.63733 20.3798 6.08652 20.6019 6.42672C21.78 8.23381 22.4111 10.4271 22.2345 12.779C21.8655 17.699 17.934 21.7357 13.0232 22.2137C6.56192 22.8428 1.15688 17.4377 1.78638 10.9769C2.25306 6.18416 6.11359 2.3007 10.9021 1.79469C13.3743 1.53337 15.6848 2.16791 17.5737 3.39893C17.9139 3.62061 18.3631 3.56884 18.6503 3.28159C19.0385 2.8934 18.9776 2.24049 18.5176 1.94072C16.1623 0.405898 13.2444 -0.331249 10.1377 0.14253C5.02694 0.922311 0.926765 5.00578 0.144462 10.1162C-1.09286 18.1996 5.79916 25.0921 13.883 23.8556C18.9938 23.0742 23.0777 18.974 23.8575 13.8632C24.3317 10.7565 23.5941 7.83813 22.0596 5.48295Z" fill="black"/>
<path d="M11.8259 13.7854V7.28625C11.8259 6.80704 11.4372 6.41798 10.9576 6.41798C10.478 6.41798 10.0893 6.80664 10.0893 7.28625V14.6533C10.0893 15.1325 10.478 15.5216 10.9576 15.5216H18.3247C18.8043 15.5216 19.1926 15.1329 19.1926 14.6533C19.1926 14.1741 18.8039 13.7854 18.3247 13.7854H11.8259Z" fill="black"/>
</svg>
