<svg width="114" height="26" viewBox="0 0 114 26" fill="none" xmlns="http://www.w3.org/2000/svg">
<path d="M0 13C0 5.8203 5.8203 0 13 0H101C108.18 0 114 5.8203 114 13V13C114 20.1797 108.18 26 101 26H13C5.8203 26 0 20.1797 0 13V13Z" fill="#ECFDF5"/>
<circle cx="15" cy="13" r="3" fill="#059669"/>
<path d="M35.7091 11.1293H34.1579C34.0983 10.7978 33.9872 10.5062 33.8248 10.2543C33.6624 10.0024 33.4636 9.78859 33.2282 9.61293C32.9929 9.43726 32.7294 9.30469 32.4378 9.2152C32.1494 9.12571 31.8428 9.08097 31.518 9.08097C30.9314 9.08097 30.406 9.22846 29.942 9.52344C29.4813 9.81842 29.1167 10.2509 28.8483 10.821C28.5831 11.3911 28.4506 12.0871 28.4506 12.9091C28.4506 13.7377 28.5831 14.437 28.8483 15.0071C29.1167 15.5772 29.483 16.008 29.947 16.2997C30.411 16.5914 30.933 16.7372 31.5131 16.7372C31.8345 16.7372 32.1395 16.6941 32.4278 16.608C32.7195 16.5185 32.983 16.3875 33.2183 16.2152C33.4536 16.0429 33.6525 15.8324 33.8149 15.5838C33.9806 15.3319 34.095 15.0436 34.1579 14.7188L35.7091 14.7237C35.6262 15.2242 35.4655 15.6849 35.2268 16.1058C34.9915 16.5234 34.6882 16.8847 34.317 17.1896C33.9491 17.4912 33.5282 17.7249 33.0542 17.8906C32.5803 18.0563 32.0632 18.1392 31.5031 18.1392C30.6215 18.1392 29.836 17.9304 29.1466 17.5128C28.4572 17.0919 27.9136 16.4903 27.5159 15.7081C27.1215 14.9259 26.9243 13.9929 26.9243 12.9091C26.9243 11.822 27.1231 10.889 27.5209 10.1101C27.9186 9.32789 28.4622 8.72798 29.1515 8.31037C29.8409 7.88944 30.6248 7.67898 31.5031 7.67898C32.0434 7.67898 32.5471 7.75687 33.0145 7.91264C33.4851 8.0651 33.9077 8.29048 34.2822 8.58878C34.6568 8.88376 34.9666 9.24503 35.2119 9.67258C35.4572 10.0968 35.6229 10.5824 35.7091 11.1293ZM40.6446 18.1541C39.9287 18.1541 39.3039 17.9901 38.7703 17.6619C38.2367 17.3338 37.8224 16.8748 37.5274 16.2848C37.2325 15.6948 37.085 15.0054 37.085 14.2166C37.085 13.4245 37.2325 12.7318 37.5274 12.1385C37.8224 11.5452 38.2367 11.0845 38.7703 10.7564C39.3039 10.4283 39.9287 10.2642 40.6446 10.2642C41.3605 10.2642 41.9853 10.4283 42.5189 10.7564C43.0525 11.0845 43.4668 11.5452 43.7618 12.1385C44.0568 12.7318 44.2043 13.4245 44.2043 14.2166C44.2043 15.0054 44.0568 15.6948 43.7618 16.2848C43.4668 16.8748 43.0525 17.3338 42.5189 17.6619C41.9853 17.9901 41.3605 18.1541 40.6446 18.1541ZM40.6496 16.9062C41.1136 16.9062 41.4981 16.7836 41.803 16.5384C42.1079 16.2931 42.3333 15.9666 42.4791 15.5589C42.6283 15.1513 42.7029 14.7022 42.7029 14.2116C42.7029 13.7244 42.6283 13.277 42.4791 12.8693C42.3333 12.4583 42.1079 12.1286 41.803 11.88C41.4981 11.6314 41.1136 11.5071 40.6496 11.5071C40.1823 11.5071 39.7945 11.6314 39.4862 11.88C39.1813 12.1286 38.9543 12.4583 38.8051 12.8693C38.6593 13.277 38.5864 13.7244 38.5864 14.2116C38.5864 14.7022 38.6593 15.1513 38.8051 15.5589C38.9543 15.9666 39.1813 16.2931 39.4862 16.5384C39.7945 16.7836 40.1823 16.9062 40.6496 16.9062ZM47.3501 13.4659V18H45.8635V10.3636H47.2904V11.6065H47.3849C47.5605 11.2022 47.8356 10.8774 48.2101 10.6321C48.588 10.3868 49.0636 10.2642 49.637 10.2642C50.1573 10.2642 50.6131 10.3736 51.0042 10.5923C51.3953 10.8078 51.6985 11.1293 51.914 11.5568C52.1294 11.9844 52.2371 12.513 52.2371 13.1428V18H50.7506V13.3217C50.7506 12.7682 50.6064 12.3357 50.3181 12.0241C50.0297 11.7093 49.6337 11.5518 49.1299 11.5518C48.7852 11.5518 48.4786 11.6264 48.2101 11.7756C47.945 11.9247 47.7345 12.1435 47.5787 12.4318C47.4263 12.7169 47.3501 13.0616 47.3501 13.4659ZM55.7172 13.4659V18H54.2307V10.3636H55.6576V11.6065H55.752C55.9277 11.2022 56.2028 10.8774 56.5773 10.6321C56.9552 10.3868 57.4308 10.2642 58.0042 10.2642C58.5245 10.2642 58.9803 10.3736 59.3714 10.5923C59.7625 10.8078 60.0657 11.1293 60.2812 11.5568C60.4966 11.9844 60.6043 12.513 60.6043 13.1428V18H59.1178V13.3217C59.1178 12.7682 58.9736 12.3357 58.6853 12.0241C58.3969 11.7093 58.0009 11.5518 57.4971 11.5518C57.1524 11.5518 56.8458 11.6264 56.5773 11.7756C56.3122 11.9247 56.1017 12.1435 55.9459 12.4318C55.7935 12.7169 55.7172 13.0616 55.7172 13.4659ZM65.8891 18.1541C65.1367 18.1541 64.4888 17.9934 63.9452 17.6719C63.405 17.3471 62.9874 16.8913 62.6924 16.3047C62.4007 15.7147 62.2549 15.0237 62.2549 14.2315C62.2549 13.4493 62.4007 12.7599 62.6924 12.1634C62.9874 11.5668 63.3983 11.1011 63.9253 10.7663C64.4556 10.4316 65.0754 10.2642 65.7847 10.2642C66.2156 10.2642 66.6332 10.3355 67.0376 10.478C67.4419 10.6205 67.8048 10.8442 68.1263 11.1491C68.4478 11.4541 68.7014 11.8501 68.887 12.3374C69.0726 12.8213 69.1654 13.4096 69.1654 14.1023V14.6293H63.0951V13.5156H67.7087C67.7087 13.1245 67.6292 12.7782 67.4701 12.4766C67.311 12.1716 67.0873 11.9313 66.7989 11.7557C66.5139 11.58 66.1791 11.4922 65.7947 11.4922C65.377 11.4922 65.0125 11.5949 64.7009 11.8004C64.3927 12.0026 64.154 12.2678 63.985 12.5959C63.8193 12.9207 63.7364 13.2737 63.7364 13.6548V14.5249C63.7364 15.0353 63.8259 15.4695 64.0049 15.8274C64.1872 16.1854 64.4407 16.4588 64.7655 16.6477C65.0903 16.8333 65.4698 16.9261 65.904 16.9261C66.1858 16.9261 66.4426 16.8864 66.6746 16.8068C66.9066 16.724 67.1072 16.6013 67.2762 16.4389C67.4452 16.2765 67.5745 16.076 67.664 15.8374L69.0709 16.0909C68.9582 16.5052 68.7561 16.8681 68.4644 17.1797C68.176 17.4879 67.8131 17.7282 67.3756 17.9006C66.9414 18.0696 66.4459 18.1541 65.8891 18.1541ZM74.0313 18.1541C73.2922 18.1541 72.6559 17.9867 72.1222 17.652C71.5919 17.3139 71.1843 16.8482 70.8992 16.255C70.6142 15.6617 70.4717 14.9822 70.4717 14.2166C70.4717 13.4411 70.6175 12.7566 70.9092 12.1634C71.2008 11.5668 71.6118 11.1011 72.1421 10.7663C72.6724 10.4316 73.2972 10.2642 74.0164 10.2642C74.5964 10.2642 75.1135 10.3719 75.5676 10.5874C76.0216 10.7995 76.3879 11.0978 76.6663 11.4822C76.948 11.8667 77.1154 12.3158 77.1684 12.8295H75.7217C75.6421 12.4716 75.4598 12.1634 75.1748 11.9048C74.8931 11.6463 74.5152 11.517 74.0413 11.517C73.627 11.517 73.2641 11.6264 72.9525 11.8452C72.6443 12.0606 72.404 12.3688 72.2316 12.7699C72.0593 13.1676 71.9731 13.6383 71.9731 14.1818C71.9731 14.7386 72.0576 15.2192 72.2267 15.6236C72.3957 16.0279 72.6343 16.3411 72.9426 16.5632C73.2541 16.7853 73.6204 16.8963 74.0413 16.8963C74.323 16.8963 74.5782 16.8449 74.8069 16.7422C75.0389 16.6361 75.2328 16.4853 75.3886 16.2898C75.5477 16.0942 75.6587 15.8589 75.7217 15.5838H77.1684C77.1154 16.0777 76.9546 16.5185 76.6862 16.9062C76.4177 17.294 76.0581 17.599 75.6073 17.821C75.1599 18.0431 74.6346 18.1541 74.0313 18.1541ZM82.3227 10.3636V11.5568H78.1515V10.3636H82.3227ZM79.2702 8.53409H80.7567V15.7578C80.7567 16.0462 80.7997 16.2633 80.8859 16.4091C80.9721 16.5516 81.0831 16.6494 81.219 16.7024C81.3582 16.7521 81.509 16.777 81.6714 16.777C81.7907 16.777 81.8952 16.7687 81.9846 16.7521C82.0741 16.7356 82.1437 16.7223 82.1934 16.7124L82.4619 17.9403C82.3757 17.9735 82.2531 18.0066 82.094 18.0398C81.9349 18.0762 81.7361 18.0961 81.4974 18.0994C81.1063 18.1061 80.7417 18.0365 80.4037 17.8906C80.0656 17.7448 79.7922 17.5194 79.5834 17.2145C79.3746 16.9096 79.2702 16.5268 79.2702 16.0661V8.53409ZM87.1762 18.1541C86.4239 18.1541 85.7759 17.9934 85.2323 17.6719C84.6921 17.3471 84.2745 16.8913 83.9795 16.3047C83.6878 15.7147 83.542 15.0237 83.542 14.2315C83.542 13.4493 83.6878 12.7599 83.9795 12.1634C84.2745 11.5668 84.6855 11.1011 85.2124 10.7663C85.7427 10.4316 86.3625 10.2642 87.0718 10.2642C87.5027 10.2642 87.9203 10.3355 88.3247 10.478C88.729 10.6205 89.0919 10.8442 89.4134 11.1491C89.7349 11.4541 89.9885 11.8501 90.1741 12.3374C90.3597 12.8213 90.4525 13.4096 90.4525 14.1023V14.6293H84.3822V13.5156H88.9958C88.9958 13.1245 88.9163 12.7782 88.7572 12.4766C88.5981 12.1716 88.3744 11.9313 88.086 11.7557C87.801 11.58 87.4662 11.4922 87.0818 11.4922C86.6642 11.4922 86.2996 11.5949 85.988 11.8004C85.6798 12.0026 85.4411 12.2678 85.2721 12.5959C85.1064 12.9207 85.0235 13.2737 85.0235 13.6548V14.5249C85.0235 15.0353 85.113 15.4695 85.292 15.8274C85.4743 16.1854 85.7278 16.4588 86.0526 16.6477C86.3775 16.8333 86.757 16.9261 87.1911 16.9261C87.4729 16.9261 87.7297 16.8864 87.9617 16.8068C88.1937 16.724 88.3943 16.6013 88.5633 16.4389C88.7323 16.2765 88.8616 16.076 88.9511 15.8374L90.358 16.0909C90.2454 16.5052 90.0432 16.8681 89.7515 17.1797C89.4632 17.4879 89.1002 17.7282 88.6627 17.9006C88.2285 18.0696 87.733 18.1541 87.1762 18.1541ZM94.9605 18.1491C94.344 18.1491 93.7938 17.9917 93.3099 17.6768C92.8293 17.3587 92.4515 16.9062 92.1764 16.3196C91.9046 15.7296 91.7687 15.022 91.7687 14.1967C91.7687 13.3714 91.9063 12.6655 92.1814 12.0788C92.4598 11.4922 92.8409 11.0431 93.3248 10.7315C93.8087 10.42 94.3573 10.2642 94.9704 10.2642C95.4444 10.2642 95.8256 10.3438 96.1139 10.5028C96.4056 10.6586 96.6309 10.8409 96.79 11.0497C96.9524 11.2585 97.0784 11.4425 97.1679 11.6016H97.2574V7.81818H98.7439V18H97.2922V16.8118H97.1679C97.0784 16.9742 96.9491 17.1598 96.7801 17.3686C96.6144 17.5774 96.3857 17.7597 96.094 17.9155C95.8023 18.0713 95.4245 18.1491 94.9605 18.1491ZM95.2886 16.8814C95.7162 16.8814 96.0774 16.7687 96.3724 16.5433C96.6707 16.3146 96.8961 15.9981 97.0486 15.5938C97.2043 15.1894 97.2822 14.7187 97.2822 14.1818C97.2822 13.6515 97.206 13.1875 97.0535 12.7898C96.9011 12.392 96.6773 12.0821 96.3824 11.8601C96.0874 11.638 95.7228 11.527 95.2886 11.527C94.8412 11.527 94.4683 11.643 94.17 11.875C93.8717 12.107 93.6463 12.4235 93.4939 12.8246C93.3447 13.2256 93.2702 13.678 93.2702 14.1818C93.2702 14.6922 93.3464 15.1513 93.4988 15.5589C93.6513 15.9666 93.8767 16.2898 94.175 16.5284C94.4766 16.7637 94.8478 16.8814 95.2886 16.8814Z" fill="#059669"/>
</svg>
