<svg width="18" height="19" viewBox="0 0 18 19" fill="none" xmlns="http://www.w3.org/2000/svg">
<path fill-rule="evenodd" clip-rule="evenodd" d="M4.22656 2.76923H10.3874C11.673 2.76923 12.9053 3.27946 13.8143 4.18846C14.7233 5.09746 15.2336 6.32977 15.2336 7.61538V13.7762C15.8933 13.6412 16.5053 13.3158 16.9893 12.8326C17.6379 12.1832 18.0028 11.3026 18.0028 10.3846C18.0028 8.32362 18.0028 5.52254 18.0028 3.46154C18.0028 2.54354 17.6379 1.66292 16.9893 1.01354C16.3399 0.364846 15.4593 0 14.5413 0C12.4803 0 9.67918 0 7.61818 0C6.70018 0 5.81956 0.364846 5.17018 1.01354C4.68695 1.49746 4.36156 2.10946 4.22656 2.76923Z" fill="#7E8A9C"/>
<path fill-rule="evenodd" clip-rule="evenodd" d="M13.8462 7.61779C13.8462 6.69979 13.4813 5.81917 12.8326 5.16979C12.1832 4.5211 11.3026 4.15625 10.3846 4.15625C8.32361 4.15625 5.52254 4.15625 3.46154 4.15625C2.54354 4.15625 1.66292 4.5211 1.01354 5.16979C0.364846 5.81917 0 6.69979 0 7.61779C0 9.67879 0 12.4799 0 14.5409C0 15.4589 0.364846 16.3395 1.01354 16.9889C1.66292 17.6376 2.54354 18.0024 3.46154 18.0024C5.52254 18.0024 8.32361 18.0024 10.3846 18.0024C11.3026 18.0024 12.1832 17.6376 12.8326 16.9889C13.4813 16.3395 13.8462 15.4589 13.8462 14.5409V7.61779ZM3.46154 14.5409H10.3846C10.7668 14.5409 11.0769 14.2307 11.0769 13.8486C11.0769 13.4664 10.7668 13.1562 10.3846 13.1562H3.46154C3.07938 13.1562 2.76923 13.4664 2.76923 13.8486C2.76923 14.2307 3.07938 14.5409 3.46154 14.5409ZM3.46154 11.7716H10.3846C10.7668 11.7716 11.0769 11.4615 11.0769 11.0793C11.0769 10.6972 10.7668 10.387 10.3846 10.387H3.46154C3.07938 10.387 2.76923 10.6972 2.76923 11.0793C2.76923 11.4615 3.07938 11.7716 3.46154 11.7716ZM3.46154 9.0024H10.3846C10.7668 9.0024 11.0769 8.69225 11.0769 8.3101C11.0769 7.92794 10.7668 7.61779 10.3846 7.61779H3.46154C3.07938 7.61779 2.76923 7.92794 2.76923 8.3101C2.76923 8.69225 3.07938 9.0024 3.46154 9.0024Z" fill="#7E8A9C"/>
</svg>
