<svg width="33" height="28" viewBox="0 0 33 28" fill="none" xmlns="http://www.w3.org/2000/svg">
<path fill-rule="evenodd" clip-rule="evenodd" d="M5.32195 3.66701C5.70195 3.2395 6.24584 3 6.85242 3H18.9495C19.416 3 19.9221 3.15414 20.3273 3.51434C20.7548 3.89434 20.9943 4.43823 20.9943 5.04481V8.52098C20.9943 9.18954 20.4523 9.73151 19.7838 9.73151C19.1152 9.73151 18.5733 9.18954 18.5733 8.52098V5.42105H7.22866V8.00569H16.3076C16.9762 8.00569 17.5181 8.54766 17.5181 9.21622C17.5181 9.88477 16.9762 10.4267 16.3076 10.4267H5.42105V13.2895H13.8048C14.4733 13.2895 15.0153 13.8314 15.0153 14.5C15.0153 15.1686 14.4733 15.7105 13.8048 15.7105H8.89723V18.4342H12.8314C13.5 18.4342 14.042 18.9762 14.042 19.6447C14.042 20.3133 13.5 20.8553 12.8314 20.8553H7.22866V23.5789H15.4733C16.1419 23.5789 16.6839 24.1209 16.6839 24.7895C16.6839 25.458 16.1419 26 15.4733 26H6.85242C6.38592 26 5.87985 25.8459 5.47462 25.4857C5.04711 25.1057 4.80761 24.5618 4.80761 23.9552V20.479C4.80761 20.0125 4.96175 19.5064 5.32195 19.1012C5.62142 18.7643 6.02267 18.5442 6.47617 18.466V15.7105H5.18386C4.08224 15.7105 3 14.8682 3 13.6657V10.1895C3 9.61678 3.26337 9.09465 3.5929 8.73217C3.87267 8.42442 4.28747 8.1371 4.80761 8.04024V5.04481C4.80761 4.57831 4.96175 4.07224 5.32195 3.66701ZM16.4876 17.42C16.4876 13.5343 19.6907 10.5085 23.399 10.5085C27.4045 10.5085 30.465 13.6988 30.3104 17.5853C30.296 21.4584 27.099 24.4705 23.399 24.4705C19.6526 24.4705 16.4876 21.2677 16.4876 17.42ZM23.399 12.9296C20.9893 12.9296 18.9086 14.9096 18.9086 17.42C18.9086 19.9685 21.0273 22.0494 23.399 22.0494C25.8087 22.0494 27.8894 20.0695 27.8894 17.559C27.8894 17.5415 27.8898 17.524 27.8905 17.5065C27.9991 15.0087 26.0588 12.9296 23.399 12.9296Z" fill="#F5A938"/>
</svg>
