<svg width="262" height="262" viewBox="0 0 262 262" fill="none" xmlns="http://www.w3.org/2000/svg">
<g filter="url(#filter0_d_7334_361)">
<path d="M131 258C201.692 258 259 200.692 259 130C259 59.3076 201.692 2 131 2C60.3076 2 3 59.3076 3 130C3 200.692 60.3076 258 131 258Z" fill="url(#paint0_linear_7334_361)"/>
</g>
<path opacity="0.668" fill-rule="evenodd" clip-rule="evenodd" d="M142.699 181.915C142.699 178.268 145.718 175.312 149.442 175.312H200.361C204.085 175.312 207.104 178.269 207.104 181.915C207.105 183.025 206.819 184.117 206.275 185.085H215.959V198.774H133.844V185.085H143.527C142.983 184.117 142.698 183.025 142.699 181.915V181.915Z" fill="url(#paint1_linear_7334_361)"/>
<path opacity="0.668" fill-rule="evenodd" clip-rule="evenodd" d="M143.571 61.0512L105.32 94.66C102.28 96.8608 98.0038 96.44 95.471 93.5797L92.9249 90.7057C90.2355 87.6679 90.5303 83.0307 93.5839 80.3474L130.779 47.6664C133.832 44.9836 138.488 45.2708 141.178 48.3085L143.724 51.1831C146.257 54.0429 146.142 58.3215 143.571 61.0512V61.0512Z" fill="url(#paint2_linear_7334_361)"/>
<path fill-rule="evenodd" clip-rule="evenodd" d="M44.9025 182.722L44.8306 182.075L44.7877 181.459C44.749 181.041 44.749 180.663 44.7398 180.276C44.7041 178.728 44.8479 177.383 45.0887 176.149C45.5854 173.696 46.528 171.748 47.8194 170.196C48.1397 169.806 48.4926 169.452 48.8425 169.094L49.8901 168.02C50.5848 167.299 51.2988 166.6 52.0062 165.894C52.7129 165.188 53.4266 164.488 54.1474 163.796C54.8616 163.099 55.5827 162.408 56.3104 161.724C57.7585 160.35 59.2198 158.99 60.6942 157.644L62.9118 155.633L65.1468 153.641C66.6414 152.319 68.1443 151.007 69.6555 149.704C71.1649 148.398 72.6846 147.104 74.2142 145.822L78.8106 141.984L83.4494 138.193L88.1233 134.441L92.8289 130.726L97.5651 127.045L102.331 123.399C103.928 122.192 105.523 120.983 107.134 119.792C108.74 118.598 110.344 117.398 111.966 116.22L113.961 118.48L121.413 113.414L110.17 100.682L148.447 66.9531L176.096 98.2652L137.82 131.994L126.576 119.261L120.615 126.015L122.61 128.276C121.237 129.737 119.846 131.175 118.459 132.619C117.075 134.067 115.676 135.497 114.278 136.928L110.062 141.198L105.814 145.433L101.537 149.633L97.2279 153.797L92.884 157.922L88.4982 161.999C87.0337 163.355 85.5586 164.7 84.0731 166.033C82.5903 167.369 81.0991 168.695 79.5996 170.012L77.3427 171.977L75.069 173.924C73.5445 175.213 72.0185 176.499 70.4695 177.76C69.6997 178.396 68.9237 179.024 68.1417 179.645C67.3642 180.273 66.5804 180.893 65.7904 181.505C65.0004 182.118 64.2175 182.739 63.4152 183.336L62.2171 184.241C61.8178 184.542 61.422 184.849 60.9946 185.117C59.2916 186.203 57.2397 186.895 54.7416 187.08C53.3587 187.176 51.9696 187.119 50.5991 186.912C50.2155 186.855 49.8406 186.807 49.4285 186.717L48.8236 186.597L48.1891 186.445C47.3435 186.24 46.428 185.956 45.4232 185.573C45.1894 184.635 45.0156 183.682 44.903 182.722H44.9025Z" fill="white"/>
<path opacity="0.668" fill-rule="evenodd" clip-rule="evenodd" d="M192.846 118.201L155.652 150.881C152.598 153.564 147.942 153.277 145.252 150.239L142.706 147.364C140.173 144.504 140.288 140.226 142.859 137.496L181.109 103.888C184.15 101.687 188.426 102.107 190.959 104.968L193.504 107.842C196.195 110.88 195.9 115.517 192.846 118.201V118.201Z" fill="url(#paint3_linear_7334_361)"/>
<defs>
<filter id="filter0_d_7334_361" x="0" y="0" width="262" height="262" filterUnits="userSpaceOnUse" color-interpolation-filters="sRGB">
<feFlood flood-opacity="0" result="BackgroundImageFix"/>
<feColorMatrix in="SourceAlpha" type="matrix" values="0 0 0 0 0 0 0 0 0 0 0 0 0 0 0 0 0 0 127 0" result="hardAlpha"/>
<feOffset dy="1"/>
<feGaussianBlur stdDeviation="1.5"/>
<feColorMatrix type="matrix" values="0 0 0 0 0.958333 0 0 0 0 0.127778 0 0 0 0 0.127778 0 0 0 0.05 0"/>
<feBlend mode="normal" in2="BackgroundImageFix" result="effect1_dropShadow_7334_361"/>
<feBlend mode="normal" in="SourceGraphic" in2="effect1_dropShadow_7334_361" result="shape"/>
</filter>
<linearGradient id="paint0_linear_7334_361" x1="-24.7545" y1="290.54" x2="209.703" y2="43.8714" gradientUnits="userSpaceOnUse">
<stop stop-color="#EF2746"/>
<stop offset="1" stop-color="#F85119"/>
</linearGradient>
<linearGradient id="paint1_linear_7334_361" x1="60.714" y1="186.192" x2="83.1463" y2="139.639" gradientUnits="userSpaceOnUse">
<stop stop-color="white" stop-opacity="0.01"/>
<stop offset="1" stop-color="white"/>
</linearGradient>
<linearGradient id="paint2_linear_7334_361" x1="1.55581" y1="104.213" x2="49.6709" y2="8.06631" gradientUnits="userSpaceOnUse">
<stop stop-color="white" stop-opacity="0.01"/>
<stop offset="1" stop-color="white"/>
</linearGradient>
<linearGradient id="paint3_linear_7334_361" x1="51.3368" y1="160.873" x2="99.4524" y2="64.7266" gradientUnits="userSpaceOnUse">
<stop stop-color="white" stop-opacity="0.01"/>
<stop offset="1" stop-color="white"/>
</linearGradient>
</defs>
</svg>
