<svg width="216" height="32" viewBox="0 0 216 32" fill="none" xmlns="http://www.w3.org/2000/svg">
<path d="M39.4062 15.0016H43.4103C46.5603 15.0016 48.1003 13.3076 48.1003 10.1856C48.1003 6.65759 46.3222 5.27159 43.4662 5.27159H39.4062V5.94359C40.1342 5.95759 40.3583 6.15359 40.3583 6.95159V13.3636C40.3583 14.1616 40.1342 14.3576 39.4062 14.3576V15.0016ZM42.5703 14.0636V6.26559H43.2983C44.9923 6.26559 45.7343 7.06359 45.7343 10.2836C45.7343 13.4196 45.0063 14.0636 43.2563 14.0636H42.5703Z" fill="white"/>
<path d="M52.9779 15.0016V14.3716C52.2499 14.3576 52.1239 14.1896 52.1239 13.3916V7.76359H51.8159L49.1979 8.25359V8.86959C49.8979 8.89759 50.0379 9.03759 50.0379 10.0596V13.3916C50.0379 14.1896 49.8839 14.3576 49.1839 14.3716V15.0016H52.9779ZM52.2359 5.90159C52.2359 5.22959 51.7039 4.68359 51.0179 4.68359C50.3179 4.68359 49.7579 5.22959 49.7579 5.90159C49.7579 6.58759 50.3179 7.13359 50.9899 7.13359C51.6899 7.13359 52.2359 6.58759 52.2359 5.90159Z" fill="white"/>
<path d="M54.58 14.7776C54.58 16.2196 54.314 16.8776 53.46 17.2696L53.866 17.8856C55.154 17.5776 56.652 16.8636 56.652 14.7776V7.76359H56.344L53.726 8.25359V8.86959C54.426 8.89759 54.58 9.03759 54.58 10.0596V14.7776ZM56.778 5.90159C56.778 5.22959 56.246 4.68359 55.56 4.68359C54.86 4.68359 54.286 5.22959 54.286 5.90159C54.286 6.58759 54.846 7.13359 55.518 7.13359C56.218 7.13359 56.778 6.58759 56.778 5.90159Z" fill="white"/>
<path d="M62.1018 13.9656C60.7578 13.9656 60.2258 13.3216 60.1698 11.7396H64.4258V11.1376C64.4258 8.99559 63.5298 7.69359 61.3318 7.69359C59.3018 7.69359 57.9298 9.05159 57.9298 11.4176C57.9298 13.7976 59.2038 15.1696 61.3738 15.1696C62.6198 15.1696 63.5438 14.7916 64.2998 14.0496L63.9638 13.4756C63.3618 13.7976 62.6898 13.9656 62.1018 13.9656ZM61.3458 8.56159C62.0738 8.56159 62.3538 9.09359 62.3538 10.7876H60.1838C60.2818 9.07959 60.6318 8.56159 61.3458 8.56159Z" fill="white"/>
<path d="M69.8059 7.87559H68.1119C68.1119 7.16159 68.1679 6.32159 68.2379 5.81759L66.7819 5.99959C66.4319 6.53159 66.2219 7.21759 66.1379 7.84759L65.1999 8.22559V8.93959H66.0399V13.1676C66.0399 14.7076 66.7539 15.1836 68.0279 15.1836C68.7979 15.1836 69.3999 15.0156 69.9319 14.6796L69.7219 13.9516C69.3999 14.0776 69.1759 14.1196 68.9239 14.1196C68.2239 14.1196 68.1259 13.7416 68.1259 12.7056V8.93959H69.5819L69.8059 7.87559Z" fill="white"/>
<path d="M73.1995 15.1836C75.1595 15.1836 76.2795 14.3156 76.2795 12.8036C76.2795 11.5296 75.4955 10.7876 74.1095 10.4796L73.0875 10.2416C72.5135 10.1156 72.2615 9.89159 72.2615 9.42959C72.2615 8.88359 72.6255 8.60359 73.2695 8.60359C73.9835 8.60359 74.4595 8.88359 74.5715 9.68159H75.8595V8.19759C75.4815 8.02959 74.6975 7.69359 73.4375 7.69359C71.8975 7.69359 70.6235 8.47759 70.6235 10.0596C70.6235 11.2776 71.3095 11.9916 72.4715 12.2436L73.5495 12.4676C74.2075 12.6076 74.5295 12.8596 74.5295 13.4336C74.5295 14.0496 74.0535 14.3156 73.3675 14.3156C72.5975 14.3156 72.0795 14.0496 71.9815 13.0696H70.5955V14.5816C70.9875 14.7916 71.7155 15.1836 73.1995 15.1836Z" fill="white"/>
<path d="M86.4492 13.9236C86.1832 14.1196 85.8052 14.2316 85.2172 14.2316C83.8592 14.2316 83.1312 13.3496 83.1312 10.2136C83.1312 7.21759 83.8032 6.09759 85.2312 6.09759C86.3092 6.09759 86.6312 6.65759 86.8412 7.72159H88.3812V5.81759C87.6952 5.38359 86.6732 5.10359 85.2872 5.10359C82.5572 5.10359 80.6812 6.72759 80.6812 10.2696C80.6812 13.4336 82.3472 15.1696 85.1472 15.1696C86.3652 15.1696 87.7932 14.9036 88.6332 14.2596V11.7816C88.6332 10.9836 88.8572 10.7736 89.5432 10.7736V10.1016H85.3152V10.7736C86.2392 10.7736 86.4492 10.9836 86.4492 11.7816V13.9236Z" fill="white"/>
<path d="M97.5836 11.3336C97.5836 8.88359 96.1276 7.69359 94.0976 7.69359C91.8716 7.69359 90.4716 9.19159 90.4716 11.4596C90.4716 13.8116 91.7876 15.1836 93.9856 15.1836C95.9316 15.1836 97.5836 13.9936 97.5836 11.3336ZM95.3016 11.2776C95.3016 13.4336 94.8816 14.3156 94.0556 14.3156C93.0476 14.3156 92.7536 13.4476 92.7536 11.4876C92.7536 9.27559 93.1456 8.58959 94.0276 8.58959C94.8676 8.58959 95.3016 9.24759 95.3016 11.2776Z" fill="white"/>
<path d="M102.837 15.0716L104.895 9.38759C105.147 8.71559 105.315 8.58959 105.875 8.51959V7.87559H102.949V8.51959C103.523 8.53359 103.775 8.67359 103.775 9.00959C103.775 9.09359 103.747 9.20559 103.705 9.34559L102.809 12.1036C102.669 12.5656 102.543 13.0696 102.529 13.1816H102.445C102.417 12.9716 102.333 12.5656 102.179 12.1036L101.227 9.34559C101.171 9.20559 101.143 9.09359 101.143 8.99559C101.143 8.70159 101.353 8.53359 101.941 8.51959V7.87559H98.147V8.51959C98.637 8.58959 98.777 8.71559 99.043 9.38759L101.227 15.0716H102.837Z" fill="white"/>
<path d="M110.318 13.9656C108.974 13.9656 108.442 13.3216 108.386 11.7396H112.642V11.1376C112.642 8.99559 111.746 7.69359 109.548 7.69359C107.518 7.69359 106.146 9.05159 106.146 11.4176C106.146 13.7976 107.42 15.1696 109.59 15.1696C110.836 15.1696 111.76 14.7916 112.516 14.0496L112.18 13.4756C111.578 13.7976 110.906 13.9656 110.318 13.9656ZM109.562 8.56159C110.29 8.56159 110.57 9.09359 110.57 10.7876H108.4C108.498 9.07959 108.848 8.56159 109.562 8.56159Z" fill="white"/>
<path d="M116.482 9.48559C116.454 8.56159 116.146 7.87559 116.048 7.69359H115.838L113.584 8.25359V8.86959C114.284 8.89759 114.424 9.03759 114.424 10.0596V13.3916C114.424 14.1896 114.27 14.3576 113.57 14.3716V15.0016H117.616V14.3716C116.664 14.3576 116.51 14.1896 116.51 13.3916V11.2076C116.51 10.1156 116.79 9.77959 117.854 9.77959C118.19 9.77959 118.372 9.82159 118.624 9.89159L119.016 7.77759C118.904 7.73559 118.708 7.69359 118.498 7.69359C117.728 7.69359 116.832 8.28159 116.482 9.48559Z" fill="white"/>
<path d="M126.83 9.82159C126.83 8.37959 125.948 7.70759 124.8 7.70759C123.708 7.70759 122.966 8.26759 122.364 8.95359C122.322 8.39359 122.056 7.84759 121.958 7.69359H121.748L119.494 8.25359V8.86959C120.194 8.89759 120.334 9.03759 120.334 10.0596V13.3916C120.334 14.1896 120.18 14.3576 119.48 14.3716V15.0016H123.274V14.3716C122.546 14.3576 122.42 14.1756 122.42 13.4196V9.70959C122.784 9.42959 123.204 9.17759 123.82 9.17759C124.408 9.17759 124.744 9.47159 124.744 10.3116V13.4196C124.744 14.1756 124.618 14.3576 123.904 14.3716V15.0016H127.656V14.3716C126.984 14.3576 126.83 14.1896 126.83 13.3916V9.82159Z" fill="white"/>
<path d="M134.502 12.9016C134.502 11.6276 134.558 10.4656 134.558 10.0456C134.558 8.40759 133.438 7.69359 131.828 7.69359C130.694 7.69359 129.546 8.04359 128.804 8.47759V9.90559H130.344C130.442 9.16359 130.666 8.63159 131.464 8.63159C132.206 8.63159 132.472 9.09359 132.472 10.1716V10.8156C132.29 10.8016 131.968 10.7876 131.8 10.7876C129.602 10.7876 128.356 11.4736 128.356 13.1256C128.356 14.5676 129.336 15.1976 130.582 15.1976C131.688 15.1976 132.29 14.6096 132.528 14.1056C132.64 14.6936 133.102 15.0856 133.97 15.0856C134.586 15.0856 135.104 14.9316 135.398 14.7496V14.1476C134.656 14.1196 134.502 13.9516 134.502 12.9016ZM132.444 11.5996L132.402 13.3776C132.15 13.6996 131.702 13.8956 131.338 13.8956C130.806 13.8956 130.498 13.6576 130.498 12.8596C130.498 12.0056 131.002 11.5996 131.954 11.5996H132.444Z" fill="white"/>
<path d="M143.42 9.82159C143.42 8.37959 142.538 7.70759 141.39 7.70759C140.298 7.70759 139.556 8.26759 138.954 8.95359C138.912 8.39359 138.646 7.84759 138.548 7.69359H138.338L136.084 8.25359V8.86959C136.784 8.89759 136.924 9.03759 136.924 10.0596V13.3916C136.924 14.1896 136.77 14.3576 136.07 14.3716V15.0016H139.864V14.3716C139.136 14.3576 139.01 14.1756 139.01 13.4196V9.70959C139.374 9.42959 139.794 9.17759 140.41 9.17759C140.998 9.17759 141.334 9.47159 141.334 10.3116V13.4196C141.334 14.1756 141.208 14.3576 140.494 14.3716V15.0016H144.246V14.3716C143.574 14.3576 143.42 14.1896 143.42 13.3916V9.82159Z" fill="white"/>
<path d="M150.98 8.26759C150.49 7.94559 149.79 7.70759 148.684 7.70759C146.738 7.70759 145.086 9.03759 145.086 11.5576C145.086 14.0076 146.626 15.1696 148.502 15.1696C149.566 15.1696 150.518 14.7916 151.162 14.0356L150.784 13.5036C150.196 13.8536 149.79 14.0076 149.132 14.0076C148.082 14.0076 147.242 13.3356 147.242 11.2356C147.242 9.09359 148.026 8.57559 148.684 8.57559C149.258 8.57559 149.37 8.93959 149.426 9.80759H150.98V8.26759Z" fill="white"/>
<path d="M156.207 13.9656C154.863 13.9656 154.331 13.3216 154.275 11.7396H158.531V11.1376C158.531 8.99559 157.635 7.69359 155.437 7.69359C153.407 7.69359 152.035 9.05159 152.035 11.4176C152.035 13.7976 153.309 15.1696 155.479 15.1696C156.725 15.1696 157.649 14.7916 158.405 14.0496L158.069 13.4756C157.467 13.7976 156.795 13.9656 156.207 13.9656ZM155.451 8.56159C156.179 8.56159 156.459 9.09359 156.459 10.7876H154.289C154.387 9.07959 154.737 8.56159 155.451 8.56159Z" fill="white"/>
<path d="M167.364 15.1696C168.764 15.1696 169.968 14.8196 170.542 14.3996V12.5516H169.1C168.918 13.6996 168.554 14.2176 167.448 14.2176C166.244 14.2176 165.404 13.5736 165.404 10.1856C165.404 6.99359 166.132 6.09759 167.448 6.09759C168.414 6.09759 168.736 6.64359 168.96 7.70759H170.472V5.80359C169.8 5.36959 168.848 5.10359 167.476 5.10359C164.788 5.10359 162.954 6.71359 162.954 10.2696C162.954 13.4196 164.508 15.1696 167.364 15.1696Z" fill="white"/>
<path d="M178.803 11.3336C178.803 8.88359 177.347 7.69359 175.317 7.69359C173.091 7.69359 171.691 9.19159 171.691 11.4596C171.691 13.8116 173.007 15.1836 175.205 15.1836C177.151 15.1836 178.803 13.9936 178.803 11.3336ZM176.521 11.2776C176.521 13.4336 176.101 14.3156 175.275 14.3156C174.267 14.3156 173.973 13.4476 173.973 11.4876C173.973 9.27559 174.365 8.58959 175.247 8.58959C176.087 8.58959 176.521 9.24759 176.521 11.2776Z" fill="white"/>
<path d="M186.813 7.76359H186.477L183.901 8.25359V8.86959C184.587 8.89759 184.741 9.03759 184.741 10.0596V13.3216C184.321 13.6716 183.957 13.8396 183.481 13.8396C182.837 13.8396 182.585 13.4616 182.585 12.7056V7.76359H182.249L179.673 8.25359V8.86959C180.345 8.89759 180.499 9.03759 180.499 10.0596V13.1956C180.499 14.5816 181.297 15.1836 182.487 15.1836C183.565 15.1836 184.307 14.7216 184.853 14.0496C184.909 14.6376 185.133 15.0156 185.231 15.1836H185.441L187.681 14.6796V14.1056C186.967 14.0496 186.813 13.9376 186.813 12.9156V7.76359Z" fill="white"/>
<path d="M195.793 9.82159C195.793 8.37959 194.911 7.70759 193.763 7.70759C192.671 7.70759 191.929 8.26759 191.327 8.95359C191.285 8.39359 191.019 7.84759 190.921 7.69359H190.711L188.457 8.25359V8.86959C189.157 8.89759 189.297 9.03759 189.297 10.0596V13.3916C189.297 14.1896 189.143 14.3576 188.443 14.3716V15.0016H192.237V14.3716C191.509 14.3576 191.383 14.1756 191.383 13.4196V9.70959C191.747 9.42959 192.167 9.17759 192.783 9.17759C193.371 9.17759 193.707 9.47159 193.707 10.3116V13.4196C193.707 14.1756 193.581 14.3576 192.867 14.3716V15.0016H196.619V14.3716C195.947 14.3576 195.793 14.1896 195.793 13.3916V9.82159Z" fill="white"/>
<path d="M203.353 8.26759C202.863 7.94559 202.163 7.70759 201.057 7.70759C199.111 7.70759 197.459 9.03759 197.459 11.5576C197.459 14.0076 198.999 15.1696 200.875 15.1696C201.939 15.1696 202.891 14.7916 203.535 14.0356L203.157 13.5036C202.569 13.8536 202.163 14.0076 201.505 14.0076C200.455 14.0076 199.615 13.3356 199.615 11.2356C199.615 9.09359 200.399 8.57559 201.057 8.57559C201.631 8.57559 201.743 8.93959 201.799 9.80759H203.353V8.26759Z" fill="white"/>
<path d="M208.144 15.0016V14.3716C207.416 14.3576 207.29 14.1896 207.29 13.3916V7.76359H206.982L204.364 8.25359V8.86959C205.064 8.89759 205.204 9.03759 205.204 10.0596V13.3916C205.204 14.1896 205.05 14.3576 204.35 14.3716V15.0016H208.144ZM207.402 5.90159C207.402 5.22959 206.87 4.68359 206.184 4.68359C205.484 4.68359 204.924 5.22959 204.924 5.90159C204.924 6.58759 205.484 7.13359 206.156 7.13359C206.856 7.13359 207.402 6.58759 207.402 5.90159Z" fill="white"/>
<path d="M211.776 6.11159C211.776 5.27159 211.594 4.86559 211.524 4.72559H211.314L208.78 5.10359V5.71959C209.494 5.74759 209.704 5.88759 209.704 6.90959V13.3916C209.704 14.1896 209.55 14.3576 208.836 14.3716V15.0016H212.644V14.3716C211.916 14.3576 211.776 14.1756 211.776 13.3776V6.11159Z" fill="white"/>
<rect width="32" height="32" rx="6" fill="#4CD9B7"/>
<path opacity="0.668" fill-rule="evenodd" clip-rule="evenodd" d="M17.3081 23.2908C17.3081 22.8454 17.6768 22.4844 18.1317 22.4844H24.3508C24.8056 22.4844 25.1743 22.8455 25.1743 23.2908C25.1745 23.4264 25.1395 23.5598 25.0731 23.678H26.2559V25.35H16.2266V23.678H17.4092C17.3428 23.5598 17.308 23.4264 17.3081 23.2908Z" fill="url(#paint0_linear_7338_460)"/>
<path opacity="0.668" fill-rule="evenodd" clip-rule="evenodd" d="M17.4104 8.53118L12.7385 12.6361C12.3672 12.9049 11.8449 12.8535 11.5356 12.5041L11.2246 12.1531C10.8961 11.7821 10.9321 11.2157 11.3051 10.888L15.848 6.8964C16.2209 6.56873 16.7896 6.6038 17.1181 6.97482L17.4291 7.32592C17.7385 7.67521 17.7244 8.19778 17.4104 8.53118Z" fill="url(#paint1_linear_7338_460)"/>
<path fill-rule="evenodd" clip-rule="evenodd" d="M5.36428 23.3897L5.3555 23.3107L5.35026 23.2355C5.34553 23.1844 5.34553 23.1382 5.34441 23.091C5.34005 22.9019 5.35761 22.7376 5.38702 22.5869C5.44769 22.2873 5.56282 22.0494 5.72055 21.8598C5.75967 21.8122 5.80277 21.7689 5.8455 21.7252L5.97345 21.594C6.0583 21.506 6.14551 21.4206 6.23191 21.3344C6.31822 21.2482 6.40539 21.1627 6.49343 21.0781C6.58066 20.993 6.66873 20.9086 6.75761 20.8251C6.93448 20.6573 7.11296 20.4911 7.29304 20.3268L7.56389 20.0811L7.83687 19.8378C8.01941 19.6764 8.20298 19.5161 8.38755 19.357C8.5719 19.1975 8.75752 19.0394 8.94434 18.8828L9.50573 18.4141L10.0723 17.9511L10.6432 17.4928L11.2179 17.0391L11.7964 16.5895L12.3785 16.1442C12.5735 15.9967 12.7683 15.8491 12.9651 15.7036C13.1612 15.5578 13.3571 15.4112 13.5552 15.2673L13.7989 15.5434L14.7091 14.9246L13.3359 13.3696L18.0109 9.25L21.3879 13.0744L16.713 17.1939L15.3397 15.6388L14.6116 16.4637L14.8553 16.7398C14.6876 16.9183 14.5177 17.0939 14.3483 17.2703C14.1792 17.4471 14.0084 17.6218 13.8376 17.7966L13.3227 18.3181L12.8039 18.8353L12.2815 19.3483L11.7552 19.8569L11.2246 20.3607L10.6889 20.8587C10.5101 21.0243 10.3299 21.1886 10.1485 21.3514C9.96737 21.5145 9.78524 21.6765 9.6021 21.8373L9.32644 22.0773L9.04874 22.3151C8.86254 22.4726 8.67616 22.6297 8.48697 22.7837C8.39295 22.8613 8.29817 22.938 8.20266 23.0139C8.1077 23.0906 8.01196 23.1663 7.91548 23.2411C7.81899 23.3159 7.72337 23.3918 7.62538 23.4647L7.47904 23.5752C7.43027 23.612 7.38193 23.6495 7.32973 23.6822C7.12173 23.8149 6.87112 23.8994 6.566 23.922C6.3971 23.9337 6.22744 23.9268 6.06005 23.9015C6.0132 23.8945 5.96741 23.8886 5.91708 23.8777L5.8432 23.863L5.7657 23.8444C5.66242 23.8194 5.5506 23.7847 5.42788 23.7379C5.39932 23.6234 5.3781 23.507 5.36434 23.3897H5.36428Z" fill="white"/>
<path opacity="0.668" fill-rule="evenodd" clip-rule="evenodd" d="M23.4345 15.5129L18.8917 19.5043C18.5187 19.832 17.95 19.797 17.6215 19.4259L17.3105 19.0748C17.0012 18.7255 17.0152 18.203 17.3292 17.8695L22.001 13.7647C22.3724 13.4959 22.8946 13.5472 23.204 13.8966L23.5149 14.2477C23.8435 14.6187 23.8075 15.1851 23.4345 15.5129Z" fill="url(#paint2_linear_7338_460)"/>
<path d="M39.2898 24.1051V23.6364H42.5625V24.1051H41.1903V28H40.6619V24.1051H39.2898ZM43.498 28V23.6364H44.0264V25.5795H46.3531V23.6364H46.8815V28H46.3531V26.0483H44.0264V28H43.498ZM48.5878 23.6364V28H48.0594V23.6364H48.5878ZM52.1537 24.7273C52.1281 24.5114 52.0244 24.3438 51.8426 24.2244C51.6608 24.1051 51.4378 24.0455 51.1736 24.0455C50.9804 24.0455 50.8113 24.0767 50.6665 24.1392C50.523 24.2017 50.4108 24.2876 50.3298 24.397C50.2503 24.5064 50.2105 24.6307 50.2105 24.7699C50.2105 24.8864 50.2382 24.9865 50.2936 25.0703C50.3504 25.1527 50.4229 25.2216 50.5109 25.277C50.599 25.331 50.6913 25.3757 50.7879 25.4112C50.8845 25.4453 50.9733 25.473 51.0542 25.4943L51.4974 25.6136C51.6111 25.6435 51.7375 25.6847 51.8767 25.7372C52.0173 25.7898 52.1515 25.8615 52.2794 25.9524C52.4087 26.0419 52.5152 26.157 52.599 26.2976C52.6828 26.4382 52.7247 26.6108 52.7247 26.8153C52.7247 27.0511 52.6629 27.2642 52.5393 27.4545C52.4172 27.6449 52.2382 27.7962 52.0024 27.9084C51.768 28.0206 51.4832 28.0767 51.148 28.0767C50.8355 28.0767 50.5649 28.0263 50.3362 27.9254C50.1089 27.8246 49.93 27.6839 49.7993 27.5036C49.67 27.3232 49.5969 27.1136 49.5798 26.875H50.1253C50.1395 27.0398 50.1949 27.1761 50.2915 27.2841C50.3895 27.3906 50.5131 27.4702 50.6622 27.5227C50.8128 27.5739 50.9747 27.5994 51.148 27.5994C51.3497 27.5994 51.5308 27.5668 51.6913 27.5014C51.8518 27.4347 51.979 27.3423 52.0727 27.2244C52.1665 27.1051 52.2133 26.9659 52.2133 26.8068C52.2133 26.6619 52.1729 26.544 52.0919 26.4531C52.0109 26.3622 51.9044 26.2884 51.7723 26.2315C51.6402 26.1747 51.4974 26.125 51.344 26.0824L50.8071 25.929C50.4662 25.831 50.1963 25.6911 49.9974 25.5092C49.7986 25.3274 49.6991 25.0895 49.6991 24.7955C49.6991 24.5511 49.7652 24.3381 49.8973 24.1562C50.0308 23.973 50.2098 23.831 50.4342 23.7301C50.6601 23.6278 50.9122 23.5767 51.1906 23.5767C51.4719 23.5767 51.7219 23.6271 51.9406 23.728C52.1594 23.8274 52.3327 23.9638 52.4605 24.1371C52.5898 24.3104 52.6579 24.5071 52.665 24.7273H52.1537ZM55.7 28H55.146L56.7483 23.6364H57.2937L58.896 28H58.342L57.038 24.3267H57.0039L55.7 28ZM55.9045 26.2955H58.1375V26.7642H55.9045V26.2955ZM61.0423 28H59.6957V23.6364H61.1019C61.5252 23.6364 61.8874 23.7237 62.1886 23.8984C62.4897 24.0717 62.7205 24.321 62.881 24.6463C63.0416 24.9702 63.1218 25.358 63.1218 25.8097C63.1218 26.2642 63.0408 26.6555 62.8789 26.9837C62.717 27.3104 62.4812 27.5618 62.1715 27.7379C61.8619 27.9126 61.4854 28 61.0423 28ZM60.2241 27.5312H61.0082C61.369 27.5312 61.668 27.4616 61.9052 27.3224C62.1424 27.1832 62.3193 26.9851 62.4357 26.728C62.5522 26.4709 62.6104 26.1648 62.6104 25.8097C62.6104 25.4574 62.5529 25.1541 62.4379 24.8999C62.3228 24.6442 62.1509 24.4482 61.9222 24.3118C61.6935 24.174 61.4087 24.1051 61.0678 24.1051H60.2241V27.5312ZM65.4748 28H64.1282V23.6364H65.5344C65.9577 23.6364 66.3199 23.7237 66.6211 23.8984C66.9222 24.0717 67.153 24.321 67.3135 24.6463C67.4741 24.9702 67.5543 25.358 67.5543 25.8097C67.5543 26.2642 67.4733 26.6555 67.3114 26.9837C67.1495 27.3104 66.9137 27.5618 66.604 27.7379C66.2944 27.9126 65.9179 28 65.4748 28ZM64.6566 27.5312H65.4407C65.8015 27.5312 66.1005 27.4616 66.3377 27.3224C66.5749 27.1832 66.7518 26.9851 66.8682 26.728C66.9847 26.4709 67.0429 26.1648 67.0429 25.8097C67.0429 25.4574 66.9854 25.1541 66.8704 24.8999C66.7553 24.6442 66.5834 24.4482 66.3547 24.3118C66.126 24.174 65.8412 24.1051 65.5003 24.1051H64.6566V27.5312ZM68.5607 28V23.6364H70.0351C70.376 23.6364 70.6558 23.6946 70.8746 23.8111C71.0933 23.9261 71.2553 24.0845 71.3604 24.2862C71.4655 24.4879 71.5181 24.7173 71.5181 24.9744C71.5181 25.2315 71.4655 25.4595 71.3604 25.6584C71.2553 25.8572 71.0941 26.0135 70.8767 26.1271C70.6594 26.2393 70.3817 26.2955 70.0436 26.2955H68.8504V25.8182H70.0266C70.2595 25.8182 70.447 25.7841 70.5891 25.7159C70.7325 25.6477 70.8362 25.5511 70.9002 25.4261C70.9655 25.2997 70.9982 25.1491 70.9982 24.9744C70.9982 24.7997 70.9655 24.647 70.9002 24.5163C70.8348 24.3857 70.7304 24.2848 70.587 24.2138C70.4435 24.1413 70.2539 24.1051 70.0181 24.1051H69.0891V28H68.5607ZM70.6147 26.0398L71.6885 28H71.0749L70.0181 26.0398H70.6147ZM72.5186 28V23.6364H75.1521V24.1051H73.047V25.5795H75.0157V26.0483H73.047V27.5312H75.1862V28H72.5186ZM78.6109 24.7273C78.5853 24.5114 78.4816 24.3438 78.2998 24.2244C78.118 24.1051 77.895 24.0455 77.6308 24.0455C77.4376 24.0455 77.2685 24.0767 77.1237 24.1392C76.9802 24.2017 76.868 24.2876 76.787 24.397C76.7075 24.5064 76.6677 24.6307 76.6677 24.7699C76.6677 24.8864 76.6954 24.9865 76.7508 25.0703C76.8076 25.1527 76.88 25.2216 76.9681 25.277C77.0562 25.331 77.1485 25.3757 77.2451 25.4112C77.3417 25.4453 77.4305 25.473 77.5114 25.4943L77.9546 25.6136C78.0683 25.6435 78.1947 25.6847 78.3339 25.7372C78.4745 25.7898 78.6087 25.8615 78.7366 25.9524C78.8658 26.0419 78.9724 26.157 79.0562 26.2976C79.14 26.4382 79.1819 26.6108 79.1819 26.8153C79.1819 27.0511 79.1201 27.2642 78.9965 27.4545C78.8744 27.6449 78.6954 27.7962 78.4596 27.9084C78.2252 28.0206 77.9404 28.0767 77.6052 28.0767C77.2927 28.0767 77.0221 28.0263 76.7934 27.9254C76.5661 27.8246 76.3871 27.6839 76.2565 27.5036C76.1272 27.3232 76.054 27.1136 76.037 26.875H76.5825C76.5967 27.0398 76.6521 27.1761 76.7487 27.2841C76.8467 27.3906 76.9702 27.4702 77.1194 27.5227C77.27 27.5739 77.4319 27.5994 77.6052 27.5994C77.8069 27.5994 77.988 27.5668 78.1485 27.5014C78.309 27.4347 78.4362 27.3423 78.5299 27.2244C78.6237 27.1051 78.6705 26.9659 78.6705 26.8068C78.6705 26.6619 78.63 26.544 78.5491 26.4531C78.4681 26.3622 78.3616 26.2884 78.2295 26.2315C78.0974 26.1747 77.9546 26.125 77.8012 26.0824L77.2643 25.929C76.9234 25.831 76.6535 25.6911 76.4546 25.5092C76.2558 25.3274 76.1563 25.0895 76.1563 24.7955C76.1563 24.5511 76.2224 24.3381 76.3545 24.1562C76.488 23.973 76.667 23.831 76.8914 23.7301C77.1173 23.6278 77.3694 23.5767 77.6478 23.5767C77.929 23.5767 78.179 23.6271 78.3978 23.728C78.6165 23.8274 78.7898 23.9638 78.9177 24.1371C79.0469 24.3104 79.1151 24.5071 79.1222 24.7273H78.6109ZM82.557 24.7273C82.5315 24.5114 82.4278 24.3438 82.246 24.2244C82.0641 24.1051 81.8411 24.0455 81.5769 24.0455C81.3837 24.0455 81.2147 24.0767 81.0698 24.1392C80.9264 24.2017 80.8141 24.2876 80.7332 24.397C80.6536 24.5064 80.6139 24.6307 80.6139 24.7699C80.6139 24.8864 80.6416 24.9865 80.697 25.0703C80.7538 25.1527 80.8262 25.2216 80.9143 25.277C81.0024 25.331 81.0947 25.3757 81.1913 25.4112C81.2879 25.4453 81.3766 25.473 81.4576 25.4943L81.9008 25.6136C82.0144 25.6435 82.1408 25.6847 82.28 25.7372C82.4207 25.7898 82.5549 25.8615 82.6827 25.9524C82.812 26.0419 82.9185 26.157 83.0024 26.2976C83.0862 26.4382 83.1281 26.6108 83.1281 26.8153C83.1281 27.0511 83.0663 27.2642 82.9427 27.4545C82.8205 27.6449 82.6416 27.7962 82.4058 27.9084C82.1714 28.0206 81.8866 28.0767 81.5514 28.0767C81.2389 28.0767 80.9683 28.0263 80.7396 27.9254C80.5123 27.8246 80.3333 27.6839 80.2026 27.5036C80.0734 27.3232 80.0002 27.1136 79.9832 26.875H80.5286C80.5428 27.0398 80.5982 27.1761 80.6948 27.2841C80.7928 27.3906 80.9164 27.4702 81.0656 27.5227C81.2161 27.5739 81.3781 27.5994 81.5514 27.5994C81.7531 27.5994 81.9342 27.5668 82.0947 27.5014C82.2552 27.4347 82.3823 27.3423 82.4761 27.2244C82.5698 27.1051 82.6167 26.9659 82.6167 26.8068C82.6167 26.6619 82.5762 26.544 82.4952 26.4531C82.4143 26.3622 82.3077 26.2884 82.1756 26.2315C82.0435 26.1747 81.9008 26.125 81.7474 26.0824L81.2104 25.929C80.8695 25.831 80.5997 25.6911 80.4008 25.5092C80.2019 25.3274 80.1025 25.0895 80.1025 24.7955C80.1025 24.5511 80.1685 24.3381 80.3006 24.1562C80.4342 23.973 80.6131 23.831 80.8376 23.7301C81.0634 23.6278 81.3156 23.5767 81.594 23.5767C81.8752 23.5767 82.1252 23.6271 82.344 23.728C82.5627 23.8274 82.736 23.9638 82.8639 24.1371C82.9931 24.3104 83.0613 24.5071 83.0684 24.7273H82.557ZM86.4528 23.6364V28H85.9243V23.6364H86.4528ZM90.0186 24.7273C89.993 24.5114 89.8893 24.3438 89.7075 24.2244C89.5257 24.1051 89.3027 24.0455 89.0385 24.0455C88.8453 24.0455 88.6763 24.0767 88.5314 24.1392C88.3879 24.2017 88.2757 24.2876 88.1947 24.397C88.1152 24.5064 88.0754 24.6307 88.0754 24.7699C88.0754 24.8864 88.1031 24.9865 88.1585 25.0703C88.2153 25.1527 88.2878 25.2216 88.3758 25.277C88.4639 25.331 88.5562 25.3757 88.6528 25.4112C88.7494 25.4453 88.8382 25.473 88.9192 25.4943L89.3624 25.6136C89.476 25.6435 89.6024 25.6847 89.7416 25.7372C89.8822 25.7898 90.0165 25.8615 90.1443 25.9524C90.2736 26.0419 90.3801 26.157 90.4639 26.2976C90.5477 26.4382 90.5896 26.6108 90.5896 26.8153C90.5896 27.0511 90.5278 27.2642 90.4043 27.4545C90.2821 27.6449 90.1031 27.7962 89.8673 27.9084C89.6329 28.0206 89.3481 28.0767 89.0129 28.0767C88.7004 28.0767 88.4298 28.0263 88.2011 27.9254C87.9739 27.8246 87.7949 27.6839 87.6642 27.5036C87.5349 27.3232 87.4618 27.1136 87.4447 26.875H87.9902C88.0044 27.0398 88.0598 27.1761 88.1564 27.2841C88.2544 27.3906 88.378 27.4702 88.5271 27.5227C88.6777 27.5739 88.8396 27.5994 89.0129 27.5994C89.2146 27.5994 89.3957 27.5668 89.5562 27.5014C89.7168 27.4347 89.8439 27.3423 89.9376 27.2244C90.0314 27.1051 90.0783 26.9659 90.0783 26.8068C90.0783 26.6619 90.0378 26.544 89.9568 26.4531C89.8758 26.3622 89.7693 26.2884 89.6372 26.2315C89.5051 26.1747 89.3624 26.125 89.2089 26.0824L88.672 25.929C88.3311 25.831 88.0612 25.6911 87.8624 25.5092C87.6635 25.3274 87.5641 25.0895 87.5641 24.7955C87.5641 24.5511 87.6301 24.3381 87.7622 24.1562C87.8957 23.973 88.0747 23.831 88.2991 23.7301C88.525 23.6278 88.7771 23.5767 89.0555 23.5767C89.3368 23.5767 89.5868 23.6271 89.8055 23.728C90.0243 23.8274 90.1976 23.9638 90.3254 24.1371C90.4547 24.3104 90.5229 24.5071 90.53 24.7273H90.0186ZM93.5649 28H93.0109L94.6132 23.6364H95.1586L96.7609 28H96.2069L94.903 24.3267H94.8689L93.5649 28ZM93.7694 26.2955H96.0024V26.7642H93.7694V26.2955ZM99.5471 23.6364L100.843 27.3097H100.894L102.189 23.6364H102.743L101.141 28H100.595L98.9931 23.6364H99.5471ZM103.543 28V23.6364H106.176V24.1051H104.071V25.5795H106.04V26.0483H104.071V27.5312H106.21V28H103.543ZM107.249 28V23.6364H108.723C109.064 23.6364 109.344 23.6946 109.563 23.8111C109.781 23.9261 109.943 24.0845 110.048 24.2862C110.154 24.4879 110.206 24.7173 110.206 24.9744C110.206 25.2315 110.154 25.4595 110.048 25.6584C109.943 25.8572 109.782 26.0135 109.565 26.1271C109.347 26.2393 109.07 26.2955 108.732 26.2955H107.538V25.8182H108.715C108.948 25.8182 109.135 25.7841 109.277 25.7159C109.421 25.6477 109.524 25.5511 109.588 25.4261C109.654 25.2997 109.686 25.1491 109.686 24.9744C109.686 24.7997 109.654 24.647 109.588 24.5163C109.523 24.3857 109.418 24.2848 109.275 24.2138C109.132 24.1413 108.942 24.1051 108.706 24.1051H107.777V28H107.249ZM109.303 26.0398L110.377 28H109.763L108.706 26.0398H109.303ZM111.735 23.6364V28H111.207V23.6364H111.735ZM112.915 28V23.6364H115.531V24.1051H113.443V25.5795H115.335V26.0483H113.443V28H112.915ZM117.084 23.6364V28H116.556V23.6364H117.084ZM118.264 28V23.6364H120.897V24.1051H118.792V25.5795H120.761V26.0483H118.792V27.5312H120.931V28H118.264ZM123.316 28H121.97V23.6364H123.376C123.799 23.6364 124.162 23.7237 124.463 23.8984C124.764 24.0717 124.995 24.321 125.155 24.6463C125.316 24.9702 125.396 25.358 125.396 25.8097C125.396 26.2642 125.315 26.6555 125.153 26.9837C124.991 27.3104 124.755 27.5618 124.446 27.7379C124.136 27.9126 123.76 28 123.316 28ZM122.498 27.5312H123.282C123.643 27.5312 123.942 27.4616 124.179 27.3224C124.417 27.1832 124.593 26.9851 124.71 26.728C124.826 26.4709 124.885 26.1648 124.885 25.8097C124.885 25.4574 124.827 25.1541 124.712 24.8999C124.597 24.6442 124.425 24.4482 124.196 24.3118C123.968 24.174 123.683 24.1051 123.342 24.1051H122.498V27.5312ZM131.721 25H131.193C131.162 24.848 131.107 24.7145 131.029 24.5994C130.952 24.4844 130.858 24.3878 130.747 24.3097C130.638 24.2301 130.517 24.1705 130.383 24.1307C130.25 24.0909 130.11 24.071 129.965 24.071C129.701 24.071 129.462 24.1378 129.247 24.2713C129.034 24.4048 128.865 24.6016 128.738 24.8615C128.613 25.1214 128.551 25.4403 128.551 25.8182C128.551 26.196 128.613 26.5149 128.738 26.7749C128.865 27.0348 129.034 27.2315 129.247 27.3651C129.462 27.4986 129.701 27.5653 129.965 27.5653C130.11 27.5653 130.25 27.5455 130.383 27.5057C130.517 27.4659 130.638 27.407 130.747 27.3288C130.858 27.2493 130.952 27.152 131.029 27.0369C131.107 26.9205 131.162 26.7869 131.193 26.6364H131.721C131.681 26.8594 131.609 27.0589 131.504 27.2351C131.399 27.4112 131.268 27.5611 131.112 27.6847C130.956 27.8068 130.78 27.8999 130.586 27.9638C130.392 28.0277 130.186 28.0597 129.965 28.0597C129.593 28.0597 129.262 27.9688 128.973 27.7869C128.683 27.6051 128.455 27.3466 128.289 27.0114C128.122 26.6761 128.039 26.2784 128.039 25.8182C128.039 25.358 128.122 24.9602 128.289 24.625C128.455 24.2898 128.683 24.0312 128.973 23.8494C129.262 23.6676 129.593 23.5767 129.965 23.5767C130.186 23.5767 130.392 23.6087 130.586 23.6726C130.78 23.7365 130.956 23.8303 131.112 23.9538C131.268 24.076 131.399 24.2251 131.504 24.4013C131.609 24.576 131.681 24.7756 131.721 25ZM136.377 25.8182C136.377 26.2784 136.294 26.6761 136.128 27.0114C135.961 27.3466 135.733 27.6051 135.444 27.7869C135.154 27.9688 134.823 28.0597 134.451 28.0597C134.079 28.0597 133.748 27.9688 133.458 27.7869C133.168 27.6051 132.94 27.3466 132.774 27.0114C132.608 26.6761 132.525 26.2784 132.525 25.8182C132.525 25.358 132.608 24.9602 132.774 24.625C132.94 24.2898 133.168 24.0312 133.458 23.8494C133.748 23.6676 134.079 23.5767 134.451 23.5767C134.823 23.5767 135.154 23.6676 135.444 23.8494C135.733 24.0312 135.961 24.2898 136.128 24.625C136.294 24.9602 136.377 25.358 136.377 25.8182ZM135.866 25.8182C135.866 25.4403 135.802 25.1214 135.676 24.8615C135.551 24.6016 135.381 24.4048 135.167 24.2713C134.954 24.1378 134.715 24.071 134.451 24.071C134.187 24.071 133.947 24.1378 133.733 24.2713C133.52 24.4048 133.35 24.6016 133.223 24.8615C133.098 25.1214 133.036 25.4403 133.036 25.8182C133.036 26.196 133.098 26.5149 133.223 26.7749C133.35 27.0348 133.52 27.2315 133.733 27.3651C133.947 27.4986 134.187 27.5653 134.451 27.5653C134.715 27.5653 134.954 27.4986 135.167 27.3651C135.381 27.2315 135.551 27.0348 135.676 26.7749C135.802 26.5149 135.866 26.196 135.866 25.8182ZM140.249 23.6364H140.777V26.5256C140.777 26.8239 140.707 27.0902 140.566 27.3246C140.427 27.5575 140.231 27.7415 139.976 27.8764C139.722 28.0099 139.424 28.0767 139.081 28.0767C138.739 28.0767 138.441 28.0099 138.187 27.8764C137.932 27.7415 137.735 27.5575 137.594 27.3246C137.455 27.0902 137.385 26.8239 137.385 26.5256V23.6364H137.914V26.483C137.914 26.696 137.961 26.8857 138.054 27.0518C138.148 27.2166 138.282 27.3466 138.455 27.4418C138.63 27.5355 138.838 27.5824 139.081 27.5824C139.324 27.5824 139.533 27.5355 139.708 27.4418C139.883 27.3466 140.016 27.2166 140.108 27.0518C140.202 26.8857 140.249 26.696 140.249 26.483V23.6364ZM145.413 23.6364V28H144.901L142.524 24.5739H142.481V28H141.953V23.6364H142.464L144.85 27.071H144.893V23.6364H145.413ZM150.102 25H149.573C149.542 24.848 149.487 24.7145 149.409 24.5994C149.332 24.4844 149.239 24.3878 149.128 24.3097C149.018 24.2301 148.897 24.1705 148.764 24.1307C148.63 24.0909 148.491 24.071 148.346 24.071C148.082 24.071 147.842 24.1378 147.628 24.2713C147.415 24.4048 147.245 24.6016 147.119 24.8615C146.994 25.1214 146.931 25.4403 146.931 25.8182C146.931 26.196 146.994 26.5149 147.119 26.7749C147.245 27.0348 147.415 27.2315 147.628 27.3651C147.842 27.4986 148.082 27.5653 148.346 27.5653C148.491 27.5653 148.63 27.5455 148.764 27.5057C148.897 27.4659 149.018 27.407 149.128 27.3288C149.239 27.2493 149.332 27.152 149.409 27.0369C149.487 26.9205 149.542 26.7869 149.573 26.6364H150.102C150.062 26.8594 149.989 27.0589 149.884 27.2351C149.779 27.4112 149.648 27.5611 149.492 27.6847C149.336 27.8068 149.161 27.8999 148.966 27.9638C148.773 28.0277 148.566 28.0597 148.346 28.0597C147.974 28.0597 147.643 27.9688 147.353 27.7869C147.063 27.6051 146.835 27.3466 146.669 27.0114C146.503 26.6761 146.42 26.2784 146.42 25.8182C146.42 25.358 146.503 24.9602 146.669 24.625C146.835 24.2898 147.063 24.0312 147.353 23.8494C147.643 23.6676 147.974 23.5767 148.346 23.5767C148.566 23.5767 148.773 23.6087 148.966 23.6726C149.161 23.7365 149.336 23.8303 149.492 23.9538C149.648 24.076 149.779 24.2251 149.884 24.4013C149.989 24.576 150.062 24.7756 150.102 25ZM151.604 23.6364V28H151.075V23.6364H151.604ZM152.783 28V23.6364H153.312V27.5312H155.34V28H152.783ZM158.086 23.6364H158.717L160.199 27.2585H160.251L161.734 23.6364H162.364V28H161.87V24.6847H161.827L160.464 28H159.986L158.623 24.6847H158.58V28H158.086V23.6364ZM163.544 28V23.6364H166.177V24.1051H164.072V25.5795H166.041V26.0483H164.072V27.5312H166.211V28H163.544ZM167.25 23.6364H167.88L169.363 27.2585H169.414L170.897 23.6364H171.528V28H171.034V24.6847H170.991L169.628 28H169.15L167.787 24.6847H167.744V28H167.25V23.6364ZM172.708 28V23.6364H174.233C174.537 23.6364 174.788 23.6889 174.985 23.794C175.183 23.8977 175.33 24.0376 175.426 24.2138C175.523 24.3885 175.571 24.5824 175.571 24.7955C175.571 24.983 175.538 25.1378 175.471 25.2599C175.406 25.3821 175.319 25.4787 175.211 25.5497C175.105 25.6207 174.989 25.6733 174.864 25.7074V25.75C174.997 25.7585 175.132 25.8054 175.266 25.8906C175.401 25.9759 175.514 26.098 175.605 26.2571C175.696 26.4162 175.742 26.6108 175.742 26.8409C175.742 27.0597 175.692 27.2564 175.592 27.4311C175.493 27.6058 175.336 27.7443 175.122 27.8466C174.907 27.9489 174.628 28 174.284 28H172.708ZM173.236 27.5312H174.284C174.629 27.5312 174.874 27.4645 175.019 27.331C175.166 27.196 175.239 27.0327 175.239 26.8409C175.239 26.6932 175.201 26.5568 175.126 26.4318C175.051 26.3054 174.943 26.2045 174.804 26.1293C174.665 26.0526 174.5 26.0142 174.31 26.0142H173.236V27.5312ZM173.236 25.554H174.216C174.375 25.554 174.519 25.5227 174.646 25.4602C174.776 25.3977 174.878 25.3097 174.953 25.196C175.03 25.0824 175.068 24.9489 175.068 24.7955C175.068 24.6037 175.002 24.4411 174.868 24.3075C174.735 24.1726 174.523 24.1051 174.233 24.1051H173.236V25.554ZM176.73 28V23.6364H179.363V24.1051H177.258V25.5795H179.227V26.0483H177.258V27.5312H179.398V28H176.73ZM180.436 28V23.6364H181.91C182.251 23.6364 182.531 23.6946 182.75 23.8111C182.969 23.9261 183.13 24.0845 183.236 24.2862C183.341 24.4879 183.393 24.7173 183.393 24.9744C183.393 25.2315 183.341 25.4595 183.236 25.6584C183.13 25.8572 182.969 26.0135 182.752 26.1271C182.535 26.2393 182.257 26.2955 181.919 26.2955H180.726V25.8182H181.902C182.135 25.8182 182.322 25.7841 182.464 25.7159C182.608 25.6477 182.711 25.5511 182.775 25.4261C182.841 25.2997 182.873 25.1491 182.873 24.9744C182.873 24.7997 182.841 24.647 182.775 24.5163C182.71 24.3857 182.606 24.2848 182.462 24.2138C182.319 24.1413 182.129 24.1051 181.893 24.1051H180.964V28H180.436ZM182.49 26.0398L183.564 28H182.95L181.893 26.0398H182.49ZM186.38 28H185.826L187.428 23.6364H187.974L189.576 28H189.022L187.718 24.3267H187.684L186.38 28ZM186.585 26.2955H188.818V26.7642H186.585V26.2955ZM191.723 28H190.376V23.6364H191.782C192.205 23.6364 192.568 23.7237 192.869 23.8984C193.17 24.0717 193.401 24.321 193.561 24.6463C193.722 24.9702 193.802 25.358 193.802 25.8097C193.802 26.2642 193.721 26.6555 193.559 26.9837C193.397 27.3104 193.161 27.5618 192.852 27.7379C192.542 27.9126 192.166 28 191.723 28ZM190.904 27.5312H191.688C192.049 27.5312 192.348 27.4616 192.585 27.3224C192.823 27.1832 192.999 26.9851 193.116 26.728C193.232 26.4709 193.291 26.1648 193.291 25.8097C193.291 25.4574 193.233 25.1541 193.118 24.8999C193.003 24.6442 192.831 24.4482 192.602 24.3118C192.374 24.174 192.089 24.1051 191.748 24.1051H190.904V27.5312ZM196.155 28H194.808V23.6364H196.215C196.638 23.6364 197 23.7237 197.301 23.8984C197.602 24.0717 197.833 24.321 197.994 24.6463C198.154 24.9702 198.235 25.358 198.235 25.8097C198.235 26.2642 198.154 26.6555 197.992 26.9837C197.83 27.3104 197.594 27.5618 197.284 27.7379C196.975 27.9126 196.598 28 196.155 28ZM195.337 27.5312H196.121C196.482 27.5312 196.781 27.4616 197.018 27.3224C197.255 27.1832 197.432 26.9851 197.548 26.728C197.665 26.4709 197.723 26.1648 197.723 25.8097C197.723 25.4574 197.666 25.1541 197.551 24.8999C197.436 24.6442 197.264 24.4482 197.035 24.3118C196.806 24.174 196.521 24.1051 196.181 24.1051H195.337V27.5312ZM199.241 28V23.6364H200.715C201.056 23.6364 201.336 23.6946 201.555 23.8111C201.774 23.9261 201.936 24.0845 202.041 24.2862C202.146 24.4879 202.198 24.7173 202.198 24.9744C202.198 25.2315 202.146 25.4595 202.041 25.6584C201.936 25.8572 201.774 26.0135 201.557 26.1271C201.34 26.2393 201.062 26.2955 200.724 26.2955H199.531V25.8182H200.707C200.94 25.8182 201.127 25.7841 201.269 25.7159C201.413 25.6477 201.516 25.5511 201.58 25.4261C201.646 25.2997 201.678 25.1491 201.678 24.9744C201.678 24.7997 201.646 24.647 201.58 24.5163C201.515 24.3857 201.411 24.2848 201.267 24.2138C201.124 24.1413 200.934 24.1051 200.698 24.1051H199.769V28H199.241ZM201.295 26.0398L202.369 28H201.755L200.698 26.0398H201.295ZM203.199 28V23.6364H205.832V24.1051H203.727V25.5795H205.696V26.0483H203.727V27.5312H205.866V28H203.199ZM209.291 24.7273C209.266 24.5114 209.162 24.3438 208.98 24.2244C208.798 24.1051 208.575 24.0455 208.311 24.0455C208.118 24.0455 207.949 24.0767 207.804 24.1392C207.66 24.2017 207.548 24.2876 207.467 24.397C207.388 24.5064 207.348 24.6307 207.348 24.7699C207.348 24.8864 207.376 24.9865 207.431 25.0703C207.488 25.1527 207.56 25.2216 207.648 25.277C207.736 25.331 207.829 25.3757 207.925 25.4112C208.022 25.4453 208.111 25.473 208.192 25.4943L208.635 25.6136C208.748 25.6435 208.875 25.6847 209.014 25.7372C209.155 25.7898 209.289 25.8615 209.417 25.9524C209.546 26.0419 209.653 26.157 209.736 26.2976C209.82 26.4382 209.862 26.6108 209.862 26.8153C209.862 27.0511 209.8 27.2642 209.677 27.4545C209.555 27.6449 209.376 27.7962 209.14 27.9084C208.905 28.0206 208.621 28.0767 208.285 28.0767C207.973 28.0767 207.702 28.0263 207.474 27.9254C207.246 27.8246 207.067 27.6839 206.937 27.5036C206.807 27.3232 206.734 27.1136 206.717 26.875H207.263C207.277 27.0398 207.332 27.1761 207.429 27.2841C207.527 27.3906 207.65 27.4702 207.8 27.5227C207.95 27.5739 208.112 27.5994 208.285 27.5994C208.487 27.5994 208.668 27.5668 208.829 27.5014C208.989 27.4347 209.116 27.3423 209.21 27.2244C209.304 27.1051 209.351 26.9659 209.351 26.8068C209.351 26.6619 209.31 26.544 209.229 26.4531C209.148 26.3622 209.042 26.2884 208.91 26.2315C208.778 26.1747 208.635 26.125 208.481 26.0824L207.945 25.929C207.604 25.831 207.334 25.6911 207.135 25.5092C206.936 25.3274 206.837 25.0895 206.837 24.7955C206.837 24.5511 206.903 24.3381 207.035 24.1562C207.168 23.973 207.347 23.831 207.572 23.7301C207.797 23.6278 208.05 23.5767 208.328 23.5767C208.609 23.5767 208.859 23.6271 209.078 23.728C209.297 23.8274 209.47 23.9638 209.598 24.1371C209.727 24.3104 209.795 24.5071 209.802 24.7273H209.291ZM213.237 24.7273C213.212 24.5114 213.108 24.3438 212.926 24.2244C212.744 24.1051 212.521 24.0455 212.257 24.0455C212.064 24.0455 211.895 24.0767 211.75 24.1392C211.607 24.2017 211.494 24.2876 211.413 24.397C211.334 24.5064 211.294 24.6307 211.294 24.7699C211.294 24.8864 211.322 24.9865 211.377 25.0703C211.434 25.1527 211.506 25.2216 211.595 25.277C211.683 25.331 211.775 25.3757 211.872 25.4112C211.968 25.4453 212.057 25.473 212.138 25.4943L212.581 25.6136C212.695 25.6435 212.821 25.6847 212.96 25.7372C213.101 25.7898 213.235 25.8615 213.363 25.9524C213.492 26.0419 213.599 26.157 213.683 26.2976C213.766 26.4382 213.808 26.6108 213.808 26.8153C213.808 27.0511 213.747 27.2642 213.623 27.4545C213.501 27.6449 213.322 27.7962 213.086 27.9084C212.852 28.0206 212.567 28.0767 212.232 28.0767C211.919 28.0767 211.648 28.0263 211.42 27.9254C211.193 27.8246 211.014 27.6839 210.883 27.5036C210.754 27.3232 210.68 27.1136 210.663 26.875H211.209C211.223 27.0398 211.278 27.1761 211.375 27.2841C211.473 27.3906 211.597 27.4702 211.746 27.5227C211.896 27.5739 212.058 27.5994 212.232 27.5994C212.433 27.5994 212.614 27.5668 212.775 27.5014C212.935 27.4347 213.063 27.3423 213.156 27.2244C213.25 27.1051 213.297 26.9659 213.297 26.8068C213.297 26.6619 213.256 26.544 213.175 26.4531C213.095 26.3622 212.988 26.2884 212.856 26.2315C212.724 26.1747 212.581 26.125 212.428 26.0824L211.891 25.929C211.55 25.831 211.28 25.6911 211.081 25.5092C210.882 25.3274 210.783 25.0895 210.783 24.7955C210.783 24.5511 210.849 24.3381 210.981 24.1562C211.114 23.973 211.293 23.831 211.518 23.7301C211.744 23.6278 211.996 23.5767 212.274 23.5767C212.555 23.5767 212.805 23.6271 213.024 23.728C213.243 23.8274 213.416 23.9638 213.544 24.1371C213.673 24.3104 213.742 24.5071 213.749 24.7273H213.237Z" fill="#A6A6A6"/>
<defs>
<linearGradient id="paint0_linear_7338_460" x1="7.29465" y1="23.8132" x2="10.0345" y2="18.1274" gradientUnits="userSpaceOnUse">
<stop stop-color="white" stop-opacity="0.01"/>
<stop offset="1" stop-color="white"/>
</linearGradient>
<linearGradient id="paint1_linear_7338_460" x1="0.0650221" y1="13.8029" x2="5.94167" y2="2.05975" gradientUnits="userSpaceOnUse">
<stop stop-color="white" stop-opacity="0.01"/>
<stop offset="1" stop-color="white"/>
</linearGradient>
<linearGradient id="paint2_linear_7338_460" x1="6.15093" y1="20.7247" x2="12.0276" y2="8.98165" gradientUnits="userSpaceOnUse">
<stop stop-color="white" stop-opacity="0.01"/>
<stop offset="1" stop-color="white"/>
</linearGradient>
</defs>
</svg>
