<svg width="262" height="262" viewBox="0 0 262 262" fill="none" xmlns="http://www.w3.org/2000/svg">
<g clip-path="url(#clip0_7338_426)">
<g filter="url(#filter0_d_7338_426)">
<path d="M131 258C201.692 258 259 200.692 259 130C259 59.3076 201.692 2 131 2C60.3076 2 3 59.3076 3 130C3 200.692 60.3076 258 131 258Z" fill="#56C77A"/>
</g>
<path opacity="0.668" d="M55.2539 123.194C52.566 122.957 49.8821 122.727 47.1643 122.494C44.0272 122.225 40.8448 121.953 37.5586 121.66C41.4287 90.3011 56.1466 65.99 83.1165 49.9227C111.044 33.319 140.18 32.6144 170.121 45.0748C167.53 50.6582 165.073 55.938 162.621 61.2097C111.797 38.7061 58.9292 75.303 55.2539 123.194Z" fill="url(#paint0_linear_7338_426)" stroke="#2EBD5B"/>
<path d="M223.662 113.992C217.591 115.036 211.52 116.119 205.217 117.202C208.465 139.165 203.98 158.925 190.562 176.287C177.221 193.533 159.395 203.007 137.547 205.443C138.088 211.63 138.591 217.701 139.132 223.734C184.839 222.11 233.832 176.171 223.662 113.992Z" fill="white"/>
<path d="M55.4422 136.918C49.6419 137.421 43.571 137.962 37.5 138.465C38.8921 176.785 72.3404 219.901 122.764 224C123.306 217.774 123.847 211.742 124.35 205.825C84.9464 199.252 62.0932 176.399 55.4422 136.918Z" fill="white"/>
<path opacity="0.668" d="M190.621 84.3661C195.339 90.4758 198.935 97.1267 201.758 104.551C207.635 102.424 213.397 100.336 219.429 98.1321C212.43 79.5712 201.062 64.7998 184.937 53.1992C181.341 58.3035 177.822 63.3304 174.148 68.5893C180.374 73.1135 185.942 78.2951 190.621 84.3661Z" fill="url(#paint1_linear_7338_426)"/>
<path d="M190.613 129.994C190.613 97.0485 163.932 70.3672 130.986 70.3672C98.0407 70.3672 71.3594 97.0485 71.3594 129.994C71.3594 162.94 98.0407 189.621 130.986 189.621C163.932 189.621 190.613 162.94 190.613 129.994ZM148.117 153.505C145.526 156.676 142.123 158.802 138.179 159.885C136.439 160.349 135.665 161.277 135.781 163.056C135.859 164.796 135.781 166.575 135.781 168.353C135.781 169.939 134.969 170.751 133.422 170.79C132.417 170.828 131.412 170.828 130.406 170.828C129.517 170.828 128.628 170.828 127.738 170.79C126.075 170.751 125.302 169.823 125.263 168.199C125.263 166.923 125.225 165.608 125.225 164.332C125.186 161.509 125.109 161.393 122.363 160.929C118.883 160.388 115.442 159.576 112.232 158.029C109.719 156.792 109.448 156.173 110.183 153.543C110.724 151.571 111.265 149.638 111.884 147.666C112.348 146.235 112.735 145.616 113.508 145.616C113.934 145.616 114.514 145.81 115.287 146.235C118.806 148.091 122.595 149.096 126.501 149.599C127.158 149.676 127.854 149.715 128.512 149.715C130.368 149.715 132.146 149.367 133.887 148.632C138.256 146.738 138.952 141.633 135.24 138.579C133.964 137.535 132.533 136.761 131.064 136.104C127.236 134.402 123.214 133.126 119.579 130.961C113.701 127.442 109.951 122.608 110.376 115.416C110.879 107.296 115.442 102.269 122.866 99.562C125.921 98.4406 125.959 98.4793 125.959 95.2698C125.959 94.187 125.959 93.1043 125.959 92.0216C126.037 89.6242 126.423 89.1988 128.821 89.1215C129.092 89.1215 129.362 89.1215 129.672 89.1215C130.136 89.1215 130.6 89.1215 131.064 89.1215C131.257 89.1215 131.45 89.1215 131.605 89.1215C136.168 89.1215 136.168 89.3148 136.207 94.2257C136.207 97.8606 136.207 97.8606 139.841 98.4406C142.587 98.8659 145.255 99.678 147.807 100.799C149.199 101.418 149.741 102.423 149.315 103.893C148.658 106.097 148.078 108.34 147.382 110.505C146.956 111.859 146.531 112.439 145.758 112.439C145.332 112.439 144.791 112.245 144.095 111.897C140.538 110.196 136.864 109.345 132.997 109.345C132.494 109.345 131.992 109.345 131.489 109.384C130.329 109.461 129.208 109.616 128.125 110.08C124.297 111.743 123.678 115.957 126.926 118.548C128.55 119.863 130.445 120.83 132.417 121.642C135.781 123.034 139.184 124.387 142.394 126.166C152.563 131.928 155.309 144.766 148.117 153.505Z" fill="white"/>
</g>
<defs>
<filter id="filter0_d_7338_426" x="0" y="0" width="262" height="262" filterUnits="userSpaceOnUse" color-interpolation-filters="sRGB">
<feFlood flood-opacity="0" result="BackgroundImageFix"/>
<feColorMatrix in="SourceAlpha" type="matrix" values="0 0 0 0 0 0 0 0 0 0 0 0 0 0 0 0 0 0 127 0" result="hardAlpha"/>
<feOffset dy="1"/>
<feGaussianBlur stdDeviation="1.5"/>
<feColorMatrix type="matrix" values="0 0 0 0 0.958333 0 0 0 0 0.127778 0 0 0 0 0.127778 0 0 0 0.05 0"/>
<feBlend mode="normal" in2="BackgroundImageFix" result="effect1_dropShadow_7338_426"/>
<feBlend mode="normal" in="SourceGraphic" in2="effect1_dropShadow_7338_426" result="shape"/>
</filter>
<linearGradient id="paint0_linear_7338_426" x1="-182.883" y1="137.978" x2="-116.548" y2="-48.4047" gradientUnits="userSpaceOnUse">
<stop stop-color="white" stop-opacity="0.01"/>
<stop offset="1" stop-color="white"/>
</linearGradient>
<linearGradient id="paint1_linear_7338_426" x1="99.7314" y1="112.887" x2="154.596" y2="23.7488" gradientUnits="userSpaceOnUse">
<stop stop-color="white" stop-opacity="0.01"/>
<stop offset="1" stop-color="white"/>
</linearGradient>
<clipPath id="clip0_7338_426">
<rect width="262" height="262" fill="white"/>
</clipPath>
</defs>
</svg>
