<svg width="16" height="16" viewBox="0 0 16 16" fill="none" xmlns="http://www.w3.org/2000/svg">
<rect width="16" height="16" rx="4" fill="#4CD9B7"/>
<path opacity="0.668" fill-rule="evenodd" clip-rule="evenodd" d="M8.65795 11.6454C8.65795 11.4227 8.84232 11.2422 9.06974 11.2422H12.1793C12.4067 11.2422 12.5911 11.4228 12.5911 11.6454C12.5911 11.7132 12.5737 11.7799 12.5405 11.839H13.1318V12.675H8.11719V11.839H8.70852C8.67529 11.7799 8.65789 11.7132 8.65795 11.6454Z" fill="url(#paint0_linear_7338_440)"/>
<path opacity="0.668" fill-rule="evenodd" clip-rule="evenodd" d="M8.70519 4.26559L6.36926 6.31804C6.18361 6.45244 5.92246 6.42674 5.76779 6.25206L5.6123 6.07655C5.44806 5.89104 5.46607 5.60785 5.65255 5.44398L7.924 3.4482C8.11045 3.28436 8.39478 3.3019 8.55906 3.48741L8.71454 3.66296C8.86923 3.8376 8.8622 4.09889 8.70519 4.26559Z" fill="url(#paint1_linear_7338_440)"/>
<path fill-rule="evenodd" clip-rule="evenodd" d="M2.68214 11.6949L2.67775 11.6553L2.67513 11.6177C2.67277 11.5922 2.67277 11.5691 2.67221 11.5455C2.67003 11.4509 2.67881 11.3688 2.69351 11.2935C2.72385 11.1437 2.78141 11.0247 2.86027 10.9299C2.87983 10.9061 2.90138 10.8845 2.92275 10.8626L2.98673 10.797C3.02915 10.753 3.07275 10.7103 3.11595 10.6672C3.15911 10.6241 3.2027 10.5813 3.24672 10.5391C3.29033 10.4965 3.33437 10.4543 3.37881 10.4125C3.46724 10.3286 3.55648 10.2456 3.64652 10.1634L3.78195 10.0406L3.91843 9.91892C4.00971 9.83819 4.10149 9.75806 4.19377 9.67849C4.28595 9.59873 4.37876 9.51971 4.47217 9.44142L4.75286 9.20704L5.03615 8.97553L5.32158 8.7464L5.60894 8.51953L5.89818 8.29473L6.18923 8.07208C6.28675 7.99837 6.38416 7.92454 6.48254 7.8518C6.58061 7.77889 6.67857 7.7056 6.77762 7.63367L6.89945 7.77168L7.35454 7.46231L6.66794 6.68478L9.00547 4.625L10.694 6.53719L8.35649 8.59696L7.66984 7.81938L7.3058 8.23183L7.42764 8.36991C7.34379 8.45913 7.25884 8.54695 7.17414 8.63513C7.08962 8.72356 7.00419 8.81089 6.91881 8.89828L6.66135 9.15904L6.40193 9.41767L6.14074 9.67415L5.87759 9.92844L5.61231 10.1804L5.34447 10.4293C5.25504 10.5121 5.16496 10.5943 5.07424 10.6757C4.98369 10.7573 4.89262 10.8382 4.80105 10.9187L4.66322 11.0387L4.52437 11.1576C4.43127 11.2363 4.33808 11.3148 4.24348 11.3918C4.19647 11.4307 4.14908 11.469 4.10133 11.5069C4.05385 11.5453 4.00598 11.5832 3.95774 11.6205C3.90949 11.658 3.86168 11.6959 3.81269 11.7324L3.73952 11.7876C3.71514 11.806 3.69097 11.8247 3.66486 11.8411C3.56086 11.9074 3.43556 11.9497 3.283 11.961C3.19855 11.9669 3.11372 11.9634 3.03003 11.9507C3.0066 11.9473 2.9837 11.9443 2.95854 11.9388L2.9216 11.9315L2.88285 11.9222C2.83121 11.9097 2.7753 11.8924 2.71394 11.869C2.69966 11.8117 2.68905 11.7535 2.68217 11.6949H2.68214Z" fill="white"/>
<path opacity="0.668" fill-rule="evenodd" clip-rule="evenodd" d="M11.7133 7.75644L9.44195 9.75216C9.25545 9.91601 8.97111 9.89848 8.80684 9.71296L8.65136 9.53738C8.49667 9.36273 8.50369 9.10148 8.6607 8.93476L10.9966 6.88236C11.1823 6.74795 11.4434 6.7736 11.5981 6.94832L11.7535 7.12383C11.9179 7.30935 11.8998 7.59253 11.7133 7.75644Z" fill="url(#paint2_linear_7338_440)"/>
<defs>
<linearGradient id="paint0_linear_7338_440" x1="3.65123" y1="11.9066" x2="5.02115" y2="9.06368" gradientUnits="userSpaceOnUse">
<stop stop-color="white" stop-opacity="0.01"/>
<stop offset="1" stop-color="white"/>
</linearGradient>
<linearGradient id="paint1_linear_7338_440" x1="0.032511" y1="6.90143" x2="2.97084" y2="1.02987" gradientUnits="userSpaceOnUse">
<stop stop-color="white" stop-opacity="0.01"/>
<stop offset="1" stop-color="white"/>
</linearGradient>
<linearGradient id="paint2_linear_7338_440" x1="3.07156" y1="10.3624" x2="6.00991" y2="4.49083" gradientUnits="userSpaceOnUse">
<stop stop-color="white" stop-opacity="0.01"/>
<stop offset="1" stop-color="white"/>
</linearGradient>
</defs>
</svg>
