<svg width="144" height="144" viewBox="0 0 144 144" fill="none" xmlns="http://www.w3.org/2000/svg">
<g clip-path="url(#clip0_7259_1307)">
<path d="M122.913 122.992C151.031 94.9808 151.031 49.5661 122.913 21.5551C94.7954 -6.45579 49.2074 -6.45579 21.0896 21.5551C-7.02826 49.5661 -7.02826 94.9808 21.0896 122.992C49.2074 151.003 94.7954 151.003 122.913 122.992Z" fill="#4A5C6B"/>
<path d="M121.612 121.695C149.011 94.4003 149.011 50.1465 121.612 22.8516C94.2125 -4.44331 49.7898 -4.44331 22.3907 22.8516C-5.00838 50.1465 -5.00838 94.4003 22.3907 121.695C49.7898 148.99 94.2125 148.99 121.612 121.695Z" fill="#384E61"/>
<path d="M121.749 22.9941L22.5342 121.831C29.241 128.474 37.2254 133.698 46.0086 137.19L137.168 46.3797C133.661 37.6297 128.417 29.6755 121.749 22.9941Z" fill="#4A5C6B"/>
<path d="M112.507 15.2207L14.7314 112.623C15.871 114.225 17.0733 115.777 18.3383 117.281L117.179 18.8143C115.675 17.551 114.118 16.3532 112.507 15.2207Z" fill="#4A5C6B"/>
<g style="mix-blend-mode:soft-light">
<path d="M73.3811 124.214C101.458 124.214 124.218 101.539 124.218 73.5697C124.218 45.5998 101.458 22.9258 73.3811 22.9258C45.3045 22.9258 22.5439 45.5998 22.5439 73.5697C22.5439 101.539 45.3045 124.214 73.3811 124.214Z" fill="#8C3F56"/>
</g>
<path d="M107.948 108.084C127.801 88.3064 127.801 56.2405 107.948 36.4628C88.0952 16.6851 55.9069 16.6851 36.0537 36.4628C16.2006 56.2405 16.2006 88.3064 36.0537 108.084C55.9069 127.862 88.0952 127.862 107.948 108.084Z" fill="#D20398"/>
<g style="mix-blend-mode:multiply">
<path d="M23.9241 75.0233C23.9221 65.1723 26.8047 55.5346 32.2187 47.2912C37.6327 39.0478 45.3429 32.5567 54.4046 28.6133C63.4663 24.6698 73.4859 23.4453 83.2358 25.0897C92.9856 26.7341 102.042 31.176 109.296 37.8713C104.65 32.87 99.038 28.8544 92.7969 26.0651C86.5558 23.2758 79.8138 21.7702 72.9747 21.6384C66.1356 21.5066 59.3401 22.7513 52.9954 25.2981C46.6507 27.8448 40.8873 31.6411 36.0504 36.4596C31.2135 41.2781 27.4027 47.0196 24.8462 53.3402C22.2898 59.6608 21.0403 66.4304 21.1726 73.2436C21.3049 80.0567 22.8163 86.7731 25.6163 92.9904C28.4162 99.2078 32.4471 104.798 37.4674 109.427C28.748 100.078 23.9086 87.7847 23.9241 75.0233Z" fill="#A84569"/>
</g>
<path d="M123.401 73.1872C123.446 87.1163 118.092 100.495 108.512 110.391C98.9331 120.287 85.9105 125.892 72.2995 125.977C58.6884 126.063 45.5994 120.622 35.9021 110.847C26.2047 101.073 20.6902 87.7625 20.5674 73.8339V73.1872C20.5674 59.2318 25.9846 45.848 35.6274 35.9801C45.2702 26.1121 58.3486 20.5684 71.9856 20.5684H72.6199C86.1476 20.7341 99.066 26.3508 108.573 36.2003C118.081 46.0498 123.405 59.3427 123.401 73.1872Z" fill="#1A2E41"/>
<path d="M108.374 38.2134L35.6296 110.945C26.1158 101.465 20.7067 88.6281 20.5674 75.1996V74.5675C20.5674 60.9285 25.9866 47.8481 35.6329 38.2035C45.2793 28.5589 58.3627 23.1399 72.0053 23.1387H72.6399C86.0651 23.297 98.8937 28.7089 108.374 38.2134Z" fill="#2C465E"/>
<path d="M123.406 71.9866C123.406 78.7391 122.147 85.4256 119.702 91.6642C117.256 97.9028 113.671 103.571 109.151 108.346C104.632 113.121 99.2662 116.909 93.3611 119.493C87.456 122.077 81.1269 123.407 74.7352 123.407C73.8122 123.407 72.8959 123.38 71.9863 123.327C84.4008 122.587 96.0764 116.855 104.617 107.309C113.158 97.7619 117.917 85.1239 117.917 71.9878C117.917 58.8516 113.158 46.2136 104.617 36.6669C96.0764 27.1202 84.4008 21.3888 71.9863 20.6488C72.8959 20.5952 73.8122 20.5684 74.7352 20.5684C87.6434 20.5684 100.023 25.9856 109.15 35.6284C118.278 45.2712 123.406 58.3496 123.406 71.9866Z" fill="#151520"/>
</g>
<path d="M92.8153 52.5655C92.928 52.8098 92.9866 53.0752 92.9871 53.344V59.6307C92.9822 61.598 92.5168 63.5372 91.6279 65.2947C90.7389 67.0523 89.4508 68.58 87.8654 69.757C85.3342 71.7337 82.7415 73.5881 80.0894 75.453L74.3778 79.4002C73.6287 79.9404 72.7095 80.1957 71.7873 80.1196C71.3101 80.0643 70.843 79.9428 70.3997 79.7588C70.0053 79.5624 69.6228 79.3434 69.254 79.1027C64.0707 75.5691 58.8874 72.0375 53.8251 68.3267C51.5337 66.7107 49.3059 65.0335 47.0145 63.3584C46.7132 63.1791 46.4735 62.9365 46.1658 62.7593C45.3188 62.1073 44.7402 61.1704 44.5385 60.1244C44.4851 59.8464 44.4645 59.5632 44.477 59.2805V53.595C44.4859 53.3537 44.4659 53.1122 44.4176 52.8756C44.3999 52.8406 44.3906 52.802 44.3906 52.7628C44.3906 52.7236 44.3999 52.6849 44.4176 52.6499C44.4351 52.6156 44.4605 52.586 44.4918 52.5634C44.5236 52.5407 44.5597 52.5249 44.5979 52.517H44.6573C44.6713 52.6181 44.6918 52.7181 44.7189 52.8166C44.7672 53.4037 45.0236 53.9546 45.4424 54.3714C45.7435 54.7523 46.1106 55.0767 46.5265 55.3291C52.5521 59.8185 58.7007 64.1896 64.9088 68.4997C66.3558 69.5186 67.86 70.4743 69.3091 71.4911C69.8928 71.8985 70.5432 72.2019 71.2314 72.3877C72.0398 72.5799 72.8898 72.4951 73.6437 72.1472C73.9257 72.0243 74.1891 71.8631 74.4266 71.6683C78.4048 68.8562 82.3214 66.101 86.3081 63.2867C87.091 62.7488 87.8145 62.2108 88.5316 61.6117C90.4202 59.9264 91.7987 57.7507 92.5119 55.3291C92.6222 54.9169 92.703 54.4975 92.7537 54.0739C92.805 53.8377 92.8256 53.5959 92.8153 53.3545V52.5655ZM71.3587 43.8801H72.8036C75.1476 44.0568 77.4178 44.7749 79.4338 45.9771C80.7957 46.7996 82.0659 47.7635 83.2231 48.8525C83.9967 49.514 84.5093 50.4266 84.6701 51.4284C84.8313 52.4068 84.6831 53.4108 84.2458 54.3017C84.1249 54.6013 83.9424 54.8418 83.8215 55.0802C83.762 55.1966 83.6604 55.2863 83.5371 55.3313C83.4136 55.3757 83.2776 55.3712 83.1574 55.3186C83.098 55.3186 83.098 55.2595 83.0386 55.2595C82.6142 54.96 82.1899 54.7195 81.7125 54.4157C79.9867 53.1998 78.0419 52.3253 75.984 51.8398C74.6639 51.5334 73.3039 51.433 71.9528 51.5423C69.1973 51.7423 66.5501 52.691 64.2999 54.2849C63.4512 54.884 62.5516 55.3629 61.6456 55.9599C61.5862 55.9599 61.5862 56.0211 61.5268 56.0211C61.4809 56.0144 61.4384 55.9929 61.4059 55.9599L56.3436 52.5486C56.2314 52.485 56.1298 52.4046 56.0423 52.3102C55.9749 52.2658 55.9256 52.1988 55.9035 52.1215C55.8813 52.0441 55.8876 51.9614 55.9213 51.8883C55.9213 51.8271 55.9829 51.8271 56.0423 51.7681L56.1611 51.6478C57.6081 50.6921 58.9935 49.6099 60.4384 48.5888C61.6758 47.6859 62.9613 46.85 64.2893 46.0847C65.8372 45.2325 67.5019 44.6093 69.2306 44.2345C69.9203 44.0282 70.6329 43.9071 71.3523 43.8738L71.3587 43.8801ZM68.696 44.3653V33.8487C68.7065 33.4529 68.8743 33.0774 69.1625 32.8042C69.4508 32.531 69.8361 32.3825 70.2342 32.391H73.2958C73.6939 32.3825 74.0792 32.531 74.3675 32.8042C74.6557 33.0774 74.8234 33.4529 74.834 33.8487V44.186C72.7849 43.9507 70.7123 44.0125 68.6811 44.3695L68.696 44.3653ZM92.8832 70.103C92.9992 70.3465 93.0614 70.612 93.0656 70.8814V77.2863C93.0112 80.1099 92.0391 82.8401 90.2947 85.0688C89.5393 86.0105 88.6691 86.8553 87.7041 87.5835C85.1581 89.5581 82.5166 91.4146 79.8539 93.2795L74.5497 96.9313C74.0944 97.2456 73.5821 97.4691 73.0412 97.5895C72.3184 97.7708 71.5555 97.7077 70.8728 97.4102C70.3814 97.2317 69.9156 96.9898 69.4874 96.6908C63.5806 92.6825 57.6738 88.6109 51.888 84.36C50.0803 83.0435 48.2812 81.7271 46.4629 80.3516C45.5693 79.7049 44.9666 78.7353 44.7846 77.6513C44.7319 77.3733 44.712 77.0901 44.7252 76.8074V71.0059C44.7334 70.7855 44.7127 70.5649 44.6637 70.3498C44.6043 70.1684 44.7252 69.9891 44.8462 69.9891C44.8462 70.1093 44.9056 70.1684 44.9056 70.2886C44.9736 70.9488 45.2742 71.5638 45.7542 72.0249C46.047 72.3374 46.3704 72.6201 46.7196 72.8687C52.9871 77.5374 59.437 82.0858 65.8784 86.516C67.0771 87.3599 68.2886 88.132 69.4343 88.9105C69.9223 89.2853 70.4733 89.571 71.0617 89.7543C71.5031 89.904 71.9701 89.9652 72.4355 89.9345C72.9009 89.9037 73.3555 89.7815 73.7732 89.575C74.0687 89.4394 74.3525 89.2799 74.6218 89.0982C78.9607 86.0392 83.3016 82.9803 87.6405 79.877C90.0384 78.1548 91.7972 75.6934 92.6434 72.8751C92.7715 72.4016 92.8721 71.9212 92.9447 71.4363C92.8219 71.0034 92.7959 70.5491 92.8683 70.1051L92.8832 70.103ZM73.7032 110.264H70.0963C69.6678 110.26 69.2585 110.087 68.9573 109.784C68.6561 109.481 68.4875 109.072 68.4881 108.646L68.7172 96.136C69.0312 95.6987 69.4557 95.3516 69.9478 95.1297L74.9656 94.1635C75.0126 94.1634 75.0592 94.1727 75.1025 94.1908C75.1459 94.2089 75.1852 94.2355 75.218 94.269C75.2513 94.3023 75.2776 94.3418 75.2954 94.3852C75.3132 94.4287 75.3223 94.4752 75.322 94.5221V108.657C75.3209 109.082 75.1516 109.49 74.8506 109.792C74.5497 110.094 74.1413 110.266 73.7138 110.271L73.7032 110.264Z" fill="#131621"/>
<path d="M94.034 54.9796C94.1467 55.2238 94.2053 55.4893 94.2059 55.758V62.0448C94.2009 64.0121 93.7356 65.9512 92.8466 67.7088C91.9577 69.4664 90.6695 70.9941 89.0841 72.1711C86.553 74.1478 83.9603 76.0022 81.3082 77.8671L75.5966 81.8143C74.8474 82.3545 73.9283 82.6097 73.006 82.5336C72.5288 82.4783 72.0618 82.3569 71.6184 82.1729C71.2241 81.9765 70.8415 81.7574 70.4727 81.5168C65.2895 77.9831 60.1062 74.4516 55.0439 70.7407C52.7524 69.1247 50.5247 67.4476 48.2333 65.7725C47.932 65.5932 47.6922 65.3506 47.3846 65.1734C46.5376 64.5214 45.9589 63.5845 45.7573 62.5384C45.7039 62.2605 45.6832 61.9773 45.6957 61.6946V56.0091C45.7046 55.7678 45.6847 55.5263 45.6363 55.2897C45.6186 55.2547 45.6094 55.216 45.6094 55.1768C45.6094 55.1376 45.6186 55.099 45.6363 55.064C45.6538 55.0297 45.6793 55 45.7106 54.9775C45.7423 54.9548 45.7784 54.939 45.8167 54.931H45.8761C45.89 55.0321 45.9106 55.1322 45.9376 55.2306C45.986 55.8177 46.2424 56.3687 46.6611 56.7854C46.9622 57.1664 47.3294 57.4907 47.7453 57.7432C53.7709 62.2325 59.9195 66.6037 66.1275 70.9137C67.5745 71.9327 69.0788 72.8883 70.5279 73.9052C71.1116 74.3126 71.762 74.6159 72.4501 74.8018C73.2586 74.9939 74.1085 74.9092 74.8625 74.5613C75.1444 74.4383 75.4079 74.2772 75.6454 74.0824C79.6236 71.2702 83.5402 68.515 87.5268 65.7008C88.3097 65.1628 89.0332 64.6249 89.7503 64.0257C91.639 62.3405 93.0174 60.1647 93.7306 57.7432C93.841 57.331 93.9218 56.9115 93.9725 56.488C94.0237 56.2518 94.0444 56.01 94.034 55.7686V54.9796ZM72.5774 46.2942H74.0223C76.3663 46.4709 78.6366 47.1889 80.6526 48.3911C82.0144 49.2137 83.2846 50.1775 84.4419 51.2666C85.2154 51.928 85.7281 52.8407 85.8889 53.8425C86.0501 54.8208 85.9018 55.8248 85.4645 56.7158C85.3436 57.0154 85.1611 57.2559 85.0402 57.4943C84.9807 57.6106 84.8792 57.7003 84.7559 57.7453C84.6324 57.7898 84.4964 57.7852 84.3761 57.7327C84.3167 57.7327 84.3167 57.6736 84.2573 57.6736C83.833 57.374 83.4086 57.1335 82.9313 56.8297C81.2055 55.6139 79.2606 54.7394 77.2027 54.2538C75.8826 53.9475 74.5226 53.8471 73.1715 53.9564C70.4161 54.1564 67.7688 55.1051 65.5186 56.6989C64.6699 57.2981 63.7703 57.777 62.8644 58.374C62.805 58.374 62.805 58.4352 62.7456 58.4352C62.6996 58.4285 62.6571 58.407 62.6246 58.374L57.5623 54.9627C57.4502 54.899 57.3486 54.8186 57.261 54.7243C57.1936 54.6798 57.1444 54.6129 57.1222 54.5355C57.1 54.4582 57.1064 54.3755 57.1401 54.3024C57.1401 54.2412 57.2016 54.2412 57.261 54.1821L57.3798 54.0619C58.8268 53.1062 60.2123 52.024 61.6571 51.0029C62.8946 50.1 64.1801 49.264 65.508 48.4987C67.056 47.6466 68.7206 47.0233 70.4494 46.6486C71.1391 46.4423 71.8517 46.3211 72.5711 46.2878L72.5774 46.2942ZM69.9147 46.7794V36.2628C69.9253 35.867 70.093 35.4915 70.3813 35.2183C70.6695 34.9451 71.0548 34.7965 71.453 34.805H74.5145C74.9126 34.7965 75.298 34.9451 75.5862 35.2183C75.8745 35.4915 76.0422 35.867 76.0528 36.2628V46.6001C74.0037 46.3648 71.9311 46.4266 69.8999 46.7836L69.9147 46.7794ZM94.1019 72.517C94.218 72.7606 94.2802 73.026 94.2844 73.2955V79.7004C94.2299 82.524 93.2578 85.2542 91.5135 87.4829C90.7581 88.4246 89.8879 89.2693 88.9229 89.9976C86.3769 91.9722 83.7354 93.8287 81.0727 95.6936L75.7685 99.3454C75.3131 99.6596 74.8008 99.8832 74.2599 100.004C73.5372 100.185 72.7743 100.122 72.0916 99.8243C71.6001 99.6458 71.1343 99.4039 70.7061 99.1049C64.7994 95.0966 58.8926 91.025 53.1068 86.774C51.2991 85.4576 49.4999 84.1412 47.6816 82.7657C46.788 82.119 46.1854 81.1493 46.0034 80.0654C45.9507 79.7873 45.9308 79.5041 45.944 79.2215V73.42C45.9522 73.1995 45.9315 72.979 45.8824 72.7639C45.823 72.5824 45.944 72.4031 46.0649 72.4031C46.0649 72.5234 46.1243 72.5824 46.1243 72.7027C46.1923 73.3629 46.4929 73.9779 46.973 74.4389C47.2657 74.7515 47.5891 75.0342 47.9384 75.2828C54.2058 79.9514 60.6557 84.4998 67.0971 88.9301C68.2959 89.7739 69.5074 90.5461 70.6531 91.3245C71.141 91.6994 71.692 91.9851 72.2804 92.1684C72.7219 92.3181 73.1888 92.3793 73.6542 92.3485C74.1196 92.3178 74.5743 92.1956 74.9919 91.9891C75.2874 91.8534 75.5712 91.694 75.8406 91.5123C80.1794 88.4533 84.5204 85.3943 88.8592 82.291C91.2572 80.5689 93.0159 78.1074 93.8622 75.2891C93.9902 74.8157 94.0908 74.3353 94.1634 73.8503C94.0407 73.4175 94.0146 72.9631 94.0871 72.5192L94.1019 72.517ZM74.9219 112.678H71.315C70.8866 112.674 70.4772 112.501 70.1761 112.198C69.8749 111.895 69.7062 111.486 69.7068 111.06L69.936 98.5501C70.2499 98.1128 70.6744 97.7657 71.1665 97.5438L76.1843 96.5775C76.2313 96.5775 76.2779 96.5868 76.3213 96.6049C76.3646 96.623 76.4039 96.6496 76.4368 96.683C76.47 96.7164 76.4963 96.7559 76.5141 96.7993C76.532 96.8427 76.541 96.8893 76.5407 96.9362V111.071C76.5397 111.496 76.3703 111.904 76.0694 112.206C75.7684 112.508 75.3601 112.68 74.9325 112.685L74.9219 112.678Z" fill="#D7E6F4"/>
<defs>
<clipPath id="clip0_7259_1307">
<rect width="144" height="144" fill="white"/>
</clipPath>
</defs>
</svg>
