<svg width="95" height="94" viewBox="0 0 95 94" fill="none" xmlns="http://www.w3.org/2000/svg">
<path d="M80.5402 80.234C98.9649 61.8794 98.9649 32.1206 80.5402 13.766C62.1155 -4.58866 32.2432 -4.58866 13.8185 13.766C-4.60617 32.1206 -4.60617 61.8794 13.8185 80.234C32.2432 98.5887 62.1155 98.5887 80.5402 80.234Z" fill="#4A5C6B"/>
<path d="M79.6872 79.3845C97.641 61.499 97.641 32.501 79.6872 14.6155C61.7335 -3.26995 32.6248 -3.26995 14.6711 14.6155C-3.28261 32.501 -3.28261 61.499 14.6711 79.3845C32.6248 97.2699 61.7335 97.2699 79.6872 79.3845Z" fill="#384E61"/>
<path d="M79.7775 14.709L14.7656 79.4737C19.1604 83.8261 24.3923 87.2494 30.1476 89.5381L89.8813 30.0328C87.5835 24.2992 84.1469 19.0871 79.7775 14.709V14.709Z" fill="#4A5C6B"/>
<path d="M73.7215 9.61523L9.65234 73.4395C10.399 74.4893 11.1869 75.5067 12.0158 76.4916L76.7831 11.97C75.7973 11.1422 74.7767 10.3573 73.7215 9.61523Z" fill="#4A5C6B"/>
<g style="mix-blend-mode:soft-light">
<path d="M48.0834 81.0346C66.481 81.0346 81.3953 66.177 81.3953 47.8493C81.3953 29.5216 66.481 14.6641 48.0834 14.6641C29.6857 14.6641 14.7715 29.5216 14.7715 47.8493C14.7715 66.177 29.6857 81.0346 48.0834 81.0346Z" fill="black"/>
</g>
<path d="M70.7345 70.4655C83.7436 57.5059 83.7436 36.4941 70.7345 23.5345C57.7254 10.5748 36.6335 10.5748 23.6244 23.5345C10.6153 36.4941 10.6153 57.5059 23.6244 70.4655C36.6335 83.4252 57.7254 83.4252 70.7345 70.4655Z" fill="black"/>
<g style="mix-blend-mode:multiply">
<path d="M15.6764 48.802C15.6751 42.347 17.564 36.0318 21.1116 30.6301C24.6592 25.2285 29.7114 20.9751 35.6493 18.3911C41.5871 15.8071 48.1526 15.0046 54.5414 16.0822C60.9301 17.1597 66.8646 20.0704 71.6177 24.4575C68.5732 21.1804 64.896 18.5491 60.8065 16.7214C56.7169 14.8936 52.2991 13.907 47.8176 13.8207C43.3362 13.7343 38.8833 14.5499 34.7259 16.2187C30.5684 17.8875 26.7918 20.3751 23.6223 23.5325C20.4529 26.6899 17.9558 30.4522 16.2806 34.5938C14.6055 38.7355 13.7867 43.1714 13.8734 47.6358C13.9601 52.1002 14.9505 56.5013 16.7852 60.5753C18.6199 64.6493 21.2612 68.3125 24.5509 71.3455C18.8373 65.2195 15.6662 57.1641 15.6764 48.802V48.802Z" fill="black"/>
</g>
<path d="M80.8603 47.5985C80.8895 56.7258 77.381 65.4925 71.104 71.9768C64.827 78.4611 56.2938 82.1339 47.3749 82.19C38.456 82.2461 29.8792 78.6809 23.5249 72.2761C17.1705 65.8712 13.557 57.1492 13.4766 48.0223V47.5985C13.4766 38.454 17.0263 29.6841 23.3449 23.2179C29.6635 16.7518 38.2334 13.1191 47.1692 13.1191H47.5848C56.4491 13.2277 64.9141 16.9082 71.1439 23.3622C77.3738 29.8163 80.863 38.5267 80.8603 47.5985Z" fill="#1A2E41"/>
<path d="M71.0133 24.6807L23.3463 72.3395C17.1122 66.1272 13.5679 57.7158 13.4766 48.9165V48.5023C13.4766 39.5652 17.0276 30.994 23.3485 24.6742C29.6695 18.3544 38.2426 14.8036 47.1822 14.8027H47.598C56.3951 14.9065 64.8012 18.4527 71.0133 24.6807V24.6807Z" fill="#2C465E"/>
<path d="M80.5973 47.8031C80.5975 52.3208 79.7795 56.7943 78.1899 60.9681C76.6003 65.142 74.2703 68.9345 71.333 72.1291C68.3957 75.3236 64.9085 77.8577 61.0707 79.5866C57.2328 81.3155 53.1194 82.2054 48.9653 82.2054C48.3654 82.2054 47.7699 82.1874 47.1787 82.1515C55.2471 81.6564 62.8354 77.822 68.3864 71.4349C73.9374 65.0478 77.0302 56.5924 77.0302 47.8039C77.0302 39.0153 73.9374 30.56 68.3864 24.1729C62.8354 17.7858 55.2471 13.9513 47.1787 13.4562C47.7699 13.4203 48.3654 13.4023 48.9653 13.4023C57.3546 13.4023 65.4003 17.0267 71.3325 23.4781C77.2647 29.9295 80.5973 38.6794 80.5973 47.8031Z" fill="#151520"/>
<path d="M60.818 34.0852C60.8918 34.2452 60.9302 34.4192 60.9306 34.5953V38.7148C60.9274 40.0039 60.6224 41.2745 60.0399 42.4262C59.4574 43.5779 58.6133 44.579 57.5745 45.3502C55.9159 46.6455 54.217 47.8606 52.4791 49.0826L48.7365 51.669C48.2456 52.023 47.6434 52.1903 47.039 52.1404C46.7263 52.1042 46.4203 52.0246 46.1298 51.9041C45.8714 51.7754 45.6207 51.6318 45.3791 51.4741C41.9826 49.1586 38.5862 46.8445 35.269 44.4129C33.7675 43.354 32.3078 42.255 30.8063 41.1574C30.6088 41.0399 30.4517 40.881 30.2502 40.7648C29.6951 40.3376 29.316 39.7237 29.1838 39.0382C29.1488 38.8561 29.1353 38.6705 29.1435 38.4853V34.7598C29.1493 34.6017 29.1363 34.4434 29.1046 34.2884C29.093 34.2654 29.0869 34.2401 29.0869 34.2144C29.0869 34.1887 29.093 34.1634 29.1046 34.1405C29.116 34.118 29.1327 34.0986 29.1532 34.0838C29.174 34.0689 29.1977 34.0586 29.2227 34.0534H29.2617C29.2708 34.1196 29.2843 34.1852 29.302 34.2497C29.3337 34.6344 29.5017 34.9954 29.7761 35.2685C29.9734 35.5181 30.214 35.7307 30.4865 35.8961C34.4349 38.8378 38.4639 41.7021 42.5318 44.5263C43.4799 45.194 44.4656 45.8202 45.4152 46.4865C45.7976 46.7534 46.2239 46.9522 46.6748 47.074C47.2045 47.1999 47.7615 47.1444 48.2555 46.9164C48.4403 46.8359 48.6129 46.7302 48.7685 46.6026C51.3753 44.7599 53.9417 42.9545 56.554 41.1104C57.067 40.7579 57.5411 40.4054 58.011 40.0128C59.2486 38.9085 60.1518 37.4828 60.6192 35.8961C60.6915 35.626 60.7444 35.3511 60.7777 35.0736C60.8112 34.9188 60.8248 34.7604 60.818 34.6022V34.0852ZM46.7582 28.3939H47.705C49.2409 28.5097 50.7286 28.9802 52.0496 29.768C52.9419 30.307 53.7743 30.9386 54.5326 31.6522C55.0394 32.0856 55.3754 32.6836 55.4807 33.3401C55.5864 33.9812 55.4892 34.639 55.2027 35.2229C55.1234 35.4192 55.0039 35.5768 54.9246 35.733C54.8857 35.8092 54.8191 35.868 54.7383 35.8975C54.6574 35.9266 54.5683 35.9236 54.4895 35.8892C54.4506 35.8892 54.4505 35.8505 54.4116 35.8505C54.1336 35.6542 53.8555 35.4966 53.5427 35.2975C52.4119 34.5008 51.1375 33.9278 49.789 33.6096C48.924 33.4089 48.0328 33.3431 47.1475 33.4147C45.3419 33.5458 43.6073 34.1674 42.1328 35.2118C41.5767 35.6044 40.9872 35.9182 40.3936 36.3094C40.3546 36.3094 40.3546 36.3495 40.3157 36.3495C40.2856 36.3451 40.2577 36.331 40.2365 36.3094L36.9193 34.0741C36.8458 34.0324 36.7792 33.9797 36.7219 33.9179C36.6777 33.8888 36.6454 33.8449 36.6309 33.7942C36.6164 33.7435 36.6205 33.6893 36.6426 33.6414C36.6426 33.6013 36.6829 33.6013 36.7219 33.5626L36.7997 33.4838C37.7479 32.8576 38.6557 32.1485 39.6025 31.4794C40.4133 30.8877 41.2557 30.34 42.1258 29.8385C43.1402 29.2801 44.2309 28.8717 45.3638 28.6261C45.8157 28.491 46.2826 28.4116 46.754 28.3898L46.7582 28.3939ZM45.0134 28.7119V21.8207C45.0203 21.5613 45.1303 21.3152 45.3191 21.1362C45.508 20.9572 45.7605 20.8599 46.0214 20.8655H48.0275C48.2884 20.8599 48.5409 20.9572 48.7297 21.1362C48.9186 21.3152 49.0285 21.5613 49.0355 21.8207V28.5944C47.6928 28.4402 46.3347 28.4807 45.0037 28.7146L45.0134 28.7119ZM60.8625 45.5769C60.9385 45.7365 60.9793 45.9104 60.982 46.087V50.2839C60.9463 52.1341 60.3094 53.9231 59.1663 55.3835C58.6714 56.0006 58.1012 56.5541 57.4688 57.0313C55.8005 58.3252 54.0696 59.5417 52.3248 60.7637L48.8492 63.1566C48.5508 63.3625 48.2151 63.509 47.8607 63.5879C47.3871 63.7067 46.8872 63.6654 46.4398 63.4704C46.1178 63.3534 45.8126 63.195 45.532 62.999C41.6615 60.3725 37.791 57.7045 33.9997 54.919C32.8152 54.0564 31.6363 53.1938 30.4448 52.2925C29.8592 51.8687 29.4643 51.2334 29.3451 50.5231C29.3106 50.3409 29.2975 50.1553 29.3062 49.9701V46.1686C29.3115 46.0241 29.298 45.8796 29.2658 45.7386C29.2269 45.6198 29.3062 45.5022 29.3854 45.5022C29.3854 45.581 29.4243 45.6198 29.4243 45.6985C29.4689 46.1311 29.6659 46.5341 29.9804 46.8362C30.1723 47.0411 30.3842 47.2263 30.613 47.3892C34.7199 50.4484 38.9463 53.4288 43.1671 56.3318C43.9526 56.8848 44.7465 57.3907 45.4972 57.9008C45.817 58.1464 46.178 58.3337 46.5636 58.4538C46.8528 58.5519 47.1588 58.592 47.4638 58.5718C47.7687 58.5516 48.0667 58.4716 48.3403 58.3363C48.5339 58.2474 48.7199 58.1429 48.8964 58.0239C51.7395 56.0194 54.584 54.0149 57.4271 51.9815C58.9984 50.853 60.1509 49.2401 60.7054 47.3933C60.7893 47.0831 60.8552 46.7683 60.9028 46.4506C60.8223 46.1669 60.8053 45.8692 60.8527 45.5783L60.8625 45.5769ZM48.2944 71.8933H45.931C45.6502 71.8904 45.382 71.7773 45.1846 71.5788C44.9873 71.3802 44.8768 71.1122 44.8772 70.833L45.0273 62.6355C45.2331 62.3489 45.5112 62.1215 45.8337 61.9761L49.1217 61.3429C49.1525 61.3429 49.183 61.349 49.2114 61.3609C49.2398 61.3727 49.2656 61.3901 49.2871 61.4121C49.3089 61.4339 49.3261 61.4598 49.3378 61.4883C49.3495 61.5167 49.3554 61.5472 49.3552 61.578V70.8399C49.3545 71.1185 49.2436 71.3856 49.0464 71.5835C48.8492 71.7814 48.5816 71.8942 48.3014 71.8974L48.2944 71.8933Z" fill="#131621"/>
<path d="M61.6168 35.6672C61.6907 35.8272 61.7291 36.0012 61.7294 36.1773V40.2968C61.7262 41.5859 61.4212 42.8566 60.8387 44.0082C60.2562 45.1599 59.4122 46.161 58.3733 46.9322C56.7147 48.2275 55.0158 49.4426 53.278 50.6646L49.5354 53.2511C49.0445 53.6051 48.4422 53.7723 47.8379 53.7225C47.5252 53.6862 47.2191 53.6067 46.9286 53.4861C46.6702 53.3574 46.4195 53.2138 46.1779 53.0562C42.7815 50.7407 39.385 48.4266 36.0679 45.995C34.5664 44.9361 33.1066 43.8371 31.6051 42.7395C31.4077 42.622 31.2506 42.463 31.049 42.3469C30.4939 41.9196 30.1148 41.3057 29.9826 40.6203C29.9477 40.4381 29.9341 40.2526 29.9423 40.0673V36.3418C29.9482 36.1837 29.9351 36.0255 29.9034 35.8704C29.8918 35.8475 29.8857 35.8221 29.8857 35.7965C29.8857 35.7708 29.8918 35.7454 29.9034 35.7225C29.9149 35.7 29.9316 35.6806 29.9521 35.6658C29.9728 35.651 29.9965 35.6406 30.0216 35.6354H30.0605C30.0697 35.7016 30.0831 35.7672 30.1008 35.8317C30.1325 36.2164 30.3005 36.5774 30.5749 36.8505C30.7722 37.1001 31.0128 37.3127 31.2853 37.4781C35.2337 40.4198 39.2627 43.2841 43.3306 46.1083C44.2788 46.776 45.2645 47.4022 46.214 48.0685C46.5965 48.3355 47.0227 48.5343 47.4736 48.656C48.0033 48.782 48.5603 48.7264 49.0543 48.4985C49.2391 48.4179 49.4117 48.3123 49.5674 48.1847C52.1741 46.3419 54.7405 44.5366 57.3529 42.6925C57.8659 42.3399 58.3399 41.9874 58.8099 41.5948C60.0474 40.4906 60.9507 39.0649 61.418 37.4781C61.4903 37.208 61.5433 36.9332 61.5765 36.6556C61.6101 36.5008 61.6236 36.3424 61.6168 36.1842V35.6672ZM47.557 29.9759H48.5038C50.0398 30.0918 51.5274 30.5622 52.8484 31.35C53.7408 31.889 54.5731 32.5206 55.3314 33.2342C55.8383 33.6676 56.1742 34.2657 56.2796 34.9221C56.3852 35.5632 56.288 36.2211 56.0015 36.8049C55.9223 37.0012 55.8027 37.1588 55.7235 37.315C55.6845 37.3913 55.6179 37.45 55.5372 37.4795C55.4562 37.5086 55.3671 37.5057 55.2883 37.4712C55.2494 37.4712 55.2494 37.4325 55.2104 37.4325C54.9324 37.2362 54.6543 37.0786 54.3415 36.8795C53.2107 36.0828 51.9363 35.5098 50.5878 35.1917C49.7228 34.9909 48.8316 34.9251 47.9463 34.9967C46.1408 35.1278 44.4061 35.7494 42.9316 36.7938C42.3755 37.1864 41.786 37.5002 41.1924 37.8914C41.1535 37.8914 41.1535 37.9315 41.1145 37.9315C41.0844 37.9272 41.0566 37.9131 41.0353 37.8914L37.7181 35.6561C37.6446 35.6144 37.5781 35.5617 37.5207 35.4999C37.4765 35.4708 37.4443 35.4269 37.4297 35.3762C37.4152 35.3256 37.4193 35.2714 37.4414 35.2235C37.4414 35.1834 37.4818 35.1834 37.5207 35.1447L37.5985 35.0659C38.5467 34.4396 39.4545 33.7305 40.4013 33.0614C41.2122 32.4698 42.0545 31.922 42.9247 31.4205C43.939 30.8621 45.0298 30.4537 46.1626 30.2082C46.6145 30.073 47.0814 29.9936 47.5529 29.9718L47.557 29.9759ZM45.8122 30.2939V23.4027C45.8192 23.1434 45.9291 22.8973 46.118 22.7183C46.3068 22.5393 46.5593 22.4419 46.8202 22.4475H48.8263C49.0872 22.4419 49.3397 22.5393 49.5286 22.7183C49.7174 22.8973 49.8274 23.1434 49.8343 23.4027V30.1764C48.4916 30.0222 47.1335 30.0627 45.8025 30.2966L45.8122 30.2939ZM61.6613 47.1589C61.7373 47.3185 61.7781 47.4925 61.7809 47.669V51.8659C61.7452 53.7161 61.1082 55.5051 59.9652 56.9655C59.4702 57.5826 58.9 58.1361 58.2677 58.6133C56.5993 59.9072 54.8684 61.1237 53.1237 62.3458L49.648 64.7387C49.3496 64.9446 49.0139 65.091 48.6595 65.17C48.1859 65.2888 47.686 65.2474 47.2387 65.0525C46.9166 64.9355 46.6114 64.777 46.3308 64.5811C42.4603 61.9545 38.5898 59.2866 34.7985 56.5011C33.614 55.6384 32.4351 54.7758 31.2436 53.8745C30.6581 53.4508 30.2632 52.8154 30.1439 52.1051C30.1094 51.9229 30.0963 51.7373 30.105 51.5521V47.7506C30.1104 47.6061 30.0968 47.4616 30.0647 47.3207C30.0257 47.2018 30.105 47.0843 30.1842 47.0843C30.1842 47.1631 30.2232 47.2018 30.2232 47.2806C30.2677 47.7132 30.4647 48.1162 30.7793 48.4183C30.9711 48.6231 31.183 48.8083 31.4118 48.9712C35.5187 52.0304 39.7451 55.0108 43.966 57.9138C44.7515 58.4668 45.5453 58.9728 46.2961 59.4829C46.6158 59.7285 46.9768 59.9157 47.3624 60.0358C47.6517 60.1339 47.9576 60.174 48.2626 60.1538C48.5676 60.1337 48.8655 60.0536 49.1392 59.9183C49.3328 59.8294 49.5188 59.7249 49.6953 59.6059C52.5384 57.6014 55.3828 55.597 58.2259 53.5635C59.7972 52.435 60.9497 50.8221 61.5042 48.9754C61.5881 48.6651 61.654 48.3504 61.7016 48.0326C61.6212 47.7489 61.6041 47.4512 61.6516 47.1603L61.6613 47.1589ZM49.0933 73.4753H46.7298C46.4491 73.4724 46.1808 73.3594 45.9835 73.1608C45.7861 72.9622 45.6756 72.6942 45.676 72.415L45.8261 64.2175C46.0319 63.931 46.31 63.7035 46.6325 63.5581L49.9205 62.925C49.9513 62.9249 49.9818 62.931 50.0102 62.9429C50.0387 62.9548 50.0644 62.9722 50.0859 62.9941C50.1077 63.0159 50.1249 63.0418 50.1366 63.0703C50.1483 63.0988 50.1542 63.1292 50.154 63.16V72.4219C50.1533 72.7005 50.0424 72.9676 49.8452 73.1655C49.648 73.3634 49.3804 73.4762 49.1002 73.4795L49.0933 73.4753Z" fill="#D7E6F4"/>
</svg>
