<svg width="134" height="134" viewBox="0 0 134 134" fill="none" xmlns="http://www.w3.org/2000/svg">
<g filter="url(#filter0_d_5369_2277)">
<path d="M129 65.9486C129.012 80.1858 124.123 93.9932 115.156 105.051C106.188 116.109 93.6884 123.744 79.7558 126.674C65.8232 129.603 51.307 127.648 38.6459 121.137C25.9848 114.626 15.9503 103.955 10.2281 90.9189C4.50597 77.8823 3.44484 63.2735 7.22301 49.5468C11.0012 35.8201 19.3884 23.812 30.9757 15.5396C42.563 7.26734 56.6443 3.23496 70.8539 4.11995C85.0635 5.00494 98.5357 10.7534 109.007 20.3995C115.304 26.2001 120.331 33.2419 123.772 41.0812C127.213 48.9205 128.993 57.3874 129 65.9486V65.9486Z" fill="#FFDE50"/>
</g>
<path d="M115.201 65.9505C115.243 78.682 110.235 90.9106 101.275 99.9555C92.3146 109 80.1336 114.124 67.4023 114.202C54.6709 114.28 42.4279 109.307 33.3573 100.373C24.2866 91.4388 19.1285 79.2727 19.0137 66.5416V65.9505C19.0137 53.1949 24.0808 40.9617 33.1004 31.9422C42.1199 22.9226 54.3531 17.8555 67.1087 17.8555H67.702C80.3554 18.007 92.4389 23.1408 101.332 32.1435C110.225 41.1461 115.21 53.2918 115.206 65.946L115.201 65.9505Z" fill="#FAA300" fill-opacity="0.79"/>
<path d="M88.8539 46.2596C88.9719 46.5149 89.0323 46.793 89.031 47.0742V53.6714C89.0268 55.7358 88.5419 57.7708 87.6147 59.6152C86.6875 61.4597 85.3435 63.0628 83.6891 64.2977C81.0458 66.3698 78.3428 68.318 75.5755 70.275L69.6159 74.4192C68.8341 74.9875 67.8736 75.2547 66.9107 75.1719C66.4136 75.1144 65.927 74.9877 65.465 74.7956C65.0528 74.59 64.6535 74.3594 64.2696 74.1048C58.8612 70.3967 53.4529 66.6908 48.1708 62.7967C45.7798 61.1009 43.4531 59.341 41.0644 57.5832C40.7501 57.395 40.4977 57.1404 40.1789 56.9545C39.2965 56.2703 38.6937 55.2881 38.4831 54.1916C38.4274 53.9 38.4059 53.6028 38.4189 53.3061V47.3288C38.4285 47.0755 38.4069 46.822 38.3547 46.5739C38.3369 46.5374 38.3278 46.4972 38.3282 46.4566C38.3274 46.4155 38.3367 46.3749 38.3552 46.3383C38.3738 46.3016 38.4009 46.27 38.4344 46.2463C38.4675 46.2225 38.5052 46.2059 38.5451 46.1976H38.6071C38.622 46.3034 38.6427 46.4084 38.6691 46.5119C38.7219 47.1281 38.989 47.7062 39.424 48.1457C39.7402 48.5438 40.1238 48.8832 40.5575 49.1486C46.8447 53.8618 53.2603 58.4466 59.7379 62.9716C61.2477 64.0409 62.8173 65.0415 64.3271 66.1108C64.9373 66.5371 65.6166 66.8547 66.3351 67.0494C67.1784 67.2507 68.0649 67.1626 68.8522 66.7993C69.1454 66.6684 69.42 66.4994 69.6691 66.2967C73.8177 63.3435 77.9066 60.4523 82.0664 57.5013C82.8833 56.9345 83.6382 56.37 84.3865 55.7435C86.3555 53.9772 87.7936 51.6974 88.5396 49.1596C88.6547 48.7271 88.739 48.2869 88.7919 47.8424C88.8454 47.5946 88.867 47.3409 88.8561 47.0875L88.8539 46.2596ZM66.4657 37.1497H67.9733C70.4191 37.3333 72.7882 38.0861 74.8914 39.3481C76.3148 40.2108 77.6431 41.2215 78.8542 42.3633C79.6613 43.056 80.1957 44.0134 80.3618 45.0641C80.531 46.0915 80.3763 47.1461 79.919 48.0815C79.7928 48.3937 79.6024 48.646 79.4762 48.8962C79.415 49.019 79.3089 49.1135 79.1799 49.1601C79.0508 49.2067 78.9088 49.2018 78.7833 49.1464C78.7213 49.1464 78.7213 49.0844 78.6593 49.0844C78.2166 48.77 77.7738 48.5199 77.2757 48.1989C75.4749 46.9237 73.4456 46.0067 71.2984 45.498C69.9213 45.1747 68.5021 45.0686 67.0922 45.1836C64.2148 45.396 61.4514 46.3963 59.1048 48.0749C58.2192 48.7014 57.2806 49.2039 56.3375 49.8326C56.2755 49.8326 56.2755 49.8946 56.2113 49.8946C56.1644 49.8878 56.121 49.866 56.0873 49.8326L50.803 46.2529C50.6871 46.1846 50.5819 46.0995 50.4908 46.0005C50.4198 45.9553 50.3684 45.885 50.3469 45.8035C50.3233 45.723 50.3288 45.6368 50.3624 45.56C50.3624 45.498 50.4266 45.498 50.4908 45.436L50.6148 45.3076C52.1246 44.3048 53.5702 43.1691 55.0778 42.0998C56.3712 41.1494 57.7147 40.2693 59.1025 39.4632C60.7173 38.568 62.4544 37.9139 64.2585 37.5217C64.9776 37.3031 65.7214 37.1759 66.4723 37.1431L66.4657 37.1497ZM63.6873 37.6567V26.6164C63.6909 26.409 63.7356 26.2044 63.8188 26.0144C63.902 25.8244 64.0221 25.6528 64.1722 25.5095C64.473 25.2207 64.8753 25.0617 65.2924 25.0668H68.4957C68.9111 25.0578 69.3132 25.2138 69.6139 25.5004C69.9147 25.7871 70.0897 26.1812 70.1008 26.5965V37.4442C67.9644 37.2007 65.804 37.2693 63.6873 37.6478V37.6567ZM88.9248 64.6652C89.0464 64.9197 89.1106 65.1978 89.1129 65.4798V72.2032C89.0595 75.1639 88.0499 78.0279 86.235 80.3677C85.4474 81.3565 84.5393 82.243 83.5319 83.0066C80.8754 85.0787 78.1192 87.0268 75.3408 88.9839L69.8063 92.816C69.332 93.1476 68.7972 93.383 68.2323 93.5089C67.478 93.6996 66.6816 93.6326 65.9698 93.3185C65.4573 93.1314 64.9713 92.8784 64.5242 92.5658C58.3609 88.3596 52.1977 84.0847 46.1496 79.6239C44.2634 78.2425 42.3861 76.861 40.4888 75.4176C39.555 74.7403 38.9258 73.7222 38.7377 72.584C38.682 72.2923 38.6605 71.9951 38.6735 71.6984V65.6082C38.6838 65.3763 38.663 65.144 38.6115 64.9175C38.5495 64.7294 38.6735 64.539 38.8019 64.539C38.8019 64.6674 38.8639 64.7294 38.8639 64.8556C38.9348 65.5477 39.2485 66.1924 39.7494 66.6753C40.0537 67.0045 40.3913 67.3013 40.7567 67.5608C47.2963 72.46 54.0263 77.233 60.7474 81.8842C61.9982 82.7697 63.2623 83.5777 64.4578 84.3968C64.9674 84.7894 65.5422 85.0891 66.1557 85.2824C66.6172 85.4376 67.1044 85.5015 67.5903 85.4705C68.0756 85.4373 68.5495 85.3087 68.985 85.092C69.2933 84.9496 69.5895 84.7823 69.8705 84.5917C74.3978 81.3816 78.9272 78.1716 83.4545 74.9173C85.957 73.1097 87.7922 70.5258 88.6746 67.5675C88.8082 67.0714 88.9132 66.568 88.989 66.0599C88.8667 65.6051 88.8455 65.129 88.927 64.6652H88.9248ZM68.9097 106.807H65.1462C64.6986 106.803 64.2708 106.622 63.9564 106.303C63.6419 105.985 63.4664 105.555 63.4682 105.107L63.7073 91.9814C64.0337 91.5208 64.4769 91.1555 64.9913 90.9232L70.2269 89.9092C70.2761 89.9095 70.3247 89.9195 70.3699 89.9386C70.4152 89.9576 70.4563 89.9854 70.4908 90.0204C70.5254 90.0553 70.5527 90.0967 70.5712 90.1422C70.5898 90.1877 70.5992 90.2364 70.5989 90.2856V90.2856V105.118C70.5983 105.565 70.4215 105.993 70.1069 106.31C69.7923 106.627 69.3653 106.808 68.9186 106.812L68.9097 106.807Z" fill="#F68E00"/>
<path d="M90.2734 46.9874C90.391 47.2437 90.4522 47.5223 90.4527 47.8043V54.4015C90.4476 56.4659 89.962 58.5008 89.0345 60.3452C88.1069 62.1895 86.7628 63.7927 85.1086 65.0278C82.4675 67.1021 79.7622 69.048 76.995 71.005L71.0354 75.1471C70.2537 75.714 69.2947 75.9818 68.3324 75.902C67.8344 75.844 67.3471 75.7165 66.8845 75.5234C66.473 75.3173 66.0738 75.0874 65.6891 74.8349C60.2807 71.1268 54.8724 67.4209 49.5902 63.5268C47.1993 61.831 44.8748 60.071 42.4839 58.3133C42.1696 58.1251 41.9194 57.8705 41.5984 57.6846C40.7146 57.0004 40.1108 56.0172 39.9004 54.9195C39.8447 54.6278 39.8232 54.3306 39.8362 54.034V48.0678C39.8455 47.8146 39.8247 47.5611 39.7742 47.3129C39.7557 47.2761 39.7461 47.2355 39.7461 47.1944C39.7461 47.1533 39.7557 47.1127 39.7742 47.076C39.7925 47.04 39.819 47.0089 39.8517 46.9852C39.8848 46.9614 39.9225 46.9448 39.9624 46.9365H40.0244C40.0389 47.0426 40.0604 47.1476 40.0886 47.2509C40.1391 47.867 40.4066 48.4451 40.8435 48.8824C41.1577 49.2822 41.5408 49.6226 41.9747 49.8875C48.262 54.5985 54.6776 59.1855 61.1552 63.7083C62.665 64.7776 64.2346 65.7805 65.7466 66.8475C66.3556 67.275 67.0343 67.5933 67.7523 67.7884C68.5959 67.99 69.4827 67.9011 70.2694 67.536C70.5636 67.407 70.8385 67.2379 71.0863 67.0335C75.2372 64.0825 79.3239 61.1912 83.4837 58.238C84.3006 57.6735 85.0555 57.109 85.8037 56.4802C87.7744 54.7118 89.2127 52.4286 89.9568 49.8875C90.072 49.455 90.1563 49.0148 90.2092 48.5703C90.2627 48.3224 90.2842 48.0687 90.2734 47.8154V46.9874ZM67.8852 37.8732H69.3928C71.8386 38.0586 74.2074 38.8121 76.3109 40.0737C77.7319 40.9368 79.0573 41.9483 80.2648 43.0911C81.0719 43.7852 81.6068 44.743 81.7746 45.7942C81.9428 46.8209 81.7881 47.8744 81.3318 48.8094C81.2056 49.1237 81.0153 49.3761 80.8891 49.6263C80.827 49.7484 80.721 49.8425 80.5924 49.8897C80.4635 49.9364 80.3216 49.9316 80.1962 49.8764C80.1342 49.8764 80.1342 49.8145 80.0722 49.8145C79.6294 49.5001 79.1867 49.2477 78.6885 48.9289C76.8878 47.6531 74.8586 46.7354 72.7113 46.2259C71.3339 45.9044 69.9148 45.799 68.505 45.9137C65.6299 46.1236 62.8677 47.1191 60.5198 48.7917C59.6343 49.4204 58.6956 49.9229 57.7503 50.5494C57.6884 50.5494 57.6884 50.6136 57.6264 50.6136C57.5784 50.6066 57.5341 50.5841 57.5002 50.5494L52.218 46.9697C52.1011 46.9029 51.995 46.8185 51.9037 46.7196C51.8333 46.6729 51.782 46.6026 51.7588 46.5215C51.7357 46.4403 51.7423 46.3535 51.7775 46.2768C51.7775 46.2126 51.8417 46.2126 51.9037 46.1506L52.0277 46.0244C53.5375 45.0216 54.9831 43.8859 56.4907 42.8144C57.7819 41.8669 59.1232 40.9897 60.5088 40.1866C62.124 39.2924 63.8609 38.6383 65.6647 38.2451C66.3843 38.0286 67.1279 37.9015 67.8785 37.8665L67.8852 37.8732ZM65.1068 38.3823V27.3465C65.1179 26.9312 65.2929 26.5371 65.5936 26.2504C65.8944 25.9638 66.2964 25.8078 66.7118 25.8168H69.9064C70.3218 25.8078 70.7238 25.9638 71.0246 26.2504C71.3253 26.5371 71.5004 26.9312 71.5114 27.3465V38.1942C69.3733 37.9473 67.2107 38.0121 65.0913 38.3868L65.1068 38.3823ZM90.3443 65.3908C90.4654 65.6464 90.5303 65.9249 90.5346 66.2077V72.9288C90.4778 75.8918 89.4635 78.7568 87.6434 81.0956C86.8552 82.0838 85.9472 82.9702 84.9403 83.7344C82.2838 85.8066 79.5276 87.7547 76.7492 89.7117L71.2147 93.5438C70.7396 93.8736 70.2051 94.1081 69.6407 94.2345C68.8866 94.4248 68.0906 94.3586 67.3782 94.0464C66.8654 93.859 66.3794 93.6052 65.9326 93.2915C59.7693 89.0852 53.6061 84.8126 47.569 80.3517C45.6829 78.9703 43.8056 77.5889 41.9083 76.1455C40.9759 75.4669 40.3471 74.4493 40.1572 73.3118C40.1022 73.0201 40.0814 72.7229 40.0952 72.4263V66.3383C40.1038 66.107 40.0822 65.8756 40.031 65.6498C39.969 65.4594 40.0952 65.2713 40.2214 65.2713C40.2214 65.3975 40.2834 65.4594 40.2834 65.5856C40.3543 66.2784 40.668 66.9238 41.1689 67.4076C41.4743 67.7356 41.8118 68.0322 42.1762 68.2931C48.7158 73.1923 55.4458 77.9653 62.1669 82.6142C63.4177 83.4998 64.6818 84.31 65.8772 85.1269C66.3864 85.5203 66.9613 85.8201 67.5752 86.0124C68.0359 86.1695 68.5231 86.2338 69.0087 86.2015C69.4943 86.1692 69.9687 86.041 70.4045 85.8243C70.7128 85.6819 71.009 85.5146 71.29 85.324C75.8172 82.1139 80.3467 78.9039 84.8739 75.6474C87.376 73.8402 89.2111 71.2572 90.0941 68.2998C90.2277 67.8029 90.3327 67.2988 90.4085 66.7899C90.2804 66.3357 90.2532 65.8589 90.3288 65.393L90.3443 65.3908ZM70.3314 107.535H66.5679C66.1209 107.53 65.6938 107.349 65.3795 107.031C65.0652 106.713 64.8893 106.284 64.8899 105.837L65.129 92.7092C65.4566 92.2504 65.8995 91.8861 66.413 91.6532L71.6486 90.6393C71.6977 90.6392 71.7463 90.649 71.7916 90.668C71.8368 90.687 71.8778 90.7149 71.9121 90.75C71.9468 90.785 71.9742 90.8264 71.9928 90.872C72.0114 90.9176 72.0208 90.9664 72.0206 91.0157V105.848C72.0194 106.294 71.8428 106.722 71.5287 107.039C71.2147 107.356 70.7886 107.537 70.3425 107.542L70.3314 107.535Z" fill="#FFEA94"/>
<defs>
<filter id="filter0_d_5369_2277" x="0" y="0" width="134" height="134" filterUnits="userSpaceOnUse" color-interpolation-filters="sRGB">
<feFlood flood-opacity="0" result="BackgroundImageFix"/>
<feColorMatrix in="SourceAlpha" type="matrix" values="0 0 0 0 0 0 0 0 0 0 0 0 0 0 0 0 0 0 127 0" result="hardAlpha"/>
<feOffset dy="1"/>
<feGaussianBlur stdDeviation="2.5"/>
<feComposite in2="hardAlpha" operator="out"/>
<feColorMatrix type="matrix" values="0 0 0 0 0 0 0 0 0 0 0 0 0 0 0 0 0 0 0.5 0"/>
<feBlend mode="normal" in2="BackgroundImageFix" result="effect1_dropShadow_5369_2277"/>
<feBlend mode="normal" in="SourceGraphic" in2="effect1_dropShadow_5369_2277" result="shape"/>
</filter>
</defs>
</svg>
