<svg width="256" height="256" viewBox="0 0 256 256" fill="none" xmlns="http://www.w3.org/2000/svg">
<g clip-path="url(#clip0_6957_373)">
<path d="M218.512 218.65C268.499 168.853 268.499 88.1157 218.512 38.3185C168.525 -11.4787 87.4796 -11.4787 37.4923 38.3185C-12.4949 88.1157 -12.4949 168.853 37.4923 218.65C87.4796 268.447 168.525 268.447 218.512 218.65Z" fill="#4A5C6B"/>
<path d="M216.198 216.345C264.908 167.821 264.908 89.1476 216.198 40.6233C167.489 -7.90096 88.5152 -7.90095 39.8057 40.6233C-8.90379 89.1477 -8.90379 167.821 39.8057 216.345C88.5152 264.87 167.489 264.87 216.198 216.345Z" fill="#384E61"/>
<path d="M216.442 40.8789L40.0605 216.589C51.9837 228.398 66.1783 237.685 81.7929 243.895L243.854 82.4533C237.62 66.8978 228.296 52.7569 216.442 40.8789V40.8789Z" fill="#4A5C6B"/>
<path d="M200.013 27.0586L26.1895 200.217C28.2153 203.066 30.3527 205.826 32.6017 208.498L208.319 33.4472C205.645 31.2014 202.876 29.0719 200.013 27.0586Z" fill="#4A5C6B"/>
<g style="mix-blend-mode:soft-light">
<path d="M130.455 220.823C180.369 220.823 220.832 180.514 220.832 130.789C220.832 81.0653 180.369 40.7559 130.455 40.7559C80.5413 40.7559 40.0781 81.0653 40.0781 130.789C40.0781 180.514 80.5413 220.823 130.455 220.823Z" fill="#8C3F56"/>
</g>
<path d="M191.908 192.148C227.203 156.987 227.203 99.9813 191.908 64.821C156.614 29.6607 99.3902 29.6607 64.0957 64.821C28.8013 99.9813 28.8013 156.987 64.0957 192.148C99.3902 227.308 156.614 227.308 191.908 192.148Z" fill="#D20398"/>
<g style="mix-blend-mode:multiply">
<path d="M42.5315 133.373C42.528 115.86 47.6526 98.7261 57.2775 84.0711C66.9023 69.4162 80.6094 57.8765 96.7191 50.8659C112.829 43.8553 130.641 41.6783 147.975 44.6017C165.308 47.5251 181.408 55.4219 194.304 67.3245C186.044 58.4334 176.067 51.2946 164.972 46.3359C153.877 41.3771 141.891 38.7004 129.733 38.4661C117.574 38.2317 105.493 40.4446 94.2139 44.9722C82.9344 49.4997 72.6883 56.2487 64.0894 64.8149C55.4905 73.3812 48.7157 83.5883 44.1709 94.8249C39.6261 106.062 37.4047 118.096 37.64 130.209C37.8752 142.321 40.5621 154.261 45.5398 165.314C50.5175 176.367 57.6835 186.306 66.6085 194.534C51.1073 177.914 42.504 156.059 42.5315 133.373V133.373Z" fill="#A84569"/>
</g>
<path d="M219.381 130.109C219.46 154.872 209.941 178.657 192.911 196.249C175.881 213.841 152.73 223.806 128.533 223.958C104.335 224.11 81.0659 214.437 63.8261 197.061C46.5863 179.684 36.7827 156.021 36.5645 131.259V130.109C36.5645 105.3 46.1951 81.5061 63.3379 63.963C80.4806 46.42 103.731 36.5645 127.975 36.5645H129.102C153.151 36.8591 176.118 46.8444 193.019 64.3546C209.921 81.8647 219.388 105.497 219.381 130.109Z" fill="#1A2E41"/>
<path d="M192.665 67.9343L63.3418 197.235C46.4282 180.381 36.8122 157.56 36.5645 133.687V132.564C36.5645 108.317 46.1986 85.0627 63.3476 67.9167C80.4967 50.7707 103.756 41.137 128.01 41.1348H129.138C153.005 41.4163 175.811 51.0374 192.665 67.9343V67.9343Z" fill="#2C465E"/>
<path d="M219.389 127.975C219.389 139.979 217.152 151.866 212.804 162.957C208.456 174.048 202.082 184.125 194.048 192.614C186.013 201.103 176.474 207.836 165.976 212.43C155.478 217.024 144.226 219.389 132.863 219.389C131.223 219.389 129.594 219.341 127.977 219.246C150.047 217.93 170.803 207.741 185.987 190.769C201.171 173.797 209.632 151.33 209.632 127.977C209.632 104.624 201.171 82.156 185.987 65.1841C170.803 48.2122 150.047 38.0231 127.977 36.7075C129.594 36.6121 131.223 36.5645 132.863 36.5645C155.811 36.5645 177.819 46.1951 194.046 63.3379C210.273 80.4806 219.389 103.731 219.389 127.975Z" fill="#151520"/>
</g>
<path d="M165.004 93.4504C165.205 93.8847 165.309 94.3566 165.31 94.8344V106.011C165.301 109.508 164.474 112.956 162.893 116.08C161.313 119.205 159.023 121.921 156.204 124.013C151.705 127.527 147.095 130.824 142.381 134.139L132.227 141.157C130.895 142.117 129.261 142.571 127.621 142.435C126.773 142.337 125.943 142.121 125.154 141.794C124.453 141.445 123.773 141.055 123.118 140.628C113.903 134.346 104.688 128.067 95.6884 121.47C91.6148 118.597 87.6543 115.616 83.5807 112.638C83.0451 112.319 82.6189 111.888 82.072 111.573C80.5661 110.414 79.5374 108.748 79.1789 106.888C79.084 106.394 79.0473 105.891 79.0695 105.388V95.2807C79.0854 94.8517 79.0499 94.4224 78.9639 94.0018C78.9324 93.9395 78.916 93.8708 78.916 93.8011C78.916 93.7314 78.9324 93.6627 78.9639 93.6005C78.9951 93.5395 79.0403 93.4868 79.096 93.4467C79.1523 93.4064 79.2166 93.3783 79.2845 93.3642H79.3902C79.415 93.5439 79.4515 93.7218 79.4995 93.8967C79.5856 94.9405 80.0414 95.92 80.7858 96.6608C81.321 97.3381 81.9738 97.9147 82.7132 98.3636C93.4253 106.345 104.356 114.116 115.393 121.778C117.965 123.589 120.639 125.288 123.216 127.096C124.253 127.82 125.41 128.36 126.633 128.69C128.07 129.032 129.581 128.881 130.922 128.262C131.423 128.044 131.891 127.757 132.313 127.411C139.386 122.412 146.349 117.514 153.436 112.51C154.828 111.554 156.114 110.598 157.389 109.532C160.746 106.536 163.197 102.669 164.465 98.3636C164.661 97.6308 164.805 96.885 164.895 96.132C164.986 95.7121 165.023 95.2823 165.004 94.8531V93.4504ZM126.859 78.0097H129.428C133.595 78.3239 137.631 79.6004 141.215 81.7377C143.636 83.2 145.894 84.9135 147.952 86.8496C149.327 88.0255 150.238 89.648 150.524 91.4289C150.811 93.1682 150.547 94.9531 149.77 96.5371C149.555 97.0696 149.23 97.4972 149.015 97.921C148.91 98.1279 148.729 98.2874 148.51 98.3673C148.29 98.4463 148.048 98.4383 147.835 98.3448C147.729 98.3448 147.729 98.2398 147.623 98.2398C146.869 97.7072 146.115 97.2797 145.266 96.7396C142.198 94.5781 138.74 93.0234 135.082 92.1603C132.735 91.6156 130.317 91.4372 127.915 91.6315C123.017 91.987 118.311 93.6736 114.31 96.5071C112.801 97.5722 111.202 98.4236 109.592 99.485C109.486 99.485 109.486 99.5937 109.38 99.5937C109.299 99.5818 109.223 99.5436 109.165 99.485L100.166 93.4204C99.9664 93.3073 99.7857 93.1643 99.6301 92.9966C99.5102 92.9176 99.4227 92.7986 99.3833 92.6611C99.3439 92.5235 99.3551 92.3765 99.4151 92.2465C99.4151 92.1378 99.5244 92.1378 99.6301 92.0328L99.8413 91.819C102.414 90.12 104.877 88.196 107.445 86.3808C109.645 84.7756 111.931 83.2895 114.291 81.929C117.043 80.414 120.003 79.306 123.076 78.6398C124.302 78.2731 125.569 78.0577 126.848 77.9985L126.859 78.0097ZM122.126 78.8723V60.1762C122.144 59.4725 122.443 58.8049 122.955 58.3193C123.467 57.8336 124.152 57.5695 124.86 57.5846H130.303C131.011 57.5695 131.696 57.8336 132.208 58.3193C132.721 58.8049 133.019 59.4725 133.038 60.1762V78.5535C129.395 78.1352 125.71 78.2451 122.099 78.8798L122.126 78.8723ZM165.125 124.628C165.331 125.061 165.442 125.533 165.449 126.012V137.399C165.353 142.418 163.624 147.272 160.523 151.234C159.18 152.908 157.633 154.41 155.918 155.705C151.392 159.215 146.696 162.516 141.962 165.831L132.532 172.323C131.723 172.882 130.812 173.279 129.85 173.493C128.565 173.815 127.209 173.703 125.995 173.174C125.122 172.857 124.294 172.427 123.532 171.895C113.032 164.77 102.531 157.531 92.2447 149.974C89.0311 147.634 85.8325 145.293 82.6 142.848C81.0114 141.698 79.94 139.974 79.6165 138.047C79.5228 137.553 79.4874 137.05 79.5109 136.547V126.233C79.5254 125.842 79.4886 125.449 79.4015 125.067C79.2959 124.744 79.5109 124.426 79.7259 124.426C79.7259 124.639 79.8315 124.744 79.8315 124.958C79.9523 126.132 80.4868 127.225 81.3402 128.045C81.8606 128.601 82.4355 129.103 83.0564 129.545C94.1986 137.845 105.665 145.931 117.116 153.807C119.248 155.307 121.401 156.68 123.438 158.064C124.306 158.73 125.285 159.238 126.331 159.564C127.116 159.83 127.946 159.939 128.774 159.884C129.601 159.829 130.409 159.612 131.152 159.245C131.677 159.004 132.182 158.72 132.66 158.397C140.374 152.959 148.091 147.521 155.805 142.004C160.068 138.943 163.194 134.567 164.699 129.556C164.926 128.715 165.105 127.861 165.234 126.998C165.016 126.229 164.97 125.421 165.099 124.632L165.125 124.628ZM131.027 196.026H124.615C123.853 196.018 123.126 195.711 122.59 195.173C122.055 194.634 121.755 193.907 121.756 193.149L122.163 170.909C122.721 170.132 123.476 169.515 124.351 169.12L133.271 167.402C133.355 167.402 133.438 167.419 133.515 167.451C133.592 167.483 133.662 167.53 133.72 167.59C133.779 167.649 133.826 167.719 133.858 167.797C133.89 167.874 133.906 167.957 133.905 168.04V193.168C133.903 193.924 133.602 194.649 133.067 195.186C132.532 195.722 131.806 196.028 131.046 196.037L131.027 196.026Z" fill="#131621"/>
<path d="M167.172 97.7415C167.373 98.1757 167.477 98.6476 167.478 99.1254V110.302C167.469 113.799 166.642 117.247 165.061 120.371C163.481 123.496 161.191 126.212 158.372 128.304C153.873 131.818 149.263 135.115 144.549 138.43L134.395 145.448C133.063 146.408 131.429 146.862 129.789 146.726C128.941 146.628 128.11 146.412 127.322 146.085C126.621 145.736 125.941 145.347 125.286 144.919C116.071 138.637 106.856 132.358 97.8564 125.761C93.7828 122.888 89.8223 119.907 85.7487 116.929C85.2131 116.61 84.7869 116.179 84.2399 115.864C82.7341 114.705 81.7054 113.039 81.3469 111.179C81.252 110.685 81.2153 110.182 81.2375 109.679V99.5717C81.2533 99.1427 81.2179 98.7134 81.1319 98.2928C81.1004 98.2305 81.084 98.1618 81.084 98.0921C81.084 98.0224 81.1004 97.9537 81.1319 97.8915C81.163 97.8305 81.2083 97.7778 81.2639 97.7377C81.3203 97.6974 81.3845 97.6693 81.4525 97.6552H81.5581C81.5829 97.8349 81.6195 98.0128 81.6675 98.1878C81.7535 99.2315 82.2093 100.211 82.9537 100.952C83.489 101.629 84.1418 102.206 84.8812 102.655C95.5933 110.636 106.524 118.407 117.561 126.069C120.133 127.88 122.807 129.579 125.384 131.387C126.421 132.111 127.578 132.651 128.801 132.981C130.238 133.323 131.749 133.172 133.09 132.553C133.591 132.335 134.059 132.048 134.481 131.702C141.554 126.703 148.517 121.805 155.604 116.801C156.996 115.845 158.282 114.889 159.557 113.824C162.914 110.827 165.365 106.96 166.633 102.655C166.829 101.922 166.973 101.176 167.063 100.423C167.154 100.003 167.191 99.5733 167.172 99.1441V97.7415ZM129.027 82.3007H131.596C135.763 82.6149 139.799 83.8914 143.383 86.0287C145.804 87.491 148.062 89.2045 150.12 91.1406C151.495 92.3165 152.406 93.939 152.692 95.7199C152.979 97.4593 152.715 99.2441 151.938 100.828C151.723 101.361 151.398 101.788 151.183 102.212C151.078 102.419 150.897 102.578 150.678 102.658C150.458 102.737 150.216 102.729 150.003 102.636C149.897 102.636 149.897 102.531 149.791 102.531C149.037 101.998 148.283 101.571 147.434 101.031C144.366 98.8691 140.908 97.3144 137.25 96.4513C134.903 95.9066 132.485 95.7282 130.083 95.9225C125.185 96.278 120.479 97.9646 116.478 100.798C114.969 101.863 113.37 102.715 111.76 103.776C111.654 103.776 111.654 103.885 111.548 103.885C111.467 103.873 111.391 103.835 111.333 103.776L102.334 97.7114C102.134 97.5983 101.954 97.4554 101.798 97.2876C101.678 97.2086 101.591 97.0896 101.551 96.9521C101.512 96.8145 101.523 96.6675 101.583 96.5376C101.583 96.4288 101.692 96.4288 101.798 96.3238L102.009 96.11C104.582 94.411 107.045 92.487 109.613 90.6718C111.813 89.0666 114.099 87.5805 116.459 86.22C119.211 84.7051 122.171 83.597 125.244 82.9308C126.47 82.5641 127.737 82.3487 129.016 82.2895L129.027 82.3007ZM124.294 83.1633V64.4672C124.312 63.7635 124.611 63.0959 125.123 62.6103C125.635 62.1246 126.32 61.8605 127.028 61.8756H132.471C133.179 61.8605 133.864 62.1246 134.376 62.6103C134.889 63.0959 135.187 63.7635 135.206 64.4672V82.8445C131.563 82.4262 127.878 82.5362 124.267 83.1708L124.294 83.1633ZM167.293 128.919C167.499 129.352 167.61 129.824 167.617 130.303V141.69C167.521 146.709 165.792 151.563 162.691 155.525C161.348 157.199 159.801 158.701 158.086 159.996C153.56 163.506 148.864 166.807 144.13 170.122L134.7 176.614C133.891 177.173 132.98 177.57 132.018 177.784C130.733 178.106 129.377 177.994 128.163 177.465C127.29 177.148 126.462 176.718 125.7 176.186C115.2 169.061 104.699 161.822 94.4127 154.265C91.1991 151.925 88.0005 149.584 84.768 147.139C83.1793 145.989 82.108 144.265 81.7844 142.338C81.6908 141.844 81.6553 141.341 81.6788 140.838V130.524C81.6934 130.133 81.6566 129.74 81.5694 129.358C81.4638 129.035 81.6788 128.717 81.8938 128.717C81.8938 128.93 81.9994 129.035 81.9994 129.249C82.1203 130.423 82.6547 131.516 83.5082 132.336C84.0286 132.892 84.6035 133.394 85.2244 133.836C96.3665 142.136 107.833 150.222 119.284 158.098C121.416 159.598 123.569 160.971 125.606 162.355C126.474 163.021 127.453 163.529 128.499 163.855C129.284 164.121 130.114 164.23 130.941 164.175C131.769 164.12 132.577 163.903 133.32 163.536C133.845 163.295 134.35 163.011 134.828 162.689C142.542 157.25 150.259 151.812 157.973 146.295C162.236 143.234 165.362 138.858 166.867 133.847C167.094 133.006 167.273 132.152 167.402 131.289C167.184 130.52 167.138 129.712 167.267 128.923L167.293 128.919ZM133.195 200.317H126.783C126.021 200.309 125.294 200.002 124.758 199.464C124.223 198.925 123.923 198.198 123.924 197.44L124.331 175.2C124.889 174.423 125.644 173.806 126.519 173.411L135.439 171.693C135.523 171.693 135.606 171.71 135.683 171.742C135.76 171.774 135.83 171.821 135.888 171.881C135.947 171.94 135.994 172.01 136.026 172.088C136.058 172.165 136.074 172.248 136.073 172.331V197.459C136.071 198.215 135.77 198.94 135.235 199.477C134.7 200.013 133.974 200.319 133.214 200.328L133.195 200.317Z" fill="#D7E6F4"/>
<defs>
<clipPath id="clip0_6957_373">
<rect width="256" height="256" fill="white"/>
</clipPath>
</defs>
</svg>
