<svg width="556" height="556" viewBox="0 0 556 556" fill="none" xmlns="http://www.w3.org/2000/svg">
<g clip-path="url(#clip0_6498_487)">
<path d="M474.582 474.582C583.148 366.016 583.148 189.996 474.582 81.4302C366.016 -27.1356 189.996 -27.1356 81.4298 81.4302C-27.1363 189.996 -27.1363 366.016 81.4298 474.582C189.996 583.147 366.016 583.147 474.582 474.582Z" fill="#FEE475"/>
<path d="M469.566 469.564C575.357 363.774 575.357 192.253 469.566 86.4629C363.775 -19.3276 192.254 -19.3276 86.4634 86.4629C-19.3274 192.253 -19.3274 363.774 86.4634 469.564C192.254 575.355 363.775 575.355 469.566 469.564Z" fill="#FFDA42"/>
<path d="M338.273 215.731C338.631 216.554 338.814 217.451 338.81 218.357V239.63C338.797 246.287 337.329 252.849 334.521 258.796C331.714 264.744 327.645 269.913 322.636 273.895C314.633 280.577 306.449 286.858 298.07 293.169L280.027 306.532C277.66 308.364 274.751 309.226 271.836 308.959C270.331 308.774 268.858 308.365 267.459 307.746C266.211 307.083 265.002 306.339 263.84 305.518C247.465 293.561 231.09 281.612 215.097 269.055C207.858 263.587 200.814 257.912 193.582 252.244C192.63 251.637 191.866 250.816 190.9 250.217C188.229 248.011 186.404 244.843 185.766 241.308C185.598 240.367 185.532 239.409 185.572 238.452V219.178C185.601 218.362 185.535 217.544 185.377 216.744C185.323 216.626 185.296 216.497 185.297 216.366C185.295 216.233 185.323 216.102 185.379 215.984C185.435 215.866 185.517 215.764 185.619 215.688C185.719 215.611 185.833 215.558 185.954 215.531H186.142C186.187 215.872 186.249 216.21 186.329 216.544C186.489 218.531 187.298 220.395 188.615 221.812C189.572 223.096 190.734 224.191 192.047 225.046C211.082 240.244 230.507 255.028 250.119 269.619C254.69 273.067 259.443 276.293 264.014 279.741C265.861 281.116 267.918 282.14 270.093 282.768C272.647 283.417 275.331 283.133 277.714 281.961C278.602 281.539 279.434 280.994 280.188 280.341C292.748 270.818 305.128 261.495 317.723 251.98C320.196 250.152 322.482 248.332 324.747 246.312C330.709 240.616 335.063 233.265 337.322 225.082C337.67 223.687 337.926 222.268 338.086 220.835C338.248 220.035 338.313 219.217 338.28 218.4L338.273 215.731ZM270.489 186.356H275.053C282.459 186.948 289.631 189.375 295.999 193.444C300.309 196.226 304.33 199.485 307.997 203.167C310.441 205.401 312.059 208.488 312.562 211.876C313.074 215.189 312.606 218.589 311.221 221.605C310.839 222.612 310.263 223.426 309.881 224.232C309.695 224.628 309.374 224.933 308.983 225.083C308.593 225.234 308.163 225.218 307.783 225.039C307.595 225.039 307.595 224.839 307.407 224.839C306.067 223.826 304.726 223.019 303.218 221.984C297.766 217.872 291.622 214.915 285.121 213.275C280.951 212.232 276.654 211.89 272.386 212.261C263.674 212.946 255.307 216.171 248.202 221.584C245.521 223.604 242.679 225.225 239.824 227.252C239.636 227.252 239.636 227.452 239.442 227.452C239.3 227.43 239.168 227.36 239.066 227.252L223.067 215.709C222.716 215.489 222.398 215.215 222.122 214.895C221.907 214.75 221.751 214.523 221.686 214.26C221.615 214.001 221.631 213.722 221.733 213.475C221.733 213.275 221.927 213.275 222.122 213.075L222.497 212.661C227.068 209.427 231.445 205.765 236.01 202.317C239.926 199.253 243.993 196.415 248.195 193.815C253.084 190.929 258.344 188.82 263.806 187.555C265.983 186.85 268.235 186.44 270.509 186.334L270.489 186.356ZM262.077 187.99V152.391C262.087 151.722 262.223 151.062 262.475 150.449C262.727 149.837 263.09 149.283 263.545 148.821C264.456 147.89 265.674 147.377 266.936 147.394H276.635C277.893 147.365 279.11 147.868 280.021 148.792C280.931 149.716 281.461 150.987 281.495 152.326V187.305C275.026 186.52 268.485 186.741 262.077 187.962V187.99ZM338.488 275.08C338.856 275.901 339.051 276.797 339.058 277.707V299.386C338.896 308.933 335.839 318.168 330.344 325.713C327.959 328.902 325.21 331.76 322.16 334.222C314.117 340.904 305.772 347.186 297.36 353.496L280.603 365.853C279.167 366.922 277.548 367.681 275.837 368.087C273.554 368.702 271.142 368.486 268.987 367.473C267.436 366.87 265.964 366.054 264.61 365.046C245.95 351.483 227.29 337.699 208.978 323.315C203.267 318.86 197.583 314.406 191.839 309.752C189.011 307.568 187.106 304.284 186.537 300.614C186.368 299.674 186.303 298.715 186.343 297.759V278.121C186.374 277.373 186.311 276.624 186.155 275.894C185.967 275.287 186.343 274.673 186.731 274.673C186.731 275.087 186.919 275.287 186.919 275.694C187.134 277.926 188.084 280.005 189.6 281.562C190.521 282.623 191.543 283.58 192.65 284.417C212.45 300.215 232.826 315.605 253.176 330.603C256.963 333.458 260.79 336.064 264.409 338.705C265.952 339.971 267.693 340.938 269.55 341.561C270.947 342.061 272.423 342.267 273.894 342.167C275.363 342.06 276.798 341.646 278.116 340.947C279.05 340.488 279.947 339.948 280.798 339.333C294.505 328.983 308.218 318.632 321.925 308.138C329.503 302.31 335.059 293.978 337.73 284.438C338.135 282.839 338.453 281.216 338.682 279.577C338.312 278.111 338.248 276.576 338.495 275.08H338.488ZM277.889 410.968H266.494C265.139 410.955 263.843 410.371 262.891 409.344C261.939 408.316 261.408 406.929 261.413 405.486L262.137 363.162C263.125 361.677 264.467 360.499 266.025 359.75L281.877 356.48C282.025 356.481 282.173 356.513 282.31 356.575C282.447 356.636 282.571 356.726 282.676 356.838C282.78 356.951 282.863 357.085 282.919 357.231C282.975 357.378 283.004 357.535 283.003 357.694V405.521C283.001 406.962 282.466 408.343 281.513 409.366C280.561 410.388 279.268 410.969 277.915 410.982L277.889 410.968Z" fill="#F68E00"/>
<path d="M356.912 216.842C357.293 217.668 357.492 218.567 357.494 219.477V240.754C357.477 247.413 355.902 253.976 352.893 259.925C349.884 265.873 345.525 271.044 340.159 275.028C331.592 281.718 322.817 287.994 313.84 294.306L294.509 307.665C291.974 309.494 288.863 310.358 285.741 310.1C284.126 309.913 282.545 309.502 281.045 308.879C279.71 308.215 278.415 307.473 277.167 306.659C259.624 294.699 242.081 282.746 224.947 270.186C217.192 264.717 209.652 259.041 201.896 253.371C200.877 252.764 200.065 251.943 199.024 251.343C196.157 249.137 194.199 245.966 193.516 242.425C193.336 241.484 193.266 240.526 193.308 239.569V220.326C193.338 219.51 193.271 218.692 193.107 217.891C193.047 217.773 193.016 217.642 193.016 217.509C193.016 217.377 193.047 217.246 193.107 217.127C193.166 217.011 193.252 216.911 193.358 216.835C193.466 216.758 193.588 216.704 193.717 216.678H193.918C193.966 217.02 194.035 217.358 194.127 217.691C194.29 219.679 195.158 221.543 196.575 222.954C197.594 224.243 198.837 225.341 200.245 226.195C220.639 241.39 241.449 256.184 262.461 270.772C267.358 274.221 272.449 277.455 277.354 280.897C279.329 282.276 281.531 283.302 283.86 283.931C286.596 284.582 289.473 284.295 292.025 283.117C292.979 282.701 293.871 282.156 294.674 281.497C308.139 271.979 321.395 262.653 334.888 253.128C337.538 251.308 339.986 249.487 342.414 247.459C348.806 241.755 353.471 234.391 355.885 226.195C356.259 224.8 356.532 223.381 356.704 221.947C356.877 221.148 356.947 220.329 356.912 219.512V216.842ZM284.291 187.445H289.181C297.115 188.044 304.798 190.474 311.622 194.543C316.231 197.327 320.53 200.589 324.447 204.275C327.065 206.514 328.8 209.603 329.344 212.993C329.89 216.305 329.388 219.703 327.908 222.718C327.499 223.732 326.881 224.546 326.472 225.353C326.27 225.747 325.927 226.05 325.51 226.203C325.091 226.353 324.631 226.338 324.224 226.16C324.023 226.16 324.023 225.96 323.822 225.96C322.386 224.946 320.95 224.132 319.334 223.104C313.493 218.989 306.91 216.029 299.945 214.386C295.477 213.349 290.874 213.009 286.301 213.379C276.976 214.056 268.016 217.267 260.4 222.661C257.527 224.689 254.483 226.31 251.416 228.33C251.215 228.33 251.215 228.537 251.014 228.537C250.859 228.515 250.715 228.442 250.605 228.33L233.471 216.785C233.092 216.569 232.748 216.297 232.451 215.978C232.223 215.827 232.057 215.601 231.982 215.339C231.907 215.077 231.928 214.797 232.042 214.55C232.042 214.343 232.25 214.343 232.451 214.143L232.854 213.736C237.751 210.501 242.44 206.838 247.33 203.382C251.519 200.326 255.869 197.497 260.364 194.907C265.603 192.023 271.237 189.913 277.088 188.645C279.423 187.947 281.834 187.537 284.269 187.424L284.291 187.445ZM275.279 189.088V153.494C275.314 152.154 275.882 150.883 276.858 149.958C277.833 149.034 279.137 148.531 280.485 148.56H290.847C292.194 148.531 293.499 149.034 294.474 149.958C295.45 150.883 296.017 152.154 296.053 153.494V188.481C289.118 187.684 282.103 187.894 275.228 189.102L275.279 189.088ZM357.142 276.199C357.535 277.023 357.745 277.921 357.759 278.833V300.511C357.575 310.068 354.285 319.308 348.381 326.851C345.824 330.039 342.879 332.898 339.613 335.362C330.996 342.046 322.055 348.329 313.043 354.641L295.091 367.001C293.55 368.064 291.816 368.821 289.985 369.229C287.539 369.842 284.957 369.629 282.646 368.622C280.983 368.017 279.406 367.199 277.957 366.187C257.965 352.62 237.974 338.84 218.391 324.452C212.273 319.997 206.183 315.541 200.029 310.886C197.005 308.697 194.965 305.415 194.349 301.746C194.171 300.805 194.103 299.847 194.148 298.89V279.255C194.176 278.508 194.106 277.762 193.94 277.034C193.739 276.42 194.148 275.813 194.557 275.813C194.557 276.22 194.758 276.42 194.758 276.827C194.989 279.061 196.006 281.143 197.631 282.703C198.622 283.761 199.716 284.718 200.898 285.559C222.111 301.361 243.941 316.755 265.742 331.749C269.8 334.606 273.9 337.219 277.778 339.854C279.429 341.122 281.294 342.089 283.285 342.71C284.78 343.216 286.36 343.424 287.935 343.319C289.51 343.215 291.049 342.802 292.463 342.103C293.463 341.644 294.424 341.104 295.335 340.489C310.02 330.136 324.712 319.782 339.398 309.279C347.514 303.45 353.466 295.12 356.33 285.581C356.764 283.978 357.104 282.352 357.35 280.711C356.934 279.246 356.846 277.708 357.091 276.206L357.142 276.199ZM292.226 412.127H280.018C278.568 412.112 277.183 411.528 276.163 410.503C275.144 409.477 274.573 408.092 274.575 406.65L275.35 364.309C276.413 362.829 277.85 361.654 279.515 360.903L296.498 357.633C296.658 357.633 296.815 357.664 296.962 357.725C297.109 357.787 297.242 357.877 297.353 357.99C297.465 358.103 297.554 358.236 297.615 358.383C297.675 358.53 297.706 358.688 297.705 358.847V406.686C297.701 408.125 297.128 409.505 296.11 410.527C295.091 411.549 293.709 412.132 292.262 412.148L292.226 412.127Z" fill="#FFEA94"/>
<path d="M415.26 417.101C493.619 338.743 495.942 214.024 420.45 138.532C344.958 63.0403 220.238 65.3639 141.88 143.722C63.5219 222.08 61.1982 346.8 136.69 422.291C212.182 497.783 336.902 495.459 415.26 417.101Z" fill="black"/>
<path opacity="0.98" d="M417.122 418.838C495.986 339.974 497.275 213.399 420.001 136.126C342.727 58.8519 216.153 60.1411 137.288 139.005C58.4242 217.869 57.135 344.443 134.409 421.717C211.683 498.991 338.258 497.701 417.122 418.838Z" fill="#FFC622"/>
<path d="M366.422 207.826C366.843 208.74 367.062 209.732 367.064 210.737V234.247C367.046 241.604 365.306 248.856 361.981 255.428C358.657 262.001 353.84 267.714 347.911 272.115C338.446 279.507 328.75 286.442 318.832 293.416L297.473 308.177C294.672 310.197 291.235 311.151 287.786 310.867C286.001 310.66 284.255 310.206 282.597 309.518C281.122 308.783 279.691 307.964 278.312 307.064C258.929 293.85 239.546 280.643 220.615 266.766C212.046 260.723 203.715 254.451 195.146 248.187C194.02 247.517 193.123 246.61 191.973 245.947C188.805 243.509 186.641 240.005 185.887 236.093C185.687 235.054 185.61 233.995 185.657 232.938V211.676C185.69 210.774 185.616 209.871 185.435 208.986C185.368 208.855 185.334 208.711 185.334 208.564C185.334 208.417 185.368 208.273 185.435 208.142C185.5 208.014 185.595 207.903 185.712 207.818C185.831 207.734 185.966 207.675 186.109 207.645H186.331C186.384 208.023 186.46 208.397 186.561 208.765C186.742 210.961 187.701 213.021 189.267 214.579C190.393 216.004 191.766 217.217 193.321 218.161C215.854 234.949 238.848 251.296 262.063 267.413C267.474 271.224 273.1 274.798 278.519 278.6C280.701 280.124 283.134 281.258 285.707 281.953C288.73 282.672 291.909 282.355 294.728 281.054C295.783 280.594 296.768 279.991 297.656 279.263C312.533 268.747 327.179 258.443 342.087 247.919C345.015 245.907 347.721 243.896 350.402 241.655C357.465 235.353 362.62 227.217 365.287 218.161C365.7 216.62 366.002 215.051 366.191 213.467C366.383 212.584 366.46 211.68 366.422 210.777V207.826ZM286.183 175.347H291.586C300.352 176.008 308.842 178.693 316.381 183.188C321.473 186.264 326.223 189.869 330.551 193.941C333.444 196.415 335.361 199.828 335.962 203.574C336.565 207.233 336.011 210.987 334.375 214.319C333.923 215.439 333.241 216.339 332.789 217.23C332.566 217.665 332.186 218.001 331.725 218.169C331.263 218.335 330.755 218.318 330.305 218.122C330.083 218.122 330.083 217.901 329.861 217.901C328.274 216.781 326.687 215.881 324.902 214.745C318.448 210.198 311.175 206.928 303.48 205.112C298.543 203.967 293.457 203.591 288.405 204C278.101 204.748 268.201 208.296 259.786 214.256C256.612 216.497 253.248 218.287 249.86 220.52C249.638 220.52 249.638 220.749 249.416 220.749C249.244 220.724 249.085 220.643 248.964 220.52L230.033 207.763C229.614 207.525 229.234 207.225 228.906 206.872C228.654 206.705 228.47 206.455 228.387 206.166C228.304 205.877 228.328 205.567 228.454 205.294C228.454 205.065 228.684 205.065 228.906 204.844L229.351 204.395C234.762 200.821 239.943 196.774 245.346 192.955C249.973 189.579 254.78 186.453 259.746 183.591C265.535 180.404 271.76 178.073 278.225 176.672C280.804 175.901 283.469 175.447 286.159 175.323L286.183 175.347ZM276.226 177.161V137.834C276.265 136.353 276.892 134.949 277.97 133.928C279.048 132.906 280.489 132.35 281.978 132.382H293.427C294.916 132.35 296.357 132.906 297.435 133.928C298.512 134.949 299.14 136.353 299.179 137.834V176.491C291.517 175.611 283.766 175.842 276.17 177.177L276.226 177.161ZM366.675 273.409C367.109 274.32 367.342 275.312 367.358 276.32V300.272C367.154 310.831 363.519 321.041 356.996 329.375C354.171 332.897 350.917 336.055 347.308 338.779C337.787 346.163 327.909 353.105 317.952 360.08L298.116 373.736C296.413 374.911 294.498 375.747 292.475 376.197C289.772 376.875 286.919 376.639 284.366 375.527C282.528 374.859 280.786 373.954 279.185 372.836C257.096 357.847 235.008 342.621 213.371 326.724C206.611 321.801 199.883 316.878 193.083 311.735C189.742 309.316 187.488 305.69 186.807 301.637C186.61 300.597 186.536 299.538 186.585 298.481V276.786C186.616 275.961 186.538 275.137 186.355 274.332C186.133 273.654 186.585 272.983 187.037 272.983C187.037 273.433 187.26 273.654 187.26 274.103C187.514 276.572 188.638 278.872 190.433 280.596C191.528 281.765 192.737 282.822 194.043 283.752C217.481 301.211 241.601 318.22 265.689 334.787C270.172 337.942 274.702 340.83 278.987 343.741C280.811 345.143 282.872 346.211 285.072 346.897C286.723 347.456 288.469 347.685 290.21 347.57C291.95 347.455 293.65 346.998 295.212 346.226C296.317 345.719 297.379 345.123 298.386 344.443C314.611 333.004 330.845 321.565 347.07 309.96C356.037 303.52 362.614 294.315 365.779 283.775C366.258 282.005 366.634 280.208 366.906 278.395C366.446 276.776 366.349 275.077 366.62 273.417L366.675 273.409ZM294.95 423.595H281.462C279.86 423.579 278.329 422.934 277.203 421.8C276.077 420.667 275.446 419.138 275.448 417.544L276.305 370.761C277.479 369.126 279.067 367.828 280.907 366.998L299.671 363.385C299.847 363.385 300.021 363.42 300.183 363.487C300.346 363.555 300.492 363.654 300.615 363.78C300.74 363.904 300.838 364.052 300.905 364.214C300.971 364.377 301.005 364.551 301.004 364.726V417.584C301 419.174 300.367 420.698 299.242 421.827C298.116 422.957 296.589 423.6 294.99 423.619L294.95 423.595Z" fill="white"/>
</g>
<defs>
<clipPath id="clip0_6498_487">
<rect width="556" height="556" fill="white"/>
</clipPath>
</defs>
</svg>
