<svg width="168" height="148" viewBox="0 0 168 148" fill="none" xmlns="http://www.w3.org/2000/svg">
<g clip-path="url(#clip0_7341_502)">
<path d="M167.77 0H0.929688V147.212H167.77V0Z" fill="#5841E8"/>
<g filter="url(#filter0_d_7341_502)">
<path d="M57 55.7031C57.0991 55.8069 57.2728 55.9021 57.2855 56.016C57.4089 57.125 58.0841 57.8696 58.9044 58.4654C66.4377 63.9362 73.9725 69.4046 81.5331 74.8357C83.3592 76.1475 84.8072 76.0716 86.6094 74.7708C90.7271 71.7985 94.8414 68.8213 98.9501 65.8361C101.28 64.1433 102.979 61.9429 103.867 59.1564C104.177 58.184 104.297 57.1482 104.427 56.5129C104.427 58.9405 104.602 61.755 104.382 64.5368C104.111 67.9663 102.428 70.7943 99.7397 72.8307C95.2619 76.2228 90.6959 79.4947 86.1275 82.7597C84.642 83.8215 83.0683 83.5434 81.6131 82.5732C80.1207 81.578 78.6401 80.5619 77.1886 79.5058C71.1743 75.1293 65.1748 70.7314 59.1651 66.3482C58.1356 65.5971 57.3224 64.7095 57.1392 63.3671C57.1436 61.1861 57.1512 59.0049 57.1457 56.8239C57.1452 56.6583 57.0507 56.4929 57 56.3276C57 56.1195 57 55.9114 57 55.7031Z" fill="white"/>
<path d="M57 55.9277C57.0991 56.0316 57.2728 56.1267 57.2855 56.2406C57.4089 57.3496 58.0841 58.0942 58.9044 58.69C66.4377 64.1608 73.9725 69.6292 81.5331 75.0603C83.3592 76.3721 84.8072 76.2963 86.6094 74.9954C90.7271 72.0231 94.8414 69.0459 98.9501 66.0607C101.28 64.3679 102.979 62.1675 103.867 59.381C104.177 58.4086 104.297 57.3728 104.427 56.7375C104.427 59.1651 104.602 61.9796 104.382 64.7614C104.111 68.1909 102.428 71.0189 99.7397 73.0553C95.262 76.4474 90.6959 79.7193 86.1275 82.9843C84.642 84.0461 83.0683 83.768 81.6131 82.7978C80.1207 81.8026 78.6401 80.7865 77.1886 79.7304C71.1743 75.3539 65.1748 70.956 59.1651 66.5728C58.1356 65.8218 57.3224 64.9341 57.1392 63.5917C57.1436 61.4107 57.1512 59.2296 57.1457 57.0485C57.1452 56.8829 57.0507 56.7175 57 56.5522C57 56.3441 57 56.136 57 55.9277Z" fill="white"/>
<path d="M57.0001 73.332C57.0949 73.3972 57.2652 73.454 57.2731 73.5287C57.4046 74.7654 58.2143 75.512 59.1116 76.1821C62.5645 78.7608 65.9992 81.3658 69.4899 83.8904C73.3545 86.6851 77.2693 89.4077 81.1692 92.1516C83.4038 93.7239 84.6435 93.7305 86.8747 92.1287C90.8325 89.2875 94.7657 86.4105 98.7209 83.5653C101.078 81.8697 102.865 79.7172 103.791 76.9114C104.135 75.8697 104.275 74.7577 104.646 73.6757C104.544 76.6957 104.632 79.7383 104.289 82.7294C103.921 85.934 102.2 88.551 99.674 90.4558C95.2304 93.8067 90.7043 97.0447 86.1845 100.289C84.6004 101.426 82.9853 101.089 81.4746 100.056C79.507 98.7108 77.5436 97.3573 75.6165 95.9532C70.0619 91.9057 64.5265 87.8307 58.9832 83.767C57.9924 83.0407 57.284 82.1291 57.1306 80.8496C57.1374 78.6397 57.147 76.43 57.1445 74.2203C57.1443 74.0805 57.0503 73.9406 57 73.8008C57.0001 73.6443 57.0001 73.4882 57.0001 73.332Z" fill="url(#paint0_linear_7341_502)" fill-opacity="0.8"/>
<path d="M57.0001 73.0859C57.0949 73.1511 57.2652 73.2079 57.2731 73.2826C57.4046 74.5193 58.2143 75.2659 59.1116 75.936C62.5645 78.5147 65.9992 81.1197 69.4899 83.6443C73.3545 86.439 77.2693 89.1616 81.1692 91.9055C83.4038 93.4778 84.6435 93.4844 86.8747 91.8826C90.8325 89.0414 94.7657 86.1644 98.7209 83.3192C101.078 81.6236 102.865 79.4711 103.791 76.6653C104.135 75.6236 104.275 74.5116 104.646 73.4296C104.544 76.4496 104.632 79.4922 104.289 82.4833C103.921 85.6879 102.2 88.3049 99.674 90.2097C95.2304 93.5606 90.7043 96.7986 86.1845 100.043C84.6004 101.18 82.9853 100.842 81.4746 99.8099C79.507 98.4648 77.5436 97.1113 75.6165 95.7071C70.0619 91.6596 64.5265 87.5846 58.9832 83.5209C57.9924 82.7946 57.284 81.883 57.1306 80.6035C57.1374 78.3937 57.147 76.1839 57.1445 73.9742C57.1443 73.8344 57.0503 73.6945 57 73.5547C57.0001 73.3982 57.0001 73.2421 57.0001 73.0859Z" fill="white"/>
<path d="M68.0469 55.1129C68.1757 54.9628 68.2421 54.8468 68.3401 54.7765C70.737 53.06 73.0917 51.2759 75.5499 49.6559C78.0939 47.9795 80.9031 46.9951 83.9764 47C86.8408 47.0046 89.4392 47.9358 91.7951 49.5446C92.9339 50.3223 94.0363 51.1807 95.0468 52.1236C96.6802 53.6478 96.8493 56.3623 95.5496 58.1871C95.2592 58.5949 94.957 58.6213 94.5757 58.3608C94.0465 57.9994 93.5213 57.6312 92.9828 57.2847C87.5457 53.7861 82.1076 53.8238 76.6712 57.2893C75.8072 57.84 74.9518 58.4057 74.0716 58.9279C73.8949 59.0328 73.5572 59.0741 73.4063 58.9718C71.7098 57.8208 70.0344 56.6371 68.357 55.4569C68.2564 55.3863 68.1866 55.2705 68.0469 55.1129Z" fill="white"/>
</g>
</g>
<defs>
<filter id="filter0_d_7341_502" x="51" y="36" width="63.6484" height="70" filterUnits="userSpaceOnUse" color-interpolation-filters="sRGB">
<feFlood flood-opacity="0" result="BackgroundImageFix"/>
<feColorMatrix in="SourceAlpha" type="matrix" values="0 0 0 0 0 0 0 0 0 0 0 0 0 0 0 0 0 0 127 0" result="hardAlpha"/>
<feOffset dx="2" dy="-3"/>
<feGaussianBlur stdDeviation="4"/>
<feComposite in2="hardAlpha" operator="out"/>
<feColorMatrix type="matrix" values="0 0 0 0 0 0 0 0 0 0 0 0 0 0 0 0 0 0 0.35 0"/>
<feBlend mode="normal" in2="BackgroundImageFix" result="effect1_dropShadow_7341_502"/>
<feBlend mode="normal" in="SourceGraphic" in2="effect1_dropShadow_7341_502" result="shape"/>
</filter>
<linearGradient id="paint0_linear_7341_502" x1="87.4694" y1="77.7008" x2="89.0648" y2="109.077" gradientUnits="userSpaceOnUse">
<stop stop-color="#707284" stop-opacity="0.41"/>
<stop offset="1" stop-color="#3B3C48"/>
</linearGradient>
<clipPath id="clip0_7341_502">
<rect width="168" height="148" fill="white"/>
</clipPath>
</defs>
</svg>
