<svg width="93" height="93" viewBox="0 0 93 93" fill="none" xmlns="http://www.w3.org/2000/svg">
<g clip-path="url(#clip0_7342_516)">
<g filter="url(#filter0_f_7342_516)">
<g filter="url(#filter1_f_7342_516)">
<path d="M78.0272 78.1916C95.3339 60.886 95.3339 32.8295 78.0272 15.5248C60.7243 -1.77909 32.6661 -1.77909 15.3614 15.5248C-1.94337 32.8295 -1.94337 60.886 15.3614 78.1916C32.6661 95.4952 60.7243 95.4952 78.0272 78.1916Z" fill="black" fill-opacity="0.15"/>
</g>
</g>
<path d="M77.6445 77.6452C94.9502 60.3396 94.9502 32.2833 77.6445 14.9786C60.3406 -2.32619 32.2836 -2.32619 14.9779 14.9786C-2.32596 32.2833 -2.32596 60.3396 14.9779 77.6452C32.2836 94.9481 60.3406 94.9481 77.6445 77.6452Z" fill="#282931" stroke="url(#paint0_linear_7342_516)" stroke-opacity="0.7" stroke-width="0.7" stroke-miterlimit="10"/>
<path d="M77.6445 77.6452C94.9502 60.3396 94.9502 32.2833 77.6445 14.9786C60.3406 -2.32618 32.2836 -2.32618 14.9779 14.9786C-2.32596 32.2833 -2.32596 60.3396 14.9779 77.6452C32.2836 94.9481 60.3406 94.9481 77.6445 77.6452Z" fill="#282931" stroke="url(#paint1_linear_7342_516)" stroke-opacity="0.7" stroke-width="2" stroke-miterlimit="10"/>
<path d="M71.383 71.3877C85.2261 57.5429 85.2261 35.0982 71.383 21.2541C57.5396 7.41009 35.0942 7.41009 21.2502 21.2541C7.40619 35.0982 7.40619 57.5429 21.2502 71.3877C35.0942 85.2308 57.5396 85.2308 71.383 71.3877Z" fill="#282931"/>
<path d="M25.7237 37.4761C25.6963 37.7913 25.6963 38.1083 25.7237 38.4235C25.8747 39.1818 26.2934 39.8606 26.9033 40.3361L28.011 41.2299C33.8027 45.5876 39.7901 49.7577 45.7066 53.8765L46.6014 54.3934C46.9901 54.5992 47.4151 54.7278 47.8529 54.7713H47.9947C48.6997 54.7709 49.3848 54.5386 49.9445 54.1105L55.4322 50.2484C57.2201 48.9074 59.1495 47.5842 60.9199 46.1947C61.503 45.7287 62.0457 45.2139 62.5417 44.6562C63.9095 43.0557 64.7671 41.0822 65.0032 38.9902C65.0032 38.3103 65.0893 37.5419 65.0893 36.7373V32.716C65.0973 32.6385 65.0973 32.5604 65.0893 32.4829V32.5549C65.0743 33.3502 64.9423 34.1391 64.6971 34.8959C63.9949 37.0497 62.6291 38.9265 60.7952 40.257C57.3264 42.7764 53.8422 45.2978 50.2852 47.728L49.4743 48.193C49.0814 48.393 48.6467 48.4971 48.2054 48.4971H47.9919C47.7749 48.4887 47.56 48.4546 47.3513 48.3957C47.188 48.3529 47.0305 48.2895 46.8832 48.2073L45.6143 47.4522C41.3579 44.5329 37.1419 41.5535 32.9666 38.5137L27.4789 34.3588L26.6742 33.6038C26.3207 33.2433 26.0853 32.7838 25.9993 32.2863V32.0938C25.9425 32.0938 25.7237 37.4761 25.7237 37.4761Z" fill="black"/>
<path d="M64.7069 48.6056C64.7696 48.4172 64.8567 48.1465 64.9469 47.8811V51.4677C64.9452 52.1508 64.8919 52.8328 64.7877 53.5078C64.4394 55.854 63.259 57.9972 61.4617 59.5458L59.8403 60.8834C57.9848 62.2738 56.0764 63.6127 54.1467 64.9513L50.007 67.8235L49.6413 68.0332C49.1787 68.33 48.6402 68.4864 48.0906 68.4832C47.7673 68.4864 47.4462 68.4303 47.1432 68.3178C46.706 68.1694 46.2933 67.9566 45.9188 67.6866L33.411 58.9509L27.2291 54.3417C26.8725 54.0895 26.5711 53.7669 26.3434 53.3942C26.1162 53.0264 25.9666 52.6161 25.9036 52.188C25.8863 51.9365 25.8863 51.684 25.9036 51.4322V47.1758C25.9757 47.3384 26.065 47.4931 26.1701 47.6369C26.4618 47.9846 26.7989 48.2911 27.1724 48.5488L31.2261 51.584C35.1138 54.4604 39.0602 57.2508 43.0661 59.9551L45.6583 61.7409L46.7659 62.3296H46.7882C47.2414 62.5072 47.7297 62.5765 48.2142 62.5323C48.6973 62.4887 49.1644 62.3344 49.5782 62.0812L50.0951 61.7977H50.1031L60.4707 54.3995C61.3739 53.7499 62.1775 52.9714 62.8553 52.0888C63.678 51.0494 64.3053 49.8693 64.7069 48.6056Z" fill="black"/>
<path d="M37.6784 27.8731L34.631 29.9475C34.3907 30.1907 34.3161 30.342 34.631 30.5658L34.9274 30.809L38.9919 33.6702C38.9919 33.6702 43.0271 31.4609 43.8889 31.089C45.4061 30.4026 47.0502 30.0515 48.712 30.0589C49.8381 30.1351 50.9562 30.306 52.0541 30.5698C53.456 30.9765 54.7841 31.6082 55.9886 32.4409L57.1335 33.2073C57.1767 33.2499 57.2269 33.2845 57.2819 33.3095C57.338 33.334 57.3982 33.3465 57.4596 33.3463C57.5209 33.3464 57.5815 33.3339 57.6379 33.3095C57.6929 33.2852 57.7431 33.2505 57.7852 33.2073C57.8319 33.173 57.8699 33.1282 57.8963 33.0765C58.1527 32.6749 58.3565 32.241 58.5017 31.7859C58.5978 31.4253 58.6477 31.0537 58.6497 30.6802C58.6515 30.1466 58.5439 29.6183 58.3342 29.1289C58.1241 28.6394 57.8162 28.1993 57.4303 27.8363L56.6494 27.1455C55.7086 26.2319 53.7333 25.0253 52.5567 24.458C50.983 23.8584 49.4023 23.6441 47.721 23.6505C45.8851 23.717 42.7084 24.459 37.6784 27.8731Z" fill="black"/>
<path d="M25.7237 37.4761C25.6963 37.7913 25.6963 38.1083 25.7237 38.4235C25.8747 39.1818 26.2934 39.8606 26.9033 40.3361L28.011 41.2299C33.8027 45.5876 39.7901 49.7577 45.7066 53.8765L46.6014 54.3934C46.9901 54.5992 47.4151 54.7278 47.8529 54.7713H47.9947C48.6997 54.7709 49.3848 54.5386 49.9445 54.1105L55.4322 50.2484C57.2201 48.9074 59.1495 47.5842 60.9199 46.1947C61.503 45.7287 62.0457 45.2139 62.5417 44.6562C63.9095 43.0557 64.7671 41.0822 65.0032 38.9902C65.0032 38.3103 65.0893 37.5419 65.0893 36.7373V32.716C65.0973 32.6385 65.0973 32.5604 65.0893 32.4829V32.5549C65.0743 33.3502 64.9423 34.1391 64.6971 34.8959C63.9949 37.0497 62.6291 38.9265 60.7952 40.257C57.3264 42.7764 53.8422 45.2978 50.2852 47.728L49.4743 48.193C49.0814 48.393 48.6467 48.4971 48.2054 48.4971H47.9919C47.7749 48.4887 47.56 48.4546 47.3513 48.3957C47.188 48.3529 47.0305 48.2895 46.8832 48.2073L45.6143 47.4522C41.3579 44.5329 37.1419 41.5535 32.9666 38.5137L27.4789 34.3588L26.6742 33.6038C26.3207 33.2433 26.0853 32.7838 25.9993 32.2863V32.0938C25.9425 32.0938 25.7237 37.4761 25.7237 37.4761Z" fill="#00D395"/>
<path d="M64.7069 48.6056C64.7696 48.4172 64.8567 48.1465 64.9469 47.8811V51.4677C64.9452 52.1508 64.8919 52.8328 64.7877 53.5078C64.4394 55.854 63.259 57.9972 61.4617 59.5458L59.8403 60.8834C57.9848 62.2738 56.0764 63.6127 54.1467 64.9513L50.007 67.8235L49.6413 68.0332C49.1787 68.33 48.6402 68.4864 48.0906 68.4832C47.7673 68.4864 47.4462 68.4303 47.1432 68.3178C46.706 68.1694 46.2933 67.9566 45.9188 67.6866L33.411 58.9509L27.2291 54.3417C26.8725 54.0895 26.5711 53.7669 26.3434 53.3942C26.1162 53.0264 25.9666 52.6161 25.9036 52.188C25.8863 51.9365 25.8863 51.684 25.9036 51.4322V47.1758C25.9757 47.3384 26.065 47.4931 26.1701 47.6369C26.4618 47.9846 26.7989 48.2911 27.1724 48.5488L31.2261 51.584C35.1138 54.4604 39.0602 57.2508 43.0661 59.9551L45.6583 61.7409L46.7659 62.3296H46.7882C47.2414 62.5072 47.7297 62.5765 48.2142 62.5323C48.6973 62.4887 49.1644 62.3344 49.5782 62.0812L50.0951 61.7977H50.1031L60.4707 54.3995C61.3739 53.7499 62.1775 52.9714 62.8553 52.0888C63.678 51.0494 64.3053 49.8693 64.7069 48.6056Z" fill="#00D395"/>
<path d="M37.6784 27.8731L34.631 29.9475C34.3907 30.1907 34.3161 30.342 34.631 30.5658L34.9274 30.809L38.9919 33.6702C38.9919 33.6702 43.0271 31.4609 43.8889 31.089C45.4061 30.4026 47.0502 30.0515 48.712 30.0589C49.8381 30.1351 50.9562 30.306 52.0541 30.5698C53.456 30.9765 54.7841 31.6082 55.9886 32.4409L57.1335 33.2073C57.1767 33.2499 57.2269 33.2845 57.2819 33.3095C57.338 33.334 57.3982 33.3465 57.4596 33.3463C57.5209 33.3464 57.5815 33.3339 57.6379 33.3095C57.6929 33.2852 57.7431 33.2505 57.7852 33.2073C57.8319 33.173 57.8699 33.1282 57.8963 33.0765C58.1527 32.6749 58.3565 32.241 58.5017 31.7859C58.5978 31.4253 58.6477 31.0537 58.6497 30.6802C58.6515 30.1466 58.5439 29.6183 58.3342 29.1289C58.1241 28.6394 57.8162 28.1993 57.4303 27.8363L56.6494 27.1455C55.7086 26.2319 53.7333 25.0253 52.5567 24.458C50.983 23.8584 49.4023 23.6441 47.721 23.6505C45.8851 23.717 42.7084 24.459 37.6784 27.8731Z" fill="#00D395"/>
<path d="M25.7237 37.4761C25.6963 37.7913 25.6963 38.1083 25.7237 38.4235C25.8747 39.1818 26.2934 39.8606 26.9033 40.3361L28.011 41.2299C33.8027 45.5876 39.7901 49.7577 45.7066 53.8765L46.6014 54.3934C46.9901 54.5992 47.4151 54.7278 47.8529 54.7713H47.9947C48.6997 54.7709 49.3848 54.5386 49.9445 54.1105L55.4322 50.2484C57.2201 48.9074 59.1495 47.5842 60.9199 46.1947C61.503 45.7287 62.0457 45.2139 62.5417 44.6562C63.9095 43.0557 64.7671 41.0822 65.0032 38.9902C65.0032 38.3103 65.0893 37.5419 65.0893 36.7373V32.716C65.0973 32.6385 65.0973 32.5604 65.0893 32.4829V32.5549C65.0743 33.3502 64.9423 34.1391 64.6971 34.8959C63.9949 37.0497 62.6291 38.9265 60.7952 40.257C57.3264 42.7764 53.8422 45.2978 50.2852 47.728L49.4743 48.193C49.0814 48.393 48.6467 48.4971 48.2054 48.4971H47.9919C47.7749 48.4887 47.56 48.4546 47.3513 48.3957C47.188 48.3529 47.0305 48.2895 46.8832 48.2073L45.6143 47.4522C41.3579 44.5329 37.1419 41.5535 32.9666 38.5137L27.4789 34.3588L26.6742 33.6038C26.3207 33.2433 26.0853 32.7838 25.9993 32.2863V32.0938C25.9425 32.0938 25.7237 37.4761 25.7237 37.4761Z" fill="url(#paint2_linear_7342_516)" fill-opacity="0.4"/>
<path d="M64.7069 48.6056C64.7696 48.4172 64.8567 48.1465 64.9469 47.8811V51.4677C64.9452 52.1508 64.8919 52.8328 64.7877 53.5078C64.4394 55.854 63.259 57.9972 61.4617 59.5458L59.8403 60.8834C57.9848 62.2738 56.0764 63.6127 54.1467 64.9513L50.007 67.8235L49.6413 68.0332C49.1787 68.33 48.6402 68.4864 48.0906 68.4832C47.7673 68.4864 47.4462 68.4303 47.1432 68.3178C46.706 68.1694 46.2933 67.9566 45.9188 67.6866L33.411 58.9509L27.2291 54.3417C26.8725 54.0895 26.5711 53.7669 26.3434 53.3942C26.1162 53.0264 25.9666 52.6161 25.9036 52.188C25.8863 51.9365 25.8863 51.684 25.9036 51.4322V47.1758C25.9757 47.3384 26.065 47.4931 26.1701 47.6369C26.4618 47.9846 26.7989 48.2911 27.1724 48.5488L31.2261 51.584C35.1138 54.4604 39.0602 57.2508 43.0661 59.9551L45.6583 61.7409L46.7659 62.3296H46.7882C47.2414 62.5072 47.7297 62.5765 48.2142 62.5323C48.6973 62.4887 49.1644 62.3344 49.5782 62.0812L50.0951 61.7977H50.1031L60.4707 54.3995C61.3739 53.7499 62.1775 52.9714 62.8553 52.0888C63.678 51.0494 64.3053 49.8693 64.7069 48.6056Z" fill="url(#paint3_linear_7342_516)" fill-opacity="0.4"/>
<path d="M37.6784 27.8731L34.631 29.9475C34.3907 30.1907 34.3161 30.342 34.631 30.5658L34.9274 30.809L38.9919 33.6702C38.9919 33.6702 43.0271 31.4609 43.8889 31.089C45.4061 30.4026 47.0502 30.0515 48.712 30.0589C49.8381 30.1351 50.9562 30.306 52.0541 30.5698C53.456 30.9765 54.7841 31.6082 55.9886 32.4409L57.1335 33.2073C57.1767 33.2499 57.2269 33.2845 57.2819 33.3095C57.338 33.334 57.3982 33.3465 57.4596 33.3463C57.5209 33.3464 57.5815 33.3339 57.6379 33.3095C57.6929 33.2852 57.7431 33.2505 57.7852 33.2073C57.8319 33.173 57.8699 33.1282 57.8963 33.0765C58.1527 32.6749 58.3565 32.241 58.5017 31.7859C58.5978 31.4253 58.6477 31.0537 58.6497 30.6802C58.6515 30.1466 58.5439 29.6183 58.3342 29.1289C58.1241 28.6394 57.8162 28.1993 57.4303 27.8363L56.6494 27.1455C55.7086 26.2319 53.7333 25.0253 52.5567 24.458C50.983 23.8584 49.4023 23.6441 47.721 23.6505C45.8851 23.717 42.7084 24.459 37.6784 27.8731Z" fill="url(#paint4_linear_7342_516)" fill-opacity="0.4"/>
</g>
<defs>
<filter id="filter0_f_7342_516" x="-3.61719" y="-3.45312" width="100.625" height="100.623" filterUnits="userSpaceOnUse" color-interpolation-filters="sRGB">
<feFlood flood-opacity="0" result="BackgroundImageFix"/>
<feBlend mode="normal" in="SourceGraphic" in2="BackgroundImageFix" result="shape"/>
<feGaussianBlur stdDeviation="3" result="effect1_foregroundBlur_7342_516"/>
</filter>
<filter id="filter1_f_7342_516" x="0.382812" y="0.546875" width="92.625" height="92.623" filterUnits="userSpaceOnUse" color-interpolation-filters="sRGB">
<feFlood flood-opacity="0" result="BackgroundImageFix"/>
<feBlend mode="normal" in="SourceGraphic" in2="BackgroundImageFix" result="shape"/>
<feGaussianBlur stdDeviation="1" result="effect1_foregroundBlur_7342_516"/>
</filter>
<linearGradient id="paint0_linear_7342_516" x1="46.3115" y1="1.99978" x2="46.3115" y2="90.6241" gradientUnits="userSpaceOnUse">
<stop stop-color="#6B6B6F"/>
<stop offset="0.96875" stop-color="#848487" stop-opacity="0.42"/>
</linearGradient>
<linearGradient id="paint1_linear_7342_516" x1="-22.2847" y1="-39.4853" x2="69.0746" y2="89.5576" gradientUnits="userSpaceOnUse">
<stop offset="0.0835138" stop-color="#01CC90"/>
<stop offset="0.96875" stop-color="#848487" stop-opacity="0"/>
</linearGradient>
<linearGradient id="paint2_linear_7342_516" x1="34.2383" y1="27.6038" x2="58.9454" y2="63.9905" gradientUnits="userSpaceOnUse">
<stop stop-opacity="0.39"/>
<stop offset="1" stop-color="#5B5151" stop-opacity="0.34"/>
</linearGradient>
<linearGradient id="paint3_linear_7342_516" x1="34.2381" y1="27.605" x2="58.9451" y2="63.9917" gradientUnits="userSpaceOnUse">
<stop stop-opacity="0.62"/>
<stop offset="1" stop-color="#5B5151" stop-opacity="0.34"/>
</linearGradient>
<linearGradient id="paint4_linear_7342_516" x1="34.2447" y1="27.6039" x2="58.9517" y2="63.9906" gradientUnits="userSpaceOnUse">
<stop stop-opacity="0.57"/>
<stop offset="1" stop-color="#5B5151" stop-opacity="0.34"/>
</linearGradient>
<clipPath id="clip0_7342_516">
<rect width="93" height="93" fill="white"/>
</clipPath>
</defs>
</svg>
