<svg width="16" height="16" viewBox="0 0 16 16" fill="none" xmlns="http://www.w3.org/2000/svg">
<g clip-path="url(#clip0_7341_489)">
<path d="M0 6.4C0 4.15982 -2.98023e-08 3.0397 0.435976 2.18404C0.819468 1.43139 1.43139 0.819468 2.18404 0.435976C3.0397 -2.98023e-08 4.15982 0 6.4 0H9.6C11.8402 0 12.9602 -2.98023e-08 13.816 0.435976C14.5686 0.819468 15.1805 1.43139 15.564 2.18404C16 3.0397 16 4.15982 16 6.4V9.6C16 11.8402 16 12.9602 15.564 13.816C15.1805 14.5686 14.5686 15.1805 13.816 15.564C12.9602 16 11.8402 16 9.6 16H6.4C4.15982 16 3.0397 16 2.18404 15.564C1.43139 15.1805 0.819468 14.5686 0.435976 13.816C-2.98023e-08 12.9602 0 11.8402 0 9.6V6.4Z" fill="url(#paint0_linear_7341_489)"/>
<rect x="4" y="1" width="9" height="14" fill="#D9D9D9"/>
<path d="M3 0.5H13V15C13 15 11.4061 15.2163 10.9161 15.2163H9.03903V9.01629H11.119L11.429 6.60629H9.03903V5.06629C9.03903 4.36629 9.23903 3.88629 10.239 3.88629H11.519V1.72629C11.299 1.69629 10.539 1.63629 9.65903 1.63629C7.80903 1.63629 6.54903 2.75629 6.54903 4.82629V6.60629H4.45903V9.01629H6.54903V15.2163H3V0.5Z" fill="#07489B"/>
</g>
<defs>
<linearGradient id="paint0_linear_7341_489" x1="3.62704" y1="0.527368" x2="11.5278" y2="15.7239" gradientUnits="userSpaceOnUse">
<stop stop-color="#07489B"/>
<stop offset="1" stop-color="#07489B"/>
</linearGradient>
<clipPath id="clip0_7341_489">
<rect width="16" height="16" fill="white"/>
</clipPath>
</defs>
</svg>
