<svg width="40" height="4" viewBox="0 0 40 4" fill="none" xmlns="http://www.w3.org/2000/svg">
<path d="M3.49997 2.75H0.875V3.25H3.49997V2.75Z" fill="#EDB055"/>
<path d="M3.50001 1.75H0V2.25H3.50001V1.75Z" fill="#EDB055"/>
<path d="M3.49997 0.75H0.875V1.25H3.49997V0.75Z" fill="#EDB055"/>
<path d="M5.00002 4C4.60443 4 4.21777 3.88272 3.88884 3.66295C3.55995 3.44318 3.30362 3.13081 3.15224 2.76537C3.00087 2.39992 2.96126 1.99779 3.03843 1.60982C3.1156 1.22186 3.30608 0.865489 3.58577 0.585789C3.8655 0.306079 4.22185 0.115599 4.60985 0.0384293C4.9978 -0.0387407 5.39993 0.000869408 5.76539 0.152239C6.13081 0.303619 6.44321 0.559959 6.6629 0.888859C6.8827 1.21776 7 1.60444 7 2C7 2.53045 6.7893 3.03915 6.41423 3.41422C6.03912 3.7893 5.53042 4 5.00002 4ZM5.00002 0.499999C4.70336 0.499999 4.41332 0.587979 4.16665 0.752799C3.91995 0.917619 3.72773 1.15189 3.61417 1.42598C3.50066 1.70007 3.47093 2.00167 3.52884 2.29265C3.58671 2.58362 3.72959 2.85088 3.93932 3.06067C4.14914 3.27045 4.41639 3.4133 4.70736 3.47119C4.99833 3.52905 5.29993 3.49936 5.57402 3.38582C5.84815 3.2723 6.08241 3.08004 6.24721 2.83336C6.41205 2.58669 6.5 2.29669 6.5 2C6.5 1.60218 6.34196 1.22065 6.06068 0.939339C5.77939 0.658039 5.39784 0.499999 5.00002 0.499999Z" fill="#8C8C8C"/>
<path d="M12.1229 0.589844H12.6499V2.49041C12.6499 2.69875 12.6006 2.88198 12.5021 3.04013C12.4046 3.19827 12.2673 3.32185 12.0902 3.41087C11.9131 3.49893 11.7062 3.54297 11.4695 3.54297C11.2318 3.54297 11.0244 3.49893 10.8473 3.41087C10.6702 3.32185 10.5329 3.19827 10.4354 3.04013C10.3378 2.88198 10.2891 2.69875 10.2891 2.49041V0.589844H10.8161V2.44638C10.8161 2.56759 10.8426 2.67554 10.8956 2.77024C10.9496 2.86494 11.0253 2.93928 11.1229 2.99325C11.2204 3.04628 11.3359 3.0728 11.4695 3.0728C11.603 3.0728 11.7185 3.04628 11.8161 2.99325C11.9145 2.93928 11.9903 2.86494 12.0433 2.77024C12.0964 2.67554 12.1229 2.56759 12.1229 2.44638V0.589844Z" fill="#8C8C8C"/>
<path d="M13.0938 1.03161V0.589844H15.4148V1.03161H14.5157V3.49893H13.9929V1.03161H13.0938Z" fill="#8C8C8C"/>
<path d="M16.3025 0.589844L16.9431 1.65518H16.9659L17.6093 0.589844H18.2102L17.3139 2.04439L18.2244 3.49893H17.6136L16.9659 2.4407H16.9431L16.2954 3.49893H15.6875L16.6065 2.04439L15.6988 0.589844H16.3025Z" fill="#8C8C8C"/>
<path d="M21.1186 2.0451C21.1186 2.35855 21.0599 2.62701 20.9424 2.8505C20.8259 3.07304 20.6669 3.24349 20.4652 3.36186C20.2644 3.48023 20.0367 3.53942 19.7819 3.53942C19.5272 3.53942 19.299 3.48023 19.0973 3.36186C18.8965 3.24254 18.7374 3.07161 18.62 2.84908C18.5035 2.62559 18.4453 2.3576 18.4453 2.0451C18.4453 1.73165 18.5035 1.46366 18.62 1.24112C18.7374 1.01764 18.8965 0.846711 19.0973 0.728341C19.299 0.609971 19.5272 0.550781 19.7819 0.550781C20.0367 0.550781 20.2644 0.609971 20.4652 0.728341C20.6669 0.846711 20.8259 1.01764 20.9424 1.24112C21.0599 1.46366 21.1186 1.73165 21.1186 2.0451ZM20.5887 2.0451C20.5887 1.82446 20.5542 1.63838 20.485 1.48686C20.4169 1.3344 20.3222 1.21934 20.2009 1.14169C20.0797 1.06309 19.9401 1.02379 19.7819 1.02379C19.6238 1.02379 19.4841 1.06309 19.3629 1.14169C19.2417 1.21934 19.1465 1.3344 19.0774 1.48686C19.0092 1.63838 18.9751 1.82446 18.9751 2.0451C18.9751 2.26574 19.0092 2.4523 19.0774 2.60476C19.1465 2.75627 19.2417 2.87133 19.3629 2.94993C19.4841 3.02758 19.6238 3.06641 19.7819 3.06641C19.9401 3.06641 20.0797 3.02758 20.2009 2.94993C20.3222 2.87133 20.4169 2.75627 20.485 2.60476C20.5542 2.4523 20.5887 2.26574 20.5887 2.0451Z" fill="#8C8C8C"/>
<path d="M22.6094 0.589844H23.2543L24.1179 2.6978H24.152L25.0156 0.589844H25.6605V3.49893H25.1548V1.50036H25.1278L24.3239 3.49041H23.946L23.142 1.49609H23.1151V3.49893H22.6094V0.589844Z" fill="#8C8C8C"/>
<path d="M28.8374 2.0451C28.8374 2.35855 28.7787 2.62701 28.6613 2.8505C28.5448 3.07304 28.3857 3.24349 28.184 3.36186C27.9832 3.48023 27.7555 3.53942 27.5008 3.53942C27.246 3.53942 27.0178 3.48023 26.8161 3.36186C26.6153 3.24254 26.4563 3.07161 26.3388 2.84908C26.2224 2.62559 26.1641 2.3576 26.1641 2.0451C26.1641 1.73165 26.2224 1.46366 26.3388 1.24112C26.4563 1.01764 26.6153 0.846711 26.8161 0.728341C27.0178 0.609971 27.246 0.550781 27.5008 0.550781C27.7555 0.550781 27.9832 0.609971 28.184 0.728341C28.3857 0.846711 28.5448 1.01764 28.6613 1.24112C28.7787 1.46366 28.8374 1.73165 28.8374 2.0451ZM28.3076 2.0451C28.3076 1.82446 28.273 1.63838 28.2039 1.48686C28.1357 1.3344 28.041 1.21934 27.9198 1.14169C27.7986 1.06309 27.6589 1.02379 27.5008 1.02379C27.3426 1.02379 27.2029 1.06309 27.0817 1.14169C26.9605 1.21934 26.8653 1.3344 26.7962 1.48686C26.728 1.63838 26.6939 1.82446 26.6939 2.0451C26.6939 2.26574 26.728 2.4523 26.7962 2.60476C26.8653 2.75627 26.9605 2.87133 27.0817 2.94993C27.2029 3.02758 27.3426 3.06641 27.5008 3.06641C27.6589 3.06641 27.7986 3.02758 27.9198 2.94993C28.041 2.87133 28.1357 2.75627 28.2039 2.60476C28.273 2.4523 28.3076 2.26574 28.3076 2.0451Z" fill="#8C8C8C"/>
<path d="M30.3139 3.49893H29.3281V0.589844H30.3338C30.6226 0.589844 30.8707 0.648084 31.0781 0.764564C31.2865 0.880094 31.4465 1.04628 31.5582 1.26314C31.67 1.48 31.7259 1.73947 31.7259 2.04155C31.7259 2.34458 31.6695 2.605 31.5568 2.8228C31.4451 3.0406 31.2836 3.20774 31.0724 3.32422C30.8622 3.4407 30.6094 3.49893 30.3139 3.49893ZM29.8551 3.04297H30.2884C30.491 3.04297 30.66 3.00604 30.7955 2.93217C30.9309 2.85736 31.0327 2.74609 31.1009 2.59837C31.169 2.44969 31.2031 2.26409 31.2031 2.04155C31.2031 1.81901 31.169 1.63435 31.1009 1.48757C31.0327 1.33984 30.9318 1.22952 30.7983 1.15661C30.6657 1.08274 30.501 1.04581 30.304 1.04581H29.8551V3.04297Z" fill="#8C8C8C"/>
<path d="M32.2344 3.49893V0.589844H34.1264V1.03161H32.7614V1.82138H34.0284V2.26314H32.7614V3.05717H34.1378V3.49893H32.2344Z" fill="#8C8C8C"/>
<path d="M34.6641 3.49893V0.589844H35.191V3.05717H36.4723V3.49893H34.6641Z" fill="#8C8C8C"/>
<path d="M38.5063 1.39027C38.4931 1.26622 38.4372 1.16963 38.3387 1.1005C38.2412 1.03137 38.1143 0.996801 37.9581 0.996801C37.8482 0.996801 37.754 1.01338 37.6754 1.04652C37.5968 1.07966 37.5367 1.12464 37.495 1.18146C37.4533 1.23828 37.432 1.30315 37.4311 1.37607C37.4311 1.43667 37.4448 1.48923 37.4723 1.53374C37.5007 1.57824 37.539 1.61612 37.5873 1.64737C37.6356 1.67768 37.6891 1.70324 37.7478 1.72408C37.8065 1.74491 37.8657 1.76243 37.9254 1.77663L38.1981 1.84482C38.308 1.87038 38.4135 1.90495 38.5149 1.94851C38.6171 1.99207 38.7085 2.04699 38.789 2.11328C38.8705 2.17957 38.9349 2.25959 38.9822 2.35334C39.0295 2.44709 39.0532 2.55694 39.0532 2.68288C39.0532 2.85334 39.0097 3.00343 38.9225 3.13317C38.8354 3.26196 38.7095 3.36281 38.5447 3.43572C38.3809 3.50769 38.1825 3.54368 37.9495 3.54368C37.7232 3.54368 37.5267 3.50864 37.36 3.43857C37.1943 3.36849 37.0646 3.26622 36.9708 3.13175C36.878 2.99728 36.8278 2.83345 36.8203 2.64027H37.3387C37.3463 2.7416 37.3776 2.82588 37.4325 2.89311C37.4874 2.96035 37.5589 3.01054 37.647 3.04368C37.736 3.07682 37.8354 3.09339 37.9453 3.09339C38.0599 3.09339 38.1602 3.07635 38.2464 3.04226C38.3335 3.00722 38.4017 2.95893 38.4509 2.89737C38.5002 2.83487 38.5253 2.76196 38.5262 2.67862C38.5253 2.60286 38.503 2.54036 38.4595 2.49112C38.4159 2.44093 38.3548 2.39927 38.2762 2.36612C38.1986 2.33203 38.1077 2.30173 38.0035 2.27521L37.6725 2.18999C37.433 2.12843 37.2436 2.03516 37.1044 1.91016C36.9661 1.78421 36.897 1.61707 36.897 1.40874C36.897 1.23733 36.9434 1.08724 37.0362 0.958451C37.1299 0.829661 37.2573 0.729761 37.4183 0.658741C37.5793 0.586771 37.7616 0.550781 37.9652 0.550781C38.1716 0.550781 38.3525 0.586771 38.5078 0.658741C38.664 0.729761 38.7867 0.828721 38.8757 0.955611C38.9647 1.08156 39.0106 1.22644 39.0134 1.39027H38.5063Z" fill="#8C8C8C"/>
</svg>
