<svg id="Layer_1" data-name="Layer 1" xmlns="http://www.w3.org/2000/svg" viewBox="0 0 200 200"><path d="M29.389,199.95a8.334,8.334,0,0,1-5.25-14.834L38.8,173.2a16.663,16.663,0,0,1,19.081-1.333A83.332,83.332,0,1,0,16.724,97.789a81,81,0,0,0,12.832,46.664,8.333,8.333,0,1,1-14.082,8.915A97.412,97.412,0,0,1,.059,97.289,99.988,99.988,0,1,1,49.47,186.283l-14.832,11.75A8.333,8.333,0,0,1,29.389,199.95Zm78.822-66.667V91.618a8.333,8.333,0,1,0-16.665,0v41.665a8.333,8.333,0,0,0,16.665,0ZM91.546,66.626a8.333,8.333,0,1,0,8.332-8.333A8.332,8.332,0,0,0,91.546,66.626Z" style="fill-opacity:0.7099999785423279;fill-rule:evenodd"/></svg>