<svg width="18" height="18" viewBox="0 0 18 18" fill="none" xmlns="http://www.w3.org/2000/svg">
<path d="M2.42773 3.84863H4.91458V6.33547" stroke="#675CFE" stroke-width="1.06579" stroke-linecap="round" stroke-linejoin="round"/>
<path d="M15.5723 14.1514H13.0854V11.6646" stroke="#675CFE" stroke-width="1.06579" stroke-linecap="round" stroke-linejoin="round"/>
<path d="M4.73694 3.9979C3.3238 5.2034 2.42773 6.99717 2.42773 9.00022C2.42773 11.0867 3.40002 12.9461 4.91623 14.1502M13.2966 13.9739C14.6905 12.7687 15.5725 10.9875 15.5725 9.00022C15.5725 6.91133 14.5979 5.05004 13.0788 3.84619" stroke="#675CFE" stroke-width="1.06579" stroke-linecap="round" stroke-linejoin="round"/>
<path d="M10.5987 7.40152C10.5987 7.00911 10.2806 6.691 9.88821 6.691H9.00005M9.00005 6.691H8.11189C7.71948 6.691 7.40137 7.00911 7.40137 7.40152V8.07498C7.40137 8.40801 7.63267 8.69635 7.95776 8.76858L10.0423 9.23183C10.3675 9.30406 10.5987 9.59241 10.5987 9.92541V10.5989C10.5987 10.9913 10.2806 11.3094 9.88821 11.3094H9.00005M9.00005 6.691V5.98047M7.40137 10.5847V10.5989C7.40137 10.9913 7.71948 11.3094 8.11189 11.3094H9.00005M9.00005 11.3094V12.0199" stroke="#675CFE" stroke-width="1.06579" stroke-linecap="round" stroke-linejoin="round"/>
</svg>
