<svg width="612" height="145" viewBox="0 0 612 145" fill="none" xmlns="http://www.w3.org/2000/svg">
<g opacity="0.05">
<path d="M539.057 144.566C524.76 144.566 510.785 140.327 498.898 132.384C487.011 124.442 477.747 113.153 472.276 99.9449C466.805 86.7369 465.373 72.203 468.162 58.181C470.951 44.16 477.836 31.28 487.945 21.1713C498.054 11.0623 510.933 4.17795 524.955 1.38895C538.977 -1.40015 553.51 0.0313454 566.718 5.50225C579.926 10.9731 591.215 20.2379 599.158 32.125C607.101 44.012 611.34 57.987 611.34 72.283C611.34 91.454 603.724 109.839 590.169 123.395C576.613 136.951 558.227 144.566 539.057 144.566Z" fill="#141E27"/>
<path d="M590.398 123.441C618.627 95.2121 618.627 49.4438 590.398 21.2148C562.169 -7.01429 516.401 -7.01429 488.172 21.2148C459.943 49.4438 459.943 95.2121 488.172 123.441C516.401 151.67 562.169 151.67 590.398 123.441Z" fill="#4A5C6B"/>
<path d="M589.091 122.135C616.599 94.6272 616.599 50.0288 589.091 22.5213C561.584 -4.98613 516.986 -4.98613 489.478 22.5213C461.971 50.0288 461.971 94.6272 489.478 122.135C516.986 149.642 561.584 149.642 589.091 122.135Z" fill="#384E61"/>
<path d="M589.229 22.665L489.622 122.272C496.356 128.966 504.372 134.231 513.19 137.751L604.71 46.2327C601.189 37.4146 595.924 29.3984 589.229 22.665Z" fill="#4A5C6B"/>
<path d="M579.951 14.8311L481.789 112.991C482.933 114.606 484.14 116.171 485.41 117.686L584.642 18.4526C583.132 17.1795 581.568 15.9723 579.951 14.8311Z" fill="#4A5C6B"/>
<path d="M540.67 124.673C568.858 124.673 591.709 101.822 591.709 73.6343C591.709 45.4467 568.858 22.5961 540.67 22.5961C512.483 22.5961 489.632 45.4467 489.632 73.6343C489.632 101.822 512.483 124.673 540.67 124.673Z" fill="black"/>
<path d="M575.374 108.418C595.306 88.4859 595.306 56.1702 575.374 36.2386C555.443 16.3069 523.127 16.3069 503.195 36.2386C483.264 56.1702 483.264 88.4858 503.195 108.418C523.127 128.349 555.443 128.349 575.374 108.418Z" fill="black"/>
<path d="M491.018 75.0993C491.016 65.1716 493.91 55.4589 499.345 47.1513C504.781 38.8437 512.521 32.3021 521.619 28.3279C530.716 24.3537 540.776 23.1197 550.564 24.7769C560.352 26.4341 569.445 30.9106 576.727 37.658C572.063 32.6178 566.429 28.571 560.163 25.7599C553.897 22.9489 547.129 21.4315 540.262 21.2987C533.396 21.1659 526.574 22.4203 520.204 24.9869C513.834 27.5534 508.048 31.3793 503.192 36.2354C498.336 41.0914 494.51 46.8776 491.944 53.2474C489.377 59.6172 488.123 66.4396 488.255 73.3057C488.388 80.1719 489.906 86.9406 492.717 93.2064C495.528 99.4721 499.574 105.106 504.615 109.771C495.861 100.349 491.002 87.9601 491.018 75.0993Z" fill="black"/>
<path d="M590.889 73.2489C590.933 87.2865 585.558 100.77 575.941 110.742C566.323 120.715 553.249 126.364 539.584 126.45C525.92 126.536 512.779 121.053 503.043 111.202C493.307 101.352 487.771 87.9377 487.648 73.9006V73.2489C487.648 59.1849 493.086 45.6968 502.767 35.7521C512.448 25.8073 525.578 20.2204 539.269 20.2204H539.906C553.487 20.3874 566.457 26.0478 576.002 35.974C585.547 45.9002 590.893 59.2966 590.889 73.2489Z" fill="#1A2E41"/>
<path d="M575.802 38.0008L502.77 111.299C493.218 101.745 487.788 88.8081 487.648 75.275V74.638C487.648 60.8928 493.088 47.7106 502.773 37.9908C512.457 28.2711 525.593 22.81 539.289 22.8087H539.926C553.405 22.9683 566.284 28.4223 575.802 38.0008Z" fill="#2C465E"/>
<path d="M590.486 73.5629C590.486 80.5111 589.233 87.3912 586.797 93.8105C584.362 100.23 580.792 106.063 576.291 110.976C571.791 115.889 566.448 119.786 560.568 122.445C554.688 125.104 548.386 126.473 542.021 126.473C541.102 126.473 540.19 126.445 539.284 126.39C551.646 125.629 563.272 119.731 571.777 109.908C580.282 100.085 585.02 87.0808 585.02 73.5642C585.02 60.0475 580.282 47.0434 571.777 37.2202C563.272 27.397 551.646 21.4996 539.284 20.7382C540.19 20.683 541.102 20.6554 542.021 20.6554C554.875 20.6554 567.202 26.2295 576.291 36.1516C585.379 46.0737 590.486 59.531 590.486 73.5629Z" fill="#151520"/>
<path d="M560.181 52.4666C560.295 52.7128 560.353 52.9803 560.354 53.2512V59.5869C560.349 61.5695 559.882 63.5237 558.989 65.295C558.097 67.0662 556.804 68.6059 555.212 69.792C552.671 71.7841 550.068 73.653 547.405 75.5324L541.671 79.5103C540.919 80.0547 539.996 80.3119 539.07 80.2353C538.591 80.1795 538.122 80.0572 537.677 79.8717C537.281 79.6738 536.897 79.453 536.527 79.2105C531.323 75.6493 526.119 72.0903 521.037 68.3505C518.737 66.722 516.5 65.0317 514.2 63.3436C513.897 63.1629 513.656 62.9184 513.347 62.7398C512.497 62.0828 511.916 61.1386 511.714 60.0844C511.66 59.8042 511.639 59.5188 511.652 59.2339V53.5042C511.661 53.261 511.641 53.0176 511.592 52.7792C511.575 52.7439 511.565 52.7049 511.565 52.6654C511.565 52.6259 511.575 52.587 511.592 52.5517C511.61 52.5171 511.635 52.4873 511.667 52.4645C511.699 52.4417 511.735 52.4257 511.773 52.4177H511.833C511.847 52.5196 511.868 52.6205 511.895 52.7196C511.943 53.3113 512.201 53.8666 512.621 54.2866C512.923 54.6705 513.292 54.9974 513.71 55.2518C519.759 59.7761 525.932 64.1813 532.165 68.5249C533.617 69.5518 535.127 70.5149 536.582 71.5396C537.168 71.9502 537.821 72.2559 538.512 72.4432C539.324 72.6369 540.177 72.5515 540.934 72.2008C541.217 72.0769 541.482 71.9145 541.72 71.7182C545.714 68.8842 549.646 66.1075 553.648 63.2713C554.434 62.7292 555.161 62.187 555.881 61.5832C557.777 59.8849 559.161 57.6922 559.877 55.2518C559.988 54.8364 560.069 54.4137 560.12 53.9868C560.171 53.7487 560.192 53.5051 560.181 53.2618V52.4666ZM538.64 43.7136H540.091C542.444 43.8917 544.723 44.6153 546.747 45.8269C548.114 46.6559 549.39 47.6272 550.551 48.7248C551.328 49.3914 551.843 50.3111 552.004 51.3207C552.166 52.3067 552.017 53.3185 551.578 54.2164C551.457 54.5183 551.273 54.7607 551.152 55.0009C551.092 55.1182 550.99 55.2086 550.867 55.2539C550.743 55.2987 550.606 55.2941 550.485 55.2412C550.426 55.2412 550.426 55.1816 550.366 55.1816C549.94 54.8797 549.514 54.6374 549.035 54.3312C547.302 53.1059 545.35 52.2246 543.284 51.7353C541.958 51.4265 540.593 51.3254 539.236 51.4355C536.47 51.6371 533.812 52.5931 531.553 54.1994C530.701 54.8032 529.798 55.2858 528.889 55.8875C528.829 55.8875 528.829 55.9492 528.769 55.9492C528.723 55.9424 528.68 55.9208 528.648 55.8875L523.565 52.4496C523.453 52.3855 523.351 52.3045 523.263 52.2094C523.195 52.1646 523.146 52.0971 523.124 52.0192C523.101 51.9412 523.108 51.8579 523.142 51.7842C523.142 51.7225 523.203 51.7225 523.263 51.663L523.382 51.5418C524.835 50.5787 526.226 49.488 527.676 48.459C528.919 47.5491 530.209 46.7066 531.543 45.9354C533.097 45.0766 534.768 44.4485 536.504 44.0708C537.196 43.8629 537.911 43.7408 538.634 43.7072L538.64 43.7136ZM535.967 44.2026V33.6041C535.977 33.2052 536.146 32.8268 536.435 32.5515C536.725 32.2762 537.111 32.1264 537.511 32.135H540.585C540.984 32.1264 541.371 32.2762 541.661 32.5515C541.95 32.8268 542.118 33.2052 542.129 33.6041V44.0219C540.072 43.7848 537.991 43.8471 535.952 44.2069L535.967 44.2026ZM560.25 70.1407C560.366 70.3861 560.429 70.6536 560.433 70.9252V77.38C560.378 80.2255 559.402 82.977 557.651 85.223C556.893 86.1721 556.019 87.0234 555.05 87.7573C552.494 89.7473 549.842 91.6183 547.169 93.4977L541.844 97.1779C541.386 97.4946 540.872 97.7199 540.329 97.8413C539.604 98.024 538.838 97.9604 538.152 97.6606C537.659 97.4806 537.191 97.2369 536.761 96.9356C530.831 92.896 524.901 88.7927 519.092 84.5087C517.277 83.182 515.471 81.8553 513.646 80.4691C512.749 79.8174 512.144 78.8402 511.961 77.7478C511.908 77.4676 511.888 77.1822 511.901 76.8973V71.0506C511.909 70.8285 511.889 70.6062 511.839 70.3894C511.78 70.2066 511.901 70.0259 512.023 70.0259C512.023 70.1471 512.082 70.2066 512.082 70.3278C512.15 70.9931 512.452 71.6129 512.934 72.0775C513.228 72.3925 513.553 72.6774 513.903 72.928C520.196 77.633 526.671 82.2168 533.138 86.6815C534.341 87.5319 535.558 88.3101 536.708 89.0946C537.198 89.4724 537.751 89.7603 538.342 89.945C538.785 90.0959 539.254 90.1576 539.721 90.1266C540.188 90.0956 540.645 89.9724 541.064 89.7643C541.361 89.6276 541.646 89.4669 541.916 89.2838C546.272 86.201 550.63 83.1182 554.986 79.9908C557.394 78.2552 559.159 75.7746 560.009 72.9343C560.137 72.4572 560.238 71.9731 560.311 71.4844C560.188 71.0481 560.162 70.5902 560.235 70.1428L560.25 70.1407ZM540.994 110.615H537.373C536.942 110.61 536.531 110.436 536.229 110.131C535.927 109.826 535.757 109.413 535.758 108.984L535.988 96.3764C536.303 95.9357 536.729 95.5859 537.223 95.3623L542.261 94.3885C542.308 94.3885 542.355 94.3978 542.399 94.4161C542.442 94.4343 542.482 94.4611 542.515 94.4948C542.548 94.5284 542.574 94.5682 542.592 94.612C542.61 94.6558 542.619 94.7027 542.619 94.75V108.995C542.618 109.423 542.448 109.834 542.146 110.138C541.844 110.443 541.434 110.616 541.004 110.621L540.994 110.615Z" fill="#131621"/>
<path d="M561.405 54.8984C561.518 55.1445 561.577 55.4121 561.578 55.6829V62.0186C561.573 64.0012 561.106 65.9555 560.213 67.7267C559.321 69.498 558.027 71.0376 556.436 72.2237C553.895 74.2159 551.292 76.0847 548.629 77.9641L542.895 81.942C542.143 82.4865 541.22 82.7437 540.294 82.667C539.815 82.6113 539.346 82.4889 538.901 82.3034C538.505 82.1055 538.121 81.8847 537.751 81.6422C532.547 78.0811 527.343 74.522 522.261 70.7823C519.96 69.1537 517.724 67.4635 515.423 65.7754C515.121 65.5946 514.88 65.3501 514.571 65.1716C513.721 64.5145 513.14 63.5703 512.938 62.5161C512.884 62.236 512.863 61.9506 512.876 61.6657V55.9359C512.885 55.6927 512.865 55.4494 512.816 55.2109C512.798 55.1756 512.789 55.1367 512.789 55.0972C512.789 55.0577 512.798 55.0187 512.816 54.9834C512.834 54.9489 512.859 54.919 512.891 54.8963C512.923 54.8734 512.959 54.8575 512.997 54.8495H513.057C513.071 54.9513 513.091 55.0522 513.119 55.1514C513.167 55.7431 513.425 56.2983 513.845 56.7183C514.147 57.1022 514.516 57.4291 514.933 57.6835C520.983 62.2078 527.156 66.613 533.388 70.9566C534.841 71.9835 536.351 72.9466 537.806 73.9714C538.392 74.3819 539.045 74.6876 539.736 74.8749C540.548 75.0686 541.401 74.9832 542.158 74.6326C542.441 74.5087 542.705 74.3462 542.944 74.15C546.938 71.3159 550.87 68.5393 554.872 65.7031C555.658 65.1609 556.385 64.6188 557.105 64.015C559.001 62.3166 560.385 60.1239 561.101 57.6835C561.211 57.2681 561.293 56.8454 561.343 56.4185C561.395 56.1805 561.416 55.9368 561.405 55.6935V54.8984ZM539.864 46.1453H541.314C543.668 46.3235 545.947 47.0471 547.971 48.2587C549.338 49.0876 550.613 50.059 551.775 51.1565C552.552 51.8231 553.066 52.7429 553.228 53.7524C553.39 54.7384 553.241 55.7502 552.802 56.6481C552.68 56.95 552.497 57.1924 552.376 57.4327C552.316 57.5499 552.214 57.6403 552.09 57.6857C551.966 57.7305 551.83 57.7259 551.709 57.6729C551.65 57.6729 551.65 57.6134 551.59 57.6134C551.164 57.3115 550.738 57.0691 550.259 56.7629C548.526 55.5376 546.573 54.6563 544.507 54.167C543.182 53.8582 541.817 53.7571 540.46 53.8672C537.694 54.0688 535.036 55.0249 532.777 56.6311C531.925 57.2349 531.022 57.7175 530.112 58.3192C530.053 58.3192 530.053 58.3809 529.993 58.3809C529.947 58.3742 529.904 58.3525 529.872 58.3192L524.789 54.8814C524.677 54.8172 524.575 54.7362 524.487 54.6411C524.419 54.5963 524.37 54.5289 524.347 54.4509C524.325 54.3729 524.332 54.2896 524.365 54.2159C524.365 54.1543 524.427 54.1543 524.487 54.0947L524.606 53.9735C526.059 53.0104 527.45 51.9198 528.9 50.8907C530.143 49.9808 531.433 49.1384 532.766 48.3671C534.321 47.5083 535.992 46.8802 537.727 46.5025C538.42 46.2946 539.135 46.1725 539.857 46.139L539.864 46.1453ZM537.191 46.6343V36.0359C537.201 35.637 537.37 35.2585 537.659 34.9832C537.948 34.7079 538.335 34.5582 538.735 34.5668H541.809C542.208 34.5582 542.595 34.7079 542.884 34.9832C543.174 35.2585 543.342 35.637 543.353 36.0359V46.4536C541.296 46.2165 539.215 46.2788 537.176 46.6386L537.191 46.6343ZM561.473 72.5724C561.59 72.8179 561.652 73.0854 561.657 73.3569V79.8117C561.602 82.6572 560.626 85.4087 558.875 87.6548C558.116 88.6038 557.243 89.4551 556.274 90.189C553.718 92.179 551.066 94.05 548.393 95.9294L543.067 99.6097C542.61 99.9263 542.096 100.152 541.553 100.273C540.827 100.456 540.061 100.392 539.376 100.092C538.883 99.9124 538.415 99.6686 537.985 99.3673C532.055 95.3278 526.125 91.2244 520.316 86.9404C518.501 85.6137 516.695 84.2871 514.87 82.9009C513.972 82.2491 513.367 81.2719 513.185 80.1795C513.132 79.8993 513.112 79.6139 513.125 79.3291V73.4824C513.133 73.2602 513.112 73.038 513.063 72.8212C513.004 72.6383 513.125 72.4576 513.246 72.4576C513.246 72.5788 513.306 72.6383 513.306 72.7595C513.374 73.4248 513.676 74.0446 514.158 74.5093C514.452 74.8243 514.777 75.1091 515.127 75.3597C521.419 80.0647 527.895 84.6485 534.362 89.1132C535.565 89.9637 536.782 90.7418 537.932 91.5263C538.422 91.9041 538.975 92.192 539.566 92.3768C540.009 92.5276 540.478 92.5893 540.945 92.5583C541.412 92.5273 541.869 92.4042 542.288 92.1961C542.584 92.0593 542.869 91.8986 543.14 91.7156C547.496 88.6328 551.854 85.55 556.21 82.4225C558.617 80.6869 560.383 78.2063 561.233 75.3661C561.361 74.8889 561.462 74.4048 561.535 73.9161C561.412 73.4798 561.386 73.022 561.459 72.5745L561.473 72.5724ZM542.218 113.046H538.596C538.166 113.042 537.755 112.868 537.453 112.563C537.151 112.257 536.981 111.845 536.982 111.416L537.212 98.8081C537.527 98.3675 537.953 98.0176 538.447 97.794L543.485 96.8203C543.532 96.8202 543.579 96.8296 543.622 96.8478C543.666 96.8661 543.705 96.8928 543.738 96.9266C543.772 96.9601 543.798 97 543.816 97.0437C543.834 97.0875 543.843 97.1344 543.843 97.1817V111.426C543.842 111.855 543.672 112.266 543.37 112.57C543.067 112.874 542.657 113.048 542.228 113.053L542.218 113.046Z" fill="#D7E6F4"/>
</g>
<path d="M463.674 144.567C449.378 144.567 435.402 140.327 423.516 132.385C411.629 124.442 402.364 113.153 396.893 99.9447C391.422 86.7367 389.991 72.2028 392.78 58.1818C395.569 44.1598 402.453 31.2807 412.562 21.1713C422.671 11.0623 435.551 4.17805 449.572 1.38895C463.594 -1.40015 478.127 0.0313511 491.335 5.50225C504.543 10.9733 515.833 20.2379 523.775 32.1247C531.718 44.0117 535.957 57.9868 535.957 72.2828C535.957 91.4538 528.342 109.84 514.786 123.395C501.23 136.951 482.845 144.567 463.674 144.567Z" fill="#141E27"/>
<g opacity="0.25">
<path d="M463.674 144.566C449.378 144.566 435.402 140.327 423.516 132.384C411.629 124.441 402.364 113.152 396.893 99.9445C391.422 86.7365 389.991 72.2035 392.78 58.1815C395.569 44.1595 402.453 31.2805 412.562 21.1713C422.671 11.0623 435.551 4.17797 449.572 1.38897C463.594 -1.40013 478.127 0.0312734 491.335 5.50227C504.543 10.9732 515.833 20.2379 523.775 32.1245C531.718 44.0115 535.957 57.9865 535.957 72.2835C535.957 91.4535 528.342 109.839 514.786 123.395C501.23 136.95 482.845 144.566 463.674 144.566Z" fill="#2775C9"/>
<path d="M514.398 123.441C542.627 95.2121 542.627 49.4438 514.398 21.2148C486.169 -7.01429 440.401 -7.01429 412.172 21.2148C383.943 49.4438 383.943 95.2121 412.172 123.441C440.401 151.67 486.169 151.67 514.398 123.441Z" fill="#4A5C6B"/>
<path d="M513.091 122.135C540.599 94.6272 540.599 50.0288 513.091 22.5213C485.584 -4.98613 440.986 -4.98613 413.478 22.5213C385.971 50.0288 385.971 94.6272 413.478 122.135C440.986 149.642 485.584 149.642 513.091 122.135Z" fill="#384E61"/>
<path d="M513.229 22.665L413.622 122.272C420.356 128.966 428.372 134.231 437.19 137.751L528.71 46.2327C525.189 37.4146 519.924 29.3984 513.229 22.665Z" fill="#4A5C6B"/>
<path d="M503.951 14.8311L405.789 112.991C406.933 114.606 408.14 116.171 409.41 117.686L508.642 18.4526C507.132 17.1795 505.568 15.9723 503.951 14.8311Z" fill="#4A5C6B"/>
<path d="M464.67 124.673C492.858 124.673 515.709 101.822 515.709 73.6343C515.709 45.4467 492.858 22.5961 464.67 22.5961C436.483 22.5961 413.632 45.4467 413.632 73.6343C413.632 101.822 436.483 124.673 464.67 124.673Z" fill="black"/>
<path d="M499.374 108.418C519.306 88.4859 519.306 56.1702 499.374 36.2386C479.443 16.3069 447.127 16.3069 427.195 36.2386C407.264 56.1702 407.264 88.4858 427.195 108.418C447.127 128.349 479.443 128.349 499.374 108.418Z" fill="black"/>
<path d="M415.018 75.0993C415.016 65.1716 417.91 55.4589 423.345 47.1513C428.781 38.8437 436.521 32.3021 445.619 28.3279C454.716 24.3537 464.776 23.1197 474.564 24.7769C484.352 26.4341 493.445 30.9106 500.727 37.658C496.063 32.6178 490.429 28.571 484.163 25.7599C477.897 22.9489 471.129 21.4315 464.262 21.2987C457.396 21.1659 450.574 22.4203 444.204 24.9869C437.834 27.5534 432.048 31.3793 427.192 36.2354C422.336 41.0914 418.51 46.8776 415.944 53.2474C413.377 59.6172 412.123 66.4396 412.255 73.3057C412.388 80.1719 413.906 86.9406 416.717 93.2064C419.528 99.4721 423.574 105.106 428.615 109.771C419.861 100.349 415.002 87.9601 415.018 75.0993Z" fill="black"/>
<path d="M514.889 73.2489C514.933 87.2865 509.558 100.77 499.941 110.742C490.323 120.715 477.249 126.364 463.584 126.45C449.92 126.536 436.779 121.053 427.043 111.202C417.307 101.352 411.771 87.9377 411.648 73.9006V73.2489C411.648 59.1849 417.086 45.6968 426.767 35.7521C436.448 25.8073 449.578 20.2204 463.269 20.2204H463.906C477.487 20.3874 490.457 26.0478 500.002 35.974C509.547 45.9002 514.893 59.2966 514.889 73.2489Z" fill="#1A2E41"/>
<path d="M499.802 38.0008L426.77 111.299C417.218 101.745 411.788 88.8081 411.648 75.275V74.638C411.648 60.8928 417.088 47.7106 426.773 37.9908C436.457 28.2711 449.593 22.81 463.289 22.8087H463.926C477.405 22.9683 490.284 28.4223 499.802 38.0008Z" fill="#2C465E"/>
<path d="M514.486 73.5629C514.486 80.5111 513.233 87.3912 510.797 93.8105C508.362 100.23 504.792 106.063 500.291 110.976C495.791 115.889 490.448 119.786 484.568 122.445C478.688 125.104 472.386 126.473 466.021 126.473C465.102 126.473 464.19 126.445 463.284 126.39C475.646 125.629 487.272 119.731 495.777 109.908C504.282 100.085 509.02 87.0808 509.02 73.5642C509.02 60.0475 504.282 47.0434 495.777 37.2202C487.272 27.397 475.646 21.4996 463.284 20.7382C464.19 20.683 465.102 20.6554 466.021 20.6554C478.875 20.6554 491.202 26.2295 500.291 36.1516C509.379 46.0737 514.486 59.531 514.486 73.5629Z" fill="#151520"/>
<path d="M484.181 52.4666C484.295 52.7128 484.353 52.9803 484.354 53.2512V59.5869C484.349 61.5695 483.882 63.5237 482.989 65.295C482.097 67.0662 480.804 68.6059 479.212 69.792C476.671 71.7841 474.068 73.653 471.405 75.5324L465.671 79.5103C464.919 80.0547 463.996 80.3119 463.07 80.2353C462.591 80.1795 462.122 80.0572 461.677 79.8717C461.281 79.6738 460.897 79.453 460.527 79.2105C455.323 75.6493 450.119 72.0903 445.037 68.3505C442.737 66.722 440.5 65.0317 438.2 63.3436C437.897 63.1629 437.656 62.9184 437.347 62.7398C436.497 62.0828 435.916 61.1386 435.714 60.0844C435.66 59.8042 435.639 59.5188 435.652 59.2339V53.5042C435.661 53.261 435.641 53.0176 435.592 52.7792C435.575 52.7439 435.565 52.7049 435.565 52.6654C435.565 52.6259 435.575 52.587 435.592 52.5517C435.61 52.5171 435.635 52.4873 435.667 52.4645C435.699 52.4417 435.735 52.4257 435.773 52.4177H435.833C435.847 52.5196 435.868 52.6205 435.895 52.7196C435.943 53.3113 436.201 53.8666 436.621 54.2866C436.923 54.6705 437.292 54.9974 437.71 55.2518C443.759 59.7761 449.932 64.1813 456.165 68.5249C457.617 69.5518 459.127 70.5149 460.582 71.5396C461.168 71.9502 461.821 72.2559 462.512 72.4432C463.324 72.6369 464.177 72.5515 464.934 72.2008C465.217 72.0769 465.482 71.9145 465.72 71.7182C469.714 68.8842 473.646 66.1075 477.648 63.2713C478.434 62.7292 479.161 62.187 479.881 61.5832C481.777 59.8849 483.161 57.6922 483.877 55.2518C483.988 54.8364 484.069 54.4137 484.12 53.9868C484.171 53.7487 484.192 53.5051 484.181 53.2618V52.4666ZM462.64 43.7136H464.091C466.444 43.8917 468.723 44.6153 470.747 45.8269C472.114 46.6559 473.39 47.6272 474.551 48.7248C475.328 49.3914 475.843 50.3111 476.004 51.3207C476.166 52.3067 476.017 53.3185 475.578 54.2164C475.457 54.5183 475.273 54.7607 475.152 55.0009C475.092 55.1182 474.99 55.2086 474.867 55.2539C474.743 55.2987 474.606 55.2941 474.485 55.2412C474.426 55.2412 474.426 55.1816 474.366 55.1816C473.94 54.8797 473.514 54.6374 473.035 54.3312C471.302 53.1059 469.35 52.2246 467.284 51.7353C465.958 51.4265 464.593 51.3254 463.236 51.4355C460.47 51.6371 457.812 52.5931 455.553 54.1994C454.701 54.8032 453.798 55.2858 452.889 55.8875C452.829 55.8875 452.829 55.9492 452.769 55.9492C452.723 55.9424 452.68 55.9208 452.648 55.8875L447.565 52.4496C447.453 52.3855 447.351 52.3045 447.263 52.2094C447.195 52.1646 447.146 52.0971 447.124 52.0192C447.101 51.9412 447.108 51.8579 447.142 51.7842C447.142 51.7225 447.203 51.7225 447.263 51.663L447.382 51.5418C448.835 50.5787 450.226 49.488 451.676 48.459C452.919 47.5491 454.209 46.7066 455.543 45.9354C457.097 45.0766 458.768 44.4485 460.504 44.0708C461.196 43.8629 461.911 43.7408 462.634 43.7072L462.64 43.7136ZM459.967 44.2026V33.6041C459.977 33.2052 460.146 32.8268 460.435 32.5515C460.725 32.2762 461.111 32.1264 461.511 32.135H464.585C464.984 32.1264 465.371 32.2762 465.661 32.5515C465.95 32.8268 466.118 33.2052 466.129 33.6041V44.0219C464.072 43.7848 461.991 43.8471 459.952 44.2069L459.967 44.2026ZM484.25 70.1407C484.366 70.3861 484.429 70.6536 484.433 70.9252V77.38C484.378 80.2255 483.402 82.977 481.651 85.223C480.893 86.1721 480.019 87.0234 479.05 87.7573C476.494 89.7473 473.842 91.6183 471.169 93.4977L465.844 97.1779C465.386 97.4946 464.872 97.7199 464.329 97.8413C463.604 98.024 462.838 97.9604 462.152 97.6606C461.659 97.4806 461.191 97.2369 460.761 96.9356C454.831 92.896 448.901 88.7927 443.092 84.5087C441.277 83.182 439.471 81.8553 437.646 80.4691C436.749 79.8174 436.144 78.8402 435.961 77.7478C435.908 77.4676 435.888 77.1822 435.901 76.8973V71.0506C435.909 70.8285 435.889 70.6062 435.839 70.3894C435.78 70.2066 435.901 70.0259 436.023 70.0259C436.023 70.1471 436.082 70.2066 436.082 70.3278C436.15 70.9931 436.452 71.6129 436.934 72.0775C437.228 72.3925 437.553 72.6774 437.903 72.928C444.196 77.633 450.671 82.2168 457.138 86.6815C458.341 87.5319 459.558 88.3101 460.708 89.0946C461.198 89.4724 461.751 89.7603 462.342 89.945C462.785 90.0959 463.254 90.1576 463.721 90.1266C464.188 90.0956 464.645 89.9724 465.064 89.7643C465.361 89.6276 465.646 89.4669 465.916 89.2838C470.272 86.201 474.63 83.1182 478.986 79.9908C481.394 78.2552 483.159 75.7746 484.009 72.9343C484.137 72.4572 484.238 71.9731 484.311 71.4844C484.188 71.0481 484.162 70.5902 484.235 70.1428L484.25 70.1407ZM464.994 110.615H461.373C460.942 110.61 460.531 110.436 460.229 110.131C459.927 109.826 459.757 109.413 459.758 108.984L459.988 96.3764C460.303 95.9357 460.729 95.5859 461.223 95.3623L466.261 94.3885C466.308 94.3885 466.355 94.3978 466.399 94.4161C466.442 94.4343 466.482 94.4611 466.515 94.4948C466.548 94.5284 466.574 94.5682 466.592 94.612C466.61 94.6558 466.619 94.7027 466.619 94.75V108.995C466.618 109.423 466.448 109.834 466.146 110.138C465.844 110.443 465.434 110.616 465.004 110.621L464.994 110.615Z" fill="#131621"/>
<path d="M485.405 54.8984C485.518 55.1445 485.577 55.4121 485.578 55.6829V62.0186C485.573 64.0012 485.106 65.9555 484.213 67.7267C483.321 69.498 482.027 71.0376 480.436 72.2237C477.895 74.2159 475.292 76.0847 472.629 77.9641L466.895 81.942C466.143 82.4865 465.22 82.7437 464.294 82.667C463.815 82.6113 463.346 82.4889 462.901 82.3034C462.505 82.1055 462.121 81.8847 461.751 81.6422C456.547 78.0811 451.343 74.522 446.261 70.7823C443.96 69.1537 441.724 67.4635 439.423 65.7754C439.121 65.5946 438.88 65.3501 438.571 65.1716C437.721 64.5145 437.14 63.5703 436.938 62.5161C436.884 62.236 436.863 61.9506 436.876 61.6657V55.9359C436.885 55.6927 436.865 55.4494 436.816 55.2109C436.798 55.1756 436.789 55.1367 436.789 55.0972C436.789 55.0577 436.798 55.0187 436.816 54.9834C436.834 54.9489 436.859 54.919 436.891 54.8963C436.923 54.8734 436.959 54.8575 436.997 54.8495H437.057C437.071 54.9513 437.091 55.0522 437.119 55.1514C437.167 55.7431 437.425 56.2983 437.845 56.7183C438.147 57.1022 438.516 57.4291 438.933 57.6835C444.983 62.2078 451.156 66.613 457.388 70.9566C458.841 71.9835 460.351 72.9466 461.806 73.9714C462.392 74.3819 463.045 74.6876 463.736 74.8749C464.548 75.0686 465.401 74.9832 466.158 74.6326C466.441 74.5087 466.705 74.3462 466.944 74.15C470.938 71.3159 474.87 68.5393 478.872 65.7031C479.658 65.1609 480.385 64.6188 481.105 64.015C483.001 62.3166 484.385 60.1239 485.101 57.6835C485.211 57.2681 485.293 56.8454 485.343 56.4185C485.395 56.1805 485.416 55.9368 485.405 55.6935V54.8984ZM463.864 46.1453H465.314C467.668 46.3235 469.947 47.0471 471.971 48.2587C473.338 49.0876 474.613 50.059 475.775 51.1565C476.552 51.8231 477.066 52.7429 477.228 53.7524C477.39 54.7384 477.241 55.7502 476.802 56.6481C476.68 56.95 476.497 57.1924 476.376 57.4327C476.316 57.5499 476.214 57.6403 476.09 57.6857C475.966 57.7305 475.83 57.7259 475.709 57.6729C475.65 57.6729 475.65 57.6134 475.59 57.6134C475.164 57.3115 474.738 57.0691 474.259 56.7629C472.526 55.5376 470.573 54.6563 468.507 54.167C467.182 53.8582 465.817 53.7571 464.46 53.8672C461.694 54.0688 459.036 55.0249 456.777 56.6311C455.925 57.2349 455.022 57.7175 454.112 58.3192C454.053 58.3192 454.053 58.3809 453.993 58.3809C453.947 58.3742 453.904 58.3525 453.872 58.3192L448.789 54.8814C448.677 54.8172 448.575 54.7362 448.487 54.6411C448.419 54.5963 448.37 54.5289 448.347 54.4509C448.325 54.3729 448.332 54.2896 448.365 54.2159C448.365 54.1543 448.427 54.1543 448.487 54.0947L448.606 53.9735C450.059 53.0104 451.45 51.9198 452.9 50.8907C454.143 49.9808 455.433 49.1384 456.766 48.3671C458.321 47.5083 459.992 46.8802 461.727 46.5025C462.42 46.2946 463.135 46.1725 463.857 46.139L463.864 46.1453ZM461.191 46.6343V36.0359C461.201 35.637 461.37 35.2585 461.659 34.9832C461.948 34.7079 462.335 34.5582 462.735 34.5668H465.809C466.208 34.5582 466.595 34.7079 466.884 34.9832C467.174 35.2585 467.342 35.637 467.353 36.0359V46.4536C465.296 46.2165 463.215 46.2788 461.176 46.6386L461.191 46.6343ZM485.473 72.5724C485.59 72.8179 485.652 73.0854 485.657 73.3569V79.8117C485.602 82.6572 484.626 85.4087 482.875 87.6548C482.116 88.6038 481.243 89.4551 480.274 90.189C477.718 92.179 475.066 94.05 472.393 95.9294L467.067 99.6097C466.61 99.9263 466.096 100.152 465.553 100.273C464.827 100.456 464.061 100.392 463.376 100.092C462.883 99.9124 462.415 99.6686 461.985 99.3673C456.055 95.3278 450.125 91.2244 444.316 86.9404C442.501 85.6137 440.695 84.2871 438.87 82.9009C437.972 82.2491 437.367 81.2719 437.185 80.1795C437.132 79.8993 437.112 79.6139 437.125 79.3291V73.4824C437.133 73.2602 437.112 73.038 437.063 72.8212C437.004 72.6383 437.125 72.4576 437.246 72.4576C437.246 72.5788 437.306 72.6383 437.306 72.7595C437.374 73.4248 437.676 74.0446 438.158 74.5093C438.452 74.8243 438.777 75.1091 439.127 75.3597C445.419 80.0647 451.895 84.6485 458.362 89.1132C459.565 89.9637 460.782 90.7418 461.932 91.5263C462.422 91.9041 462.975 92.192 463.566 92.3768C464.009 92.5276 464.478 92.5893 464.945 92.5583C465.412 92.5273 465.869 92.4042 466.288 92.1961C466.584 92.0593 466.869 91.8986 467.14 91.7156C471.496 88.6328 475.854 85.55 480.21 82.4225C482.617 80.6869 484.383 78.2063 485.233 75.3661C485.361 74.8889 485.462 74.4048 485.535 73.9161C485.412 73.4798 485.386 73.022 485.459 72.5745L485.473 72.5724ZM466.218 113.046H462.596C462.166 113.042 461.755 112.868 461.453 112.563C461.151 112.257 460.981 111.845 460.982 111.416L461.212 98.8081C461.527 98.3675 461.953 98.0176 462.447 97.794L467.485 96.8203C467.532 96.8202 467.579 96.8296 467.622 96.8478C467.666 96.8661 467.705 96.8928 467.738 96.9266C467.772 96.9601 467.798 97 467.816 97.0437C467.834 97.0875 467.843 97.1344 467.843 97.1817V111.426C467.842 111.855 467.672 112.266 467.37 112.57C467.067 112.874 466.657 113.048 466.228 113.053L466.218 113.046Z" fill="#D7E6F4"/>
</g>
<path d="M384.779 144.567C370.483 144.567 356.508 140.327 344.621 132.385C332.734 124.442 323.469 113.153 317.998 99.9447C312.527 86.7367 311.096 72.2028 313.885 58.1818C316.674 44.1598 323.558 31.2807 333.667 21.1713C343.776 11.0623 356.656 4.17805 370.678 1.38895C384.699 -1.40015 399.233 0.0313511 412.441 5.50225C425.649 10.9733 436.938 20.2379 444.881 32.1247C452.823 44.0117 457.062 57.9868 457.062 72.2828C457.062 91.4538 449.447 109.84 435.891 123.395C422.336 136.951 403.95 144.567 384.779 144.567Z" fill="#141E27"/>
<g opacity="0.5">
<path d="M384.779 144.566C370.483 144.566 356.508 140.327 344.621 132.384C332.734 124.441 323.469 113.152 317.998 99.9445C312.527 86.7365 311.096 72.2035 313.885 58.1815C316.674 44.1595 323.558 31.2805 333.667 21.1713C343.776 11.0623 356.656 4.17797 370.678 1.38897C384.699 -1.40013 399.233 0.0312734 412.441 5.50227C425.649 10.9732 436.938 20.2379 444.881 32.1245C452.823 44.0115 457.062 57.9865 457.062 72.2835C457.062 91.4535 449.447 109.839 435.891 123.395C422.336 136.95 403.95 144.566 384.779 144.566Z" fill="#2775C9"/>
<path d="M435.398 123.441C463.627 95.2121 463.627 49.4438 435.398 21.2148C407.169 -7.01429 361.401 -7.01429 333.172 21.2148C304.943 49.4438 304.943 95.2121 333.172 123.441C361.401 151.67 407.169 151.67 435.398 123.441Z" fill="#4A5C6B"/>
<path d="M434.091 122.135C461.599 94.6272 461.599 50.0288 434.091 22.5213C406.584 -4.98613 361.986 -4.98613 334.478 22.5213C306.971 50.0288 306.971 94.6272 334.478 122.135C361.986 149.642 406.584 149.642 434.091 122.135Z" fill="#384E61"/>
<path d="M434.229 22.665L334.622 122.272C341.356 128.966 349.372 134.231 358.19 137.751L449.71 46.2327C446.189 37.4146 440.924 29.3984 434.229 22.665Z" fill="#4A5C6B"/>
<path d="M424.951 14.8311L326.789 112.991C327.933 114.606 329.14 116.171 330.41 117.686L429.642 18.4526C428.132 17.1795 426.568 15.9723 424.951 14.8311Z" fill="#4A5C6B"/>
<path d="M385.67 124.673C413.858 124.673 436.709 101.822 436.709 73.6343C436.709 45.4467 413.858 22.5961 385.67 22.5961C357.483 22.5961 334.632 45.4467 334.632 73.6343C334.632 101.822 357.483 124.673 385.67 124.673Z" fill="black"/>
<path d="M420.374 108.418C440.306 88.4859 440.306 56.1702 420.374 36.2386C400.443 16.3069 368.127 16.3069 348.195 36.2386C328.264 56.1702 328.264 88.4858 348.195 108.418C368.127 128.349 400.443 128.349 420.374 108.418Z" fill="black"/>
<path d="M336.018 75.0993C336.016 65.1716 338.91 55.4589 344.345 47.1513C349.781 38.8437 357.521 32.3021 366.619 28.3279C375.716 24.3537 385.776 23.1197 395.564 24.7769C405.352 26.4341 414.445 30.9106 421.727 37.658C417.063 32.6178 411.429 28.571 405.163 25.7599C398.897 22.9489 392.129 21.4315 385.262 21.2987C378.396 21.1659 371.574 22.4203 365.204 24.9869C358.834 27.5534 353.048 31.3793 348.192 36.2354C343.336 41.0914 339.51 46.8776 336.944 53.2474C334.377 59.6172 333.123 66.4396 333.255 73.3057C333.388 80.1719 334.906 86.9406 337.717 93.2064C340.528 99.4721 344.574 105.106 349.615 109.771C340.861 100.349 336.002 87.9601 336.018 75.0993Z" fill="black"/>
<path d="M435.889 73.2489C435.933 87.2865 430.558 100.77 420.941 110.742C411.323 120.715 398.249 126.364 384.584 126.45C370.92 126.536 357.779 121.053 348.043 111.202C338.307 101.352 332.771 87.9377 332.648 73.9006V73.2489C332.648 59.1849 338.086 45.6968 347.767 35.7521C357.448 25.8073 370.578 20.2204 384.269 20.2204H384.906C398.487 20.3874 411.457 26.0478 421.002 35.974C430.547 45.9002 435.893 59.2966 435.889 73.2489Z" fill="#1A2E41"/>
<path d="M420.802 38.0008L347.77 111.299C338.218 101.745 332.788 88.8081 332.648 75.275V74.638C332.648 60.8928 338.088 47.7106 347.773 37.9908C357.457 28.2711 370.593 22.81 384.289 22.8087H384.926C398.405 22.9683 411.284 28.4223 420.802 38.0008Z" fill="#2C465E"/>
<path d="M435.486 73.5629C435.486 80.5111 434.233 87.3912 431.797 93.8105C429.362 100.23 425.792 106.063 421.291 110.976C416.791 115.889 411.448 119.786 405.568 122.445C399.688 125.104 393.386 126.473 387.021 126.473C386.102 126.473 385.19 126.445 384.284 126.39C396.646 125.629 408.272 119.731 416.777 109.908C425.282 100.085 430.02 87.0808 430.02 73.5642C430.02 60.0475 425.282 47.0434 416.777 37.2202C408.272 27.397 396.646 21.4996 384.284 20.7382C385.19 20.683 386.102 20.6554 387.021 20.6554C399.875 20.6554 412.202 26.2295 421.291 36.1516C430.379 46.0737 435.486 59.531 435.486 73.5629Z" fill="#151520"/>
<path d="M405.181 52.4666C405.295 52.7128 405.353 52.9803 405.354 53.2512V59.5869C405.349 61.5695 404.882 63.5237 403.989 65.295C403.097 67.0662 401.804 68.6059 400.212 69.792C397.671 71.7841 395.068 73.653 392.405 75.5324L386.671 79.5103C385.919 80.0547 384.996 80.3119 384.07 80.2353C383.591 80.1795 383.122 80.0572 382.677 79.8717C382.281 79.6738 381.897 79.453 381.527 79.2105C376.323 75.6493 371.119 72.0903 366.037 68.3505C363.737 66.722 361.5 65.0317 359.2 63.3436C358.897 63.1629 358.656 62.9184 358.347 62.7398C357.497 62.0828 356.916 61.1386 356.714 60.0844C356.66 59.8042 356.639 59.5188 356.652 59.2339V53.5042C356.661 53.261 356.641 53.0176 356.592 52.7792C356.575 52.7439 356.565 52.7049 356.565 52.6654C356.565 52.6259 356.575 52.587 356.592 52.5517C356.61 52.5171 356.635 52.4873 356.667 52.4645C356.699 52.4417 356.735 52.4257 356.773 52.4177H356.833C356.847 52.5196 356.868 52.6205 356.895 52.7196C356.943 53.3113 357.201 53.8666 357.621 54.2866C357.923 54.6705 358.292 54.9974 358.71 55.2518C364.759 59.7761 370.932 64.1813 377.165 68.5249C378.617 69.5518 380.127 70.5149 381.582 71.5396C382.168 71.9502 382.821 72.2559 383.512 72.4432C384.324 72.6369 385.177 72.5515 385.934 72.2008C386.217 72.0769 386.482 71.9145 386.72 71.7182C390.714 68.8842 394.646 66.1075 398.648 63.2713C399.434 62.7292 400.161 62.187 400.881 61.5832C402.777 59.8849 404.161 57.6922 404.877 55.2518C404.988 54.8364 405.069 54.4137 405.12 53.9868C405.171 53.7487 405.192 53.5051 405.181 53.2618V52.4666ZM383.64 43.7136H385.091C387.444 43.8917 389.723 44.6153 391.747 45.8269C393.114 46.6559 394.39 47.6272 395.551 48.7248C396.328 49.3914 396.843 50.3111 397.004 51.3207C397.166 52.3067 397.017 53.3185 396.578 54.2164C396.457 54.5183 396.273 54.7607 396.152 55.0009C396.092 55.1182 395.99 55.2086 395.867 55.2539C395.743 55.2987 395.606 55.2941 395.485 55.2412C395.426 55.2412 395.426 55.1816 395.366 55.1816C394.94 54.8797 394.514 54.6374 394.035 54.3312C392.302 53.1059 390.35 52.2246 388.284 51.7353C386.958 51.4265 385.593 51.3254 384.236 51.4355C381.47 51.6371 378.812 52.5931 376.553 54.1994C375.701 54.8032 374.798 55.2858 373.889 55.8875C373.829 55.8875 373.829 55.9492 373.769 55.9492C373.723 55.9424 373.68 55.9208 373.648 55.8875L368.565 52.4496C368.453 52.3855 368.351 52.3045 368.263 52.2094C368.195 52.1646 368.146 52.0971 368.124 52.0192C368.101 51.9412 368.108 51.8579 368.142 51.7842C368.142 51.7225 368.203 51.7225 368.263 51.663L368.382 51.5418C369.835 50.5787 371.226 49.488 372.676 48.459C373.919 47.5491 375.209 46.7066 376.543 45.9354C378.097 45.0766 379.768 44.4485 381.504 44.0708C382.196 43.8629 382.911 43.7408 383.634 43.7072L383.64 43.7136ZM380.967 44.2026V33.6041C380.977 33.2052 381.146 32.8268 381.435 32.5515C381.725 32.2762 382.111 32.1264 382.511 32.135H385.585C385.984 32.1264 386.371 32.2762 386.661 32.5515C386.95 32.8268 387.118 33.2052 387.129 33.6041V44.0219C385.072 43.7848 382.991 43.8471 380.952 44.2069L380.967 44.2026ZM405.25 70.1407C405.366 70.3861 405.429 70.6536 405.433 70.9252V77.38C405.378 80.2255 404.402 82.977 402.651 85.223C401.893 86.1721 401.019 87.0234 400.05 87.7573C397.494 89.7473 394.842 91.6183 392.169 93.4977L386.844 97.1779C386.386 97.4946 385.872 97.7199 385.329 97.8413C384.604 98.024 383.838 97.9604 383.152 97.6606C382.659 97.4806 382.191 97.2369 381.761 96.9356C375.831 92.896 369.901 88.7927 364.092 84.5087C362.277 83.182 360.471 81.8553 358.646 80.4691C357.749 79.8174 357.144 78.8402 356.961 77.7478C356.908 77.4676 356.888 77.1822 356.901 76.8973V71.0506C356.909 70.8285 356.889 70.6062 356.839 70.3894C356.78 70.2066 356.901 70.0259 357.023 70.0259C357.023 70.1471 357.082 70.2066 357.082 70.3278C357.15 70.9931 357.452 71.6129 357.934 72.0775C358.228 72.3925 358.553 72.6774 358.903 72.928C365.196 77.633 371.671 82.2168 378.138 86.6815C379.341 87.5319 380.558 88.3101 381.708 89.0946C382.198 89.4724 382.751 89.7603 383.342 89.945C383.785 90.0959 384.254 90.1576 384.721 90.1266C385.188 90.0956 385.645 89.9724 386.064 89.7643C386.361 89.6276 386.646 89.4669 386.916 89.2838C391.272 86.201 395.63 83.1182 399.986 79.9908C402.394 78.2552 404.159 75.7746 405.009 72.9343C405.137 72.4572 405.238 71.9731 405.311 71.4844C405.188 71.0481 405.162 70.5902 405.235 70.1428L405.25 70.1407ZM385.994 110.615H382.373C381.942 110.61 381.531 110.436 381.229 110.131C380.927 109.826 380.757 109.413 380.758 108.984L380.988 96.3764C381.303 95.9357 381.729 95.5859 382.223 95.3623L387.261 94.3885C387.308 94.3885 387.355 94.3978 387.399 94.4161C387.442 94.4343 387.482 94.4611 387.515 94.4948C387.548 94.5284 387.574 94.5682 387.592 94.612C387.61 94.6558 387.619 94.7027 387.619 94.75V108.995C387.618 109.423 387.448 109.834 387.146 110.138C386.844 110.443 386.434 110.616 386.004 110.621L385.994 110.615Z" fill="#131621"/>
<path d="M406.405 54.8984C406.518 55.1445 406.577 55.4121 406.578 55.6829V62.0186C406.573 64.0012 406.106 65.9555 405.213 67.7267C404.321 69.498 403.027 71.0376 401.436 72.2237C398.895 74.2159 396.292 76.0847 393.629 77.9641L387.895 81.942C387.143 82.4865 386.22 82.7437 385.294 82.667C384.815 82.6113 384.346 82.4889 383.901 82.3034C383.505 82.1055 383.121 81.8847 382.751 81.6422C377.547 78.0811 372.343 74.522 367.261 70.7823C364.96 69.1537 362.724 67.4635 360.423 65.7754C360.121 65.5946 359.88 65.3501 359.571 65.1716C358.721 64.5145 358.14 63.5703 357.938 62.5161C357.884 62.236 357.863 61.9506 357.876 61.6657V55.9359C357.885 55.6927 357.865 55.4494 357.816 55.2109C357.798 55.1756 357.789 55.1367 357.789 55.0972C357.789 55.0577 357.798 55.0187 357.816 54.9834C357.834 54.9489 357.859 54.919 357.891 54.8963C357.923 54.8734 357.959 54.8575 357.997 54.8495H358.057C358.071 54.9513 358.091 55.0522 358.119 55.1514C358.167 55.7431 358.425 56.2983 358.845 56.7183C359.147 57.1022 359.516 57.4291 359.933 57.6835C365.983 62.2078 372.156 66.613 378.388 70.9566C379.841 71.9835 381.351 72.9466 382.806 73.9714C383.392 74.3819 384.045 74.6876 384.736 74.8749C385.548 75.0686 386.401 74.9832 387.158 74.6326C387.441 74.5087 387.705 74.3462 387.944 74.15C391.938 71.3159 395.87 68.5393 399.872 65.7031C400.658 65.1609 401.385 64.6188 402.105 64.015C404.001 62.3166 405.385 60.1239 406.101 57.6835C406.211 57.2681 406.293 56.8454 406.343 56.4185C406.395 56.1805 406.416 55.9368 406.405 55.6935V54.8984ZM384.864 46.1453H386.314C388.668 46.3235 390.947 47.0471 392.971 48.2587C394.338 49.0876 395.613 50.059 396.775 51.1565C397.552 51.8231 398.066 52.7429 398.228 53.7524C398.39 54.7384 398.241 55.7502 397.802 56.6481C397.68 56.95 397.497 57.1924 397.376 57.4327C397.316 57.5499 397.214 57.6403 397.09 57.6857C396.966 57.7305 396.83 57.7259 396.709 57.6729C396.65 57.6729 396.65 57.6134 396.59 57.6134C396.164 57.3115 395.738 57.0691 395.259 56.7629C393.526 55.5376 391.573 54.6563 389.507 54.167C388.182 53.8582 386.817 53.7571 385.46 53.8672C382.694 54.0688 380.036 55.0249 377.777 56.6311C376.925 57.2349 376.022 57.7175 375.112 58.3192C375.053 58.3192 375.053 58.3809 374.993 58.3809C374.947 58.3742 374.904 58.3525 374.872 58.3192L369.789 54.8814C369.677 54.8172 369.575 54.7362 369.487 54.6411C369.419 54.5963 369.37 54.5289 369.347 54.4509C369.325 54.3729 369.332 54.2896 369.365 54.2159C369.365 54.1543 369.427 54.1543 369.487 54.0947L369.606 53.9735C371.059 53.0104 372.45 51.9198 373.9 50.8907C375.143 49.9808 376.433 49.1384 377.766 48.3671C379.321 47.5083 380.992 46.8802 382.727 46.5025C383.42 46.2946 384.135 46.1725 384.857 46.139L384.864 46.1453ZM382.191 46.6343V36.0359C382.201 35.637 382.37 35.2585 382.659 34.9832C382.948 34.7079 383.335 34.5582 383.735 34.5668H386.809C387.208 34.5582 387.595 34.7079 387.884 34.9832C388.174 35.2585 388.342 35.637 388.353 36.0359V46.4536C386.296 46.2165 384.215 46.2788 382.176 46.6386L382.191 46.6343ZM406.473 72.5724C406.59 72.8179 406.652 73.0854 406.657 73.3569V79.8117C406.602 82.6572 405.626 85.4087 403.875 87.6548C403.116 88.6038 402.243 89.4551 401.274 90.189C398.718 92.179 396.066 94.05 393.393 95.9294L388.067 99.6097C387.61 99.9263 387.096 100.152 386.553 100.273C385.827 100.456 385.061 100.392 384.376 100.092C383.883 99.9124 383.415 99.6686 382.985 99.3673C377.055 95.3278 371.125 91.2244 365.316 86.9404C363.501 85.6137 361.695 84.2871 359.87 82.9009C358.972 82.2491 358.367 81.2719 358.185 80.1795C358.132 79.8993 358.112 79.6139 358.125 79.3291V73.4824C358.133 73.2602 358.112 73.038 358.063 72.8212C358.004 72.6383 358.125 72.4576 358.246 72.4576C358.246 72.5788 358.306 72.6383 358.306 72.7595C358.374 73.4248 358.676 74.0446 359.158 74.5093C359.452 74.8243 359.777 75.1091 360.127 75.3597C366.419 80.0647 372.895 84.6485 379.362 89.1132C380.565 89.9637 381.782 90.7418 382.932 91.5263C383.422 91.9041 383.975 92.192 384.566 92.3768C385.009 92.5276 385.478 92.5893 385.945 92.5583C386.412 92.5273 386.869 92.4042 387.288 92.1961C387.584 92.0593 387.869 91.8986 388.14 91.7156C392.496 88.6328 396.854 85.55 401.21 82.4225C403.617 80.6869 405.383 78.2063 406.233 75.3661C406.361 74.8889 406.462 74.4048 406.535 73.9161C406.412 73.4798 406.386 73.022 406.459 72.5745L406.473 72.5724ZM387.218 113.046H383.596C383.166 113.042 382.755 112.868 382.453 112.563C382.151 112.257 381.981 111.845 381.982 111.416L382.212 98.8081C382.527 98.3675 382.953 98.0176 383.447 97.794L388.485 96.8203C388.532 96.8202 388.579 96.8296 388.622 96.8478C388.666 96.8661 388.705 96.8928 388.738 96.9266C388.772 96.9601 388.798 97 388.816 97.0437C388.834 97.0875 388.843 97.1344 388.843 97.1817V111.426C388.842 111.855 388.672 112.266 388.37 112.57C388.067 112.874 387.657 113.048 387.228 113.053L387.218 113.046Z" fill="#D7E6F4"/>
</g>
<path d="M305.893 144.567C291.596 144.567 277.621 140.327 265.734 132.385C253.847 124.442 244.583 113.153 239.112 99.9447C233.641 86.7367 232.209 72.2028 234.998 58.1818C237.787 44.1598 244.672 31.2807 254.781 21.1713C264.89 11.0623 277.769 4.17805 291.791 1.38895C305.812 -1.40015 320.346 0.0313511 333.554 5.50225C346.762 10.9733 358.051 20.2379 365.994 32.1247C373.936 44.0117 378.176 57.9868 378.176 72.2828C378.176 91.4538 370.56 109.84 357.005 123.395C343.449 136.951 325.063 144.567 305.893 144.567Z" fill="#141E27"/>
<g opacity="0.05">
<path d="M72.4199 144.568C86.716 144.568 100.691 140.328 112.578 132.386C124.465 124.443 133.73 113.154 139.201 99.9465C144.672 86.7385 146.103 72.2055 143.314 58.1835C140.525 44.1615 133.641 31.2825 123.532 21.1733C113.423 11.0643 100.543 4.17995 86.522 1.39085C72.5001 -1.39815 57.9663 0.0332556 44.7583 5.50426C31.5503 10.9752 20.2612 20.2399 12.3186 32.1265C4.37612 44.0135 0.136719 57.9885 0.136719 72.2855C0.136719 91.4555 7.75222 109.841 21.308 123.397C34.8637 136.952 53.2492 144.568 72.4199 144.568Z" fill="#141E27"/>
<path d="M123.398 123.441C151.627 95.2121 151.627 49.4438 123.398 21.2148C95.1692 -7.01429 49.4008 -7.01429 21.1718 21.2148C-7.05726 49.4438 -7.05726 95.2121 21.1718 123.441C49.4008 151.67 95.1692 151.67 123.398 123.441Z" fill="#4A5C6B"/>
<path d="M122.091 122.135C149.599 94.6272 149.599 50.0288 122.091 22.5213C94.5839 -4.98613 49.9855 -4.98613 22.4781 22.5213C-5.02939 50.0288 -5.02939 94.6272 22.4781 122.135C49.9855 149.642 94.5839 149.642 122.091 122.135Z" fill="#384E61"/>
<path d="M122.229 22.665L22.6223 122.272C29.3557 128.966 37.3717 134.231 46.1896 137.751L137.71 46.2327C134.189 37.4146 128.924 29.3984 122.229 22.665Z" fill="#4A5C6B"/>
<path d="M112.951 14.8311L14.7887 112.991C15.9328 114.606 17.1398 116.171 18.4099 117.686L117.642 18.4526C116.132 17.1795 114.568 15.9723 112.951 14.8311Z" fill="#4A5C6B"/>
<path d="M73.6704 124.673C101.858 124.673 124.709 101.822 124.709 73.6343C124.709 45.4467 101.858 22.5961 73.6704 22.5961C45.4827 22.5961 22.6321 45.4467 22.6321 73.6343C22.6321 101.822 45.4827 124.673 73.6704 124.673Z" fill="black"/>
<path d="M108.374 108.418C128.306 88.4859 128.306 56.1702 108.374 36.2386C88.4426 16.3069 56.127 16.3069 36.1954 36.2386C16.2637 56.1702 16.2637 88.4858 36.1954 108.418C56.127 128.349 88.4426 128.349 108.374 108.418Z" fill="black"/>
<path d="M24.0177 75.0993C24.0158 65.1716 26.9098 55.4589 32.3452 47.1513C37.7806 38.8437 45.5213 32.3021 54.6188 28.3279C63.7164 24.3537 73.7756 23.1197 83.5641 24.7769C93.3525 26.4341 102.445 30.9106 109.727 37.658C105.063 32.6178 99.4288 28.571 93.163 25.7599C86.8972 22.9489 80.1285 21.4315 73.2624 21.2987C66.3962 21.1659 59.5739 22.4203 53.2041 24.9869C46.8343 27.5534 41.048 31.3793 36.192 36.2354C31.336 41.0914 27.5101 46.8776 24.9435 53.2474C22.377 59.6172 21.1225 66.4396 21.2554 73.3057C21.3882 80.1719 22.9056 86.9406 25.7166 93.2064C28.5276 99.4721 32.5745 105.106 37.6147 109.771C28.8607 100.349 24.0022 87.9601 24.0177 75.0993Z" fill="black"/>
<path d="M123.889 73.2489C123.933 87.2865 118.558 100.77 108.941 110.742C99.3235 120.715 86.2494 126.364 72.5845 126.45C58.9195 126.536 45.7788 121.053 36.0431 111.202C26.3074 101.352 20.771 87.9377 20.6478 73.9006V73.2489C20.6478 59.1849 26.0865 45.6968 35.7674 35.7521C45.4483 25.8073 58.5784 20.2204 72.2693 20.2204H72.9062C86.4873 20.3874 99.4569 26.0478 109.002 35.974C118.547 45.9002 123.893 59.2966 123.889 73.2489Z" fill="#1A2E41"/>
<path d="M108.802 38.0008L35.7696 111.299C26.2181 101.745 20.7877 88.8081 20.6478 75.275V74.638C20.6478 60.8928 26.0884 47.7106 35.7729 37.9908C45.4574 28.2711 58.5926 22.81 72.2892 22.8087H72.9263C86.4046 22.9683 99.2839 28.4223 108.802 38.0008Z" fill="#2C465E"/>
<path d="M123.486 73.5629C123.486 80.5111 122.233 87.3912 119.797 93.8105C117.362 100.23 113.792 106.063 109.291 110.976C104.791 115.889 99.4483 119.786 93.5681 122.445C87.688 125.104 81.3857 126.473 75.021 126.473C74.1019 126.473 73.1895 126.445 72.2838 126.39C84.6457 125.629 96.2719 119.731 104.777 109.908C113.282 100.085 118.02 87.0808 118.02 73.5642C118.02 60.0475 113.282 47.0434 104.777 37.2202C96.2719 27.397 84.6457 21.4996 72.2838 20.7382C73.1895 20.683 74.1019 20.6554 75.021 20.6554C87.8746 20.6554 100.202 26.2295 109.291 36.1516C118.379 46.0737 123.486 59.531 123.486 73.5629Z" fill="#151520"/>
<path d="M93.1814 52.4666C93.2946 52.7128 93.3534 52.9803 93.354 53.2512V59.5869C93.349 61.5695 92.8818 63.5237 91.9893 65.295C91.0969 67.0662 89.8036 68.6059 88.212 69.792C85.6708 71.7841 83.0678 73.653 80.4052 75.5324L74.6711 79.5103C73.919 80.0547 72.9962 80.3119 72.0703 80.2353C71.5912 80.1795 71.1223 80.0572 70.6772 79.8717C70.2812 79.6738 69.8972 79.453 69.5269 79.2105C64.3232 75.6493 59.1194 72.0903 54.037 68.3505C51.7366 66.722 49.5 65.0317 47.1995 63.3436C46.897 63.1629 46.6563 62.9184 46.3475 62.7398C45.4971 62.0828 44.9162 61.1386 44.7137 60.0844C44.6601 59.8042 44.6394 59.5188 44.6519 59.2339V53.5042C44.6609 53.261 44.6409 53.0176 44.5923 52.7792C44.5745 52.7439 44.5652 52.7049 44.5652 52.6654C44.5652 52.6259 44.5745 52.587 44.5923 52.5517C44.6099 52.5171 44.6354 52.4873 44.6669 52.4645C44.6987 52.4417 44.735 52.4257 44.7734 52.4177H44.833C44.847 52.5196 44.8676 52.6205 44.8948 52.7196C44.9433 53.3113 45.2007 53.8666 45.6211 54.2866C45.9234 54.6705 46.292 54.9974 46.7096 55.2518C52.759 59.7761 58.932 64.1813 65.1646 68.5249C66.6173 69.5518 68.1275 70.5149 69.5823 71.5396C70.1683 71.9502 70.8213 72.2559 71.5122 72.4432C72.3238 72.6369 73.1771 72.5515 73.9341 72.2008C74.2171 72.0769 74.4816 71.9145 74.7201 71.7182C78.714 68.8842 82.6461 66.1075 86.6485 63.2713C87.4345 62.7292 88.1608 62.187 88.8808 61.5832C90.7769 59.8849 92.1608 57.6922 92.8768 55.2518C92.9876 54.8364 93.0688 54.4137 93.1197 53.9868C93.1711 53.7487 93.1918 53.5051 93.1814 53.2618V52.4666ZM71.64 43.7136H73.0906C75.4439 43.8917 77.7231 44.6153 79.747 45.8269C81.1143 46.6559 82.3895 47.6272 83.5514 48.7248C84.3279 49.3914 84.8426 50.3111 85.0041 51.3207C85.1659 52.3067 85.0171 53.3185 84.5781 54.2164C84.4566 54.5183 84.2735 54.7607 84.152 55.0009C84.0923 55.1182 83.9903 55.2086 83.8666 55.2539C83.7426 55.2987 83.6061 55.2941 83.4853 55.2412C83.4257 55.2412 83.4257 55.1816 83.366 55.1816C82.94 54.8797 82.514 54.6374 82.0347 54.3312C80.3021 53.1059 78.3496 52.2246 76.2835 51.7353C74.9582 51.4265 73.5929 51.3254 72.2364 51.4355C69.4701 51.6371 66.8123 52.5931 64.5532 54.1994C63.7012 54.8032 62.798 55.2858 61.8885 55.8875C61.8289 55.8875 61.8289 55.9492 61.7692 55.9492C61.7231 55.9424 61.6804 55.9208 61.6478 55.8875L56.5654 52.4496C56.4529 52.3855 56.3509 52.3045 56.263 52.2094C56.1953 52.1646 56.1459 52.0971 56.1236 52.0192C56.1014 51.9412 56.1077 51.8579 56.1416 51.7842C56.1416 51.7225 56.2033 51.7225 56.263 51.663L56.3823 51.5418C57.835 50.5787 59.2259 49.488 60.6765 48.459C61.9188 47.5491 63.2094 46.7066 64.5426 45.9354C66.0967 45.0766 67.7679 44.4485 69.5035 44.0708C70.1959 43.8629 70.9113 43.7408 71.6336 43.7072L71.64 43.7136ZM68.9667 44.2026V33.6041C68.9773 33.2052 69.1458 32.8268 69.4351 32.5515C69.7245 32.2762 70.1114 32.1264 70.511 32.135H73.5847C73.9844 32.1264 74.3713 32.2762 74.6606 32.5515C74.95 32.8268 75.1184 33.2052 75.129 33.6041V44.0219C73.0719 43.7848 70.9911 43.8471 68.9518 44.2069L68.9667 44.2026ZM93.2496 70.1407C93.3661 70.3861 93.4286 70.6536 93.4328 70.9252V77.38C93.3781 80.2255 92.4022 82.977 90.6509 85.223C89.8925 86.1721 89.0189 87.0234 88.0501 87.7573C85.494 89.7473 82.842 91.6183 80.1688 93.4977L74.8436 97.1779C74.3865 97.4946 73.8722 97.7199 73.3291 97.8413C72.6035 98.024 71.8376 97.9604 71.1522 97.6606C70.6588 97.4806 70.1911 97.2369 69.7613 96.9356C63.8311 92.896 57.901 88.7927 52.0923 84.5087C50.2775 83.182 48.4712 81.8553 46.6457 80.4691C45.7485 79.8174 45.1435 78.8402 44.9608 77.7478C44.9079 77.4676 44.8879 77.1822 44.9012 76.8973V71.0506C44.9094 70.8285 44.8886 70.6062 44.8394 70.3894C44.7797 70.2066 44.9012 70.0259 45.0226 70.0259C45.0226 70.1471 45.0822 70.2066 45.0822 70.3278C45.1505 70.9931 45.4523 71.6129 45.9342 72.0775C46.2281 72.3925 46.5528 72.6774 46.9034 72.928C53.1957 77.633 59.6711 82.2168 66.138 86.6815C67.3415 87.5319 68.5578 88.3101 69.708 89.0946C70.1979 89.4724 70.751 89.7603 71.3418 89.945C71.785 90.0959 72.2538 90.1576 72.721 90.1266C73.1883 90.0956 73.6447 89.9724 74.064 89.7643C74.3607 89.6276 74.6456 89.4669 74.916 89.2838C79.272 86.201 83.6302 83.1182 87.9862 79.9908C90.3936 78.2552 92.1593 75.7746 93.0089 72.9343C93.1374 72.4572 93.2384 71.9731 93.3114 71.4844C93.1881 71.0481 93.1619 70.5902 93.2347 70.1428L93.2496 70.1407ZM73.9937 110.615H70.3726C69.9424 110.61 69.5315 110.436 69.2291 110.131C68.9267 109.826 68.7574 109.413 68.758 108.984L68.988 96.3764C69.3033 95.9357 69.7294 95.5859 70.2235 95.3623L75.2611 94.3885C75.3083 94.3885 75.3551 94.3978 75.3986 94.4161C75.4422 94.4343 75.4816 94.4611 75.5146 94.4948C75.5479 94.5284 75.5743 94.5682 75.5923 94.612C75.6102 94.6558 75.6192 94.7027 75.619 94.75V108.995C75.6179 109.423 75.4479 109.834 75.1457 110.138C74.8436 110.443 74.4336 110.616 74.0044 110.621L73.9937 110.615Z" fill="#131621"/>
<path d="M94.4052 54.8984C94.5184 55.1445 94.5773 55.4121 94.5778 55.6829V62.0186C94.5728 64.0012 94.1056 65.9555 93.2132 67.7267C92.3207 69.498 91.0275 71.0376 89.4358 72.2237C86.8946 74.2159 84.2917 76.0847 81.6291 77.9641L75.8949 81.942C75.1428 82.4865 74.22 82.7437 73.2941 82.667C72.815 82.6113 72.3461 82.4889 71.901 82.3034C71.5051 82.1055 71.121 81.8847 70.7508 81.6422C65.547 78.0811 60.3432 74.522 55.2609 70.7823C52.9604 69.1537 50.7238 67.4635 48.4233 65.7754C48.1209 65.5946 47.8802 65.3501 47.5713 65.1716C46.7209 64.5145 46.14 63.5703 45.9375 62.5161C45.8839 62.236 45.8632 61.9506 45.8758 61.6657V55.9359C45.8847 55.6927 45.8647 55.4494 45.8161 55.2109C45.7983 55.1756 45.7891 55.1367 45.7891 55.0972C45.7891 55.0577 45.7983 55.0187 45.8161 54.9834C45.8337 54.9489 45.8593 54.919 45.8907 54.8963C45.9225 54.8734 45.9588 54.8575 45.9972 54.8495H46.0568C46.0708 54.9513 46.0915 55.0522 46.1186 55.1514C46.1672 55.7431 46.4246 56.2983 46.845 56.7183C47.1472 57.1022 47.5159 57.4291 47.9334 57.6835C53.9828 62.2078 60.1558 66.613 66.3884 70.9566C67.8411 71.9835 69.3513 72.9466 70.8062 73.9714C71.3921 74.3819 72.0451 74.6876 72.736 74.8749C73.5476 75.0686 74.401 74.9832 75.1579 74.6326C75.4409 74.5087 75.7055 74.3462 75.9439 74.15C79.9378 71.3159 83.8699 68.5393 87.8723 65.7031C88.6583 65.1609 89.3847 64.6188 90.1046 64.015C92.0008 62.3166 93.3846 60.1239 94.1006 57.6835C94.2114 57.2681 94.2926 56.8454 94.3435 56.4185C94.3949 56.1805 94.4157 55.9368 94.4052 55.6935V54.8984ZM72.8638 46.1453H74.3144C76.6677 46.3235 78.9469 47.0471 80.9709 48.2587C82.3381 49.0876 83.6133 50.059 84.7752 51.1565C85.5518 51.8231 86.0665 52.7429 86.2279 53.7524C86.3897 54.7384 86.2409 55.7502 85.8019 56.6481C85.6805 56.95 85.4973 57.1924 85.3759 57.4327C85.3162 57.5499 85.2142 57.6403 85.0904 57.6857C84.9664 57.7305 84.8299 57.7259 84.7092 57.6729C84.6495 57.6729 84.6495 57.6134 84.5899 57.6134C84.1638 57.3115 83.7378 57.0691 83.2586 56.7629C81.526 55.5376 79.5734 54.6563 77.5074 54.167C76.1821 53.8582 74.8167 53.7571 73.4602 53.8672C70.6939 54.0688 68.0362 55.0249 65.777 56.6311C64.925 57.2349 64.0219 57.7175 63.1123 58.3192C63.0527 58.3192 63.0527 58.3809 62.993 58.3809C62.9469 58.3742 62.9042 58.3525 62.8716 58.3192L57.7893 54.8814C57.6767 54.8172 57.5747 54.7362 57.4868 54.6411C57.4191 54.5963 57.3697 54.5289 57.3474 54.4509C57.3252 54.3729 57.3315 54.2896 57.3654 54.2159C57.3654 54.1543 57.4272 54.1543 57.4868 54.0947L57.6061 53.9735C59.0588 53.0104 60.4497 51.9198 61.9003 50.8907C63.1426 49.9808 64.4332 49.1384 65.7664 48.3671C67.3205 47.5083 68.9917 46.8802 70.7273 46.5025C71.4198 46.2946 72.1351 46.1725 72.8574 46.139L72.8638 46.1453ZM70.1906 46.6343V36.0359C70.2012 35.637 70.3696 35.2585 70.659 34.9832C70.9484 34.7079 71.3352 34.5582 71.7349 34.5668H74.8086C75.2082 34.5582 75.5951 34.7079 75.8845 34.9832C76.1739 35.2585 76.3423 35.637 76.3529 36.0359V46.4536C74.2957 46.2165 72.2149 46.2788 70.1757 46.6386L70.1906 46.6343ZM94.4734 72.5724C94.5899 72.8179 94.6524 73.0854 94.6566 73.3569V79.8117C94.6019 82.6572 93.626 85.4087 91.8747 87.6548C91.1164 88.6038 90.2427 89.4551 89.2739 90.189C86.7178 92.179 84.0659 94.05 81.3926 95.9294L76.0674 99.6097C75.6103 99.9263 75.096 100.152 74.553 100.273C73.8273 100.456 73.0614 100.392 72.376 100.092C71.8826 99.9124 71.415 99.6686 70.9851 99.3673C65.055 95.3278 59.1248 91.2244 53.3161 86.9404C51.5013 85.6137 49.695 84.2871 47.8695 82.9009C46.9724 82.2491 46.3673 81.2719 46.1846 80.1795C46.1317 79.8993 46.1117 79.6139 46.125 79.3291V73.4824C46.1332 73.2602 46.1124 73.038 46.0632 72.8212C46.0036 72.6383 46.125 72.4576 46.2464 72.4576C46.2464 72.5788 46.306 72.6383 46.306 72.7595C46.3743 73.4248 46.6761 74.0446 47.1581 74.5093C47.4519 74.8243 47.7766 75.1091 48.1273 75.3597C54.4195 80.0647 60.8949 84.6485 67.3618 89.1132C68.5653 89.9637 69.7816 90.7418 70.9318 91.5263C71.4217 91.9041 71.9749 92.192 72.5656 92.3768C73.0088 92.5276 73.4776 92.5893 73.9448 92.5583C74.4121 92.5273 74.8685 92.4042 75.2878 92.1961C75.5845 92.0593 75.8695 91.8986 76.1399 91.7156C80.4959 88.6328 84.854 85.55 89.21 82.4225C91.6174 80.6869 93.3831 78.2063 94.2327 75.3661C94.3613 74.8889 94.4623 74.4048 94.5352 73.9161C94.4119 73.4798 94.3858 73.022 94.4585 72.5745L94.4734 72.5724ZM75.2175 113.046H71.5964C71.1663 113.042 70.7553 112.868 70.4529 112.563C70.1505 112.257 69.9812 111.845 69.9818 111.416L70.2119 98.8081C70.5271 98.3675 70.9533 98.0176 71.4473 97.794L76.4849 96.8203C76.5322 96.8202 76.5789 96.8296 76.6224 96.8478C76.666 96.8661 76.7054 96.8928 76.7384 96.9266C76.7718 96.9601 76.7982 97 76.8161 97.0437C76.834 97.0875 76.8431 97.1344 76.8428 97.1817V111.426C76.8417 111.855 76.6717 112.266 76.3696 112.57C76.0674 112.874 75.6574 113.048 75.2282 113.053L75.2175 113.046Z" fill="#D7E6F4"/>
</g>
<path d="M147.803 144.568C162.099 144.568 176.074 140.329 187.961 132.386C199.848 124.444 209.113 113.155 214.584 99.9462C220.055 86.7382 221.486 72.2052 218.697 58.1832C215.908 44.1622 209.024 31.2822 198.915 21.1732C188.806 11.0642 175.926 4.1799 161.904 1.3909C147.883 -1.3982 133.349 0.0332985 120.141 5.5042C106.933 10.9751 95.6435 20.2399 87.7005 32.1272C79.7585 44.0132 75.5195 57.9892 75.5195 72.2852C75.5195 91.4562 83.1345 109.841 96.6905 123.397C110.246 136.953 128.632 144.568 147.803 144.568Z" fill="#0B1015"/>
<g opacity="0.25">
<path d="M147.803 144.568C162.099 144.568 176.074 140.329 187.961 132.386C199.848 124.444 209.113 113.155 214.584 99.947C220.055 86.739 221.486 72.205 218.697 58.183C215.908 44.162 209.024 31.282 198.915 21.1733C188.806 11.0643 175.926 4.17996 161.904 1.39086C147.883 -1.39814 133.349 0.0332541 120.141 5.50415C106.933 10.9752 95.6435 20.2399 87.7005 32.127C79.7585 44.014 75.5195 57.989 75.5195 72.285C75.5195 91.456 83.1345 109.841 96.6905 123.397C110.246 136.953 128.632 144.568 147.803 144.568Z" fill="#2775C9"/>
<path d="M199.398 123.441C227.627 95.2121 227.627 49.4438 199.398 21.2148C171.169 -7.01429 125.401 -7.01429 97.1718 21.2148C68.9427 49.4438 68.9427 95.2121 97.1718 123.441C125.401 151.67 171.169 151.67 199.398 123.441Z" fill="#4A5C6B"/>
<path d="M198.091 122.135C225.599 94.6272 225.599 50.0288 198.091 22.5213C170.584 -4.98613 125.986 -4.98613 98.4781 22.5213C70.9706 50.0288 70.9706 94.6272 98.4781 122.135C125.986 149.642 170.584 149.642 198.091 122.135Z" fill="#384E61"/>
<path d="M198.229 22.665L98.6223 122.272C105.356 128.966 113.372 134.231 122.19 137.751L213.71 46.2327C210.189 37.4146 204.924 29.3984 198.229 22.665Z" fill="#4A5C6B"/>
<path d="M188.951 14.8311L90.7887 112.991C91.9328 114.606 93.1398 116.171 94.4099 117.686L193.642 18.4526C192.132 17.1795 190.568 15.9723 188.951 14.8311Z" fill="#4A5C6B"/>
<path d="M149.67 124.673C177.858 124.673 200.709 101.822 200.709 73.6343C200.709 45.4467 177.858 22.5961 149.67 22.5961C121.483 22.5961 98.6321 45.4467 98.6321 73.6343C98.6321 101.822 121.483 124.673 149.67 124.673Z" fill="black"/>
<path d="M184.374 108.418C204.306 88.4859 204.306 56.1702 184.374 36.2386C164.443 16.3069 132.127 16.3069 112.195 36.2386C92.2637 56.1702 92.2637 88.4858 112.195 108.418C132.127 128.349 164.443 128.349 184.374 108.418Z" fill="black"/>
<path d="M100.018 75.0993C100.016 65.1716 102.91 55.4589 108.345 47.1513C113.781 38.8437 121.521 32.3021 130.619 28.3279C139.716 24.3537 149.776 23.1197 159.564 24.7769C169.352 26.4341 178.445 30.9106 185.727 37.658C181.063 32.6178 175.429 28.571 169.163 25.7599C162.897 22.9489 156.129 21.4315 149.262 21.2987C142.396 21.1659 135.574 22.4203 129.204 24.9869C122.834 27.5534 117.048 31.3793 112.192 36.2354C107.336 41.0914 103.51 46.8776 100.944 53.2474C98.377 59.6172 97.1225 66.4396 97.2554 73.3057C97.3882 80.1719 98.9056 86.9406 101.717 93.2064C104.528 99.4721 108.574 105.106 113.615 109.771C104.861 100.349 100.002 87.9601 100.018 75.0993Z" fill="black"/>
<path d="M199.889 73.2489C199.933 87.2865 194.558 100.77 184.941 110.742C175.323 120.715 162.249 126.364 148.584 126.45C134.92 126.536 121.779 121.053 112.043 111.202C102.307 101.352 96.771 87.9377 96.6478 73.9006V73.2489C96.6478 59.1849 102.086 45.6968 111.767 35.7521C121.448 25.8073 134.578 20.2204 148.269 20.2204H148.906C162.487 20.3874 175.457 26.0478 185.002 35.974C194.547 45.9002 199.893 59.2966 199.889 73.2489Z" fill="#1A2E41"/>
<path d="M184.802 38.0008L111.77 111.299C102.218 101.745 96.7877 88.8081 96.6478 75.275V74.638C96.6478 60.8928 102.088 47.7106 111.773 37.9908C121.457 28.2711 134.593 22.81 148.289 22.8087H148.926C162.405 22.9683 175.284 28.4223 184.802 38.0008Z" fill="#2C465E"/>
<path d="M199.486 73.5629C199.486 80.5111 198.233 87.3912 195.797 93.8105C193.362 100.23 189.792 106.063 185.291 110.976C180.791 115.889 175.448 119.786 169.568 122.445C163.688 125.104 157.386 126.473 151.021 126.473C150.102 126.473 149.19 126.445 148.284 126.39C160.646 125.629 172.272 119.731 180.777 109.908C189.282 100.085 194.02 87.0808 194.02 73.5642C194.02 60.0475 189.282 47.0434 180.777 37.2202C172.272 27.397 160.646 21.4996 148.284 20.7382C149.19 20.683 150.102 20.6554 151.021 20.6554C163.875 20.6554 176.202 26.2295 185.291 36.1516C194.379 46.0737 199.486 59.531 199.486 73.5629Z" fill="#151520"/>
<path d="M169.181 52.4666C169.295 52.7128 169.353 52.9803 169.354 53.2512V59.5869C169.349 61.5695 168.882 63.5237 167.989 65.295C167.097 67.0662 165.804 68.6059 164.212 69.792C161.671 71.7841 159.068 73.653 156.405 75.5324L150.671 79.5103C149.919 80.0547 148.996 80.3119 148.07 80.2353C147.591 80.1795 147.122 80.0572 146.677 79.8717C146.281 79.6738 145.897 79.453 145.527 79.2105C140.323 75.6493 135.119 72.0903 130.037 68.3505C127.737 66.722 125.5 65.0317 123.2 63.3436C122.897 63.1629 122.656 62.9184 122.347 62.7398C121.497 62.0828 120.916 61.1386 120.714 60.0844C120.66 59.8042 120.639 59.5188 120.652 59.2339V53.5042C120.661 53.261 120.641 53.0176 120.592 52.7792C120.575 52.7439 120.565 52.7049 120.565 52.6654C120.565 52.6259 120.575 52.587 120.592 52.5517C120.61 52.5171 120.635 52.4873 120.667 52.4645C120.699 52.4417 120.735 52.4257 120.773 52.4177H120.833C120.847 52.5196 120.868 52.6205 120.895 52.7196C120.943 53.3113 121.201 53.8666 121.621 54.2866C121.923 54.6705 122.292 54.9974 122.71 55.2518C128.759 59.7761 134.932 64.1813 141.165 68.5249C142.617 69.5518 144.127 70.5149 145.582 71.5396C146.168 71.9502 146.821 72.2559 147.512 72.4432C148.324 72.6369 149.177 72.5515 149.934 72.2008C150.217 72.0769 150.482 71.9145 150.72 71.7182C154.714 68.8842 158.646 66.1075 162.648 63.2713C163.434 62.7292 164.161 62.187 164.881 61.5832C166.777 59.8849 168.161 57.6922 168.877 55.2518C168.988 54.8364 169.069 54.4137 169.12 53.9868C169.171 53.7487 169.192 53.5051 169.181 53.2618V52.4666ZM147.64 43.7136H149.091C151.444 43.8917 153.723 44.6153 155.747 45.8269C157.114 46.6559 158.39 47.6272 159.551 48.7248C160.328 49.3914 160.843 50.3111 161.004 51.3207C161.166 52.3067 161.017 53.3185 160.578 54.2164C160.457 54.5183 160.273 54.7607 160.152 55.0009C160.092 55.1182 159.99 55.2086 159.867 55.2539C159.743 55.2987 159.606 55.2941 159.485 55.2412C159.426 55.2412 159.426 55.1816 159.366 55.1816C158.94 54.8797 158.514 54.6374 158.035 54.3312C156.302 53.1059 154.35 52.2246 152.284 51.7353C150.958 51.4265 149.593 51.3254 148.236 51.4355C145.47 51.6371 142.812 52.5931 140.553 54.1994C139.701 54.8032 138.798 55.2858 137.889 55.8875C137.829 55.8875 137.829 55.9492 137.769 55.9492C137.723 55.9424 137.68 55.9208 137.648 55.8875L132.565 52.4496C132.453 52.3855 132.351 52.3045 132.263 52.2094C132.195 52.1646 132.146 52.0971 132.124 52.0192C132.101 51.9412 132.108 51.8579 132.142 51.7842C132.142 51.7225 132.203 51.7225 132.263 51.663L132.382 51.5418C133.835 50.5787 135.226 49.488 136.676 48.459C137.919 47.5491 139.209 46.7066 140.543 45.9354C142.097 45.0766 143.768 44.4485 145.504 44.0708C146.196 43.8629 146.911 43.7408 147.634 43.7072L147.64 43.7136ZM144.967 44.2026V33.6041C144.977 33.2052 145.146 32.8268 145.435 32.5515C145.725 32.2762 146.111 32.1264 146.511 32.135H149.585C149.984 32.1264 150.371 32.2762 150.661 32.5515C150.95 32.8268 151.118 33.2052 151.129 33.6041V44.0219C149.072 43.7848 146.991 43.8471 144.952 44.2069L144.967 44.2026ZM169.25 70.1407C169.366 70.3861 169.429 70.6536 169.433 70.9252V77.38C169.378 80.2255 168.402 82.977 166.651 85.223C165.893 86.1721 165.019 87.0234 164.05 87.7573C161.494 89.7473 158.842 91.6183 156.169 93.4977L150.844 97.1779C150.386 97.4946 149.872 97.7199 149.329 97.8413C148.604 98.024 147.838 97.9604 147.152 97.6606C146.659 97.4806 146.191 97.2369 145.761 96.9356C139.831 92.896 133.901 88.7927 128.092 84.5087C126.277 83.182 124.471 81.8553 122.646 80.4691C121.749 79.8174 121.144 78.8402 120.961 77.7478C120.908 77.4676 120.888 77.1822 120.901 76.8973V71.0506C120.909 70.8285 120.889 70.6062 120.839 70.3894C120.78 70.2066 120.901 70.0259 121.023 70.0259C121.023 70.1471 121.082 70.2066 121.082 70.3278C121.15 70.9931 121.452 71.6129 121.934 72.0775C122.228 72.3925 122.553 72.6774 122.903 72.928C129.196 77.633 135.671 82.2168 142.138 86.6815C143.341 87.5319 144.558 88.3101 145.708 89.0946C146.198 89.4724 146.751 89.7603 147.342 89.945C147.785 90.0959 148.254 90.1576 148.721 90.1266C149.188 90.0956 149.645 89.9724 150.064 89.7643C150.361 89.6276 150.646 89.4669 150.916 89.2838C155.272 86.201 159.63 83.1182 163.986 79.9908C166.394 78.2552 168.159 75.7746 169.009 72.9343C169.137 72.4572 169.238 71.9731 169.311 71.4844C169.188 71.0481 169.162 70.5902 169.235 70.1428L169.25 70.1407ZM149.994 110.615H146.373C145.942 110.61 145.531 110.436 145.229 110.131C144.927 109.826 144.757 109.413 144.758 108.984L144.988 96.3764C145.303 95.9357 145.729 95.5859 146.223 95.3623L151.261 94.3885C151.308 94.3885 151.355 94.3978 151.399 94.4161C151.442 94.4343 151.482 94.4611 151.515 94.4948C151.548 94.5284 151.574 94.5682 151.592 94.612C151.61 94.6558 151.619 94.7027 151.619 94.75V108.995C151.618 109.423 151.448 109.834 151.146 110.138C150.844 110.443 150.434 110.616 150.004 110.621L149.994 110.615Z" fill="#131621"/>
<path d="M170.405 54.8984C170.518 55.1445 170.577 55.4121 170.578 55.6829V62.0186C170.573 64.0012 170.106 65.9555 169.213 67.7267C168.321 69.498 167.027 71.0376 165.436 72.2237C162.895 74.2159 160.292 76.0847 157.629 77.9641L151.895 81.942C151.143 82.4865 150.22 82.7437 149.294 82.667C148.815 82.6113 148.346 82.4889 147.901 82.3034C147.505 82.1055 147.121 81.8847 146.751 81.6422C141.547 78.0811 136.343 74.522 131.261 70.7823C128.96 69.1537 126.724 67.4635 124.423 65.7754C124.121 65.5946 123.88 65.3501 123.571 65.1716C122.721 64.5145 122.14 63.5703 121.938 62.5161C121.884 62.236 121.863 61.9506 121.876 61.6657V55.9359C121.885 55.6927 121.865 55.4494 121.816 55.2109C121.798 55.1756 121.789 55.1367 121.789 55.0972C121.789 55.0577 121.798 55.0187 121.816 54.9834C121.834 54.9489 121.859 54.919 121.891 54.8963C121.923 54.8734 121.959 54.8575 121.997 54.8495H122.057C122.071 54.9513 122.091 55.0522 122.119 55.1514C122.167 55.7431 122.425 56.2983 122.845 56.7183C123.147 57.1022 123.516 57.4291 123.933 57.6835C129.983 62.2078 136.156 66.613 142.388 70.9566C143.841 71.9835 145.351 72.9466 146.806 73.9714C147.392 74.3819 148.045 74.6876 148.736 74.8749C149.548 75.0686 150.401 74.9832 151.158 74.6326C151.441 74.5087 151.705 74.3462 151.944 74.15C155.938 71.3159 159.87 68.5393 163.872 65.7031C164.658 65.1609 165.385 64.6188 166.105 64.015C168.001 62.3166 169.385 60.1239 170.101 57.6835C170.211 57.2681 170.293 56.8454 170.343 56.4185C170.395 56.1805 170.416 55.9368 170.405 55.6935V54.8984ZM148.864 46.1453H150.314C152.668 46.3235 154.947 47.0471 156.971 48.2587C158.338 49.0876 159.613 50.059 160.775 51.1565C161.552 51.8231 162.066 52.7429 162.228 53.7524C162.39 54.7384 162.241 55.7502 161.802 56.6481C161.68 56.95 161.497 57.1924 161.376 57.4327C161.316 57.5499 161.214 57.6403 161.09 57.6857C160.966 57.7305 160.83 57.7259 160.709 57.6729C160.65 57.6729 160.65 57.6134 160.59 57.6134C160.164 57.3115 159.738 57.0691 159.259 56.7629C157.526 55.5376 155.573 54.6563 153.507 54.167C152.182 53.8582 150.817 53.7571 149.46 53.8672C146.694 54.0688 144.036 55.0249 141.777 56.6311C140.925 57.2349 140.022 57.7175 139.112 58.3192C139.053 58.3192 139.053 58.3809 138.993 58.3809C138.947 58.3742 138.904 58.3525 138.872 58.3192L133.789 54.8814C133.677 54.8172 133.575 54.7362 133.487 54.6411C133.419 54.5963 133.37 54.5289 133.347 54.4509C133.325 54.3729 133.332 54.2896 133.365 54.2159C133.365 54.1543 133.427 54.1543 133.487 54.0947L133.606 53.9735C135.059 53.0104 136.45 51.9198 137.9 50.8907C139.143 49.9808 140.433 49.1384 141.766 48.3671C143.321 47.5083 144.992 46.8802 146.727 46.5025C147.42 46.2946 148.135 46.1725 148.857 46.139L148.864 46.1453ZM146.191 46.6343V36.0359C146.201 35.637 146.37 35.2585 146.659 34.9832C146.948 34.7079 147.335 34.5582 147.735 34.5668H150.809C151.208 34.5582 151.595 34.7079 151.884 34.9832C152.174 35.2585 152.342 35.637 152.353 36.0359V46.4536C150.296 46.2165 148.215 46.2788 146.176 46.6386L146.191 46.6343ZM170.473 72.5724C170.59 72.8179 170.652 73.0854 170.657 73.3569V79.8117C170.602 82.6572 169.626 85.4087 167.875 87.6548C167.116 88.6038 166.243 89.4551 165.274 90.189C162.718 92.179 160.066 94.05 157.393 95.9294L152.067 99.6097C151.61 99.9263 151.096 100.152 150.553 100.273C149.827 100.456 149.061 100.392 148.376 100.092C147.883 99.9124 147.415 99.6686 146.985 99.3673C141.055 95.3278 135.125 91.2244 129.316 86.9404C127.501 85.6137 125.695 84.2871 123.87 82.9009C122.972 82.2491 122.367 81.2719 122.185 80.1795C122.132 79.8993 122.112 79.6139 122.125 79.3291V73.4824C122.133 73.2602 122.112 73.038 122.063 72.8212C122.004 72.6383 122.125 72.4576 122.246 72.4576C122.246 72.5788 122.306 72.6383 122.306 72.7595C122.374 73.4248 122.676 74.0446 123.158 74.5093C123.452 74.8243 123.777 75.1091 124.127 75.3597C130.419 80.0647 136.895 84.6485 143.362 89.1132C144.565 89.9637 145.782 90.7418 146.932 91.5263C147.422 91.9041 147.975 92.192 148.566 92.3768C149.009 92.5276 149.478 92.5893 149.945 92.5583C150.412 92.5273 150.869 92.4042 151.288 92.1961C151.584 92.0593 151.869 91.8986 152.14 91.7156C156.496 88.6328 160.854 85.55 165.21 82.4225C167.617 80.6869 169.383 78.2063 170.233 75.3661C170.361 74.8889 170.462 74.4048 170.535 73.9161C170.412 73.4798 170.386 73.022 170.459 72.5745L170.473 72.5724ZM151.218 113.046H147.596C147.166 113.042 146.755 112.868 146.453 112.563C146.151 112.257 145.981 111.845 145.982 111.416L146.212 98.8081C146.527 98.3675 146.953 98.0176 147.447 97.794L152.485 96.8203C152.532 96.8202 152.579 96.8296 152.622 96.8478C152.666 96.8661 152.705 96.8928 152.738 96.9266C152.772 96.9601 152.798 97 152.816 97.0437C152.834 97.0875 152.843 97.1344 152.843 97.1817V111.426C152.842 111.855 152.672 112.266 152.37 112.57C152.067 112.874 151.657 113.048 151.228 113.053L151.218 113.046Z" fill="#D7E6F4"/>
</g>
<path d="M226.697 144.568C240.993 144.568 254.969 140.329 266.856 132.386C278.742 124.444 288.007 113.155 293.478 99.9462C298.949 86.7382 300.381 72.2052 297.591 58.1832C294.802 44.1622 287.918 31.2822 277.809 21.1732C267.7 11.0642 254.821 4.1799 240.799 1.3909C226.777 -1.3982 212.244 0.0332985 199.036 5.5042C185.828 10.9751 174.539 20.2399 166.596 32.1272C158.653 44.0132 154.414 57.9892 154.414 72.2852C154.414 91.4562 162.03 109.841 175.585 123.397C189.141 136.953 207.527 144.568 226.697 144.568Z" fill="#141E27"/>
<g opacity="0.5">
<path d="M226.697 144.568C240.993 144.568 254.969 140.329 266.856 132.386C278.742 124.444 288.007 113.155 293.478 99.947C298.949 86.739 300.381 72.205 297.591 58.183C294.802 44.162 287.918 31.282 277.809 21.1733C267.7 11.0643 254.821 4.17996 240.799 1.39086C226.777 -1.39814 212.244 0.0332541 199.036 5.50415C185.828 10.9752 174.539 20.2399 166.596 32.127C158.653 44.014 154.414 57.989 154.414 72.285C154.414 91.456 162.03 109.841 175.585 123.397C189.141 136.953 207.527 144.568 226.697 144.568Z" fill="#2775C9"/>
<path d="M277.398 123.441C305.627 95.2121 305.627 49.4438 277.398 21.2148C249.169 -7.01429 203.401 -7.01429 175.172 21.2148C146.943 49.4438 146.943 95.2121 175.172 123.441C203.401 151.67 249.169 151.67 277.398 123.441Z" fill="#4A5C6B"/>
<path d="M276.091 122.135C303.599 94.6272 303.599 50.0288 276.091 22.5213C248.584 -4.98613 203.986 -4.98613 176.478 22.5213C148.971 50.0288 148.971 94.6272 176.478 122.135C203.986 149.642 248.584 149.642 276.091 122.135Z" fill="#384E61"/>
<path d="M276.229 22.665L176.622 122.272C183.356 128.966 191.372 134.231 200.19 137.751L291.71 46.2327C288.189 37.4146 282.924 29.3984 276.229 22.665Z" fill="#4A5C6B"/>
<path d="M266.951 14.8311L168.789 112.991C169.933 114.606 171.14 116.171 172.41 117.686L271.642 18.4526C270.132 17.1795 268.568 15.9723 266.951 14.8311Z" fill="#4A5C6B"/>
<path d="M227.67 124.673C255.858 124.673 278.709 101.822 278.709 73.6343C278.709 45.4467 255.858 22.5961 227.67 22.5961C199.483 22.5961 176.632 45.4467 176.632 73.6343C176.632 101.822 199.483 124.673 227.67 124.673Z" fill="black"/>
<path d="M262.374 108.418C282.306 88.4859 282.306 56.1702 262.374 36.2386C242.443 16.3069 210.127 16.3069 190.195 36.2386C170.264 56.1702 170.264 88.4858 190.195 108.418C210.127 128.349 242.443 128.349 262.374 108.418Z" fill="black"/>
<path d="M178.018 75.0993C178.016 65.1716 180.91 55.4589 186.345 47.1513C191.781 38.8437 199.521 32.3021 208.619 28.3279C217.716 24.3537 227.776 23.1197 237.564 24.7769C247.352 26.4341 256.445 30.9106 263.727 37.658C259.063 32.6178 253.429 28.571 247.163 25.7599C240.897 22.9489 234.129 21.4315 227.262 21.2987C220.396 21.1659 213.574 22.4203 207.204 24.9869C200.834 27.5534 195.048 31.3793 190.192 36.2354C185.336 41.0914 181.51 46.8776 178.944 53.2474C176.377 59.6172 175.123 66.4396 175.255 73.3057C175.388 80.1719 176.906 86.9406 179.717 93.2064C182.528 99.4721 186.574 105.106 191.615 109.771C182.861 100.349 178.002 87.9601 178.018 75.0993Z" fill="black"/>
<path d="M277.889 73.2489C277.933 87.2865 272.558 100.77 262.941 110.742C253.323 120.715 240.249 126.364 226.584 126.45C212.92 126.536 199.779 121.053 190.043 111.202C180.307 101.352 174.771 87.9377 174.648 73.9006V73.2489C174.648 59.1849 180.086 45.6968 189.767 35.7521C199.448 25.8073 212.578 20.2204 226.269 20.2204H226.906C240.487 20.3874 253.457 26.0478 263.002 35.974C272.547 45.9002 277.893 59.2966 277.889 73.2489Z" fill="#1A2E41"/>
<path d="M262.802 38.0008L189.77 111.299C180.218 101.745 174.788 88.8081 174.648 75.275V74.638C174.648 60.8928 180.088 47.7106 189.773 37.9908C199.457 28.2711 212.593 22.81 226.289 22.8087H226.926C240.405 22.9683 253.284 28.4223 262.802 38.0008Z" fill="#2C465E"/>
<path d="M277.486 73.5629C277.486 80.5111 276.233 87.3912 273.797 93.8105C271.362 100.23 267.792 106.063 263.291 110.976C258.791 115.889 253.448 119.786 247.568 122.445C241.688 125.104 235.386 126.473 229.021 126.473C228.102 126.473 227.19 126.445 226.284 126.39C238.646 125.629 250.272 119.731 258.777 109.908C267.282 100.085 272.02 87.0808 272.02 73.5642C272.02 60.0475 267.282 47.0434 258.777 37.2202C250.272 27.397 238.646 21.4996 226.284 20.7382C227.19 20.683 228.102 20.6554 229.021 20.6554C241.875 20.6554 254.202 26.2295 263.291 36.1516C272.379 46.0737 277.486 59.531 277.486 73.5629Z" fill="#151520"/>
<path d="M247.181 52.4666C247.295 52.7128 247.353 52.9803 247.354 53.2512V59.5869C247.349 61.5695 246.882 63.5237 245.989 65.295C245.097 67.0662 243.804 68.6059 242.212 69.792C239.671 71.7841 237.068 73.653 234.405 75.5324L228.671 79.5103C227.919 80.0547 226.996 80.3119 226.07 80.2353C225.591 80.1795 225.122 80.0572 224.677 79.8717C224.281 79.6738 223.897 79.453 223.527 79.2105C218.323 75.6493 213.119 72.0903 208.037 68.3505C205.737 66.722 203.5 65.0317 201.2 63.3436C200.897 63.1629 200.656 62.9184 200.347 62.7398C199.497 62.0828 198.916 61.1386 198.714 60.0844C198.66 59.8042 198.639 59.5188 198.652 59.2339V53.5042C198.661 53.261 198.641 53.0176 198.592 52.7792C198.575 52.7439 198.565 52.7049 198.565 52.6654C198.565 52.6259 198.575 52.587 198.592 52.5517C198.61 52.5171 198.635 52.4873 198.667 52.4645C198.699 52.4417 198.735 52.4257 198.773 52.4177H198.833C198.847 52.5196 198.868 52.6205 198.895 52.7196C198.943 53.3113 199.201 53.8666 199.621 54.2866C199.923 54.6705 200.292 54.9974 200.71 55.2518C206.759 59.7761 212.932 64.1813 219.165 68.5249C220.617 69.5518 222.127 70.5149 223.582 71.5396C224.168 71.9502 224.821 72.2559 225.512 72.4432C226.324 72.6369 227.177 72.5515 227.934 72.2008C228.217 72.0769 228.482 71.9145 228.72 71.7182C232.714 68.8842 236.646 66.1075 240.648 63.2713C241.434 62.7292 242.161 62.187 242.881 61.5832C244.777 59.8849 246.161 57.6922 246.877 55.2518C246.988 54.8364 247.069 54.4137 247.12 53.9868C247.171 53.7487 247.192 53.5051 247.181 53.2618V52.4666ZM225.64 43.7136H227.091C229.444 43.8917 231.723 44.6153 233.747 45.8269C235.114 46.6559 236.39 47.6272 237.551 48.7248C238.328 49.3914 238.843 50.3111 239.004 51.3207C239.166 52.3067 239.017 53.3185 238.578 54.2164C238.457 54.5183 238.273 54.7607 238.152 55.0009C238.092 55.1182 237.99 55.2086 237.867 55.2539C237.743 55.2987 237.606 55.2941 237.485 55.2412C237.426 55.2412 237.426 55.1816 237.366 55.1816C236.94 54.8797 236.514 54.6374 236.035 54.3312C234.302 53.1059 232.35 52.2246 230.284 51.7353C228.958 51.4265 227.593 51.3254 226.236 51.4355C223.47 51.6371 220.812 52.5931 218.553 54.1994C217.701 54.8032 216.798 55.2858 215.889 55.8875C215.829 55.8875 215.829 55.9492 215.769 55.9492C215.723 55.9424 215.68 55.9208 215.648 55.8875L210.565 52.4496C210.453 52.3855 210.351 52.3045 210.263 52.2094C210.195 52.1646 210.146 52.0971 210.124 52.0192C210.101 51.9412 210.108 51.8579 210.142 51.7842C210.142 51.7225 210.203 51.7225 210.263 51.663L210.382 51.5418C211.835 50.5787 213.226 49.488 214.676 48.459C215.919 47.5491 217.209 46.7066 218.543 45.9354C220.097 45.0766 221.768 44.4485 223.504 44.0708C224.196 43.8629 224.911 43.7408 225.634 43.7072L225.64 43.7136ZM222.967 44.2026V33.6041C222.977 33.2052 223.146 32.8268 223.435 32.5515C223.725 32.2762 224.111 32.1264 224.511 32.135H227.585C227.984 32.1264 228.371 32.2762 228.661 32.5515C228.95 32.8268 229.118 33.2052 229.129 33.6041V44.0219C227.072 43.7848 224.991 43.8471 222.952 44.2069L222.967 44.2026ZM247.25 70.1407C247.366 70.3861 247.429 70.6536 247.433 70.9252V77.38C247.378 80.2255 246.402 82.977 244.651 85.223C243.893 86.1721 243.019 87.0234 242.05 87.7573C239.494 89.7473 236.842 91.6183 234.169 93.4977L228.844 97.1779C228.386 97.4946 227.872 97.7199 227.329 97.8413C226.604 98.024 225.838 97.9604 225.152 97.6606C224.659 97.4806 224.191 97.2369 223.761 96.9356C217.831 92.896 211.901 88.7927 206.092 84.5087C204.277 83.182 202.471 81.8553 200.646 80.4691C199.749 79.8174 199.144 78.8402 198.961 77.7478C198.908 77.4676 198.888 77.1822 198.901 76.8973V71.0506C198.909 70.8285 198.889 70.6062 198.839 70.3894C198.78 70.2066 198.901 70.0259 199.023 70.0259C199.023 70.1471 199.082 70.2066 199.082 70.3278C199.15 70.9931 199.452 71.6129 199.934 72.0775C200.228 72.3925 200.553 72.6774 200.903 72.928C207.196 77.633 213.671 82.2168 220.138 86.6815C221.341 87.5319 222.558 88.3101 223.708 89.0946C224.198 89.4724 224.751 89.7603 225.342 89.945C225.785 90.0959 226.254 90.1576 226.721 90.1266C227.188 90.0956 227.645 89.9724 228.064 89.7643C228.361 89.6276 228.646 89.4669 228.916 89.2838C233.272 86.201 237.63 83.1182 241.986 79.9908C244.394 78.2552 246.159 75.7746 247.009 72.9343C247.137 72.4572 247.238 71.9731 247.311 71.4844C247.188 71.0481 247.162 70.5902 247.235 70.1428L247.25 70.1407ZM227.994 110.615H224.373C223.942 110.61 223.531 110.436 223.229 110.131C222.927 109.826 222.757 109.413 222.758 108.984L222.988 96.3764C223.303 95.9357 223.729 95.5859 224.223 95.3623L229.261 94.3885C229.308 94.3885 229.355 94.3978 229.399 94.4161C229.442 94.4343 229.482 94.4611 229.515 94.4948C229.548 94.5284 229.574 94.5682 229.592 94.612C229.61 94.6558 229.619 94.7027 229.619 94.75V108.995C229.618 109.423 229.448 109.834 229.146 110.138C228.844 110.443 228.434 110.616 228.004 110.621L227.994 110.615Z" fill="#131621"/>
<path d="M248.405 54.8984C248.518 55.1445 248.577 55.4121 248.578 55.6829V62.0186C248.573 64.0012 248.106 65.9555 247.213 67.7267C246.321 69.498 245.027 71.0376 243.436 72.2237C240.895 74.2159 238.292 76.0847 235.629 77.9641L229.895 81.942C229.143 82.4865 228.22 82.7437 227.294 82.667C226.815 82.6113 226.346 82.4889 225.901 82.3034C225.505 82.1055 225.121 81.8847 224.751 81.6422C219.547 78.0811 214.343 74.522 209.261 70.7823C206.96 69.1537 204.724 67.4635 202.423 65.7754C202.121 65.5946 201.88 65.3501 201.571 65.1716C200.721 64.5145 200.14 63.5703 199.938 62.5161C199.884 62.236 199.863 61.9506 199.876 61.6657V55.9359C199.885 55.6927 199.865 55.4494 199.816 55.2109C199.798 55.1756 199.789 55.1367 199.789 55.0972C199.789 55.0577 199.798 55.0187 199.816 54.9834C199.834 54.9489 199.859 54.919 199.891 54.8963C199.923 54.8734 199.959 54.8575 199.997 54.8495H200.057C200.071 54.9513 200.091 55.0522 200.119 55.1514C200.167 55.7431 200.425 56.2983 200.845 56.7183C201.147 57.1022 201.516 57.4291 201.933 57.6835C207.983 62.2078 214.156 66.613 220.388 70.9566C221.841 71.9835 223.351 72.9466 224.806 73.9714C225.392 74.3819 226.045 74.6876 226.736 74.8749C227.548 75.0686 228.401 74.9832 229.158 74.6326C229.441 74.5087 229.705 74.3462 229.944 74.15C233.938 71.3159 237.87 68.5393 241.872 65.7031C242.658 65.1609 243.385 64.6188 244.105 64.015C246.001 62.3166 247.385 60.1239 248.101 57.6835C248.211 57.2681 248.293 56.8454 248.343 56.4185C248.395 56.1805 248.416 55.9368 248.405 55.6935V54.8984ZM226.864 46.1453H228.314C230.668 46.3235 232.947 47.0471 234.971 48.2587C236.338 49.0876 237.613 50.059 238.775 51.1565C239.552 51.8231 240.066 52.7429 240.228 53.7524C240.39 54.7384 240.241 55.7502 239.802 56.6481C239.68 56.95 239.497 57.1924 239.376 57.4327C239.316 57.5499 239.214 57.6403 239.09 57.6857C238.966 57.7305 238.83 57.7259 238.709 57.6729C238.65 57.6729 238.65 57.6134 238.59 57.6134C238.164 57.3115 237.738 57.0691 237.259 56.7629C235.526 55.5376 233.573 54.6563 231.507 54.167C230.182 53.8582 228.817 53.7571 227.46 53.8672C224.694 54.0688 222.036 55.0249 219.777 56.6311C218.925 57.2349 218.022 57.7175 217.112 58.3192C217.053 58.3192 217.053 58.3809 216.993 58.3809C216.947 58.3742 216.904 58.3525 216.872 58.3192L211.789 54.8814C211.677 54.8172 211.575 54.7362 211.487 54.6411C211.419 54.5963 211.37 54.5289 211.347 54.4509C211.325 54.3729 211.332 54.2896 211.365 54.2159C211.365 54.1543 211.427 54.1543 211.487 54.0947L211.606 53.9735C213.059 53.0104 214.45 51.9198 215.9 50.8907C217.143 49.9808 218.433 49.1384 219.766 48.3671C221.321 47.5083 222.992 46.8802 224.727 46.5025C225.42 46.2946 226.135 46.1725 226.857 46.139L226.864 46.1453ZM224.191 46.6343V36.0359C224.201 35.637 224.37 35.2585 224.659 34.9832C224.948 34.7079 225.335 34.5582 225.735 34.5668H228.809C229.208 34.5582 229.595 34.7079 229.884 34.9832C230.174 35.2585 230.342 35.637 230.353 36.0359V46.4536C228.296 46.2165 226.215 46.2788 224.176 46.6386L224.191 46.6343ZM248.473 72.5724C248.59 72.8179 248.652 73.0854 248.657 73.3569V79.8117C248.602 82.6572 247.626 85.4087 245.875 87.6548C245.116 88.6038 244.243 89.4551 243.274 90.189C240.718 92.179 238.066 94.05 235.393 95.9294L230.067 99.6097C229.61 99.9263 229.096 100.152 228.553 100.273C227.827 100.456 227.061 100.392 226.376 100.092C225.883 99.9124 225.415 99.6686 224.985 99.3673C219.055 95.3278 213.125 91.2244 207.316 86.9404C205.501 85.6137 203.695 84.2871 201.87 82.9009C200.972 82.2491 200.367 81.2719 200.185 80.1795C200.132 79.8993 200.112 79.6139 200.125 79.3291V73.4824C200.133 73.2602 200.112 73.038 200.063 72.8212C200.004 72.6383 200.125 72.4576 200.246 72.4576C200.246 72.5788 200.306 72.6383 200.306 72.7595C200.374 73.4248 200.676 74.0446 201.158 74.5093C201.452 74.8243 201.777 75.1091 202.127 75.3597C208.419 80.0647 214.895 84.6485 221.362 89.1132C222.565 89.9637 223.782 90.7418 224.932 91.5263C225.422 91.9041 225.975 92.192 226.566 92.3768C227.009 92.5276 227.478 92.5893 227.945 92.5583C228.412 92.5273 228.869 92.4042 229.288 92.1961C229.584 92.0593 229.869 91.8986 230.14 91.7156C234.496 88.6328 238.854 85.55 243.21 82.4225C245.617 80.6869 247.383 78.2063 248.233 75.3661C248.361 74.8889 248.462 74.4048 248.535 73.9161C248.412 73.4798 248.386 73.022 248.459 72.5745L248.473 72.5724ZM229.218 113.046H225.596C225.166 113.042 224.755 112.868 224.453 112.563C224.151 112.257 223.981 111.845 223.982 111.416L224.212 98.8081C224.527 98.3675 224.953 98.0176 225.447 97.794L230.485 96.8203C230.532 96.8202 230.579 96.8296 230.622 96.8478C230.666 96.8661 230.705 96.8928 230.738 96.9266C230.772 96.9601 230.798 97 230.816 97.0437C230.834 97.0875 230.843 97.1344 230.843 97.1817V111.426C230.842 111.855 230.672 112.266 230.37 112.57C230.067 112.874 229.657 113.048 229.228 113.053L229.218 113.046Z" fill="#D7E6F4"/>
</g>
<path d="M305.584 144.568C319.88 144.568 333.855 140.329 345.742 132.386C357.629 124.444 366.894 113.155 372.365 99.9462C377.836 86.7382 379.267 72.2052 376.478 58.1832C373.689 44.1622 366.805 31.2822 356.696 21.1732C346.587 11.0642 333.707 4.1799 319.686 1.3909C305.664 -1.3982 291.13 0.0332985 277.922 5.5042C264.714 10.9751 253.425 20.2399 245.483 32.1272C237.54 44.0132 233.301 57.9892 233.301 72.2852C233.301 91.4562 240.916 109.841 254.472 123.397C268.028 136.953 286.413 144.568 305.584 144.568Z" fill="#2775C9"/>
<path d="M356.398 123.441C384.627 95.2121 384.627 49.4438 356.398 21.2148C328.169 -7.01429 282.401 -7.01429 254.172 21.2148C225.943 49.4438 225.943 95.2121 254.172 123.441C282.401 151.67 328.169 151.67 356.398 123.441Z" fill="#4A5C6B"/>
<path d="M355.091 122.135C382.599 94.6272 382.599 50.0288 355.091 22.5213C327.584 -4.98613 282.986 -4.98613 255.478 22.5213C227.971 50.0288 227.971 94.6272 255.478 122.135C282.986 149.642 327.584 149.642 355.091 122.135Z" fill="#384E61"/>
<path d="M355.229 22.665L255.622 122.272C262.356 128.966 270.372 134.231 279.19 137.751L370.71 46.2327C367.189 37.4146 361.924 29.3984 355.229 22.665Z" fill="#4A5C6B"/>
<path d="M345.951 14.8311L247.789 112.991C248.933 114.606 250.14 116.171 251.41 117.686L350.642 18.4526C349.132 17.1795 347.568 15.9723 345.951 14.8311Z" fill="#4A5C6B"/>
<path d="M306.67 124.673C334.858 124.673 357.709 101.822 357.709 73.6343C357.709 45.4467 334.858 22.5961 306.67 22.5961C278.483 22.5961 255.632 45.4467 255.632 73.6343C255.632 101.822 278.483 124.673 306.67 124.673Z" fill="black"/>
<path d="M341.374 108.418C361.306 88.4859 361.306 56.1702 341.374 36.2386C321.443 16.3069 289.127 16.3069 269.195 36.2386C249.264 56.1702 249.264 88.4858 269.195 108.418C289.127 128.349 321.443 128.349 341.374 108.418Z" fill="black"/>
<path d="M257.018 75.0993C257.016 65.1716 259.91 55.4589 265.345 47.1513C270.781 38.8437 278.521 32.3021 287.619 28.3279C296.716 24.3537 306.776 23.1197 316.564 24.7769C326.352 26.4341 335.445 30.9106 342.727 37.658C338.063 32.6178 332.429 28.571 326.163 25.7599C319.897 22.9489 313.129 21.4315 306.262 21.2987C299.396 21.1659 292.574 22.4203 286.204 24.9869C279.834 27.5534 274.048 31.3793 269.192 36.2354C264.336 41.0914 260.51 46.8776 257.944 53.2474C255.377 59.6172 254.123 66.4396 254.255 73.3057C254.388 80.1719 255.906 86.9406 258.717 93.2064C261.528 99.4721 265.574 105.106 270.615 109.771C261.861 100.349 257.002 87.9601 257.018 75.0993Z" fill="black"/>
<path d="M356.889 73.2489C356.933 87.2865 351.558 100.77 341.941 110.742C332.323 120.715 319.249 126.364 305.584 126.45C291.92 126.536 278.779 121.053 269.043 111.202C259.307 101.352 253.771 87.9377 253.648 73.9006V73.2489C253.648 59.1849 259.086 45.6968 268.767 35.7521C278.448 25.8073 291.578 20.2204 305.269 20.2204H305.906C319.487 20.3874 332.457 26.0478 342.002 35.974C351.547 45.9002 356.893 59.2966 356.889 73.2489Z" fill="#1A2E41"/>
<path d="M341.802 38.0008L268.77 111.299C259.218 101.745 253.788 88.8081 253.648 75.275V74.638C253.648 60.8928 259.088 47.7106 268.773 37.9908C278.457 28.2711 291.593 22.81 305.289 22.8087H305.926C319.405 22.9683 332.284 28.4223 341.802 38.0008Z" fill="#2C465E"/>
<path d="M356.486 73.5629C356.486 80.5111 355.233 87.3912 352.797 93.8105C350.362 100.23 346.792 106.063 342.291 110.976C337.791 115.889 332.448 119.786 326.568 122.445C320.688 125.104 314.386 126.473 308.021 126.473C307.102 126.473 306.19 126.445 305.284 126.39C317.646 125.629 329.272 119.731 337.777 109.908C346.282 100.085 351.02 87.0808 351.02 73.5642C351.02 60.0475 346.282 47.0434 337.777 37.2202C329.272 27.397 317.646 21.4996 305.284 20.7382C306.19 20.683 307.102 20.6554 308.021 20.6554C320.875 20.6554 333.202 26.2295 342.291 36.1516C351.379 46.0737 356.486 59.531 356.486 73.5629Z" fill="#151520"/>
<path d="M326.181 52.4666C326.295 52.7128 326.353 52.9803 326.354 53.2512V59.5869C326.349 61.5695 325.882 63.5237 324.989 65.295C324.097 67.0662 322.804 68.6059 321.212 69.792C318.671 71.7841 316.068 73.653 313.405 75.5324L307.671 79.5103C306.919 80.0547 305.996 80.3119 305.07 80.2353C304.591 80.1795 304.122 80.0572 303.677 79.8717C303.281 79.6738 302.897 79.453 302.527 79.2105C297.323 75.6493 292.119 72.0903 287.037 68.3505C284.737 66.722 282.5 65.0317 280.2 63.3436C279.897 63.1629 279.656 62.9184 279.347 62.7398C278.497 62.0828 277.916 61.1386 277.714 60.0844C277.66 59.8042 277.639 59.5188 277.652 59.2339V53.5042C277.661 53.261 277.641 53.0176 277.592 52.7792C277.575 52.7439 277.565 52.7049 277.565 52.6654C277.565 52.6259 277.575 52.587 277.592 52.5517C277.61 52.5171 277.635 52.4873 277.667 52.4645C277.699 52.4417 277.735 52.4257 277.773 52.4177H277.833C277.847 52.5196 277.868 52.6205 277.895 52.7196C277.943 53.3113 278.201 53.8666 278.621 54.2866C278.923 54.6705 279.292 54.9974 279.71 55.2518C285.759 59.7761 291.932 64.1813 298.165 68.5249C299.617 69.5518 301.127 70.5149 302.582 71.5396C303.168 71.9502 303.821 72.2559 304.512 72.4432C305.324 72.6369 306.177 72.5515 306.934 72.2008C307.217 72.0769 307.482 71.9145 307.72 71.7182C311.714 68.8842 315.646 66.1075 319.648 63.2713C320.434 62.7292 321.161 62.187 321.881 61.5832C323.777 59.8849 325.161 57.6922 325.877 55.2518C325.988 54.8364 326.069 54.4137 326.12 53.9868C326.171 53.7487 326.192 53.5051 326.181 53.2618V52.4666ZM304.64 43.7136H306.091C308.444 43.8917 310.723 44.6153 312.747 45.8269C314.114 46.6559 315.39 47.6272 316.551 48.7248C317.328 49.3914 317.843 50.3111 318.004 51.3207C318.166 52.3067 318.017 53.3185 317.578 54.2164C317.457 54.5183 317.273 54.7607 317.152 55.0009C317.092 55.1182 316.99 55.2086 316.867 55.2539C316.743 55.2987 316.606 55.2941 316.485 55.2412C316.426 55.2412 316.426 55.1816 316.366 55.1816C315.94 54.8797 315.514 54.6374 315.035 54.3312C313.302 53.1059 311.35 52.2246 309.284 51.7353C307.958 51.4265 306.593 51.3254 305.236 51.4355C302.47 51.6371 299.812 52.5931 297.553 54.1994C296.701 54.8032 295.798 55.2858 294.889 55.8875C294.829 55.8875 294.829 55.9492 294.769 55.9492C294.723 55.9424 294.68 55.9208 294.648 55.8875L289.565 52.4496C289.453 52.3855 289.351 52.3045 289.263 52.2094C289.195 52.1646 289.146 52.0971 289.124 52.0192C289.101 51.9412 289.108 51.8579 289.142 51.7842C289.142 51.7225 289.203 51.7225 289.263 51.663L289.382 51.5418C290.835 50.5787 292.226 49.488 293.676 48.459C294.919 47.5491 296.209 46.7066 297.543 45.9354C299.097 45.0766 300.768 44.4485 302.504 44.0708C303.196 43.8629 303.911 43.7408 304.634 43.7072L304.64 43.7136ZM301.967 44.2026V33.6041C301.977 33.2052 302.146 32.8268 302.435 32.5515C302.725 32.2762 303.111 32.1264 303.511 32.135H306.585C306.984 32.1264 307.371 32.2762 307.661 32.5515C307.95 32.8268 308.118 33.2052 308.129 33.6041V44.0219C306.072 43.7848 303.991 43.8471 301.952 44.2069L301.967 44.2026ZM326.25 70.1407C326.366 70.3861 326.429 70.6536 326.433 70.9252V77.38C326.378 80.2255 325.402 82.977 323.651 85.223C322.893 86.1721 322.019 87.0234 321.05 87.7573C318.494 89.7473 315.842 91.6183 313.169 93.4977L307.844 97.1779C307.386 97.4946 306.872 97.7199 306.329 97.8413C305.604 98.024 304.838 97.9604 304.152 97.6606C303.659 97.4806 303.191 97.2369 302.761 96.9356C296.831 92.896 290.901 88.7927 285.092 84.5087C283.277 83.182 281.471 81.8553 279.646 80.4691C278.749 79.8174 278.144 78.8402 277.961 77.7478C277.908 77.4676 277.888 77.1822 277.901 76.8973V71.0506C277.909 70.8285 277.889 70.6062 277.839 70.3894C277.78 70.2066 277.901 70.0259 278.023 70.0259C278.023 70.1471 278.082 70.2066 278.082 70.3278C278.15 70.9931 278.452 71.6129 278.934 72.0775C279.228 72.3925 279.553 72.6774 279.903 72.928C286.196 77.633 292.671 82.2168 299.138 86.6815C300.341 87.5319 301.558 88.3101 302.708 89.0946C303.198 89.4724 303.751 89.7603 304.342 89.945C304.785 90.0959 305.254 90.1576 305.721 90.1266C306.188 90.0956 306.645 89.9724 307.064 89.7643C307.361 89.6276 307.646 89.4669 307.916 89.2838C312.272 86.201 316.63 83.1182 320.986 79.9908C323.394 78.2552 325.159 75.7746 326.009 72.9343C326.137 72.4572 326.238 71.9731 326.311 71.4844C326.188 71.0481 326.162 70.5902 326.235 70.1428L326.25 70.1407ZM306.994 110.615H303.373C302.942 110.61 302.531 110.436 302.229 110.131C301.927 109.826 301.757 109.413 301.758 108.984L301.988 96.3764C302.303 95.9357 302.729 95.5859 303.223 95.3623L308.261 94.3885C308.308 94.3885 308.355 94.3978 308.399 94.4161C308.442 94.4343 308.482 94.4611 308.515 94.4948C308.548 94.5284 308.574 94.5682 308.592 94.612C308.61 94.6558 308.619 94.7027 308.619 94.75V108.995C308.618 109.423 308.448 109.834 308.146 110.138C307.844 110.443 307.434 110.616 307.004 110.621L306.994 110.615Z" fill="#131621"/>
<path d="M327.405 54.8984C327.518 55.1445 327.577 55.4121 327.578 55.6829V62.0186C327.573 64.0012 327.106 65.9555 326.213 67.7267C325.321 69.498 324.027 71.0376 322.436 72.2237C319.895 74.2159 317.292 76.0847 314.629 77.9641L308.895 81.942C308.143 82.4865 307.22 82.7437 306.294 82.667C305.815 82.6113 305.346 82.4889 304.901 82.3034C304.505 82.1055 304.121 81.8847 303.751 81.6422C298.547 78.0811 293.343 74.522 288.261 70.7823C285.96 69.1537 283.724 67.4635 281.423 65.7754C281.121 65.5946 280.88 65.3501 280.571 65.1716C279.721 64.5145 279.14 63.5703 278.938 62.5161C278.884 62.236 278.863 61.9506 278.876 61.6657V55.9359C278.885 55.6927 278.865 55.4494 278.816 55.2109C278.798 55.1756 278.789 55.1367 278.789 55.0972C278.789 55.0577 278.798 55.0187 278.816 54.9834C278.834 54.9489 278.859 54.919 278.891 54.8963C278.923 54.8734 278.959 54.8575 278.997 54.8495H279.057C279.071 54.9513 279.091 55.0522 279.119 55.1514C279.167 55.7431 279.425 56.2983 279.845 56.7183C280.147 57.1022 280.516 57.4291 280.933 57.6835C286.983 62.2078 293.156 66.613 299.388 70.9566C300.841 71.9835 302.351 72.9466 303.806 73.9714C304.392 74.3819 305.045 74.6876 305.736 74.8749C306.548 75.0686 307.401 74.9832 308.158 74.6326C308.441 74.5087 308.705 74.3462 308.944 74.15C312.938 71.3159 316.87 68.5393 320.872 65.7031C321.658 65.1609 322.385 64.6188 323.105 64.015C325.001 62.3166 326.385 60.1239 327.101 57.6835C327.211 57.2681 327.293 56.8454 327.343 56.4185C327.395 56.1805 327.416 55.9368 327.405 55.6935V54.8984ZM305.864 46.1453H307.314C309.668 46.3235 311.947 47.0471 313.971 48.2587C315.338 49.0876 316.613 50.059 317.775 51.1565C318.552 51.8231 319.066 52.7429 319.228 53.7524C319.39 54.7384 319.241 55.7502 318.802 56.6481C318.68 56.95 318.497 57.1924 318.376 57.4327C318.316 57.5499 318.214 57.6403 318.09 57.6857C317.966 57.7305 317.83 57.7259 317.709 57.6729C317.65 57.6729 317.65 57.6134 317.59 57.6134C317.164 57.3115 316.738 57.0691 316.259 56.7629C314.526 55.5376 312.573 54.6563 310.507 54.167C309.182 53.8582 307.817 53.7571 306.46 53.8672C303.694 54.0688 301.036 55.0249 298.777 56.6311C297.925 57.2349 297.022 57.7175 296.112 58.3192C296.053 58.3192 296.053 58.3809 295.993 58.3809C295.947 58.3742 295.904 58.3525 295.872 58.3192L290.789 54.8814C290.677 54.8172 290.575 54.7362 290.487 54.6411C290.419 54.5963 290.37 54.5289 290.347 54.4509C290.325 54.3729 290.332 54.2896 290.365 54.2159C290.365 54.1543 290.427 54.1543 290.487 54.0947L290.606 53.9735C292.059 53.0104 293.45 51.9198 294.9 50.8907C296.143 49.9808 297.433 49.1384 298.766 48.3671C300.321 47.5083 301.992 46.8802 303.727 46.5025C304.42 46.2946 305.135 46.1725 305.857 46.139L305.864 46.1453ZM303.191 46.6343V36.0359C303.201 35.637 303.37 35.2585 303.659 34.9832C303.948 34.7079 304.335 34.5582 304.735 34.5668H307.809C308.208 34.5582 308.595 34.7079 308.884 34.9832C309.174 35.2585 309.342 35.637 309.353 36.0359V46.4536C307.296 46.2165 305.215 46.2788 303.176 46.6386L303.191 46.6343ZM327.473 72.5724C327.59 72.8179 327.652 73.0854 327.657 73.3569V79.8117C327.602 82.6572 326.626 85.4087 324.875 87.6548C324.116 88.6038 323.243 89.4551 322.274 90.189C319.718 92.179 317.066 94.05 314.393 95.9294L309.067 99.6097C308.61 99.9263 308.096 100.152 307.553 100.273C306.827 100.456 306.061 100.392 305.376 100.092C304.883 99.9124 304.415 99.6686 303.985 99.3673C298.055 95.3278 292.125 91.2244 286.316 86.9404C284.501 85.6137 282.695 84.2871 280.87 82.9009C279.972 82.2491 279.367 81.2719 279.185 80.1795C279.132 79.8993 279.112 79.6139 279.125 79.3291V73.4824C279.133 73.2602 279.112 73.038 279.063 72.8212C279.004 72.6383 279.125 72.4576 279.246 72.4576C279.246 72.5788 279.306 72.6383 279.306 72.7595C279.374 73.4248 279.676 74.0446 280.158 74.5093C280.452 74.8243 280.777 75.1091 281.127 75.3597C287.419 80.0647 293.895 84.6485 300.362 89.1132C301.565 89.9637 302.782 90.7418 303.932 91.5263C304.422 91.9041 304.975 92.192 305.566 92.3768C306.009 92.5276 306.478 92.5893 306.945 92.5583C307.412 92.5273 307.869 92.4042 308.288 92.1961C308.584 92.0593 308.869 91.8986 309.14 91.7156C313.496 88.6328 317.854 85.55 322.21 82.4225C324.617 80.6869 326.383 78.2063 327.233 75.3661C327.361 74.8889 327.462 74.4048 327.535 73.9161C327.412 73.4798 327.386 73.022 327.459 72.5745L327.473 72.5724ZM308.218 113.046H304.596C304.166 113.042 303.755 112.868 303.453 112.563C303.151 112.257 302.981 111.845 302.982 111.416L303.212 98.8081C303.527 98.3675 303.953 98.0176 304.447 97.794L309.485 96.8203C309.532 96.8202 309.579 96.8296 309.622 96.8478C309.666 96.8661 309.705 96.8928 309.738 96.9266C309.772 96.9601 309.798 97 309.816 97.0437C309.834 97.0875 309.843 97.1344 309.843 97.1817V111.426C309.842 111.855 309.672 112.266 309.37 112.57C309.067 112.874 308.657 113.048 308.228 113.053L308.218 113.046Z" fill="#D7E6F4"/>
</svg>
