<svg width="33" height="28" viewBox="0 0 33 28" fill="none" xmlns="http://www.w3.org/2000/svg">
<path fill-rule="evenodd" clip-rule="evenodd" d="M15.364 7.95504C15.364 4.66898 18.0658 1.81641 21.5026 1.81641C24.8062 1.81641 27.6412 4.65143 27.6412 7.95504C27.6412 11.2411 24.9394 14.0937 21.5026 14.0937C17.9324 14.0937 15.364 11.2231 15.364 7.95504ZM21.5026 4.13287C19.3799 4.13287 17.6804 5.91323 17.6804 7.95504C17.6804 10.0148 19.2816 11.7772 21.5026 11.7772C23.6253 11.7772 25.3248 9.99686 25.3248 7.95504C25.3248 5.93078 23.5269 4.13287 21.5026 4.13287ZM4.47656 18.7266C4.47656 15.3072 7.31159 12.4722 10.731 12.4722C14.1505 12.4722 16.9855 15.3072 16.9855 18.7266C16.9855 22.146 14.1505 24.9811 10.731 24.9811C7.17865 24.9811 4.47656 22.1288 4.47656 18.7266ZM10.731 14.7886C8.59093 14.7886 6.79303 16.5865 6.79303 18.7266C6.79303 20.8839 8.49225 22.6646 10.731 22.6646C12.8711 22.6646 14.669 20.8667 14.669 18.7266C14.669 16.5865 12.8711 14.7886 10.731 14.7886Z" fill="#F5A938"/>
<path d="M7.07031 8.68164L12.389 3.36299" stroke="#F5A938" stroke-width="2" stroke-linecap="round" stroke-linejoin="round"/>
<path d="M7.06975 3.95535V8.68303H11.7974" stroke="#F5A938" stroke-width="2" stroke-linecap="round" stroke-linejoin="round"/>
<path d="M25.9883 18.6035L20.2263 23.4384" stroke="#F5A938" stroke-width="2" stroke-linecap="round" stroke-linejoin="round"/>
<path d="M25.5766 23.3135L25.9887 18.6038L21.279 18.1918" stroke="#F5A938" stroke-width="2" stroke-linecap="round" stroke-linejoin="round"/>
</svg>
