<svg width="16" height="16" viewBox="0 0 16 16" fill="none" xmlns="http://www.w3.org/2000/svg">
<g clip-path="url(#clip0_7341_478)">
<path d="M0 6.4C0 4.15982 -2.86819e-08 3.0397 0.435976 2.18404C0.819468 1.43139 1.43139 0.819468 2.18404 0.435976C3.0397 -2.86819e-08 4.15982 0 6.4 0H9.6C11.8402 0 12.9602 -2.86819e-08 13.816 0.435976C14.5686 0.819468 15.1805 1.43139 15.564 2.18404C16 3.0397 16 4.15982 16 6.4V9.6C16 11.8402 16 12.9602 15.564 13.816C15.1805 14.5686 14.5686 15.1805 13.816 15.564C12.9602 16 11.8402 16 9.6 16H6.4C4.15982 16 3.0397 16 2.18404 15.564C1.43139 15.1805 0.819468 14.5686 0.435976 13.816C-2.86819e-08 12.9602 0 11.8402 0 9.6V6.4Z" fill="url(#paint0_linear_7341_478)"/>
<g filter="url(#filter0_d_7341_478)">
<path d="M4.90402 3.39937C5.34742 3.3994 5.79081 3.40003 6.23421 3.39844C6.28071 3.39829 6.29668 3.40888 6.29659 3.45853C6.29511 4.25838 6.29737 5.05823 6.29496 5.85808C6.29364 6.30497 6.22919 6.74139 6.0534 7.15642C5.84847 7.64021 5.51307 8.00578 5.05286 8.25712C4.67232 8.46493 4.26083 8.57327 3.83397 8.6302C3.74444 8.64217 3.6543 8.64987 3.56462 8.66073C3.52895 8.66506 3.51548 8.65384 3.51563 8.61588C3.51686 8.29074 3.51671 7.96557 3.51578 7.64042C3.51569 7.60752 3.52784 7.596 3.55933 7.58984C3.74417 7.55363 3.92955 7.51221 4.08564 7.40151C4.40928 7.172 4.61674 6.87089 4.63391 6.461C4.63719 6.38283 4.63671 6.30448 4.64173 6.22647C4.64462 6.18205 4.62802 6.17098 4.58555 6.17116C4.25169 6.17266 3.91785 6.172 3.58399 6.172C3.53896 6.172 3.51644 6.14906 3.51641 6.10319C3.51644 5.22509 3.51644 4.34701 3.5165 3.46891C3.51653 3.42265 3.53911 3.39949 3.58429 3.39937C4.0242 3.39934 4.46411 3.39937 4.90402 3.39937Z" fill="white"/>
</g>
</g>
<defs>
<filter id="filter0_d_7341_478" x="2.71563" y="2.89844" width="4.78125" height="7.26172" filterUnits="userSpaceOnUse" color-interpolation-filters="sRGB">
<feFlood flood-opacity="0" result="BackgroundImageFix"/>
<feColorMatrix in="SourceAlpha" type="matrix" values="0 0 0 0 0 0 0 0 0 0 0 0 0 0 0 0 0 0 127 0" result="hardAlpha"/>
<feOffset dx="0.2" dy="0.5"/>
<feGaussianBlur stdDeviation="0.5"/>
<feComposite in2="hardAlpha" operator="out"/>
<feColorMatrix type="matrix" values="0 0 0 0 0 0 0 0 0 0 0 0 0 0 0 0 0 0 0.25 0"/>
<feBlend mode="normal" in2="BackgroundImageFix" result="effect1_dropShadow_7341_478"/>
<feBlend mode="normal" in="SourceGraphic" in2="effect1_dropShadow_7341_478" result="shape"/>
</filter>
<linearGradient id="paint0_linear_7341_478" x1="3.62704" y1="0.527368" x2="11.5278" y2="15.7239" gradientUnits="userSpaceOnUse">
<stop stop-color="#33343B"/>
<stop offset="1" stop-color="#18191E"/>
</linearGradient>
<clipPath id="clip0_7341_478">
<rect width="16" height="16" fill="white"/>
</clipPath>
</defs>
</svg>
