<svg width="24" height="24" viewBox="0 0 24 24" fill="none" xmlns="http://www.w3.org/2000/svg">
<path d="M12.0019 7.48296L12 7.48296M22 12C22 17.5228 17.5228 22 12 22C6.47715 22 2 17.5228 2 12C2 6.47715 6.47715 2 12 2C17.5228 2 22 6.47715 22 12Z" stroke="white" stroke-width="1.5"/>
<path d="M12.006 18.8C12.3681 18.8 12.6356 18.5954 12.6356 18.1546V17.4306C14.6977 17.2181 15.9727 16.006 15.9727 14.2431C15.9727 12.7241 15.0676 11.7954 13.1472 11.3468L11.4787 10.9454C10.4792 10.7171 9.96759 10.1977 9.96759 9.47362C9.96759 8.56853 10.7389 7.9389 11.9352 7.9389C12.8875 7.9389 13.5329 8.27733 14.2176 9.12733C14.5403 9.5051 14.7685 9.63103 15.0833 9.63103C15.4769 9.63103 15.7681 9.36344 15.7681 8.94631C15.7681 8.51344 15.5005 8.0176 15.044 7.58473C14.4773 7.03381 13.6352 6.67964 12.6986 6.55372V5.84538C12.6986 5.40464 12.4153 5.20001 12.0532 5.20001C11.6912 5.20001 11.4157 5.40464 11.4157 5.84538V6.5301C9.44815 6.71112 8.18889 7.89168 8.18889 9.59168C8.18889 11.0556 9.10972 12.0708 10.8255 12.4722L12.5176 12.8894C13.706 13.1806 14.2019 13.6292 14.2019 14.4005C14.2019 15.4 13.4227 16.0218 12.069 16.0218C11.038 16.0218 10.2509 15.644 9.53472 14.794C9.16481 14.3769 8.99954 14.2982 8.73194 14.2982C8.30694 14.2982 8 14.5736 8 15.038C8 15.5023 8.2912 16.006 8.78704 16.431C9.4088 16.9741 10.3375 17.3283 11.3606 17.4227V18.1546C11.3606 18.5954 11.6361 18.8 12.006 18.8Z" fill="white"/>
</svg>
