<svg width="24" height="24" viewBox="0 0 24 24" fill="none" xmlns="http://www.w3.org/2000/svg">
<path d="M12.0003 24C18.6276 24 24 18.6276 24 12.0003C24 5.37237 18.6276 0 12.0003 0C5.37237 0 0 5.37237 0 12.0003C0 18.6276 5.37237 24 12.0003 24Z" fill="#87F1CB" fill-opacity="0.2"/>
<g filter="url(#filter0_d_7350_459)">
<path d="M12.0045 17.9803C15.3074 17.9803 17.9849 15.3029 17.9849 11.9999C17.9849 8.69701 15.3074 6.01953 12.0045 6.01953C8.70157 6.01953 6.02344 8.69701 6.02344 11.9999C6.02344 15.3029 8.70157 17.9803 12.0045 17.9803Z" fill="url(#paint0_linear_7350_459)"/>
</g>
<path d="M14.6443 9.87198L14.6584 9.88606L14.6443 9.87198L10.8533 13.6583L9.40466 12.2116C9.34097 12.1479 9.25517 12.1124 9.16534 12.1124C9.07618 12.1124 8.99036 12.1479 8.92667 12.2116L8.94075 12.2257L8.92667 12.2116C8.89583 12.2424 8.87035 12.28 8.8536 12.3208C8.83684 12.3617 8.82812 12.4053 8.82812 12.4496C8.82812 12.4938 8.83684 12.5381 8.8536 12.5789C8.87035 12.6198 8.89583 12.6567 8.92667 12.6882L10.6147 14.3735C10.6777 14.4365 10.7635 14.4721 10.8533 14.4721C10.9425 14.4721 11.0283 14.4365 11.092 14.3735L15.1223 10.3486C15.1531 10.3178 15.1779 10.2802 15.1953 10.2394C15.2121 10.1985 15.2208 10.1549 15.2208 10.1106C15.2208 10.0664 15.2121 10.0221 15.1953 9.98125C15.1779 9.94036 15.1531 9.90349 15.1223 9.87198C15.0586 9.80897 14.9728 9.77344 14.8829 9.77344C14.7938 9.77344 14.708 9.80897 14.6443 9.87198Z" fill="white"/>
<path d="M14.6443 9.87198L14.6584 9.88606L14.6443 9.87198ZM14.6443 9.87198L10.8533 13.6583L9.40466 12.2116C9.34097 12.1479 9.25517 12.1124 9.16534 12.1124C9.07618 12.1124 8.99036 12.1479 8.92667 12.2116L8.94075 12.2257L8.92667 12.2116C8.89583 12.2424 8.87035 12.28 8.8536 12.3208C8.83684 12.3617 8.82812 12.4053 8.82812 12.4496C8.82812 12.4938 8.83684 12.5381 8.8536 12.5789C8.87035 12.6198 8.89583 12.6567 8.92667 12.6882L10.6147 14.3735C10.6777 14.4365 10.7635 14.4721 10.8533 14.4721C10.9425 14.4721 11.0283 14.4365 11.092 14.3735L15.1223 10.3486C15.1531 10.3178 15.1779 10.2802 15.1953 10.2394C15.2121 10.1985 15.2208 10.1549 15.2208 10.1106C15.2208 10.0664 15.2121 10.0221 15.1953 9.98125C15.1779 9.94036 15.1531 9.90349 15.1223 9.87198C15.0586 9.80897 14.9728 9.77344 14.8829 9.77344C14.7938 9.77344 14.708 9.80897 14.6443 9.87198Z" stroke="white" stroke-width="0.3"/>
<defs>
<filter id="filter0_d_7350_459" x="3.02344" y="4.01953" width="17.9609" height="17.9609" filterUnits="userSpaceOnUse" color-interpolation-filters="sRGB">
<feFlood flood-opacity="0" result="BackgroundImageFix"/>
<feColorMatrix in="SourceAlpha" type="matrix" values="0 0 0 0 0 0 0 0 0 0 0 0 0 0 0 0 0 0 127 0" result="hardAlpha"/>
<feOffset dy="1"/>
<feGaussianBlur stdDeviation="1.5"/>
<feColorMatrix type="matrix" values="0 0 0 0 0 0 0 0 0 0 0 0 0 0 0 0 0 0 0.25 0"/>
<feBlend mode="normal" in2="BackgroundImageFix" result="effect1_dropShadow_7350_459"/>
<feBlend mode="normal" in="SourceGraphic" in2="effect1_dropShadow_7350_459" result="shape"/>
</filter>
<linearGradient id="paint0_linear_7350_459" x1="7.95813" y1="20.3072" x2="16.0918" y2="6.97347" gradientUnits="userSpaceOnUse">
<stop stop-color="#37B992"/>
<stop offset="1" stop-color="#35D6A7"/>
</linearGradient>
</defs>
</svg>
