<svg id="Layer_1" data-name="Layer 1" xmlns="http://www.w3.org/2000/svg" viewBox="0 0 246.243 246.243"><circle cx="123.122" cy="123.122" r="123.122" style="fill:#202628"/><path d="M70.609,107.586h8.344c1.92,0,3.476,1.17,3.476,2.613v6.273c0,1.443-1.556,2.614-3.476,2.614H70.609c-1.92,0-3.477-1.171-3.477-2.614V110.2C67.132,108.756,68.689,107.586,70.609,107.586Z" style="fill:#e84970"/><path d="M70.609,159.04h8.344c1.92,0,3.476,1.17,3.476,2.613v6.273c0,1.443-1.556,2.614-3.476,2.614H70.609c-1.92,0-3.477-1.171-3.477-2.614v-6.273C67.132,160.21,68.689,159.04,70.609,159.04Z" style="fill:#e84970"/><path d="M70.609,81.859h8.344c1.92,0,3.476,1.17,3.476,2.613v6.273c0,1.443-1.556,2.614-3.476,2.614H70.609c-1.92,0-3.477-1.171-3.477-2.614V84.472C67.132,83.029,68.689,81.859,70.609,81.859Z" style="fill:#0ccdd2"/><path d="M70.609,133.313h8.344c1.92,0,3.476,1.17,3.476,2.613V142.2c0,1.443-1.556,2.614-3.476,2.614H70.609c-1.92,0-3.477-1.171-3.477-2.614v-6.273C67.132,134.483,68.689,133.313,70.609,133.313Z" style="fill:#0ccdd2"/><path d="M96.167,79.992h78.345c1.827,0,3.308,1.113,3.308,2.487v6.526c0,1.373-1.481,2.487-3.308,2.487H96.167c-1.827,0-3.308-1.114-3.308-2.487V82.479C92.859,81.105,94.34,79.992,96.167,79.992Z" style="fill:#0ccdd2"/><path d="M97.439,108.556h78.344c1.827,0,3.309,1.114,3.309,2.487v6.526c0,1.374-1.482,2.487-3.309,2.487H97.439c-1.827,0-3.308-1.113-3.308-2.487v-6.526C94.131,109.67,95.612,108.556,97.439,108.556Z" style="fill:#e84970"/><path d="M96.336,133.313h36.157c1.92,0,3.476,1.17,3.476,2.613V142.2c0,1.443-1.556,2.614-3.476,2.614H96.336c-1.92,0-3.477-1.171-3.477-2.614v-6.273C92.859,134.483,94.416,133.313,96.336,133.313Z" style="fill:#0ccdd2"/><path d="M96.336,159.04h36.157c1.92,0,3.476,1.17,3.476,2.613v6.273c0,1.443-1.556,2.614-3.476,2.614H96.336c-1.92,0-3.477-1.171-3.477-2.614v-6.273C92.859,160.21,94.416,159.04,96.336,159.04Z" style="fill:#e84970"/></svg>