<svg width="16" height="16" viewBox="0 0 16 16" fill="none" xmlns="http://www.w3.org/2000/svg">
<path d="M14.1665 9.83333C14.1665 9.46513 13.868 9.16667 13.4998 9.16667H12.6665M12.6665 9.16667H11.8332C11.465 9.16667 11.1665 9.46513 11.1665 9.83333V10.4652C11.1665 10.7777 11.3835 11.0482 11.6886 11.116L13.6444 11.5507C13.9495 11.6185 14.1665 11.889 14.1665 12.2015V12.8333C14.1665 13.2015 13.868 13.5 13.4998 13.5H12.6665M12.6665 9.16667V8.5M11.1665 12.82V12.8333C11.1665 13.2015 11.465 13.5 11.8332 13.5H12.6665M12.6665 13.5V14.1667" stroke="#F5A938" stroke-linecap="round" stroke-linejoin="round"/>
<path d="M5.16667 2.5V3.83333M10.8333 2.5V3.83333M13.5 6V4.83333C13.5 4.28105 13.0523 3.83333 12.5 3.83333H3.5C2.94771 3.83333 2.5 4.28105 2.5 4.83333V12.5C2.5 13.0523 2.94771 13.5 3.5 13.5H8.66667" stroke="#F5A938" stroke-linecap="round" stroke-linejoin="round"/>
</svg>
