<svg width="116" height="16" viewBox="0 0 116 16" fill="none" xmlns="http://www.w3.org/2000/svg">
<path d="M7.21494 15.6992V9.43044C7.21494 8.79329 7.18549 8.11362 8.16915 7.52264C9.15246 6.93166 13.8927 4.25195 13.8927 4.25195C14.0717 4.5874 14.1653 4.96176 14.1653 5.34197V10.3843C14.1653 11.6235 13.8113 12.1755 13.2111 12.5649C12.6113 12.9544 9.00588 15.0775 8.30528 15.4259C7.60435 15.7748 7.21494 15.6992 7.21494 15.6992Z" fill="#4E5FFF" fill-opacity="0.37"/>
<path d="M5.26941 0.772922C5.19543 0.816844 5.14173 0.88813 5.11993 0.971351C5.09812 1.05458 5.10996 1.14305 5.1529 1.2176C5.19583 1.29216 5.2664 1.3468 5.34933 1.36972C5.43226 1.39262 5.52087 1.38196 5.59599 1.34002L5.26941 0.772922ZM6.19384 0.618143L6.03023 0.334432L6.19384 0.618143ZM7.28188 0.327232V0V0.327232ZM8.36994 0.618143L8.20632 0.901529V0.901849L8.36994 0.618143ZM13.1436 3.36689L13.3068 3.08317L13.1436 3.36689ZM14.2362 5.25633H14.5635H14.2362ZM14.2362 10.7434H13.909H14.2362ZM13.1436 12.6328L12.9803 12.3494L13.1436 12.6328ZM8.36961 15.3819L8.53323 15.6652L8.36961 15.3819ZM7.28156 15.6728V15.3455V15.6728ZM6.19352 15.3819L6.35713 15.0981L6.19352 15.3819ZM1.41986 12.6332L1.25624 12.9168L1.41986 12.6332ZM0.327232 10.7436H0H0.327232ZM0.327232 5.25665H0H0.327232ZM1.41986 3.36721L1.25624 3.0835L1.41986 3.36721ZM4.45886 1.9948C4.4967 1.97368 4.52996 1.94524 4.55673 1.91116C4.58349 1.87707 4.60322 1.838 4.61476 1.79623C4.6263 1.75445 4.62942 1.7108 4.62396 1.66781C4.61849 1.62482 4.60454 1.58334 4.58292 1.54579C4.56129 1.50822 4.53241 1.47534 4.49797 1.44903C4.46353 1.42273 4.4242 1.40353 4.38228 1.39254C4.34036 1.38156 4.29667 1.37901 4.25375 1.38505C4.21084 1.39108 4.16955 1.40559 4.13228 1.42772L4.45886 1.9948ZM5.59599 1.34002L6.35713 0.901529L6.03055 0.334432L5.26941 0.772922L5.59599 1.34002ZM6.35713 0.901529C6.63848 0.739737 6.95733 0.654548 7.28188 0.654464V0C6.8427 7.50179e-05 6.41123 0.115393 6.03055 0.334432L6.35713 0.901529ZM7.28188 0.654464C7.60651 0.654464 7.92523 0.739873 8.20665 0.901529L8.53323 0.334432C8.15255 0.115407 7.72108 9.03084e-05 7.28188 0V0.654464ZM8.20665 0.901849L12.9803 3.65027L13.3068 3.08317L8.53323 0.334432L8.20665 0.901849ZM12.9803 3.65027C13.2626 3.81279 13.4971 4.0469 13.66 4.32895L14.2268 4.00139C14.0061 3.61981 13.6889 3.30311 13.3068 3.08317L12.9803 3.65027ZM13.66 4.32895C13.8229 4.61069 13.909 4.93073 13.909 5.25633H14.5635C14.5635 4.81555 14.4473 4.38261 14.2268 4.00139L13.66 4.32895ZM13.909 5.25633V10.7434H14.5635V5.25633H13.909ZM13.909 10.7434C13.909 11.069 13.8233 11.389 13.66 11.671L14.2268 11.9986C14.4473 11.6171 14.5635 11.1841 14.5635 10.7434H13.909ZM13.66 11.671C13.4969 11.953 13.2625 12.1869 12.9803 12.3494L13.3068 12.9165C13.6888 12.6966 14.006 12.38 14.2268 11.9986L13.66 11.671ZM12.9803 12.3494L8.20632 15.0981L8.5329 15.6652L13.3068 12.9165L12.9803 12.3494ZM8.20632 15.0981C7.92505 15.2602 7.60616 15.3455 7.28156 15.3455V16C7.7208 16 8.15233 15.8845 8.5329 15.6652L8.20632 15.0981ZM7.28156 15.3455C6.95696 15.3455 6.63807 15.2602 6.3568 15.0981L6.03023 15.6652C6.41081 15.8845 6.84233 16 7.28156 16V15.3455ZM6.3568 15.0981L1.58315 12.3494L1.25657 12.9168L6.03023 15.6652L6.3568 15.0981ZM1.58315 12.3494C1.30086 12.187 1.06642 11.9531 0.903484 11.671L0.336721 11.9986C0.55722 12.3802 0.874376 12.6969 1.25624 12.9168L1.58315 12.3494ZM0.903484 11.671C0.740512 11.3892 0.65473 11.0692 0.65479 10.7436H0.000327052C0.000327052 11.1841 0.116167 11.6171 0.336721 11.9986L0.903484 11.671ZM0.65479 10.7436V5.25665H0.000327052V10.7436H0.65479ZM0.65479 5.25665C0.65479 4.93106 0.740526 4.61102 0.903484 4.32927L0.336721 4.00172C0.116172 4.38318 3.28959e-05 4.81602 0 5.25665H0.654464H0.65479ZM0.903484 4.32927C1.06642 4.0473 1.30086 3.81331 1.58315 3.65092L1.25657 3.0835C0.874703 3.30346 0.557547 3.62017 0.337048 4.00172L0.903164 4.32927H0.903484ZM1.58315 3.65092L4.45886 1.9948L4.13228 1.42772L1.25657 3.0835L1.58315 3.65092Z" fill="#465EDE"/>
<path d="M6.95117 15.4997C6.95117 15.5866 6.98565 15.6698 7.04702 15.7311C7.10839 15.7925 7.19162 15.827 7.27841 15.827C7.36519 15.827 7.44843 15.7925 7.50979 15.7311C7.57116 15.6698 7.60563 15.5866 7.60563 15.4997H6.95117ZM7.60563 14.5632C7.60563 14.4764 7.57116 14.3932 7.50979 14.3318C7.44843 14.2705 7.36519 14.236 7.27841 14.236C7.19162 14.236 7.10839 14.2705 7.04702 14.3318C6.98565 14.3932 6.95117 14.4764 6.95117 14.5632H7.60563ZM6.95117 13.3285C6.95117 13.4154 6.98565 13.4986 7.04702 13.56C7.10839 13.6213 7.19162 13.6558 7.27841 13.6558C7.36519 13.6558 7.44843 13.6213 7.50979 13.56C7.57116 13.4986 7.60563 13.4154 7.60563 13.3285H6.95117ZM7.60563 11.7415C7.60563 11.6547 7.57116 11.5715 7.50979 11.5101C7.44843 11.4487 7.36519 11.4142 7.27841 11.4142C7.19162 11.4142 7.10839 11.4487 7.04702 11.5101C6.98565 11.5715 6.95117 11.6547 6.95117 11.7415H7.60563ZM6.95117 10.0187C6.95117 10.1054 6.98565 10.1886 7.04702 10.25C7.10839 10.3114 7.19162 10.3459 7.27841 10.3459C7.36519 10.3459 7.44843 10.3114 7.50979 10.25C7.57116 10.1886 7.60563 10.1054 7.60563 10.0187H6.95117ZM7.27841 9.02942H6.95117H7.27841ZM8.09779 7.61249L8.26141 7.89587L8.26207 7.89555L8.09779 7.61249ZM14.0561 4.53487C14.0939 4.51372 14.1273 4.48522 14.1541 4.45105C14.1809 4.41688 14.2006 4.37771 14.2121 4.33584C14.2236 4.29397 14.2267 4.25022 14.2211 4.20715C14.2155 4.16408 14.2015 4.12255 14.1797 4.08498C14.1579 4.04742 14.1289 4.01455 14.0943 3.98832C14.0596 3.96209 14.0201 3.94301 13.9781 3.93219C13.9361 3.92137 13.8922 3.91903 13.8493 3.92532C13.8063 3.93159 13.765 3.94637 13.7278 3.96877L14.0561 4.53487ZM7.60563 15.4997V14.5632H6.95117V15.4997H7.60563ZM6.95117 11.7415V13.3285H7.60563V11.7415H6.95117ZM7.60563 10.0187V9.02942H6.95117V10.0187H7.60563ZM7.60563 9.02942C7.60563 8.79969 7.66618 8.5739 7.78136 8.37494L7.21459 8.04738C7.042 8.34588 6.95114 8.6846 6.95117 9.02942H7.60563ZM7.78136 8.37494C7.89637 8.17585 8.06184 8.01061 8.26108 7.89587L7.93451 7.32878C7.63554 7.50086 7.38723 7.74873 7.21459 8.04738L7.78136 8.37494ZM8.26207 7.89555L14.0561 4.53487L13.7278 3.96877L7.93353 7.32943L8.26207 7.89555Z" fill="#465EDE"/>
<path d="M16.4004 7.72461H30.2254" stroke="url(#paint0_linear_7229_495)" stroke-opacity="0.62" stroke-width="0.8" stroke-linecap="round" stroke-dasharray="2 2"/>
<path d="M36.1792 4.09961L38.3382 10.2217H38.4235L40.5826 4.09961H41.5059L38.8354 11.3723H37.9263L35.2559 4.09961H36.1792Z" fill="#E2E2E2"/>
<path d="M43.812 11.3723H42.8887L45.5591 4.09961H46.4682L49.1387 11.3723H48.2154L46.0421 5.25017H45.9853L43.812 11.3723ZM44.1529 8.53142H47.8745V9.31272H44.1529V8.53142Z" fill="#E2E2E2"/>
<path d="M51.7715 11.3723V4.09961H52.6522V10.5911H56.0328V11.3723H51.7715Z" fill="#E2E2E2"/>
<path d="M63.6692 4.09961H64.5499V8.91492C64.5499 9.41212 64.4327 9.85602 64.1983 10.2466C63.9663 10.6349 63.6384 10.9414 63.2147 11.1663C62.7909 11.3889 62.2937 11.5002 61.7232 11.5002C61.1526 11.5002 60.6555 11.3889 60.2317 11.1663C59.8079 10.9414 59.4789 10.6349 59.2445 10.2466C59.0125 9.85602 58.8965 9.41212 58.8965 8.91492V4.09961H59.7772V8.84392C59.7772 9.19902 59.8553 9.51512 60.0115 9.79212C60.1678 10.0667 60.3903 10.2833 60.6792 10.4419C60.9703 10.5982 61.3184 10.6763 61.7232 10.6763C62.128 10.6763 62.476 10.5982 62.7672 10.4419C63.0584 10.2833 63.281 10.0667 63.4348 9.79212C63.5911 9.51512 63.6692 9.19902 63.6692 8.84392V4.09961Z" fill="#E2E2E2"/>
<path d="M67.8086 11.3723V4.09961H72.1978V4.88086H68.6893V7.33824H71.9705V8.11949H68.6893V10.5911H72.2546V11.3723H67.8086Z" fill="#E2E2E2"/>
<path d="M85.4508 6.37216H84.5701C84.5181 6.11885 84.4269 5.89631 84.2967 5.70455C84.1689 5.51279 84.0126 5.3518 83.828 5.22159C83.6457 5.08902 83.4433 4.98959 83.2207 4.9233C82.9982 4.85701 82.7662 4.82387 82.5247 4.82387C82.0844 4.82387 81.6854 4.93514 81.328 5.15767C80.9728 5.38021 80.6899 5.7081 80.4792 6.14134C80.2709 6.57458 80.1667 7.10606 80.1667 7.7358C80.1667 8.36553 80.2709 8.89705 80.4792 9.33025C80.6899 9.76345 80.9728 10.0914 81.328 10.314C81.6854 10.5365 82.0844 10.6478 82.5247 10.6478C82.7662 10.6478 82.9982 10.6146 83.2207 10.5483C83.4433 10.4821 83.6457 10.3838 83.828 10.2536C84.0126 10.121 84.1689 9.95885 84.2967 9.76705C84.4269 9.57295 84.5181 9.35035 84.5701 9.09945H85.4508C85.3845 9.47115 85.2638 9.80375 85.0886 10.0974C84.9134 10.3909 84.6956 10.6407 84.4352 10.8466C84.1748 11.0502 83.8824 11.2052 83.5581 11.3117C83.2361 11.4183 82.8916 11.4716 82.5247 11.4716C81.9044 11.4716 81.3528 11.3201 80.8699 11.0171C80.3869 10.7141 80.0069 10.2832 79.7299 9.72445C79.453 9.16575 79.3145 8.50285 79.3145 7.7358C79.3145 6.96875 79.453 6.30587 79.7299 5.74716C80.0069 5.18845 80.3869 4.75758 80.8699 4.45455C81.3528 4.15152 81.9044 4 82.5247 4C82.8916 4 83.2361 4.05327 83.5581 4.1598C83.8824 4.26634 84.1748 4.42259 84.4352 4.62855C84.6956 4.83215 84.9134 5.08073 85.0886 5.37429C85.2638 5.66549 85.3845 5.99811 85.4508 6.37216Z" fill="#E2E2E2"/>
<path d="M88.373 11.3723V4.09961H89.2537V7.33824H93.1316V4.09961H94.0123V11.3723H93.1316V8.11949H89.2537V11.3723H88.373Z" fill="#E2E2E2"/>
<path d="M97.5737 11.3723H96.6504L99.321 4.09961H100.23L102.9 11.3723H101.977L99.804 5.25017H99.747L97.5737 11.3723ZM97.9146 8.53142H101.636V9.31272H97.9146V8.53142Z" fill="#E2E2E2"/>
<path d="M106.414 4.09961V11.3723H105.533V4.09961H106.414Z" fill="#E2E2E2"/>
<path d="M115.447 4.09961V11.3723H114.594L110.631 5.66211H110.56V11.3723H109.68V4.09961H110.532L114.509 9.82402H114.58V4.09961H115.447Z" fill="#E2E2E2"/>
<defs>
<linearGradient id="paint0_linear_7229_495" x1="16" y1="7.49999" x2="37" y2="7.49999" gradientUnits="userSpaceOnUse">
<stop stop-color="#465EDE"/>
<stop offset="1" stop-color="white" stop-opacity="0"/>
</linearGradient>
</defs>
</svg>
