<svg width="24" height="24" viewBox="0 0 24 24" fill="none" xmlns="http://www.w3.org/2000/svg">
<path d="M5.02764 10.0693V14.0661M18.902 10.0693V14.0661M3.99072 19.1146H19.9999C21.1045 19.1146 21.9999 18.2191 21.9999 17.1146V7.02081C21.9999 5.91624 21.1045 5.02081 19.9999 5.02081H3.99072C2.88615 5.02081 1.99072 5.91624 1.99072 7.02081V17.1146C1.99072 18.2191 2.88615 19.1146 3.99072 19.1146ZM14.9424 12C14.9424 13.6251 13.625 14.9425 11.9999 14.9425C10.3748 14.9425 9.05743 13.6251 9.05743 12C9.05743 10.3749 10.3748 9.05749 11.9999 9.05749C13.625 9.05749 14.9424 10.3749 14.9424 12Z" stroke="white" stroke-width="1.5" stroke-linecap="round" stroke-linejoin="round"/>
</svg>
