<svg width="203" height="25" viewBox="0 0 203 25" fill="none" xmlns="http://www.w3.org/2000/svg">
<path d="M20 14C18.3431 14 17 15.3431 17 17C17 18.6569 18.3431 20 20 20C21.6569 20 23 18.6569 23 17C23 15.3431 21.6569 14 20 14ZM21.5304 16.6562L19.9619 18.2247C19.8734 18.3132 19.7533 18.3629 19.6282 18.3629C19.503 18.3629 19.383 18.3132 19.2945 18.2247L18.4696 17.3999C18.2853 17.2156 18.2853 16.9168 18.4696 16.7325C18.6539 16.5482 18.9527 16.5482 19.137 16.7325L19.6282 17.2237L20.863 15.9889C21.0473 15.8046 21.3461 15.8046 21.5304 15.9889C21.7147 16.1731 21.7147 16.4719 21.5304 16.6562Z" fill="#58D244"/>
<path fill-rule="evenodd" clip-rule="evenodd" d="M11.546 8.59435C11.546 6.60826 13.1543 5 15.1403 5C17.1264 5 18.7347 6.60826 18.7347 8.59435C18.7347 10.5804 17.1264 12.1887 15.1403 12.1887C13.2419 12.1887 11.546 10.5931 11.546 8.59435ZM15.1403 10.691C16.2993 10.691 17.237 9.75331 17.237 8.59435C17.237 7.43538 16.2993 6.49764 15.1403 6.49764C13.9814 6.49764 13.0436 7.43538 13.0436 8.59435C13.0436 9.74065 14.0435 10.691 15.1403 10.691ZM14.6911 14.5849C12.4014 14.5849 10.4976 16.4286 10.4976 18.7783C10.4976 19.1919 10.1624 19.5272 9.74882 19.5272C9.33526 19.5272 9 19.1919 9 18.7783C9 15.5868 11.5891 13.0873 14.6911 13.0873C15.4721 13.0873 16.2357 13.2599 16.9009 13.5094C17.2881 13.6546 17.4843 14.0862 17.3391 14.4734C17.1939 14.8607 16.7623 15.0569 16.3751 14.9117C15.8421 14.7118 15.2578 14.5849 14.6911 14.5849Z" fill="black"/>
<path opacity="0.3" d="M198.097 0H4.90338C2.19532 0 0 2.23858 0 5V20C0 22.7614 2.19532 25 4.90338 25H198.097C200.805 25 203 22.7614 203 20V5C203 2.23858 200.805 0 198.097 0Z" fill="#6166DC"/>
<path opacity="0.3" d="M32 0H31V25H32V0Z" fill="#6166DC"/>
<path d="M48.4542 11.5783C48.4045 11.4055 48.3346 11.2528 48.2447 11.1203C48.1547 10.9853 48.0446 10.8717 47.9144 10.7793C47.7866 10.6846 47.6398 10.6124 47.4741 10.5627C47.3107 10.513 47.1296 10.4881 46.9308 10.4881C46.5591 10.4881 46.2324 10.5805 45.9506 10.7651C45.6713 10.9498 45.4535 11.2185 45.2972 11.5712C45.141 11.9216 45.0629 12.3501 45.0629 12.8568C45.0629 13.3634 45.1398 13.7943 45.2937 14.1494C45.4476 14.5045 45.6654 14.7756 45.9471 14.9626C46.2288 15.1472 46.5614 15.2396 46.945 15.2396C47.293 15.2396 47.5901 15.178 47.8363 15.0549C48.0849 14.9294 48.2743 14.7531 48.4045 14.5258C48.5371 14.2985 48.6033 14.0298 48.6033 13.7197L48.9158 13.7658H47.0408V12.6082H50.0842V13.5244C50.0842 14.1636 49.9492 14.7128 49.6793 15.1721C49.4094 15.629 49.0378 15.9818 48.5643 16.2303C48.0908 16.4765 47.5487 16.5997 46.9379 16.5997C46.256 16.5997 45.6571 16.4493 45.141 16.1487C44.6249 15.8456 44.2224 15.4159 43.9336 14.8596C43.6471 14.3009 43.5039 13.638 43.5039 12.871C43.5039 12.2815 43.5891 11.7559 43.7596 11.2943C43.9324 10.8302 44.1739 10.4372 44.484 10.1153C44.7942 9.79331 45.1552 9.54828 45.5671 9.38019C45.979 9.21211 46.4253 9.12806 46.9059 9.12806C47.3178 9.12806 47.7013 9.18843 48.0565 9.30917C48.4116 9.42754 48.7264 9.59563 49.0011 9.81343C49.2781 10.0312 49.5041 10.2905 49.6793 10.5911C49.8545 10.8894 49.967 11.2185 50.0167 11.5783H48.4542Z" fill="#383A62"/>
<path d="M53.8752 16.6068C53.3236 16.6068 52.8466 16.4896 52.4441 16.2552C52.044 16.0185 51.7351 15.6894 51.5173 15.268C51.2995 14.8442 51.1906 14.353 51.1906 13.7943C51.1906 13.2308 51.2995 12.7384 51.5173 12.317C51.7351 11.8932 52.044 11.5641 52.4441 11.3298C52.8466 11.093 53.3236 10.9747 53.8752 10.9747C54.4269 10.9747 54.9027 11.093 55.3028 11.3298C55.7053 11.5641 56.0154 11.8932 56.2332 12.317C56.451 12.7384 56.5599 13.2308 56.5599 13.7943C56.5599 14.353 56.451 14.8442 56.2332 15.268C56.0154 15.6894 55.7053 16.0185 55.3028 16.2552C54.9027 16.4896 54.4269 16.6068 53.8752 16.6068ZM53.8824 15.4349C54.1333 15.4349 54.3428 15.3639 54.5109 15.2218C54.679 15.0774 54.8056 14.8809 54.8909 14.6323C54.9785 14.3837 55.0223 14.1008 55.0223 13.7836C55.0223 13.4664 54.9785 13.1835 54.8909 12.9349C54.8056 12.6863 54.679 12.4898 54.5109 12.3454C54.3428 12.201 54.1333 12.1288 53.8824 12.1288C53.629 12.1288 53.416 12.201 53.2431 12.3454C53.0727 12.4898 52.9437 12.6863 52.8561 12.9349C52.7708 13.1835 52.7282 13.4664 52.7282 13.7836C52.7282 14.1008 52.7708 14.3837 52.8561 14.6323C52.9437 14.8809 53.0727 15.0774 53.2431 15.2218C53.416 15.3639 53.629 15.4349 53.8824 15.4349Z" fill="#383A62"/>
<path d="M62.653 11.0457L60.7461 16.5002H59.0415L57.1346 11.0457H58.7326L59.8654 14.9484H59.9222L61.0515 11.0457H62.653Z" fill="#383A62"/>
<path d="M65.9372 16.6068C65.3761 16.6068 64.8931 16.4931 64.4883 16.2658C64.0859 16.0362 63.7757 15.7119 63.5579 15.2928C63.3401 14.8714 63.2312 14.3731 63.2312 13.7978C63.2312 13.2367 63.3401 12.7443 63.5579 12.3205C63.7757 11.8968 64.0823 11.5665 64.4777 11.3298C64.8754 11.093 65.3418 10.9747 65.8768 10.9747C66.2367 10.9747 66.5717 11.0327 66.8818 11.1487C67.1943 11.2623 67.4665 11.4339 67.6985 11.6636C67.9329 11.8932 68.1152 12.182 68.2454 12.5301C68.3756 12.8757 68.4407 13.2805 68.4407 13.7445V14.16H63.8349V13.2225H67.0167C67.0167 13.0047 66.9694 12.8118 66.8747 12.6437C66.78 12.4756 66.6486 12.3442 66.4805 12.2495C66.3148 12.1524 66.1218 12.1039 65.9017 12.1039C65.672 12.1039 65.4684 12.1572 65.2909 12.2637C65.1157 12.3679 64.9784 12.5087 64.8789 12.6863C64.7795 12.8615 64.7286 13.0568 64.7262 13.2722V14.1636C64.7262 14.4335 64.776 14.6667 64.8754 14.8631C64.9772 15.0596 65.1204 15.2112 65.3051 15.3177C65.4897 15.4242 65.7087 15.4775 65.962 15.4775C66.1301 15.4775 66.284 15.4538 66.4237 15.4065C66.5634 15.3591 66.6829 15.2881 66.7824 15.1934C66.8818 15.0987 66.9575 14.9827 67.0096 14.8454L68.4088 14.9377C68.3377 15.2739 68.1922 15.5675 67.972 15.8184C67.7542 16.067 67.4725 16.2611 67.1268 16.4008C66.7835 16.5381 66.387 16.6068 65.9372 16.6068Z" fill="#383A62"/>
<path d="M69.6279 16.5002V11.0457H71.0946V11.9974H71.1514C71.2508 11.6588 71.4177 11.4032 71.6521 11.2303C71.8865 11.0551 72.1564 10.9676 72.4618 10.9676C72.5375 10.9676 72.6192 10.9723 72.7068 10.9818C72.7944 10.9912 72.8713 11.0042 72.9376 11.0208V12.3631C72.8666 12.3418 72.7683 12.3229 72.6429 12.3063C72.5174 12.2898 72.4026 12.2815 72.2984 12.2815C72.0759 12.2815 71.877 12.33 71.7018 12.4271C71.529 12.5218 71.3917 12.6543 71.2899 12.8248C71.1904 12.9953 71.1407 13.1917 71.1407 13.4143V16.5002H69.6279Z" fill="#383A62"/>
<path d="M75.4325 13.3468V16.5002H73.9197V11.0457H75.3615V12.008H75.4254C75.5462 11.6908 75.7486 11.4399 76.0327 11.2552C76.3168 11.0682 76.6612 10.9747 77.0661 10.9747C77.4448 10.9747 77.7751 11.0575 78.0568 11.2232C78.3385 11.389 78.5575 11.6257 78.7138 11.9335C78.87 12.2389 78.9482 12.6034 78.9482 13.0272V16.5002H77.4354V13.2971C77.4377 12.9633 77.3525 12.7029 77.1797 12.5158C77.0069 12.3265 76.7689 12.2318 76.4659 12.2318C76.2623 12.2318 76.0824 12.2756 75.9261 12.3631C75.7723 12.4507 75.6515 12.5786 75.5639 12.7467C75.4787 12.9124 75.4349 13.1124 75.4325 13.3468Z" fill="#383A62"/>
<path d="M81.8958 16.6032C81.5478 16.6032 81.2377 16.5428 80.9655 16.4221C80.6932 16.299 80.4778 16.1179 80.3191 15.8788C80.1629 15.6373 80.0848 15.3366 80.0848 14.9768C80.0848 14.6738 80.1404 14.4193 80.2517 14.2133C80.3629 14.0073 80.5145 13.8416 80.7062 13.7161C80.898 13.5907 81.1158 13.496 81.3596 13.432C81.6058 13.3681 81.8639 13.3231 82.1338 13.2971C82.451 13.264 82.7067 13.2332 82.9008 13.2048C83.0949 13.174 83.2358 13.129 83.3234 13.0698C83.411 13.0106 83.4548 12.923 83.4548 12.807V12.7857C83.4548 12.5608 83.3838 12.3868 83.2417 12.2637C83.102 12.1406 82.9032 12.0791 82.6451 12.0791C82.3729 12.0791 82.1563 12.1394 81.9953 12.2602C81.8343 12.3785 81.7278 12.5277 81.6757 12.7076L80.2765 12.594C80.3476 12.2625 80.4872 11.9761 80.6956 11.7346C80.9039 11.4908 81.1726 11.3037 81.5017 11.1735C81.8331 11.0409 82.2166 10.9747 82.6522 10.9747C82.9553 10.9747 83.2453 11.0102 83.5223 11.0812C83.8016 11.1522 84.049 11.2623 84.2645 11.4114C84.4823 11.5606 84.6539 11.7524 84.7794 11.9867C84.9048 12.2187 84.9676 12.4969 84.9676 12.8212V16.5002H83.5329V15.7438H83.4903C83.4027 15.9143 83.2855 16.0646 83.1387 16.1948C82.992 16.3227 82.8156 16.4233 82.6096 16.4967C82.4037 16.5677 82.1657 16.6032 81.8958 16.6032ZM82.3291 15.5592C82.5516 15.5592 82.7481 15.5154 82.9186 15.4278C83.089 15.3378 83.2228 15.2171 83.3199 15.0656C83.4169 14.914 83.4655 14.7424 83.4655 14.5506V13.9718C83.4181 14.0026 83.353 14.031 83.2701 14.057C83.1896 14.0807 83.0985 14.1032 82.9967 14.1245C82.8949 14.1435 82.7931 14.1612 82.6913 14.1778C82.5895 14.192 82.4972 14.205 82.4143 14.2168C82.2368 14.2429 82.0817 14.2843 81.9491 14.3411C81.8165 14.3979 81.7136 14.4749 81.6402 14.572C81.5668 14.6667 81.5301 14.785 81.5301 14.9271C81.5301 15.133 81.6047 15.2905 81.7538 15.3994C81.9053 15.5059 82.0971 15.5592 82.3291 15.5592Z" fill="#383A62"/>
<path d="M87.854 13.3468V16.5002H86.3412V11.0457H87.783V12.008H87.8469C87.9677 11.6908 88.1701 11.4399 88.4542 11.2552C88.7382 11.0682 89.0827 10.9747 89.4875 10.9747C89.8663 10.9747 90.1966 11.0575 90.4783 11.2232C90.76 11.389 90.979 11.6257 91.1353 11.9335C91.2915 12.2389 91.3696 12.6034 91.3696 13.0272V16.5002H89.8569V13.2971C89.8592 12.9633 89.774 12.7029 89.6012 12.5158C89.4284 12.3265 89.1904 12.2318 88.8874 12.2318C88.6838 12.2318 88.5039 12.2756 88.3476 12.3631C88.1937 12.4507 88.073 12.5786 87.9854 12.7467C87.9002 12.9124 87.8564 13.1124 87.854 13.3468Z" fill="#383A62"/>
<path d="M95.2264 16.6068C94.6677 16.6068 94.1871 16.4884 93.7847 16.2516C93.3846 16.0125 93.0768 15.6811 92.8614 15.2573C92.6483 14.8336 92.5418 14.3459 92.5418 13.7943C92.5418 13.2355 92.6495 12.7455 92.8649 12.3241C93.0827 11.9003 93.3917 11.5701 93.7918 11.3333C94.1919 11.0942 94.6677 10.9747 95.2193 10.9747C95.6952 10.9747 96.1118 11.0611 96.4693 11.2339C96.8268 11.4067 97.1097 11.6494 97.318 11.9619C97.5264 12.2744 97.6412 12.6413 97.6625 13.0627H96.2349C96.1947 12.7905 96.0882 12.5715 95.9153 12.4058C95.7449 12.2377 95.5212 12.1536 95.2442 12.1536C95.0098 12.1536 94.805 12.2176 94.6298 12.3454C94.457 12.4709 94.3221 12.6543 94.225 12.8958C94.1279 13.1373 94.0794 13.4297 94.0794 13.7729C94.0794 14.121 94.1268 14.4169 94.2214 14.6607C94.3185 14.9046 94.4546 15.0904 94.6298 15.2183C94.805 15.3461 95.0098 15.41 95.2442 15.41C95.417 15.41 95.5721 15.3745 95.7094 15.3035C95.8491 15.2325 95.9639 15.1295 96.0538 14.9945C96.1462 14.8572 96.2065 14.6927 96.2349 14.5009H97.6625C97.6388 14.9176 97.5252 15.2845 97.3216 15.6018C97.1204 15.9167 96.8422 16.1629 96.4871 16.3404C96.132 16.518 95.7117 16.6068 95.2264 16.6068Z" fill="#383A62"/>
<path d="M101.317 16.6068C100.756 16.6068 100.273 16.4931 99.868 16.2658C99.4655 16.0362 99.1554 15.7119 98.9376 15.2928C98.7198 14.8714 98.6109 14.3731 98.6109 13.7978C98.6109 13.2367 98.7198 12.7443 98.9376 12.3205C99.1554 11.8968 99.462 11.5665 99.8573 11.3298C100.255 11.093 100.721 10.9747 101.256 10.9747C101.616 10.9747 101.951 11.0327 102.261 11.1487C102.574 11.2623 102.846 11.4339 103.078 11.6636C103.313 11.8932 103.495 12.182 103.625 12.5301C103.755 12.8757 103.82 13.2805 103.82 13.7445V14.16H99.2146V13.2225H102.396C102.396 13.0047 102.349 12.8118 102.254 12.6437C102.16 12.4756 102.028 12.3442 101.86 12.2495C101.694 12.1524 101.502 12.1039 101.281 12.1039C101.052 12.1039 100.848 12.1572 100.671 12.2637C100.495 12.3679 100.358 12.5087 100.259 12.6863C100.159 12.8615 100.108 13.0568 100.106 13.2722V14.1636C100.106 14.4335 100.156 14.6667 100.255 14.8631C100.357 15.0596 100.5 15.2112 100.685 15.3177C100.869 15.4242 101.088 15.4775 101.342 15.4775C101.51 15.4775 101.664 15.4538 101.803 15.4065C101.943 15.3591 102.063 15.2881 102.162 15.1934C102.261 15.0987 102.337 14.9827 102.389 14.8454L103.788 14.9377C103.717 15.2739 103.572 15.5675 103.352 15.8184C103.134 16.067 102.852 16.2611 102.506 16.4008C102.163 16.5381 101.767 16.6068 101.317 16.6068Z" fill="#383A62"/>
<path d="M113.967 11.7737H112.412C112.384 11.5724 112.326 11.3937 112.238 11.2374C112.15 11.0788 112.038 10.9439 111.901 10.8326C111.763 10.7213 111.605 10.6361 111.425 10.5769C111.247 10.5177 111.054 10.4881 110.846 10.4881C110.47 10.4881 110.142 10.5817 109.862 10.7687C109.583 10.9533 109.366 11.2232 109.212 11.5783C109.059 11.9311 108.982 12.3596 108.982 12.8639C108.982 13.3823 109.059 13.8179 109.212 14.1707C109.369 14.5234 109.586 14.7898 109.866 14.9697C110.145 15.1496 110.468 15.2396 110.835 15.2396C111.041 15.2396 111.232 15.2123 111.407 15.1579C111.585 15.1034 111.742 15.0241 111.879 14.92C112.017 14.8134 112.13 14.6844 112.22 14.5329C112.313 14.3814 112.376 14.2086 112.412 14.0144L113.967 14.0215C113.927 14.3553 113.827 14.6773 113.666 14.9874C113.507 15.2952 113.293 15.571 113.023 15.8149C112.755 16.0563 112.436 16.2481 112.064 16.3901C111.695 16.5298 111.277 16.5997 110.81 16.5997C110.162 16.5997 109.582 16.4529 109.07 16.1593C108.561 15.8658 108.159 15.4408 107.863 14.8845C107.569 14.3281 107.423 13.6546 107.423 12.8639C107.423 12.0708 107.572 11.3961 107.87 10.8397C108.168 10.2834 108.573 9.8596 109.085 9.5684C109.596 9.27484 110.171 9.12806 110.81 9.12806C111.232 9.12806 111.622 9.18725 111.982 9.30562C112.345 9.42399 112.665 9.59681 112.945 9.82409C113.224 10.049 113.451 10.3248 113.626 10.6515C113.804 10.9782 113.918 11.3523 113.967 11.7737Z" fill="#383A62"/>
<path d="M117.706 16.6068C117.154 16.6068 116.677 16.4896 116.275 16.2552C115.875 16.0185 115.566 15.6894 115.348 15.268C115.13 14.8442 115.021 14.353 115.021 13.7943C115.021 13.2308 115.13 12.7384 115.348 12.317C115.566 11.8932 115.875 11.5641 116.275 11.3298C116.677 11.093 117.154 10.9747 117.706 10.9747C118.258 10.9747 118.734 11.093 119.134 11.3298C119.536 11.5641 119.846 11.8932 120.064 12.317C120.282 12.7384 120.391 13.2308 120.391 13.7943C120.391 14.353 120.282 14.8442 120.064 15.268C119.846 15.6894 119.536 16.0185 119.134 16.2552C118.734 16.4896 118.258 16.6068 117.706 16.6068ZM117.713 15.4349C117.964 15.4349 118.174 15.3639 118.342 15.2218C118.51 15.0774 118.637 14.8809 118.722 14.6323C118.809 14.3837 118.853 14.1008 118.853 13.7836C118.853 13.4664 118.809 13.1835 118.722 12.9349C118.637 12.6863 118.51 12.4898 118.342 12.3454C118.174 12.201 117.964 12.1288 117.713 12.1288C117.46 12.1288 117.247 12.201 117.074 12.3454C116.904 12.4898 116.775 12.6863 116.687 12.9349C116.602 13.1835 116.559 13.4664 116.559 13.7836C116.559 14.1008 116.602 14.3837 116.687 14.6323C116.775 14.8809 116.904 15.0774 117.074 15.2218C117.247 15.3639 117.46 15.4349 117.713 15.4349Z" fill="#383A62"/>
<path d="M125.072 14.1778V11.0457H126.585V16.5002H125.133V15.5095H125.076C124.953 15.8291 124.748 16.0859 124.462 16.2801C124.177 16.4742 123.831 16.5712 123.421 16.5712C123.056 16.5712 122.736 16.4884 122.459 16.3227C122.182 16.1569 121.965 15.9214 121.809 15.616C121.655 15.3106 121.577 14.9448 121.574 14.5187V11.0457H123.087V14.2488C123.09 14.5708 123.176 14.8253 123.346 15.0123C123.517 15.1993 123.745 15.2928 124.032 15.2928C124.214 15.2928 124.385 15.2514 124.543 15.1685C124.702 15.0833 124.83 14.9578 124.927 14.7921C125.026 14.6264 125.075 14.4216 125.072 14.1778Z" fill="#383A62"/>
<path d="M129.508 13.3468V16.5002H127.995V11.0457H129.437V12.008H129.501C129.622 11.6908 129.824 11.4399 130.108 11.2552C130.392 11.0682 130.737 10.9747 131.141 10.9747C131.52 10.9747 131.85 11.0575 132.132 11.2232C132.414 11.389 132.633 11.6257 132.789 11.9335C132.945 12.2389 133.024 12.6034 133.024 13.0272V16.5002H131.511V13.2971C131.513 12.9633 131.428 12.7029 131.255 12.5158C131.082 12.3265 130.844 12.2318 130.541 12.2318C130.338 12.2318 130.158 12.2756 130.002 12.3631C129.848 12.4507 129.727 12.5786 129.639 12.7467C129.554 12.9124 129.51 13.1124 129.508 13.3468Z" fill="#383A62"/>
<path d="M136.88 16.6068C136.322 16.6068 135.841 16.4884 135.439 16.2516C135.038 16.0125 134.731 15.6811 134.515 15.2573C134.302 14.8336 134.196 14.3459 134.196 13.7943C134.196 13.2355 134.303 12.7455 134.519 12.3241C134.737 11.9003 135.046 11.5701 135.446 11.3333C135.846 11.0942 136.322 10.9747 136.873 10.9747C137.349 10.9747 137.766 11.0611 138.123 11.2339C138.481 11.4067 138.764 11.6494 138.972 11.9619C139.18 12.2744 139.295 12.6413 139.316 13.0627H137.889C137.849 12.7905 137.742 12.5715 137.569 12.4058C137.399 12.2377 137.175 12.1536 136.898 12.1536C136.664 12.1536 136.459 12.2176 136.284 12.3454C136.111 12.4709 135.976 12.6543 135.879 12.8958C135.782 13.1373 135.733 13.4297 135.733 13.7729C135.733 14.121 135.781 14.4169 135.875 14.6607C135.972 14.9046 136.109 15.0904 136.284 15.2183C136.459 15.3461 136.664 15.41 136.898 15.41C137.071 15.41 137.226 15.3745 137.363 15.3035C137.503 15.2325 137.618 15.1295 137.708 14.9945C137.8 14.8572 137.86 14.6927 137.889 14.5009H139.316C139.293 14.9176 139.179 15.2845 138.975 15.6018C138.774 15.9167 138.496 16.1629 138.141 16.3404C137.786 16.518 137.366 16.6068 136.88 16.6068Z" fill="#383A62"/>
<path d="M140.485 16.5002V11.0457H141.998V16.5002H140.485ZM141.245 10.3426C141.02 10.3426 140.827 10.268 140.666 10.1188C140.507 9.96731 140.428 9.78621 140.428 9.57551C140.428 9.36717 140.507 9.18843 140.666 9.03928C140.827 8.88777 141.02 8.81201 141.245 8.81201C141.47 8.81201 141.662 8.88777 141.82 9.03928C141.981 9.18843 142.062 9.36717 142.062 9.57551C142.062 9.78621 141.981 9.96731 141.82 10.1188C141.662 10.268 141.47 10.3426 141.245 10.3426Z" fill="#383A62"/>
<path d="M144.922 9.22749V16.5002H143.41V9.22749H144.922Z" fill="#383A62"/>
<path d="M148.877 9.22749H150.773L152.776 14.1139H152.861L154.864 9.22749H156.761V16.5002H155.269V11.7666H155.209L153.327 16.4647H152.311L150.429 11.7488H150.369V16.5002H148.877V9.22749Z" fill="#383A62"/>
<path d="M160.685 16.6068C160.124 16.6068 159.641 16.4931 159.236 16.2658C158.834 16.0362 158.523 15.7119 158.306 15.2928C158.088 14.8714 157.979 14.3731 157.979 13.7978C157.979 13.2367 158.088 12.7443 158.306 12.3205C158.523 11.8968 158.83 11.5665 159.225 11.3298C159.623 11.093 160.089 10.9747 160.624 10.9747C160.984 10.9747 161.319 11.0327 161.629 11.1487C161.942 11.2623 162.214 11.4339 162.446 11.6636C162.681 11.8932 162.863 12.182 162.993 12.5301C163.123 12.8757 163.188 13.2805 163.188 13.7445V14.16H158.583V13.2225H161.764C161.764 13.0047 161.717 12.8118 161.622 12.6437C161.528 12.4756 161.396 12.3442 161.228 12.2495C161.062 12.1524 160.869 12.1039 160.649 12.1039C160.42 12.1039 160.216 12.1572 160.039 12.2637C159.863 12.3679 159.726 12.5087 159.627 12.6863C159.527 12.8615 159.476 13.0568 159.474 13.2722V14.1636C159.474 14.4335 159.524 14.6667 159.623 14.8631C159.725 15.0596 159.868 15.2112 160.053 15.3177C160.237 15.4242 160.456 15.4775 160.71 15.4775C160.878 15.4775 161.032 15.4538 161.171 15.4065C161.311 15.3591 161.431 15.2881 161.53 15.1934C161.629 15.0987 161.705 14.9827 161.757 14.8454L163.156 14.9377C163.085 15.2739 162.94 15.5675 162.72 15.8184C162.502 16.067 162.22 16.2611 161.874 16.4008C161.531 16.5381 161.135 16.6068 160.685 16.6068Z" fill="#383A62"/>
<path d="M164.376 16.5002V11.0457H165.817V12.008H165.881C165.995 11.6884 166.184 11.4363 166.449 11.2516C166.715 11.067 167.032 10.9747 167.401 10.9747C167.775 10.9747 168.094 11.0682 168.356 11.2552C168.619 11.4399 168.794 11.6908 168.882 12.008H168.939C169.05 11.6955 169.251 11.4458 169.543 11.2587C169.836 11.0694 170.183 10.9747 170.583 10.9747C171.092 10.9747 171.505 11.1368 171.822 11.4612C172.142 11.7831 172.302 12.24 172.302 12.8319V16.5002H170.793V13.1302C170.793 12.8272 170.712 12.5999 170.551 12.4484C170.39 12.2969 170.189 12.2211 169.947 12.2211C169.673 12.2211 169.458 12.3087 169.305 12.4839C169.151 12.6567 169.074 12.8852 169.074 13.1693V16.5002H167.607V13.0982C167.607 12.8307 167.53 12.6176 167.376 12.459C167.225 12.3004 167.025 12.2211 166.776 12.2211C166.608 12.2211 166.457 12.2637 166.322 12.3489C166.189 12.4318 166.084 12.549 166.006 12.7005C165.927 12.8497 165.888 13.0248 165.888 13.2261V16.5002H164.376Z" fill="#383A62"/>
<path d="M173.725 16.5002V9.22749H175.238V11.9619H175.284C175.35 11.8151 175.446 11.6659 175.572 11.5144C175.7 11.3605 175.865 11.2327 176.069 11.1309C176.275 11.0267 176.531 10.9747 176.836 10.9747C177.234 10.9747 177.601 11.0788 177.937 11.2872C178.273 11.4931 178.542 11.8044 178.743 12.2211C178.944 12.6354 179.045 13.1551 179.045 13.7801C179.045 14.3885 178.946 14.9022 178.75 15.3212C178.556 15.7379 178.291 16.054 177.955 16.2694C177.621 16.4825 177.247 16.589 176.832 16.589C176.539 16.589 176.289 16.5405 176.083 16.4434C175.879 16.3463 175.713 16.2244 175.582 16.0776C175.452 15.9285 175.353 15.7782 175.284 15.6266H175.217V16.5002H173.725ZM175.206 13.7729C175.206 14.0973 175.251 14.3802 175.341 14.6217C175.431 14.8631 175.561 15.0514 175.731 15.1863C175.902 15.3189 176.109 15.3852 176.353 15.3852C176.599 15.3852 176.807 15.3177 176.978 15.1828C177.148 15.0454 177.277 14.856 177.365 14.6146C177.455 14.3707 177.5 14.0902 177.5 13.7729C177.5 13.4581 177.456 13.1811 177.369 12.942C177.281 12.7029 177.152 12.5158 176.981 12.3809C176.811 12.246 176.602 12.1785 176.353 12.1785C176.107 12.1785 175.898 12.2436 175.728 12.3738C175.56 12.504 175.431 12.6887 175.341 12.9278C175.251 13.1669 175.206 13.4486 175.206 13.7729Z" fill="#383A62"/>
<path d="M182.74 16.6068C182.179 16.6068 181.696 16.4931 181.291 16.2658C180.889 16.0362 180.578 15.7119 180.361 15.2928C180.143 14.8714 180.034 14.3731 180.034 13.7978C180.034 13.2367 180.143 12.7443 180.361 12.3205C180.578 11.8968 180.885 11.5665 181.28 11.3298C181.678 11.093 182.145 10.9747 182.68 10.9747C183.039 10.9747 183.374 11.0327 183.685 11.1487C183.997 11.2623 184.269 11.4339 184.501 11.6636C184.736 11.8932 184.918 12.182 185.048 12.5301C185.178 12.8757 185.243 13.2805 185.243 13.7445V14.16H180.638V13.2225H183.819C183.819 13.0047 183.772 12.8118 183.677 12.6437C183.583 12.4756 183.451 12.3442 183.283 12.2495C183.118 12.1524 182.925 12.1039 182.704 12.1039C182.475 12.1039 182.271 12.1572 182.094 12.2637C181.918 12.3679 181.781 12.5087 181.682 12.6863C181.582 12.8615 181.531 13.0568 181.529 13.2722V14.1636C181.529 14.4335 181.579 14.6667 181.678 14.8631C181.78 15.0596 181.923 15.2112 182.108 15.3177C182.292 15.4242 182.511 15.4775 182.765 15.4775C182.933 15.4775 183.087 15.4538 183.226 15.4065C183.366 15.3591 183.486 15.2881 183.585 15.1934C183.685 15.0987 183.76 14.9827 183.812 14.8454L185.212 14.9377C185.14 15.2739 184.995 15.5675 184.775 15.8184C184.557 16.067 184.275 16.2611 183.93 16.4008C183.586 16.5381 183.19 16.6068 182.74 16.6068Z" fill="#383A62"/>
<path d="M186.431 16.5002V11.0457H187.897V11.9974H187.954C188.054 11.6588 188.22 11.4032 188.455 11.2303C188.689 11.0551 188.959 10.9676 189.264 10.9676C189.34 10.9676 189.422 10.9723 189.51 10.9818C189.597 10.9912 189.674 11.0042 189.74 11.0208V12.3631C189.669 12.3418 189.571 12.3229 189.446 12.3063C189.32 12.2898 189.205 12.2815 189.101 12.2815C188.879 12.2815 188.68 12.33 188.505 12.4271C188.332 12.5218 188.194 12.6543 188.093 12.8248C187.993 12.9953 187.943 13.1917 187.943 13.4143V16.5002H186.431Z" fill="#383A62"/>
</svg>
